<?xml version="1.0" encoding="UTF-8" standalone="no" ?>
<!DOCTYPE sesx>
<sesx version="1.9">

  <session appBuild="14.2.0.34" appVersion="14.2" audioChannelType="stereo" bitDepth="32" duration="10456216" sampleRate="48000">
    <tracks>
      <audioTrack automationLaneOpenState="false" id="10001" index="1" select="true" visible="true">
        <trackParameters trackHeight="157" trackHue="160" trackMinimized="false">
          <name>footstep</name>
        </trackParameters>
        <trackAudioParameters audioChannelType="stereo" automationMode="1" monitoring="false" recordArmed="false" solo="false" soloSafe="false">
          <trackOutput outputID="10000" type="trackID"/>
          <trackInput inputID="1"/>
          <component componentGuid="1a19aff8-7db9-4ab9-bc5a-832c004dd4f9" componentID="Audition.Fader" id="trackFader" name="volume" powered="true">
            <parameter index="0" name="volume" parameterValue="1"/>
            <parameter index="1" name="static gain" parameterValue="1"/>
          </component>
          <component componentGuid="57fe3674-6433-4422-8010-8b4687b2fced" componentID="Audition.Mute" id="trackMute" name="Mute" powered="true">
            <parameter index="0" parameterValue="0"/>
            <parameter index="1" name="mute" parameterValue="0"/>
          </component>
          <component componentGuid="321eddc7-4649-4f8d-9742-9e01a649c1f2" componentID="Audition.StereoPanner" id="trackPan" name="StereoPanner" powered="true">
            <parameter index="0" name="声像" parameterValue="0"/>
          </component>
          <component componentGuid="18736dcc-259f-4350-bf51-04f235e502eb" componentID="Audition.EQ" id="trackEQ" name="EQ" powered="false">
            <parameter index="0" name="下限频率" parameterValue="0.000834028352983295917510986328125"/>
            <parameter index="1" name="下限增益" parameterValue="0.5"/>
            <parameter index="2" name="上限频率" parameterValue="0.74979150295257568359375"/>
            <parameter index="3" name="上限频率增益" parameterValue="0.5"/>
            <parameter index="4" name="EQ 频段 1 中置频率" parameterValue="0.00125104258768260478973388671875"/>
            <parameter index="5" name="EQ 频段 1 Q" parameterValue="0.000199989997781813144683837890625"/>
            <parameter index="6" name="EQ 频段 1 增益" parameterValue="0.5"/>
            <parameter index="7" name="EQ 频段 1 启用" parameterValue="1"/>
            <parameter index="8" name="EQ 频段 2 中置频率" parameterValue="0.0075062550604343414306640625"/>
            <parameter index="9" name="EQ 频段 2 Q" parameterValue="0.000199989997781813144683837890625"/>
            <parameter index="10" name="EQ 频段 2 增益" parameterValue="0.5"/>
            <parameter index="11" name="EQ 频段 2 启用" parameterValue="1"/>
            <parameter index="12" name="EQ 频段 3 中置频率" parameterValue="0.0325271077454090118408203125"/>
            <parameter index="13" name="EQ 频段 3 Q" parameterValue="0.000199989997781813144683837890625"/>
            <parameter index="14" name="EQ 频段 3 增益" parameterValue="0.5"/>
            <parameter index="15" name="EQ 频段 3 启用" parameterValue="1"/>
            <parameter index="16" name="EQ 频段 4 中置频率" parameterValue="0.13261051476001739501953125"/>
            <parameter index="17" name="EQ 频段 4 Q" parameterValue="0.000199989997781813144683837890625"/>
            <parameter index="18" name="EQ 频段 4 增益" parameterValue="0.5"/>
            <parameter index="19" name="EQ 频段 4 启用" parameterValue="1"/>
            <parameter index="20" name="EQ 频段 5 中置频率" parameterValue="0.532944142818450927734375"/>
            <parameter index="21" name="EQ 频段 5 Q" parameterValue="0.000199989997781813144683837890625"/>
            <parameter index="22" name="EQ 频段 5 增益" parameterValue="0.5"/>
            <parameter index="23" name="EQ 频段 5 启用" parameterValue="1"/>
            <parameter index="24" name="增益" parameterValue="0.666666686534881591796875"/>
            <parameter index="25" name="恒定 Q" parameterValue="1"/>
            <parameter index="26" name="下限滤镜顺序" parameterValue="0"/>
            <parameter index="27" name="上限频率滤镜顺序" parameterValue="0"/>
            <parameter index="28" name="超静音模式" parameterValue="0"/>
            <parameter index="29" name="下限启用" parameterValue="1"/>
            <parameter index="30" name="上限频率启用" parameterValue="1"/>
            <parameter index="31" name="原始采样率" parameterValue="0.25"/>
            <parameter index="32" name="EQ 频段 1 频带宽" parameterValue="0.002499990165233612060546875"/>
            <parameter index="33" name="EQ 频段 2 频段宽度" parameterValue="0.0099999904632568359375"/>
            <parameter index="34" name="EQ 频段 3 频段宽度" parameterValue="0.0399999916553497314453125"/>
            <parameter index="35" name="EQ 频段 4 频段宽度" parameterValue="0.15999998152256011962890625"/>
            <parameter index="36" name="EQ 频段 5 频段宽度" parameterValue="0.63999998569488525390625"/>
            <parameter index="37" name="高通滤波启用" parameterValue="0"/>
            <parameter index="38" name="高通切除频率" parameterValue="0"/>
            <parameter index="39" name="高通斜率" parameterValue="0.4000000059604644775390625"/>
            <parameter index="40" name="低通滤波启用" parameterValue="0"/>
            <parameter index="41" name="低通切除频率" parameterValue="0.833194315433502197265625"/>
            <parameter index="42" name="低通斜率" parameterValue="0.4000000059604644775390625"/>
            <parameter index="43" name="不使用" parameterValue="0"/>
            <parameter index="44" name="下限图示范围" parameterValue="1"/>
          </component>
        </trackAudioParameters>
        <editParameter parameterIndex="0" slotIndex="4294967280"/>
        <audioClip clipAutoCrossfade="true" crossFadeHeadClipID="-1" crossFadeTailClipID="-1" endPoint="688499" fileID="0" hue="-1" id="0" lockedInTime="false" looped="false" name="walking-on-pavement" offline="false" select="false" sourceInPoint="0" sourceOutPoint="688499" startPoint="0" zOrder="0">
          <component componentGuid="3a3c887f-a887-4d70-b2ce-58870cdd59e2" componentID="Audition.Fader" id="clipGain" name="volume" powered="true">
            <parameter index="0" name="volume" parameterValue="0.092472396790981292724609375">
              <parameterKeyframes enableSplines="true" readOnly="false">
                <parameterKeyframe sampleOffset="0" select="false" type="linear" value="0"/>
                <parameterKeyframe sampleOffset="1" select="false" type="linear" value="0.2313846647739410400390625"/>
                <parameterKeyframe sampleOffset="75635" select="false" type="linear" value="0.173972189426422119140625"/>
                <parameterKeyframe sampleOffset="104513" select="true" type="linear" value="0.4031473696231842041015625"/>
                <parameterKeyframe sampleOffset="628879" select="false" type="linear" value="0.64999997615814208984375"/>
                <parameterKeyframe sampleOffset="687100" select="false" type="linear" value="0.2238409817218780517578125"/>
              </parameterKeyframes>
            </parameter>
            <parameter index="1" name="static gain" parameterValue="1"/>
          </component>
          <component componentGuid="170ee775-5ed6-4bc0-9ec4-7c7b92f5e61b" componentID="Audition.Mute" id="clipMute" name="Mute" powered="true">
            <parameter index="0" parameterValue="0"/>
            <parameter index="1" name="mute" parameterValue="0"/>
          </component>
          <component componentGuid="d36c42ab-6b74-4217-8506-0ddf7f05a8d0" componentID="Audition.StereoPanner" id="clipPan" name="StereoPanner" powered="true">
            <parameter index="0" name="声像" parameterValue="0"/>
          </component>
          <fadeIn crossFadeLinkType="linkedSymmetric" endPoint="0" shape="19" startPoint="0" type="log"/>
          <fadeOut crossFadeLinkType="linkedSymmetric" endPoint="688499" shape="19" startPoint="688499" type="log"/>
          <editParameter parameterIndex="0" slotIndex="4294967281"/>
          <editParameter parameterIndex="0" slotIndex="4294967280"/>
          <channelMap>
            <channel index="0" sourceIndex="0"/>
            <channel index="1" sourceIndex="1"/>
          </channelMap>
        </audioClip>
        <audioClip clipAutoCrossfade="true" crossFadeHeadClipID="-1" crossFadeTailClipID="-1" endPoint="724307" fileID="26" hue="-1" id="1" lockedInTime="false" looped="false" name="hit3 48000 1" offline="false" select="false" sourceInPoint="68088" sourceOutPoint="103896" startPoint="688499" zOrder="9">
          <component componentGuid="b736dc57-c9b2-4988-a758-9fcab424a27c" componentID="Audition.Fader" id="clipGain" name="volume" powered="true">
            <parameter index="0" name="volume" parameterValue="0.566092312335968017578125">
              <parameterKeyframes enableSplines="false" readOnly="false">
                <parameterKeyframe sampleOffset="68088" select="true" type="linear" value="0.4384476244449615478515625"/>
                <parameterKeyframe sampleOffset="85359" select="false" type="linear" value="1"/>
                <parameterKeyframe sampleOffset="103762" select="false" type="linear" value="0.503819882869720458984375"/>
              </parameterKeyframes>
            </parameter>
            <parameter index="1" name="static gain" parameterValue="1"/>
          </component>
          <component componentGuid="a92cdf44-cdf3-4aa4-92a2-bad1415752d8" componentID="Audition.Mute" id="clipMute" name="Mute" powered="true">
            <parameter index="0" parameterValue="0"/>
            <parameter index="1" name="mute" parameterValue="0"/>
          </component>
          <component componentGuid="2eeef828-7586-47ae-9dfd-068dc9d60f5b" componentID="Audition.StereoPanner" id="clipPan" name="StereoPanner" powered="true">
            <parameter index="0" name="声像" parameterValue="0"/>
          </component>
          <fadeIn crossFadeLinkType="linkedSymmetric" endPoint="0" shape="19" startPoint="0" type="log"/>
          <fadeOut crossFadeLinkType="linkedSymmetric" endPoint="35808" shape="19" startPoint="35808" type="log"/>
          <editParameter parameterIndex="0" slotIndex="4294967281"/>
          <editParameter parameterIndex="0" slotIndex="4294967280"/>
          <channelMap>
            <channel index="0" sourceIndex="0"/>
            <channel index="1" sourceIndex="1"/>
          </channelMap>
        </audioClip>
        <audioClip clipAutoCrossfade="true" crossFadeHeadClipID="-1" crossFadeTailClipID="-1" endPoint="1601225" fileID="0" hue="-1" id="2" lockedInTime="false" looped="false" name="walking-on-pavement" offline="false" select="false" sourceInPoint="669622" sourceOutPoint="1424552" startPoint="846295" zOrder="2">
          <component componentGuid="1fe242b3-709e-4b62-935c-748de7fedc57" componentID="Audition.Fader" id="clipGain" name="volume" powered="true">
            <parameter index="0" name="volume" parameterValue="0.4659697711467742919921875">
              <parameterKeyframes enableSplines="true" readOnly="false">
                <parameterKeyframe sampleOffset="720504" select="false" type="linear" value="0.06812883913516998291015625"/>
                <parameterKeyframe sampleOffset="771484" select="false" type="linear" value="0.27357685565948486328125"/>
                <parameterKeyframe sampleOffset="799190" select="false" type="linear" value="0.519643306732177734375"/>
                <parameterKeyframe sampleOffset="1424112" select="false" type="linear" value="0.4615987837314605712890625"/>
              </parameterKeyframes>
            </parameter>
            <parameter index="1" name="static gain" parameterValue="1"/>
          </component>
          <component componentGuid="03e20831-31b8-4bf0-811b-85cf87e7f2f2" componentID="Audition.Mute" id="clipMute" name="Mute" powered="true">
            <parameter index="0" parameterValue="0"/>
            <parameter index="1" name="mute" parameterValue="0"/>
          </component>
          <component componentGuid="6e12ac6b-7aac-43c6-abb5-e12a0c730c6a" componentID="Audition.StereoPanner" id="clipPan" name="StereoPanner" powered="true">
            <parameter index="0" name="声像" parameterValue="0"/>
          </component>
          <fadeIn crossFadeLinkType="linkedSymmetric" endPoint="0" shape="19" startPoint="0" type="log"/>
          <fadeOut crossFadeLinkType="linkedSymmetric" endPoint="754930" shape="19" startPoint="754930" type="log"/>
          <editParameter parameterIndex="0" slotIndex="4294967281"/>
          <editParameter parameterIndex="0" slotIndex="4294967280"/>
          <channelMap>
            <channel index="0" sourceIndex="0"/>
            <channel index="1" sourceIndex="1"/>
          </channelMap>
        </audioClip>
        <audioClip clipAutoCrossfade="true" crossFadeHeadClipID="-1" crossFadeTailClipID="-1" endPoint="1660524" fileID="25" hue="-1" id="3" lockedInTime="false" looped="false" name="hit1 48000 1" offline="false" select="false" sourceInPoint="104310" sourceOutPoint="163609" startPoint="1601225" zOrder="10">
          <component componentGuid="1e7c6065-0c67-4e4a-878a-7da58f031887" componentID="Audition.Fader" id="clipGain" name="volume" powered="true">
            <parameter index="0" name="volume" parameterValue="0.7576797008514404296875">
              <parameterKeyframes enableSplines="false" readOnly="false">
                <parameterKeyframe sampleOffset="104310" select="false" type="linear" value="0.525948047637939453125"/>
                <parameterKeyframe sampleOffset="117838" select="false" type="linear" value="1"/>
                <parameterKeyframe sampleOffset="161499" select="true" type="linear" value="0.574058711528778076171875"/>
              </parameterKeyframes>
            </parameter>
            <parameter index="1" name="static gain" parameterValue="1"/>
          </component>
          <component componentGuid="6c690c84-2d5f-48b0-8d1c-a669283c8af0" componentID="Audition.Mute" id="clipMute" name="Mute" powered="true">
            <parameter index="0" parameterValue="0"/>
            <parameter index="1" name="mute" parameterValue="0"/>
          </component>
          <component componentGuid="8e037775-8139-473c-be6a-e5fb6cb6300d" componentID="Audition.StereoPanner" id="clipPan" name="StereoPanner" powered="true">
            <parameter index="0" name="声像" parameterValue="0"/>
          </component>
          <fadeIn crossFadeLinkType="linkedSymmetric" endPoint="0" shape="19" startPoint="0" type="log"/>
          <fadeOut crossFadeLinkType="linkedSymmetric" endPoint="59299" shape="19" startPoint="59299" type="log"/>
          <editParameter parameterIndex="0" slotIndex="4294967281"/>
          <editParameter parameterIndex="0" slotIndex="4294967280"/>
          <channelMap>
            <channel index="0" sourceIndex="0"/>
            <channel index="1" sourceIndex="1"/>
          </channelMap>
        </audioClip>
        <audioClip clipAutoCrossfade="true" crossFadeHeadClipID="-1" crossFadeTailClipID="-1" endPoint="2532708" fileID="0" hue="-1" id="4" lockedInTime="false" looped="false" name="walking-on-pavement" offline="false" select="false" sourceInPoint="1432678" sourceOutPoint="2165675" startPoint="1799711" zOrder="1">
          <component componentGuid="bb6fda6c-5dda-4870-b881-946b35662fc3" componentID="Audition.Fader" id="clipGain" name="volume" powered="true">
            <parameter index="0" name="volume" parameterValue="0.4626648724079132080078125">
              <parameterKeyframes enableSplines="true" readOnly="false">
                <parameterKeyframe sampleOffset="1432678" select="false" type="linear" value="0"/>
                <parameterKeyframe sampleOffset="1432679" select="false" type="linear" value="0"/>
                <parameterKeyframe sampleOffset="1513310" select="false" type="linear" value="0.2317176759243011474609375"/>
                <parameterKeyframe sampleOffset="1604690" select="true" type="linear" value="0.46303236484527587890625"/>
              </parameterKeyframes>
            </parameter>
            <parameter index="1" name="static gain" parameterValue="1"/>
          </component>
          <component componentGuid="218eeda5-d1f7-4c66-8a14-72330c1b6284" componentID="Audition.Mute" id="clipMute" name="Mute" powered="true">
            <parameter index="0" parameterValue="0"/>
            <parameter index="1" name="mute" parameterValue="0"/>
          </component>
          <component componentGuid="c2284128-fd40-496d-8368-b4cd3d40776c" componentID="Audition.StereoPanner" id="clipPan" name="StereoPanner" powered="true">
            <parameter index="0" name="声像" parameterValue="0"/>
          </component>
          <fadeIn crossFadeLinkType="linkedSymmetric" endPoint="0" shape="19" startPoint="0" type="log"/>
          <fadeOut crossFadeLinkType="linkedSymmetric" endPoint="732997" shape="19" startPoint="732997" type="log"/>
          <editParameter parameterIndex="0" slotIndex="4294967281"/>
          <editParameter parameterIndex="0" slotIndex="4294967280"/>
          <channelMap>
            <channel index="0" sourceIndex="0"/>
            <channel index="1" sourceIndex="1"/>
          </channelMap>
        </audioClip>
        <audioClip clipAutoCrossfade="true" crossFadeHeadClipID="-1" crossFadeTailClipID="-1" endPoint="2557491" fileID="27" hue="-1" id="5" lockedInTime="false" looped="false" name="hit3 48000 2" offline="false" select="true" sourceInPoint="75221" sourceOutPoint="100004" startPoint="2532708" zOrder="12">
          <component componentGuid="80222152-4cf3-47db-918c-529a5c96d2bd" componentID="Audition.Fader" id="clipGain" name="volume" powered="true">
            <parameter index="0" name="volume" parameterValue="2.2723200321197509765625">
              <parameterKeyframes enableSplines="false" readOnly="false">
                <parameterKeyframe sampleOffset="43684" select="false" type="linear" value="0.46204698085784912109375"/>
                <parameterKeyframe sampleOffset="61987" select="false" type="linear" value="0.369648396968841552734375"/>
                <parameterKeyframe sampleOffset="66903" select="false" type="linear" value="0.430631339550018310546875"/>
                <parameterKeyframe sampleOffset="75221" select="false" type="linear" value="0.738955080509185791015625"/>
                <parameterKeyframe sampleOffset="84708" select="false" type="linear" value="1"/>
                <parameterKeyframe sampleOffset="100475" select="false" type="linear" value="0.84831726551055908203125"/>
                <parameterKeyframe sampleOffset="125227" select="false" type="linear" value="0.874968349933624267578125"/>
                <parameterKeyframe sampleOffset="135267" select="false" type="linear" value="0.990143954753875732421875"/>
                <parameterKeyframe sampleOffset="146666" select="true" type="linear" value="0"/>
              </parameterKeyframes>
            </parameter>
            <parameter index="1" name="static gain" parameterValue="1"/>
          </component>
          <component componentGuid="ef7fa681-9e7b-4eec-b72f-c7d13df99018" componentID="Audition.Mute" id="clipMute" name="Mute" powered="true">
            <parameter index="0" parameterValue="0"/>
            <parameter index="1" name="mute" parameterValue="0"/>
          </component>
          <component componentGuid="b8a5cacd-c430-47dd-a3bd-f7f9557920d4" componentID="Audition.StereoPanner" id="clipPan" name="StereoPanner" powered="true">
            <parameter index="0" name="声像" parameterValue="0"/>
          </component>
          <fadeIn crossFadeLinkType="linkedSymmetric" endPoint="0" shape="19" startPoint="0" type="log"/>
          <fadeOut crossFadeLinkType="linkedSymmetric" endPoint="24783" shape="19" startPoint="24783" type="log"/>
          <editParameter parameterIndex="0" slotIndex="4294967281"/>
          <editParameter parameterIndex="0" slotIndex="4294967280"/>
          <channelMap>
            <channel index="0" sourceIndex="0"/>
            <channel index="1" sourceIndex="1"/>
          </channelMap>
        </audioClip>
        <audioClip clipAutoCrossfade="true" crossFadeHeadClipID="-1" crossFadeTailClipID="-1" endPoint="2875601" fileID="1" hue="-1" id="6" lockedInTime="false" looped="false" name="run" offline="false" select="false" sourceInPoint="0" sourceOutPoint="185052" startPoint="2690549" zOrder="3">
          <component componentGuid="05e74c85-c27c-4aca-9a58-f2a9b25cb879" componentID="Audition.Fader" id="clipGain" name="volume" powered="true">
            <parameter index="0" name="volume" parameterValue="0.265180408954620361328125">
              <parameterKeyframes enableSplines="true" readOnly="false">
                <parameterKeyframe sampleOffset="0" select="false" type="linear" value="0.011515586636960506439208984375"/>
                <parameterKeyframe sampleOffset="49750" select="false" type="linear" value="0.18818752467632293701171875"/>
                <parameterKeyframe sampleOffset="127239" select="true" type="linear" value="0.388536989688873291015625"/>
              </parameterKeyframes>
            </parameter>
            <parameter index="1" name="static gain" parameterValue="1"/>
          </component>
          <component componentGuid="1d9d2d05-16ea-4b9d-9f79-b11259795e68" componentID="Audition.Mute" id="clipMute" name="Mute" powered="true">
            <parameter index="0" parameterValue="0"/>
            <parameter index="1" name="mute" parameterValue="0"/>
          </component>
          <component componentGuid="1779f647-46b8-4ce2-83fe-01c15196eb7a" componentID="Audition.StereoPanner" id="clipPan" name="StereoPanner" powered="true">
            <parameter index="0" name="声像" parameterValue="0"/>
          </component>
          <fadeIn crossFadeLinkType="linkedSymmetric" endPoint="0" shape="19" startPoint="0" type="log"/>
          <fadeOut crossFadeLinkType="linkedSymmetric" endPoint="185052" shape="19" startPoint="185052" type="log"/>
          <clipStretch adaptiveWindowSize="37" pitchAdjustment="0" preserveFormants="true" stretchMode="realtime" stretchQuality="high" stretchRatio="1.3031647441585330060576097821467556059360504150390625" stretchType="solo" transientSensitivity="40"/>
          <editParameter parameterIndex="0" slotIndex="4294967281"/>
          <editParameter parameterIndex="0" slotIndex="4294967280"/>
          <channelMap>
            <channel index="0" sourceIndex="0"/>
            <channel index="1" sourceIndex="1"/>
          </channelMap>
        </audioClip>
        <audioClip clipAutoCrossfade="true" crossFadeHeadClipID="-1" crossFadeTailClipID="-1" endPoint="3049393" fileID="1" hue="-1" id="7" lockedInTime="false" looped="false" name="run" offline="false" select="false" sourceInPoint="142002" sourceOutPoint="315794" startPoint="2875601" zOrder="4">
          <component componentGuid="15f2e82f-6d06-498f-91b0-18310c7e8c0f" componentID="Audition.Fader" id="clipGain" name="volume" powered="true">
            <parameter index="0" name="volume" parameterValue="0.29782474040985107421875">
              <parameterKeyframes enableSplines="true" readOnly="false">
                <parameterKeyframe sampleOffset="142002" select="false" type="linear" value="0.3278852403163909912109375"/>
                <parameterKeyframe sampleOffset="229775" select="false" type="linear" value="0.3654471337795257568359375"/>
                <parameterKeyframe sampleOffset="315794" select="true" type="linear" value="0.38003635406494140625"/>
              </parameterKeyframes>
            </parameter>
            <parameter index="1" name="static gain" parameterValue="1"/>
          </component>
          <component componentGuid="dba451f7-c501-4198-a3c6-eb5a6a5407ba" componentID="Audition.Mute" id="clipMute" name="Mute" powered="true">
            <parameter index="0" parameterValue="0"/>
            <parameter index="1" name="mute" parameterValue="0"/>
          </component>
          <component componentGuid="fa1fb3cb-ecea-40de-ab75-4fbceba42d21" componentID="Audition.StereoPanner" id="clipPan" name="StereoPanner" powered="true">
            <parameter index="0" name="声像" parameterValue="0"/>
          </component>
          <fadeIn crossFadeLinkType="linkedSymmetric" endPoint="0" shape="19" startPoint="0" type="log"/>
          <fadeOut crossFadeLinkType="linkedSymmetric" endPoint="173792" shape="19" startPoint="173792" type="log"/>
          <editParameter parameterIndex="0" slotIndex="4294967281"/>
          <editParameter parameterIndex="0" slotIndex="4294967280"/>
          <channelMap>
            <channel index="0" sourceIndex="0"/>
            <channel index="1" sourceIndex="1"/>
          </channelMap>
        </audioClip>
        <audioClip clipAutoCrossfade="true" crossFadeHeadClipID="-1" crossFadeTailClipID="-1" endPoint="3393423" fileID="1" hue="-1" id="8" lockedInTime="false" looped="false" name="run" offline="false" select="false" sourceInPoint="2469" sourceOutPoint="346499" startPoint="3049393" zOrder="5">
          <component componentGuid="06a3eb10-2d7f-4fde-b62d-914a185523eb" componentID="Audition.Fader" id="clipGain" name="volume" powered="true">
            <parameter index="0" name="volume" parameterValue="0.440407454967498779296875">
              <parameterKeyframes enableSplines="true" readOnly="false">
                <parameterKeyframe sampleOffset="2469" select="false" type="linear" value="0.3968353271484375"/>
                <parameterKeyframe sampleOffset="176066" select="false" type="linear" value="0.508232176303863525390625"/>
                <parameterKeyframe sampleOffset="304638" select="true" type="linear" value="0.544168889522552490234375"/>
                <parameterKeyframe sampleOffset="346499" select="false" type="linear" value="0.557293236255645751953125"/>
              </parameterKeyframes>
            </parameter>
            <parameter index="1" name="static gain" parameterValue="1"/>
          </component>
          <component componentGuid="c026ff16-d925-4e60-a127-2165d4800b50" componentID="Audition.Mute" id="clipMute" name="Mute" powered="true">
            <parameter index="0" parameterValue="0"/>
            <parameter index="1" name="mute" parameterValue="0"/>
          </component>
          <component componentGuid="f4eabbc7-17e8-4508-a65b-0ec16750ec65" componentID="Audition.StereoPanner" id="clipPan" name="StereoPanner" powered="true">
            <parameter index="0" name="声像" parameterValue="0"/>
          </component>
          <fadeIn crossFadeLinkType="linkedSymmetric" endPoint="0" shape="19" startPoint="0" type="log"/>
          <fadeOut crossFadeLinkType="linkedSymmetric" endPoint="344030" shape="19" startPoint="344030" type="log"/>
          <editParameter parameterIndex="0" slotIndex="4294967281"/>
          <editParameter parameterIndex="0" slotIndex="4294967280"/>
          <channelMap>
            <channel index="0" sourceIndex="0"/>
            <channel index="1" sourceIndex="1"/>
          </channelMap>
        </audioClip>
        <audioClip clipAutoCrossfade="true" crossFadeHeadClipID="-1" crossFadeTailClipID="-1" endPoint="3682869" fileID="1" hue="-1" id="9" lockedInTime="false" looped="false" name="run" offline="false" select="false" sourceInPoint="41017" sourceOutPoint="330463" startPoint="3393423" zOrder="6">
          <component componentGuid="1f1a800e-f1ae-418c-869f-5b78cb2c379d" componentID="Audition.Fader" id="clipGain" name="volume" powered="true">
            <parameter index="0" name="volume" parameterValue="0.69765722751617431640625"/>
            <parameter index="1" name="static gain" parameterValue="1"/>
          </component>
          <component componentGuid="c169e717-8a1c-4d99-9e23-187ebf65890f" componentID="Audition.Mute" id="clipMute" name="Mute" powered="true">
            <parameter index="0" parameterValue="0"/>
            <parameter index="1" name="mute" parameterValue="0"/>
          </component>
          <component componentGuid="8a911449-6641-49f9-b2c6-daacdcb60d3b" componentID="Audition.StereoPanner" id="clipPan" name="StereoPanner" powered="true">
            <parameter index="0" name="声像" parameterValue="0"/>
          </component>
          <fadeIn crossFadeLinkType="linkedSymmetric" endPoint="0" shape="19" startPoint="0" type="log"/>
          <fadeOut crossFadeLinkType="linkedSymmetric" endPoint="289446" shape="19" startPoint="289446" type="log"/>
          <editParameter parameterIndex="0" slotIndex="4294967281"/>
          <editParameter parameterIndex="0" slotIndex="4294967280"/>
          <channelMap>
            <channel index="0" sourceIndex="0"/>
            <channel index="1" sourceIndex="1"/>
          </channelMap>
        </audioClip>
        <audioClip clipAutoCrossfade="true" crossFadeHeadClipID="-1" crossFadeTailClipID="-1" endPoint="4030790" fileID="1" hue="-1" id="10" lockedInTime="false" looped="false" name="run" offline="false" select="false" sourceInPoint="28733" sourceOutPoint="376654" startPoint="3682869" zOrder="7">
          <component componentGuid="d5c4c52b-f1c3-438c-ab62-52a962e14c8b" componentID="Audition.Fader" id="clipGain" name="volume" powered="true">
            <parameter index="0" name="volume" parameterValue="0.702750682830810546875">
              <parameterKeyframes enableSplines="true" readOnly="false">
                <parameterKeyframe sampleOffset="28733" select="false" type="linear" value="0.558448374271392822265625"/>
                <parameterKeyframe sampleOffset="201139" select="false" type="linear" value="0.5003817081451416015625"/>
                <parameterKeyframe sampleOffset="372484" select="true" type="linear" value="0.3446585237979888916015625"/>
              </parameterKeyframes>
            </parameter>
            <parameter index="1" name="static gain" parameterValue="1"/>
          </component>
          <component componentGuid="f923ed84-d663-447b-94e6-6dc71bdbce05" componentID="Audition.Mute" id="clipMute" name="Mute" powered="true">
            <parameter index="0" parameterValue="0"/>
            <parameter index="1" name="mute" parameterValue="0"/>
          </component>
          <component componentGuid="8a6f751b-3080-428b-8188-2af449fb8023" componentID="Audition.StereoPanner" id="clipPan" name="StereoPanner" powered="true">
            <parameter index="0" name="声像" parameterValue="0"/>
          </component>
          <fadeIn crossFadeLinkType="linkedSymmetric" endPoint="0" shape="19" startPoint="0" type="log"/>
          <fadeOut crossFadeLinkType="linkedSymmetric" endPoint="347921" shape="19" startPoint="347921" type="log"/>
          <clipStretch adaptiveWindowSize="37" pitchAdjustment="0" preserveFormants="true" stretchMode="realtime" stretchQuality="high" stretchRatio="0.980871482298015795464607435860671103000640869140625" stretchType="solo" transientSensitivity="40"/>
          <editParameter parameterIndex="0" slotIndex="4294967281"/>
          <editParameter parameterIndex="0" slotIndex="4294967280"/>
          <channelMap>
            <channel index="0" sourceIndex="0"/>
            <channel index="1" sourceIndex="1"/>
          </channelMap>
        </audioClip>
        <audioClip clipAutoCrossfade="true" crossFadeHeadClipID="-1" crossFadeTailClipID="-1" endPoint="4719289" fileID="0" hue="-1" id="11" lockedInTime="false" looped="false" name="walking-on-pavement" offline="false" select="false" sourceInPoint="0" sourceOutPoint="688499" startPoint="4030790" zOrder="8">
          <component componentGuid="704f3b7b-41d9-40ec-bab2-f78bb06c3b33" componentID="Audition.Fader" id="clipGain" name="volume" powered="true">
            <parameter index="0" name="volume" parameterValue="0.122974269092082977294921875">
              <parameterKeyframes enableSplines="true" readOnly="false">
                <parameterKeyframe sampleOffset="0" select="false" type="linear" value="0.2543327808380126953125"/>
                <parameterKeyframe sampleOffset="74000" select="true" type="linear" value="0.24007467925548553466796875"/>
                <parameterKeyframe sampleOffset="104513" select="false" type="linear" value="0.4031473696231842041015625"/>
                <parameterKeyframe sampleOffset="652176" select="false" type="linear" value="0.50601947307586669921875"/>
                <parameterKeyframe sampleOffset="687100" select="false" type="linear" value="0.2238409817218780517578125"/>
              </parameterKeyframes>
            </parameter>
            <parameter index="1" name="static gain" parameterValue="1"/>
          </component>
          <component componentGuid="3635b92a-57bc-497b-a2ac-926d1ba5d243" componentID="Audition.Mute" id="clipMute" name="Mute" powered="true">
            <parameter index="0" parameterValue="0"/>
            <parameter index="1" name="mute" parameterValue="0"/>
          </component>
          <component componentGuid="6fa1923b-e1f2-4c4b-8c29-4f94a2e63d6c" componentID="Audition.StereoPanner" id="clipPan" name="StereoPanner" powered="true">
            <parameter index="0" name="声像" parameterValue="0"/>
          </component>
          <fadeIn crossFadeLinkType="linkedSymmetric" endPoint="0" shape="19" startPoint="0" type="log"/>
          <fadeOut crossFadeLinkType="linkedSymmetric" endPoint="688499" shape="19" startPoint="688499" type="log"/>
          <editParameter parameterIndex="0" slotIndex="4294967281"/>
          <editParameter parameterIndex="0" slotIndex="4294967280"/>
          <channelMap>
            <channel index="0" sourceIndex="0"/>
            <channel index="1" sourceIndex="1"/>
          </channelMap>
        </audioClip>
      </audioTrack>
      <audioTrack automationLaneOpenState="false" id="10002" index="2" select="false" visible="true">
        <trackParameters trackHeight="157" trackHue="267" trackMinimized="false">
          <name>breathing&amp;counting</name>
        </trackParameters>
        <trackAudioParameters audioChannelType="stereo" automationMode="1" monitoring="false" recordArmed="false" solo="false" soloSafe="false">
          <trackOutput outputID="10000" type="trackID"/>
          <trackInput inputID="1"/>
          <component componentGuid="621c690d-04f1-4d09-b08d-614ec2c389d4" componentID="Audition.Fader" id="trackFader" name="volume" powered="true">
            <parameter index="0" name="volume" parameterValue="1"/>
            <parameter index="1" name="static gain" parameterValue="1"/>
          </component>
          <component componentGuid="7fed87f7-5ef7-4bf1-b5b8-afc1f9062dbb" componentID="Audition.Mute" id="trackMute" name="Mute" powered="true">
            <parameter index="0" parameterValue="0"/>
            <parameter index="1" name="mute" parameterValue="1"/>
          </component>
          <component componentGuid="cc381546-45eb-4482-bb74-f41500119a6d" componentID="Audition.StereoPanner" id="trackPan" name="StereoPanner" powered="true">
            <parameter index="0" name="声像" parameterValue="0"/>
          </component>
          <component componentGuid="93eea9b3-5f28-44ea-8388-5e62f4dfba89" componentID="Audition.EQ" id="trackEQ" name="EQ" powered="false">
            <parameter index="0" name="下限频率" parameterValue="0.000834028352983295917510986328125"/>
            <parameter index="1" name="下限增益" parameterValue="0.5"/>
            <parameter index="2" name="上限频率" parameterValue="0.74979150295257568359375"/>
            <parameter index="3" name="上限频率增益" parameterValue="0.5"/>
            <parameter index="4" name="EQ 频段 1 中置频率" parameterValue="0.00125104258768260478973388671875"/>
            <parameter index="5" name="EQ 频段 1 Q" parameterValue="0.000199989997781813144683837890625"/>
            <parameter index="6" name="EQ 频段 1 增益" parameterValue="0.5"/>
            <parameter index="7" name="EQ 频段 1 启用" parameterValue="1"/>
            <parameter index="8" name="EQ 频段 2 中置频率" parameterValue="0.0075062550604343414306640625"/>
            <parameter index="9" name="EQ 频段 2 Q" parameterValue="0.000199989997781813144683837890625"/>
            <parameter index="10" name="EQ 频段 2 增益" parameterValue="0.5"/>
            <parameter index="11" name="EQ 频段 2 启用" parameterValue="1"/>
            <parameter index="12" name="EQ 频段 3 中置频率" parameterValue="0.0325271077454090118408203125"/>
            <parameter index="13" name="EQ 频段 3 Q" parameterValue="0.000199989997781813144683837890625"/>
            <parameter index="14" name="EQ 频段 3 增益" parameterValue="0.5"/>
            <parameter index="15" name="EQ 频段 3 启用" parameterValue="1"/>
            <parameter index="16" name="EQ 频段 4 中置频率" parameterValue="0.13261051476001739501953125"/>
            <parameter index="17" name="EQ 频段 4 Q" parameterValue="0.000199989997781813144683837890625"/>
            <parameter index="18" name="EQ 频段 4 增益" parameterValue="0.5"/>
            <parameter index="19" name="EQ 频段 4 启用" parameterValue="1"/>
            <parameter index="20" name="EQ 频段 5 中置频率" parameterValue="0.532944142818450927734375"/>
            <parameter index="21" name="EQ 频段 5 Q" parameterValue="0.000199989997781813144683837890625"/>
            <parameter index="22" name="EQ 频段 5 增益" parameterValue="0.5"/>
            <parameter index="23" name="EQ 频段 5 启用" parameterValue="1"/>
            <parameter index="24" name="增益" parameterValue="0.666666686534881591796875"/>
            <parameter index="25" name="恒定 Q" parameterValue="1"/>
            <parameter index="26" name="下限滤镜顺序" parameterValue="0"/>
            <parameter index="27" name="上限频率滤镜顺序" parameterValue="0"/>
            <parameter index="28" name="超静音模式" parameterValue="0"/>
            <parameter index="29" name="下限启用" parameterValue="1"/>
            <parameter index="30" name="上限频率启用" parameterValue="1"/>
            <parameter index="31" name="原始采样率" parameterValue="0.25"/>
            <parameter index="32" name="EQ 频段 1 频带宽" parameterValue="0.002499990165233612060546875"/>
            <parameter index="33" name="EQ 频段 2 频段宽度" parameterValue="0.0099999904632568359375"/>
            <parameter index="34" name="EQ 频段 3 频段宽度" parameterValue="0.0399999916553497314453125"/>
            <parameter index="35" name="EQ 频段 4 频段宽度" parameterValue="0.15999998152256011962890625"/>
            <parameter index="36" name="EQ 频段 5 频段宽度" parameterValue="0.63999998569488525390625"/>
            <parameter index="37" name="高通滤波启用" parameterValue="0"/>
            <parameter index="38" name="高通切除频率" parameterValue="0"/>
            <parameter index="39" name="高通斜率" parameterValue="0.4000000059604644775390625"/>
            <parameter index="40" name="低通滤波启用" parameterValue="0"/>
            <parameter index="41" name="低通切除频率" parameterValue="0.833194315433502197265625"/>
            <parameter index="42" name="低通斜率" parameterValue="0.4000000059604644775390625"/>
            <parameter index="43" name="不使用" parameterValue="0"/>
            <parameter index="44" name="下限图示范围" parameterValue="1"/>
          </component>
        </trackAudioParameters>
        <editParameter parameterIndex="0" slotIndex="4294967280"/>
        <audioClip clipAutoCrossfade="true" crossFadeHeadClipID="-1" crossFadeTailClipID="-1" endPoint="708440" fileID="2" hue="-1" id="0" lockedInTime="false" looped="false" name="counting1 48000 2" offline="false" select="false" sourceInPoint="0" sourceOutPoint="708440" startPoint="0" zOrder="0">
          <component componentGuid="30ad5d11-71a5-4c64-8da3-7532d0a6a11e" componentID="Audition.Fader" id="clipGain" name="volume" powered="true">
            <parameter index="0" name="volume" parameterValue="1.5791542530059814453125">
              <parameterKeyframes enableSplines="false" readOnly="false">
                <parameterKeyframe sampleOffset="2313" select="true" type="linear" value="0.76960813999176025390625"/>
                <parameterKeyframe sampleOffset="32380" select="false" type="linear" value="0.84849834442138671875"/>
                <parameterKeyframe sampleOffset="64760" select="false" type="linear" value="0.770246088504791259765625"/>
              </parameterKeyframes>
            </parameter>
            <parameter index="1" name="static gain" parameterValue="1"/>
          </component>
          <component componentGuid="79c3f46d-2802-4d1b-b641-dca2a3aa678f" componentID="Audition.Mute" id="clipMute" name="Mute" powered="true">
            <parameter index="0" parameterValue="0"/>
            <parameter index="1" name="mute" parameterValue="0"/>
          </component>
          <component componentGuid="c1f888b2-ea69-406a-9ce2-a8a96c637c92" componentID="Audition.StereoPanner" id="clipPan" name="StereoPanner" powered="true">
            <parameter index="0" name="声像" parameterValue="0"/>
          </component>
          <fadeIn crossFadeLinkType="linkedSymmetric" endPoint="0" shape="19" startPoint="0" type="log"/>
          <fadeOut crossFadeLinkType="linkedSymmetric" endPoint="708440" shape="19" startPoint="708440" type="log"/>
          <editParameter parameterIndex="0" slotIndex="4294967281"/>
          <editParameter parameterIndex="0" slotIndex="4294967280"/>
          <channelMap>
            <channel index="0" sourceIndex="0"/>
            <channel index="1" sourceIndex="1"/>
          </channelMap>
        </audioClip>
        <audioClip clipAutoCrossfade="true" crossFadeHeadClipID="-1" crossFadeTailClipID="-1" endPoint="1611912" fileID="3" hue="-1" id="1" lockedInTime="false" looped="false" name="counting2 48000 2" offline="false" select="false" sourceInPoint="0" sourceOutPoint="714735" startPoint="897177" zOrder="2">
          <component componentGuid="951febb3-5ea7-4bb1-a0ba-57cf2d938a8a" componentID="Audition.Fader" id="clipGain" name="volume" powered="true">
            <parameter index="0" name="volume" parameterValue="2.1447470188140869140625">
              <parameterKeyframes enableSplines="false" readOnly="false">
                <parameterKeyframe sampleOffset="478832" select="false" type="linear" value="0.768955767154693603515625"/>
                <parameterKeyframe sampleOffset="561177" select="false" type="linear" value="0.838099181652069091796875"/>
              </parameterKeyframes>
            </parameter>
            <parameter index="1" name="static gain" parameterValue="1"/>
          </component>
          <component componentGuid="bdc97b35-9c5c-4014-b2be-a5e6126635a6" componentID="Audition.Mute" id="clipMute" name="Mute" powered="true">
            <parameter index="0" parameterValue="0"/>
            <parameter index="1" name="mute" parameterValue="0"/>
          </component>
          <component componentGuid="f29e1ef0-0bfe-47f4-97a9-3e07cf6fb048" componentID="Audition.StereoPanner" id="clipPan" name="StereoPanner" powered="true">
            <parameter index="0" name="声像" parameterValue="0"/>
          </component>
          <fadeIn crossFadeLinkType="linkedSymmetric" endPoint="0" shape="19" startPoint="0" type="log"/>
          <fadeOut crossFadeLinkType="linkedSymmetric" endPoint="714735" shape="19" startPoint="714735" type="log"/>
          <clipStretch adaptiveWindowSize="37" pitchAdjustment="0" preserveFormants="true" stretchMode="realtime" stretchQuality="high" stretchRatio="1.114530444979478840394904182176105678081512451171875" stretchType="solo" transientSensitivity="40"/>
          <editParameter parameterIndex="0" slotIndex="4294967281"/>
          <editParameter parameterIndex="0" slotIndex="4294967280"/>
          <channelMap>
            <channel index="0" sourceIndex="0"/>
            <channel index="1" sourceIndex="1"/>
          </channelMap>
        </audioClip>
        <audioClip clipAutoCrossfade="true" crossFadeHeadClipID="-1" crossFadeTailClipID="-1" endPoint="2547414" fileID="4" hue="-1" id="2" lockedInTime="false" looped="false" name="counting3 48000 1" offline="false" select="false" sourceInPoint="0" sourceOutPoint="747703" startPoint="1799711" zOrder="1">
          <component componentGuid="e3b9b30d-be1e-4afd-ba40-ebc7f93d2d15" componentID="Audition.Fader" id="clipGain" name="volume" powered="true">
            <parameter index="0" name="volume" parameterValue="2.817819118499755859375">
              <parameterKeyframes enableSplines="false" readOnly="false">
                <parameterKeyframe sampleOffset="176378" select="false" type="linear" value="0.767719566822052001953125"/>
                <parameterKeyframe sampleOffset="228078" select="false" type="linear" value="0.91137301921844482421875"/>
                <parameterKeyframe sampleOffset="308501" select="false" type="linear" value="0.9069988727569580078125"/>
                <parameterKeyframe sampleOffset="363073" select="false" type="linear" value="0.824080526828765869140625"/>
                <parameterKeyframe sampleOffset="542587" select="false" type="linear" value="0.922252476215362548828125"/>
                <parameterKeyframe sampleOffset="644564" select="true" type="linear" value="0.89123189449310302734375"/>
              </parameterKeyframes>
            </parameter>
            <parameter index="1" name="static gain" parameterValue="1"/>
          </component>
          <component componentGuid="6dab5878-2ebc-4ef1-8806-dbe6b1985456" componentID="Audition.Mute" id="clipMute" name="Mute" powered="true">
            <parameter index="0" parameterValue="0"/>
            <parameter index="1" name="mute" parameterValue="0"/>
          </component>
          <component componentGuid="4b16d877-8a0c-4e79-b45e-0e307af600fd" componentID="Audition.StereoPanner" id="clipPan" name="StereoPanner" powered="true">
            <parameter index="0" name="声像" parameterValue="0"/>
          </component>
          <fadeIn crossFadeLinkType="linkedSymmetric" endPoint="0" shape="19" startPoint="0" type="log"/>
          <fadeOut crossFadeLinkType="linkedSymmetric" endPoint="747703" shape="19" startPoint="747703" type="log"/>
          <editParameter parameterIndex="0" slotIndex="4294967281"/>
          <editParameter parameterIndex="0" slotIndex="4294967280"/>
          <channelMap>
            <channel index="0" sourceIndex="0"/>
            <channel index="1" sourceIndex="1"/>
          </channelMap>
        </audioClip>
        <audioClip clipAutoCrossfade="true" crossFadeHeadClipID="-1" crossFadeTailClipID="-1" endPoint="5402903" fileID="5" hue="-1" id="3" lockedInTime="false" looped="false" name="breathing 48000 2" offline="false" select="false" sourceInPoint="234515" sourceOutPoint="2712354" startPoint="2925064" zOrder="3">
          <component componentGuid="65446726-cea2-45f8-b7e9-bc2284848e40" componentID="Audition.Fader" id="clipGain" name="volume" powered="true">
            <parameter index="0" name="volume" parameterValue="1.9860477447509765625">
              <parameterKeyframes enableSplines="false" readOnly="false">
                <parameterKeyframe sampleOffset="234515" select="true" type="linear" value="0.77215874195098876953125"/>
                <parameterKeyframe sampleOffset="1131950" select="false" type="linear" value="0.986122071743011474609375"/>
              </parameterKeyframes>
            </parameter>
            <parameter index="1" name="static gain" parameterValue="1"/>
          </component>
          <component componentGuid="a50a133d-dfc0-4ab4-92a2-043349675a67" componentID="Audition.Mute" id="clipMute" name="Mute" powered="true">
            <parameter index="0" parameterValue="0"/>
            <parameter index="1" name="mute" parameterValue="0"/>
          </component>
          <component componentGuid="7dda7f30-f851-4a29-b667-93407ff91a59" componentID="Audition.StereoPanner" id="clipPan" name="StereoPanner" powered="true">
            <parameter index="0" name="声像" parameterValue="0"/>
          </component>
          <fadeIn crossFadeLinkType="linkedSymmetric" endPoint="0" shape="19" startPoint="0" type="log"/>
          <fadeOut crossFadeLinkType="linkedSymmetric" endPoint="2477839" shape="19" startPoint="2477839" type="log"/>
          <editParameter parameterIndex="0" slotIndex="4294967281"/>
          <editParameter parameterIndex="0" slotIndex="4294967280"/>
          <channelMap>
            <channel index="0" sourceIndex="0"/>
            <channel index="1" sourceIndex="1"/>
          </channelMap>
        </audioClip>
      </audioTrack>
      <audioTrack automationLaneOpenState="false" id="10025" index="3" select="false" visible="true">
        <trackParameters trackHeight="157" trackHue="267" trackMinimized="false">
          <name>breathing</name>
        </trackParameters>
        <trackAudioParameters audioChannelType="stereo" automationMode="1" monitoring="false" recordArmed="false" solo="false" soloSafe="false">
          <trackOutput outputID="10000" type="trackID"/>
          <trackInput inputID="1"/>
          <component componentGuid="23216d0b-7ee9-4720-ba15-85905a5dde9e" componentID="Audition.Fader" id="trackFader" name="volume" powered="true">
            <parameter index="0" name="volume" parameterValue="1"/>
            <parameter index="1" name="static gain" parameterValue="1"/>
          </component>
          <component componentGuid="05a5cce4-feeb-4144-9687-609a6ccdfe2a" componentID="Audition.Mute" id="trackMute" name="Mute" powered="true">
            <parameter index="0" parameterValue="0"/>
            <parameter index="1" name="mute" parameterValue="0"/>
          </component>
          <component componentGuid="23499e71-78e7-4d38-b930-df3702551e13" componentID="Audition.StereoPanner" id="trackPan" name="StereoPanner" powered="true">
            <parameter index="0" name="声像" parameterValue="0"/>
          </component>
          <component componentGuid="9c47dc5e-c3e8-4bee-8119-69c105e5f127" componentID="Audition.EQ" id="trackEQ" name="EQ" powered="false">
            <parameter index="0" name="下限频率" parameterValue="0.000834028352983295917510986328125"/>
            <parameter index="1" name="下限增益" parameterValue="0.5"/>
            <parameter index="2" name="上限频率" parameterValue="0.74979150295257568359375"/>
            <parameter index="3" name="上限频率增益" parameterValue="0.5"/>
            <parameter index="4" name="EQ 频段 1 中置频率" parameterValue="0.00125104258768260478973388671875"/>
            <parameter index="5" name="EQ 频段 1 Q" parameterValue="0.000199989997781813144683837890625"/>
            <parameter index="6" name="EQ 频段 1 增益" parameterValue="0.5"/>
            <parameter index="7" name="EQ 频段 1 启用" parameterValue="1"/>
            <parameter index="8" name="EQ 频段 2 中置频率" parameterValue="0.0075062550604343414306640625"/>
            <parameter index="9" name="EQ 频段 2 Q" parameterValue="0.000199989997781813144683837890625"/>
            <parameter index="10" name="EQ 频段 2 增益" parameterValue="0.5"/>
            <parameter index="11" name="EQ 频段 2 启用" parameterValue="1"/>
            <parameter index="12" name="EQ 频段 3 中置频率" parameterValue="0.0325271077454090118408203125"/>
            <parameter index="13" name="EQ 频段 3 Q" parameterValue="0.000199989997781813144683837890625"/>
            <parameter index="14" name="EQ 频段 3 增益" parameterValue="0.5"/>
            <parameter index="15" name="EQ 频段 3 启用" parameterValue="1"/>
            <parameter index="16" name="EQ 频段 4 中置频率" parameterValue="0.13261051476001739501953125"/>
            <parameter index="17" name="EQ 频段 4 Q" parameterValue="0.000199989997781813144683837890625"/>
            <parameter index="18" name="EQ 频段 4 增益" parameterValue="0.5"/>
            <parameter index="19" name="EQ 频段 4 启用" parameterValue="1"/>
            <parameter index="20" name="EQ 频段 5 中置频率" parameterValue="0.532944142818450927734375"/>
            <parameter index="21" name="EQ 频段 5 Q" parameterValue="0.000199989997781813144683837890625"/>
            <parameter index="22" name="EQ 频段 5 增益" parameterValue="0.5"/>
            <parameter index="23" name="EQ 频段 5 启用" parameterValue="1"/>
            <parameter index="24" name="增益" parameterValue="0.666666686534881591796875"/>
            <parameter index="25" name="恒定 Q" parameterValue="1"/>
            <parameter index="26" name="下限滤镜顺序" parameterValue="0"/>
            <parameter index="27" name="上限频率滤镜顺序" parameterValue="0"/>
            <parameter index="28" name="超静音模式" parameterValue="0"/>
            <parameter index="29" name="下限启用" parameterValue="1"/>
            <parameter index="30" name="上限频率启用" parameterValue="1"/>
            <parameter index="31" name="原始采样率" parameterValue="0.25"/>
            <parameter index="32" name="EQ 频段 1 频带宽" parameterValue="0.002499990165233612060546875"/>
            <parameter index="33" name="EQ 频段 2 频段宽度" parameterValue="0.0099999904632568359375"/>
            <parameter index="34" name="EQ 频段 3 频段宽度" parameterValue="0.0399999916553497314453125"/>
            <parameter index="35" name="EQ 频段 4 频段宽度" parameterValue="0.15999998152256011962890625"/>
            <parameter index="36" name="EQ 频段 5 频段宽度" parameterValue="0.63999998569488525390625"/>
            <parameter index="37" name="高通滤波启用" parameterValue="0"/>
            <parameter index="38" name="高通切除频率" parameterValue="0"/>
            <parameter index="39" name="高通斜率" parameterValue="0.4000000059604644775390625"/>
            <parameter index="40" name="低通滤波启用" parameterValue="0"/>
            <parameter index="41" name="低通切除频率" parameterValue="0.833194315433502197265625"/>
            <parameter index="42" name="低通斜率" parameterValue="0.4000000059604644775390625"/>
            <parameter index="43" name="不使用" parameterValue="0"/>
            <parameter index="44" name="下限图示范围" parameterValue="1"/>
          </component>
        </trackAudioParameters>
        <editParameter parameterIndex="0" slotIndex="4294967280"/>
        <audioClip clipAutoCrossfade="true" crossFadeHeadClipID="-1" crossFadeTailClipID="-1" endPoint="5402903" fileID="5" hue="-1" id="0" lockedInTime="false" looped="false" name="breathing 48000 2" offline="false" select="false" sourceInPoint="234515" sourceOutPoint="2712354" startPoint="2925064" zOrder="0">
          <component componentGuid="d2ac1588-870d-4e19-b612-0308ca7b4637" componentID="Audition.Fader" id="clipGain" name="volume" powered="true">
            <parameter index="0" name="volume" parameterValue="1.9860477447509765625">
              <parameterKeyframes enableSplines="false" readOnly="false">
                <parameterKeyframe sampleOffset="234515" select="true" type="linear" value="0.77215874195098876953125"/>
                <parameterKeyframe sampleOffset="1131950" select="false" type="linear" value="0.986122071743011474609375"/>
              </parameterKeyframes>
            </parameter>
            <parameter index="1" name="static gain" parameterValue="1"/>
          </component>
          <component componentGuid="f48df757-b0fc-4065-ae3e-7199746b0373" componentID="Audition.Mute" id="clipMute" name="Mute" powered="true">
            <parameter index="0" parameterValue="0"/>
            <parameter index="1" name="mute" parameterValue="0"/>
          </component>
          <component componentGuid="5ae581dd-d2ca-4b55-8f1e-0d626dca8fe7" componentID="Audition.StereoPanner" id="clipPan" name="StereoPanner" powered="true">
            <parameter index="0" name="声像" parameterValue="0"/>
          </component>
          <fadeIn crossFadeLinkType="linkedSymmetric" endPoint="0" shape="19" startPoint="0" type="log"/>
          <fadeOut crossFadeLinkType="linkedSymmetric" endPoint="2477839" shape="19" startPoint="2477839" type="log"/>
          <editParameter parameterIndex="0" slotIndex="4294967281"/>
          <editParameter parameterIndex="0" slotIndex="4294967280"/>
          <channelMap>
            <channel index="0" sourceIndex="0"/>
            <channel index="1" sourceIndex="1"/>
          </channelMap>
        </audioClip>
      </audioTrack>
      <audioTrack automationLaneOpenState="false" id="10024" index="4" select="false" visible="true">
        <trackParameters trackHeight="157" trackHue="267" trackMinimized="false">
          <name>counting</name>
        </trackParameters>
        <trackAudioParameters audioChannelType="stereo" automationMode="1" monitoring="false" recordArmed="false" solo="false" soloSafe="false">
          <trackOutput outputID="10000" type="trackID"/>
          <trackInput inputID="1"/>
          <component componentGuid="95b5c48c-e307-4f8b-8cf0-c79decfe869b" componentID="Audition.Fader" id="trackFader" name="volume" powered="true">
            <parameter index="0" name="volume" parameterValue="2.5409729480743408203125"/>
            <parameter index="1" name="static gain" parameterValue="1"/>
          </component>
          <component componentGuid="93907cf9-c77a-4399-aed4-6b849a18b397" componentID="Audition.Mute" id="trackMute" name="Mute" powered="true">
            <parameter index="0" parameterValue="0"/>
            <parameter index="1" name="mute" parameterValue="0"/>
          </component>
          <component componentGuid="5de63c5d-e9db-4774-afb1-419a0558f60e" componentID="Audition.StereoPanner" id="trackPan" name="StereoPanner" powered="true">
            <parameter index="0" name="声像" parameterValue="0"/>
          </component>
          <component componentGuid="7b9aebe6-c66a-4007-a952-7ca433dd3cbd" componentID="Audition.EQ" id="trackEQ" name="EQ" powered="false">
            <parameter index="0" name="下限频率" parameterValue="0.000834028352983295917510986328125"/>
            <parameter index="1" name="下限增益" parameterValue="0.5"/>
            <parameter index="2" name="上限频率" parameterValue="0.74979150295257568359375"/>
            <parameter index="3" name="上限频率增益" parameterValue="0.5"/>
            <parameter index="4" name="EQ 频段 1 中置频率" parameterValue="0.00125104258768260478973388671875"/>
            <parameter index="5" name="EQ 频段 1 Q" parameterValue="0.000199989997781813144683837890625"/>
            <parameter index="6" name="EQ 频段 1 增益" parameterValue="0.5"/>
            <parameter index="7" name="EQ 频段 1 启用" parameterValue="1"/>
            <parameter index="8" name="EQ 频段 2 中置频率" parameterValue="0.0075062550604343414306640625"/>
            <parameter index="9" name="EQ 频段 2 Q" parameterValue="0.000199989997781813144683837890625"/>
            <parameter index="10" name="EQ 频段 2 增益" parameterValue="0.5"/>
            <parameter index="11" name="EQ 频段 2 启用" parameterValue="1"/>
            <parameter index="12" name="EQ 频段 3 中置频率" parameterValue="0.0325271077454090118408203125"/>
            <parameter index="13" name="EQ 频段 3 Q" parameterValue="0.000199989997781813144683837890625"/>
            <parameter index="14" name="EQ 频段 3 增益" parameterValue="0.5"/>
            <parameter index="15" name="EQ 频段 3 启用" parameterValue="1"/>
            <parameter index="16" name="EQ 频段 4 中置频率" parameterValue="0.13261051476001739501953125"/>
            <parameter index="17" name="EQ 频段 4 Q" parameterValue="0.000199989997781813144683837890625"/>
            <parameter index="18" name="EQ 频段 4 增益" parameterValue="0.5"/>
            <parameter index="19" name="EQ 频段 4 启用" parameterValue="1"/>
            <parameter index="20" name="EQ 频段 5 中置频率" parameterValue="0.532944142818450927734375"/>
            <parameter index="21" name="EQ 频段 5 Q" parameterValue="0.000199989997781813144683837890625"/>
            <parameter index="22" name="EQ 频段 5 增益" parameterValue="0.5"/>
            <parameter index="23" name="EQ 频段 5 启用" parameterValue="1"/>
            <parameter index="24" name="增益" parameterValue="0.666666686534881591796875"/>
            <parameter index="25" name="恒定 Q" parameterValue="1"/>
            <parameter index="26" name="下限滤镜顺序" parameterValue="0"/>
            <parameter index="27" name="上限频率滤镜顺序" parameterValue="0"/>
            <parameter index="28" name="超静音模式" parameterValue="0"/>
            <parameter index="29" name="下限启用" parameterValue="1"/>
            <parameter index="30" name="上限频率启用" parameterValue="1"/>
            <parameter index="31" name="原始采样率" parameterValue="0.25"/>
            <parameter index="32" name="EQ 频段 1 频带宽" parameterValue="0.002499990165233612060546875"/>
            <parameter index="33" name="EQ 频段 2 频段宽度" parameterValue="0.0099999904632568359375"/>
            <parameter index="34" name="EQ 频段 3 频段宽度" parameterValue="0.0399999916553497314453125"/>
            <parameter index="35" name="EQ 频段 4 频段宽度" parameterValue="0.15999998152256011962890625"/>
            <parameter index="36" name="EQ 频段 5 频段宽度" parameterValue="0.63999998569488525390625"/>
            <parameter index="37" name="高通滤波启用" parameterValue="0"/>
            <parameter index="38" name="高通切除频率" parameterValue="0"/>
            <parameter index="39" name="高通斜率" parameterValue="0.4000000059604644775390625"/>
            <parameter index="40" name="低通滤波启用" parameterValue="0"/>
            <parameter index="41" name="低通切除频率" parameterValue="0.833194315433502197265625"/>
            <parameter index="42" name="低通斜率" parameterValue="0.4000000059604644775390625"/>
            <parameter index="43" name="不使用" parameterValue="0"/>
            <parameter index="44" name="下限图示范围" parameterValue="1"/>
          </component>
        </trackAudioParameters>
        <editParameter parameterIndex="0" slotIndex="4294967280"/>
        <audioClip clipAutoCrossfade="true" crossFadeHeadClipID="-1" crossFadeTailClipID="-1" endPoint="708440" fileID="6" hue="-1" id="0" lockedInTime="false" looped="false" name="count1 48000 2" offline="false" select="false" sourceInPoint="12731" sourceOutPoint="721171" startPoint="0" zOrder="0">
          <component componentGuid="1564bdb1-b56f-4e34-9057-5138c7a71bfa" componentID="Audition.Fader" id="clipGain" name="volume" powered="true">
            <parameter index="0" name="volume" parameterValue="1"/>
            <parameter index="1" name="static gain" parameterValue="1"/>
          </component>
          <component componentGuid="d0e5e35c-f330-4846-9b18-b14ded53c7c3" componentID="Audition.Mute" id="clipMute" name="Mute" powered="true">
            <parameter index="0" parameterValue="0"/>
            <parameter index="1" name="mute" parameterValue="0"/>
          </component>
          <component componentGuid="b15223fc-a04a-4a61-ae9c-90258fedc0a9" componentID="Audition.StereoPanner" id="clipPan" name="StereoPanner" powered="true">
            <parameter index="0" name="声像" parameterValue="0"/>
          </component>
          <fadeIn crossFadeLinkType="linkedSymmetric" endPoint="0" shape="19" startPoint="0" type="log"/>
          <fadeOut crossFadeLinkType="linkedSymmetric" endPoint="708440" shape="19" startPoint="708440" type="log"/>
          <editParameter parameterIndex="0" slotIndex="4294967280"/>
          <editParameter parameterIndex="0" slotIndex="4294967281"/>
          <channelMap>
            <channel index="0" sourceIndex="0"/>
            <channel index="1" sourceIndex="1"/>
          </channelMap>
        </audioClip>
        <audioClip clipAutoCrossfade="true" crossFadeHeadClipID="-1" crossFadeTailClipID="-1" endPoint="1614778" fileID="7" hue="-1" id="1" lockedInTime="false" looped="false" name="count2 48000 1" offline="false" select="false" sourceInPoint="0" sourceOutPoint="584081" startPoint="1030697" zOrder="1">
          <component componentGuid="75296780-6758-4189-900e-633c2c6f6e93" componentID="Audition.Fader" id="clipGain" name="volume" powered="true">
            <parameter index="0" name="volume" parameterValue="2.3369357585906982421875">
              <parameterKeyframes enableSplines="false" readOnly="false">
                <parameterKeyframe sampleOffset="337806" select="true" type="linear" value="0.7302234172821044921875"/>
                <parameterKeyframe sampleOffset="536144" select="false" type="linear" value="0.855510234832763671875"/>
              </parameterKeyframes>
            </parameter>
            <parameter index="1" name="static gain" parameterValue="1"/>
          </component>
          <component componentGuid="fd301730-4103-4e56-96ce-278374e26969" componentID="Audition.Mute" id="clipMute" name="Mute" powered="true">
            <parameter index="0" parameterValue="0"/>
            <parameter index="1" name="mute" parameterValue="0"/>
          </component>
          <component componentGuid="16bb54bb-58d7-4711-acb8-d2afda1a59b7" componentID="Audition.StereoPanner" id="clipPan" name="StereoPanner" powered="true">
            <parameter index="0" name="声像" parameterValue="0"/>
          </component>
          <fadeIn crossFadeLinkType="linkedSymmetric" endPoint="0" shape="19" startPoint="0" type="log"/>
          <fadeOut crossFadeLinkType="linkedSymmetric" endPoint="584081" shape="19" startPoint="584081" type="log"/>
          <editParameter parameterIndex="0" slotIndex="4294967281"/>
          <editParameter parameterIndex="0" slotIndex="4294967280"/>
          <channelMap>
            <channel index="0" sourceIndex="0"/>
            <channel index="1" sourceIndex="1"/>
          </channelMap>
        </audioClip>
        <audioClip clipAutoCrossfade="true" crossFadeHeadClipID="-1" crossFadeTailClipID="-1" endPoint="2532708" fileID="8" hue="-1" id="2" lockedInTime="false" looped="false" name="count3 48000 1" offline="false" select="false" sourceInPoint="0" sourceOutPoint="598169" startPoint="1934539" zOrder="2">
          <component componentGuid="cff5f3cc-3317-430b-8ee9-3ab5d1bd0785" componentID="Audition.Fader" id="clipGain" name="volume" powered="true">
            <parameter index="0" name="volume" parameterValue="3.06227970123291015625">
              <parameterKeyframes enableSplines="true" readOnly="false">
                <parameterKeyframe sampleOffset="0" select="false" type="linear" value="0.4364310801029205322265625"/>
                <parameterKeyframe sampleOffset="153198" select="false" type="linear" value="1"/>
                <parameterKeyframe sampleOffset="424660" select="true" type="linear" value="0.906177997589111328125"/>
              </parameterKeyframes>
            </parameter>
            <parameter index="1" name="static gain" parameterValue="1"/>
          </component>
          <component componentGuid="4bc0a04d-0de0-42b3-a878-dc75acb72f3c" componentID="Audition.Mute" id="clipMute" name="Mute" powered="true">
            <parameter index="0" parameterValue="0"/>
            <parameter index="1" name="mute" parameterValue="0"/>
          </component>
          <component componentGuid="0704d499-d542-4ab8-8d5d-9510dcec5881" componentID="Audition.StereoPanner" id="clipPan" name="StereoPanner" powered="true">
            <parameter index="0" name="声像" parameterValue="0"/>
          </component>
          <fadeIn crossFadeLinkType="linkedSymmetric" endPoint="0" shape="19" startPoint="0" type="log"/>
          <fadeOut crossFadeLinkType="linkedSymmetric" endPoint="598169" shape="19" startPoint="598169" type="log"/>
          <editParameter parameterIndex="0" slotIndex="4294967281"/>
          <editParameter parameterIndex="0" slotIndex="4294967280"/>
          <channelMap>
            <channel index="0" sourceIndex="0"/>
            <channel index="1" sourceIndex="1"/>
          </channelMap>
        </audioClip>
      </audioTrack>
      <audioTrack automationLaneOpenState="false" id="10003" index="5" select="false" visible="true">
        <trackParameters trackHeight="157" trackHue="51" trackMinimized="false">
          <name>ITP</name>
        </trackParameters>
        <trackAudioParameters audioChannelType="stereo" automationMode="1" monitoring="false" recordArmed="false" solo="false" soloSafe="false">
          <trackOutput outputID="10000" type="trackID"/>
          <trackInput inputID="1"/>
          <component componentGuid="943f5d05-8337-42f1-afc3-f3ec53550b14" componentID="Audition.Fader" id="trackFader" name="volume" powered="true">
            <parameter index="0" name="volume" parameterValue="1"/>
            <parameter index="1" name="static gain" parameterValue="1"/>
          </component>
          <component componentGuid="ebe86355-2cf8-493d-a986-5961c0865277" componentID="Audition.Mute" id="trackMute" name="Mute" powered="true">
            <parameter index="0" parameterValue="0"/>
            <parameter index="1" name="mute" parameterValue="0"/>
          </component>
          <component componentGuid="05c67a00-237f-4ec0-8434-118d5a1b5bc0" componentID="Audition.StereoPanner" id="trackPan" name="StereoPanner" powered="true">
            <parameter index="0" name="声像" parameterValue="-0.8000030517578125"/>
          </component>
          <component componentGuid="c512531a-e95f-4e8d-9ad6-06572f183a99" componentID="Audition.EQ" id="trackEQ" name="EQ" powered="false">
            <parameter index="0" name="下限频率" parameterValue="0.000834028352983295917510986328125"/>
            <parameter index="1" name="下限增益" parameterValue="0.5"/>
            <parameter index="2" name="上限频率" parameterValue="0.74979150295257568359375"/>
            <parameter index="3" name="上限频率增益" parameterValue="0.5"/>
            <parameter index="4" name="EQ 频段 1 中置频率" parameterValue="0.00125104258768260478973388671875"/>
            <parameter index="5" name="EQ 频段 1 Q" parameterValue="0.000199989997781813144683837890625"/>
            <parameter index="6" name="EQ 频段 1 增益" parameterValue="0.5"/>
            <parameter index="7" name="EQ 频段 1 启用" parameterValue="1"/>
            <parameter index="8" name="EQ 频段 2 中置频率" parameterValue="0.0075062550604343414306640625"/>
            <parameter index="9" name="EQ 频段 2 Q" parameterValue="0.000199989997781813144683837890625"/>
            <parameter index="10" name="EQ 频段 2 增益" parameterValue="0.5"/>
            <parameter index="11" name="EQ 频段 2 启用" parameterValue="1"/>
            <parameter index="12" name="EQ 频段 3 中置频率" parameterValue="0.0325271077454090118408203125"/>
            <parameter index="13" name="EQ 频段 3 Q" parameterValue="0.000199989997781813144683837890625"/>
            <parameter index="14" name="EQ 频段 3 增益" parameterValue="0.5"/>
            <parameter index="15" name="EQ 频段 3 启用" parameterValue="1"/>
            <parameter index="16" name="EQ 频段 4 中置频率" parameterValue="0.13261051476001739501953125"/>
            <parameter index="17" name="EQ 频段 4 Q" parameterValue="0.000199989997781813144683837890625"/>
            <parameter index="18" name="EQ 频段 4 增益" parameterValue="0.5"/>
            <parameter index="19" name="EQ 频段 4 启用" parameterValue="1"/>
            <parameter index="20" name="EQ 频段 5 中置频率" parameterValue="0.532944142818450927734375"/>
            <parameter index="21" name="EQ 频段 5 Q" parameterValue="0.000199989997781813144683837890625"/>
            <parameter index="22" name="EQ 频段 5 增益" parameterValue="0.5"/>
            <parameter index="23" name="EQ 频段 5 启用" parameterValue="1"/>
            <parameter index="24" name="增益" parameterValue="0.666666686534881591796875"/>
            <parameter index="25" name="恒定 Q" parameterValue="1"/>
            <parameter index="26" name="下限滤镜顺序" parameterValue="0"/>
            <parameter index="27" name="上限频率滤镜顺序" parameterValue="0"/>
            <parameter index="28" name="超静音模式" parameterValue="0"/>
            <parameter index="29" name="下限启用" parameterValue="1"/>
            <parameter index="30" name="上限频率启用" parameterValue="1"/>
            <parameter index="31" name="原始采样率" parameterValue="0.25"/>
            <parameter index="32" name="EQ 频段 1 频带宽" parameterValue="0.002499990165233612060546875"/>
            <parameter index="33" name="EQ 频段 2 频段宽度" parameterValue="0.0099999904632568359375"/>
            <parameter index="34" name="EQ 频段 3 频段宽度" parameterValue="0.0399999916553497314453125"/>
            <parameter index="35" name="EQ 频段 4 频段宽度" parameterValue="0.15999998152256011962890625"/>
            <parameter index="36" name="EQ 频段 5 频段宽度" parameterValue="0.63999998569488525390625"/>
            <parameter index="37" name="高通滤波启用" parameterValue="0"/>
            <parameter index="38" name="高通切除频率" parameterValue="0"/>
            <parameter index="39" name="高通斜率" parameterValue="0.4000000059604644775390625"/>
            <parameter index="40" name="低通滤波启用" parameterValue="0"/>
            <parameter index="41" name="低通切除频率" parameterValue="0.833194315433502197265625"/>
            <parameter index="42" name="低通斜率" parameterValue="0.4000000059604644775390625"/>
            <parameter index="43" name="不使用" parameterValue="0"/>
            <parameter index="44" name="下限图示范围" parameterValue="1"/>
          </component>
        </trackAudioParameters>
        <editParameter parameterIndex="0" slotIndex="4294967280"/>
        <audioClip clipAutoCrossfade="true" crossFadeHeadClipID="-1" crossFadeTailClipID="-1" endPoint="708440" fileID="9" hue="-1" id="0" lockedInTime="false" looped="false" name="chat" offline="false" select="false" sourceInPoint="0" sourceOutPoint="708440" startPoint="0" zOrder="0">
          <component componentGuid="a8110f63-7369-477e-b9a4-8fdaca0b0ad8" componentID="Audition.Fader" id="clipGain" name="volume" powered="true">
            <parameter index="0" name="volume" parameterValue="1.456943035125732421875"/>
            <parameter index="1" name="static gain" parameterValue="1"/>
          </component>
          <component componentGuid="c00dae2e-7a0d-49c3-8bed-ac1e956e79e2" componentID="Audition.Mute" id="clipMute" name="Mute" powered="true">
            <parameter index="0" parameterValue="0"/>
            <parameter index="1" name="mute" parameterValue="0"/>
          </component>
          <component componentGuid="ac40ea76-d596-4279-ba56-df26a9f5dfa2" componentID="Audition.StereoPanner" id="clipPan" name="StereoPanner" powered="true">
            <parameter index="0" name="声像" parameterValue="0"/>
          </component>
          <fadeIn crossFadeLinkType="linkedSymmetric" endPoint="0" shape="19" startPoint="0" type="log"/>
          <fadeOut crossFadeLinkType="linkedSymmetric" endPoint="708440" shape="19" startPoint="708440" type="log"/>
          <editParameter parameterIndex="0" slotIndex="4294967281"/>
          <editParameter parameterIndex="0" slotIndex="4294967280"/>
          <channelMap>
            <channel index="0" sourceIndex="0"/>
            <channel index="1" sourceIndex="1"/>
          </channelMap>
        </audioClip>
      </audioTrack>
      <audioTrack automationLaneOpenState="false" id="10004" index="6" select="false" visible="true">
        <trackParameters trackHeight="157" trackHue="182" trackMinimized="false">
          <name>BK street</name>
        </trackParameters>
        <trackAudioParameters audioChannelType="stereo" automationMode="1" monitoring="false" recordArmed="false" solo="false" soloSafe="false">
          <trackOutput outputID="10000" type="trackID"/>
          <trackInput inputID="1"/>
          <component componentGuid="b98fec5d-318c-4231-b4bf-41e1c8c35248" componentID="Audition.Fader" id="trackFader" name="volume" powered="true">
            <parameter index="0" name="volume" parameterValue="1"/>
            <parameter index="1" name="static gain" parameterValue="1"/>
          </component>
          <component componentGuid="b1fb8c17-4f1d-400c-b133-f67fd5a97b64" componentID="Audition.Mute" id="trackMute" name="Mute" powered="true">
            <parameter index="0" parameterValue="0"/>
            <parameter index="1" name="mute" parameterValue="0"/>
          </component>
          <component componentGuid="5909f573-d059-4c87-bb23-2b6a70e89e63" componentID="Audition.StereoPanner" id="trackPan" name="StereoPanner" powered="true">
            <parameter index="0" name="声像" parameterValue="0"/>
          </component>
          <component componentGuid="293d8bb4-de45-4087-98a2-5190aea59bc3" componentID="Audition.EQ" id="trackEQ" name="EQ" powered="false">
            <parameter index="0" name="下限频率" parameterValue="0.000834028352983295917510986328125"/>
            <parameter index="1" name="下限增益" parameterValue="0.5"/>
            <parameter index="2" name="上限频率" parameterValue="0.74979150295257568359375"/>
            <parameter index="3" name="上限频率增益" parameterValue="0.5"/>
            <parameter index="4" name="EQ 频段 1 中置频率" parameterValue="0.00125104258768260478973388671875"/>
            <parameter index="5" name="EQ 频段 1 Q" parameterValue="0.000199989997781813144683837890625"/>
            <parameter index="6" name="EQ 频段 1 增益" parameterValue="0.5"/>
            <parameter index="7" name="EQ 频段 1 启用" parameterValue="1"/>
            <parameter index="8" name="EQ 频段 2 中置频率" parameterValue="0.0075062550604343414306640625"/>
            <parameter index="9" name="EQ 频段 2 Q" parameterValue="0.000199989997781813144683837890625"/>
            <parameter index="10" name="EQ 频段 2 增益" parameterValue="0.5"/>
            <parameter index="11" name="EQ 频段 2 启用" parameterValue="1"/>
            <parameter index="12" name="EQ 频段 3 中置频率" parameterValue="0.0325271077454090118408203125"/>
            <parameter index="13" name="EQ 频段 3 Q" parameterValue="0.000199989997781813144683837890625"/>
            <parameter index="14" name="EQ 频段 3 增益" parameterValue="0.5"/>
            <parameter index="15" name="EQ 频段 3 启用" parameterValue="1"/>
            <parameter index="16" name="EQ 频段 4 中置频率" parameterValue="0.13261051476001739501953125"/>
            <parameter index="17" name="EQ 频段 4 Q" parameterValue="0.000199989997781813144683837890625"/>
            <parameter index="18" name="EQ 频段 4 增益" parameterValue="0.5"/>
            <parameter index="19" name="EQ 频段 4 启用" parameterValue="1"/>
            <parameter index="20" name="EQ 频段 5 中置频率" parameterValue="0.532944142818450927734375"/>
            <parameter index="21" name="EQ 频段 5 Q" parameterValue="0.000199989997781813144683837890625"/>
            <parameter index="22" name="EQ 频段 5 增益" parameterValue="0.5"/>
            <parameter index="23" name="EQ 频段 5 启用" parameterValue="1"/>
            <parameter index="24" name="增益" parameterValue="0.666666686534881591796875"/>
            <parameter index="25" name="恒定 Q" parameterValue="1"/>
            <parameter index="26" name="下限滤镜顺序" parameterValue="0"/>
            <parameter index="27" name="上限频率滤镜顺序" parameterValue="0"/>
            <parameter index="28" name="超静音模式" parameterValue="0"/>
            <parameter index="29" name="下限启用" parameterValue="1"/>
            <parameter index="30" name="上限频率启用" parameterValue="1"/>
            <parameter index="31" name="原始采样率" parameterValue="0.25"/>
            <parameter index="32" name="EQ 频段 1 频带宽" parameterValue="0.002499990165233612060546875"/>
            <parameter index="33" name="EQ 频段 2 频段宽度" parameterValue="0.0099999904632568359375"/>
            <parameter index="34" name="EQ 频段 3 频段宽度" parameterValue="0.0399999916553497314453125"/>
            <parameter index="35" name="EQ 频段 4 频段宽度" parameterValue="0.15999998152256011962890625"/>
            <parameter index="36" name="EQ 频段 5 频段宽度" parameterValue="0.63999998569488525390625"/>
            <parameter index="37" name="高通滤波启用" parameterValue="0"/>
            <parameter index="38" name="高通切除频率" parameterValue="0"/>
            <parameter index="39" name="高通斜率" parameterValue="0.4000000059604644775390625"/>
            <parameter index="40" name="低通滤波启用" parameterValue="0"/>
            <parameter index="41" name="低通切除频率" parameterValue="0.833194315433502197265625"/>
            <parameter index="42" name="低通斜率" parameterValue="0.4000000059604644775390625"/>
            <parameter index="43" name="不使用" parameterValue="0"/>
            <parameter index="44" name="下限图示范围" parameterValue="1"/>
          </component>
        </trackAudioParameters>
        <editParameter parameterIndex="0" slotIndex="4294967280"/>
        <audioClip clipAutoCrossfade="true" crossFadeHeadClipID="-1" crossFadeTailClipID="-1" endPoint="708440" fileID="10" hue="-1" id="0" lockedInTime="false" looped="false" name="BKstreet2 48000 1" offline="false" select="false" sourceInPoint="0" sourceOutPoint="544227" startPoint="164213" zOrder="0">
          <component componentGuid="22df344e-c892-4031-81e1-ce3321315c43" componentID="Audition.Fader" id="clipGain" name="volume" powered="true">
            <parameter index="0" name="volume" parameterValue="0.2792006433010101318359375">
              <parameterKeyframes enableSplines="false" readOnly="false">
                <parameterKeyframe sampleOffset="0" select="false" type="linear" value="0.03054233454167842864990234375"/>
                <parameterKeyframe sampleOffset="122583" select="false" type="linear" value="0.4253549277782440185546875"/>
                <parameterKeyframe sampleOffset="218080" select="false" type="linear" value="0.571704804897308349609375"/>
                <parameterKeyframe sampleOffset="397758" select="false" type="linear" value="0.506018102169036865234375"/>
                <parameterKeyframe sampleOffset="512445" select="true" type="linear" value="0.3671448230743408203125"/>
              </parameterKeyframes>
            </parameter>
            <parameter index="1" name="static gain" parameterValue="1"/>
          </component>
          <component componentGuid="8e4a5d19-d40d-4d57-9021-be7ea96c6a20" componentID="Audition.Mute" id="clipMute" name="Mute" powered="true">
            <parameter index="0" parameterValue="0"/>
            <parameter index="1" name="mute" parameterValue="0"/>
          </component>
          <component componentGuid="69e0b2ba-be54-49e0-ae24-b3e9ac5bc119" componentID="Audition.StereoPanner" id="clipPan" name="StereoPanner" powered="true">
            <parameter index="0" name="声像" parameterValue="0"/>
          </component>
          <fadeIn crossFadeLinkType="linkedSymmetric" endPoint="0" shape="19" startPoint="0" type="log"/>
          <fadeOut crossFadeLinkType="linkedSymmetric" endPoint="544227" shape="19" startPoint="544227" type="log"/>
          <editParameter parameterIndex="0" slotIndex="4294967281"/>
          <editParameter parameterIndex="0" slotIndex="4294967280"/>
          <channelMap>
            <channel index="0" sourceIndex="0"/>
            <channel index="1" sourceIndex="1"/>
          </channelMap>
        </audioClip>
      </audioTrack>
      <audioTrack automationLaneOpenState="false" id="10005" index="7" select="false" visible="true">
        <trackParameters trackHeight="157" trackHue="294" trackMinimized="false">
          <name>strange sounds</name>
        </trackParameters>
        <trackAudioParameters audioChannelType="stereo" automationMode="1" monitoring="false" recordArmed="false" solo="false" soloSafe="false">
          <trackOutput outputID="10000" type="trackID"/>
          <trackInput inputID="1"/>
          <component componentGuid="2f17b9a8-1386-481d-a6de-ffe34a323b5f" componentID="Audition.Fader" id="trackFader" name="volume" powered="true">
            <parameter index="0" name="volume" parameterValue="1"/>
            <parameter index="1" name="static gain" parameterValue="1"/>
          </component>
          <component componentGuid="9bd42177-17be-44ac-ba82-c6b3ed73403e" componentID="Audition.Mute" id="trackMute" name="Mute" powered="true">
            <parameter index="0" parameterValue="0"/>
            <parameter index="1" name="mute" parameterValue="0"/>
          </component>
          <component componentGuid="0fb040dc-f030-4f9a-87d3-b07ac7b2ddc5" componentID="Audition.StereoPanner" id="trackPan" name="StereoPanner" powered="true">
            <parameter index="0" name="声像" parameterValue="-0.8000030517578125"/>
          </component>
          <component componentGuid="eaa19bbf-4fe6-42e5-a0c4-2caa7f8dc7d7" componentID="Audition.EQ" id="trackEQ" name="EQ" powered="false">
            <parameter index="0" name="下限频率" parameterValue="0.000834028352983295917510986328125"/>
            <parameter index="1" name="下限增益" parameterValue="0.5"/>
            <parameter index="2" name="上限频率" parameterValue="0.74979150295257568359375"/>
            <parameter index="3" name="上限频率增益" parameterValue="0.5"/>
            <parameter index="4" name="EQ 频段 1 中置频率" parameterValue="0.00125104258768260478973388671875"/>
            <parameter index="5" name="EQ 频段 1 Q" parameterValue="0.000199989997781813144683837890625"/>
            <parameter index="6" name="EQ 频段 1 增益" parameterValue="0.5"/>
            <parameter index="7" name="EQ 频段 1 启用" parameterValue="1"/>
            <parameter index="8" name="EQ 频段 2 中置频率" parameterValue="0.0075062550604343414306640625"/>
            <parameter index="9" name="EQ 频段 2 Q" parameterValue="0.000199989997781813144683837890625"/>
            <parameter index="10" name="EQ 频段 2 增益" parameterValue="0.5"/>
            <parameter index="11" name="EQ 频段 2 启用" parameterValue="1"/>
            <parameter index="12" name="EQ 频段 3 中置频率" parameterValue="0.0325271077454090118408203125"/>
            <parameter index="13" name="EQ 频段 3 Q" parameterValue="0.000199989997781813144683837890625"/>
            <parameter index="14" name="EQ 频段 3 增益" parameterValue="0.5"/>
            <parameter index="15" name="EQ 频段 3 启用" parameterValue="1"/>
            <parameter index="16" name="EQ 频段 4 中置频率" parameterValue="0.13261051476001739501953125"/>
            <parameter index="17" name="EQ 频段 4 Q" parameterValue="0.000199989997781813144683837890625"/>
            <parameter index="18" name="EQ 频段 4 增益" parameterValue="0.5"/>
            <parameter index="19" name="EQ 频段 4 启用" parameterValue="1"/>
            <parameter index="20" name="EQ 频段 5 中置频率" parameterValue="0.532944142818450927734375"/>
            <parameter index="21" name="EQ 频段 5 Q" parameterValue="0.000199989997781813144683837890625"/>
            <parameter index="22" name="EQ 频段 5 增益" parameterValue="0.5"/>
            <parameter index="23" name="EQ 频段 5 启用" parameterValue="1"/>
            <parameter index="24" name="增益" parameterValue="0.666666686534881591796875"/>
            <parameter index="25" name="恒定 Q" parameterValue="1"/>
            <parameter index="26" name="下限滤镜顺序" parameterValue="0"/>
            <parameter index="27" name="上限频率滤镜顺序" parameterValue="0"/>
            <parameter index="28" name="超静音模式" parameterValue="0"/>
            <parameter index="29" name="下限启用" parameterValue="1"/>
            <parameter index="30" name="上限频率启用" parameterValue="1"/>
            <parameter index="31" name="原始采样率" parameterValue="0.25"/>
            <parameter index="32" name="EQ 频段 1 频带宽" parameterValue="0.002499990165233612060546875"/>
            <parameter index="33" name="EQ 频段 2 频段宽度" parameterValue="0.0099999904632568359375"/>
            <parameter index="34" name="EQ 频段 3 频段宽度" parameterValue="0.0399999916553497314453125"/>
            <parameter index="35" name="EQ 频段 4 频段宽度" parameterValue="0.15999998152256011962890625"/>
            <parameter index="36" name="EQ 频段 5 频段宽度" parameterValue="0.63999998569488525390625"/>
            <parameter index="37" name="高通滤波启用" parameterValue="0"/>
            <parameter index="38" name="高通切除频率" parameterValue="0"/>
            <parameter index="39" name="高通斜率" parameterValue="0.4000000059604644775390625"/>
            <parameter index="40" name="低通滤波启用" parameterValue="0"/>
            <parameter index="41" name="低通切除频率" parameterValue="0.833194315433502197265625"/>
            <parameter index="42" name="低通斜率" parameterValue="0.4000000059604644775390625"/>
            <parameter index="43" name="不使用" parameterValue="0"/>
            <parameter index="44" name="下限图示范围" parameterValue="1"/>
          </component>
        </trackAudioParameters>
        <editParameter parameterIndex="0" slotIndex="4294967280"/>
        <audioClip clipAutoCrossfade="true" crossFadeHeadClipID="-1" crossFadeTailClipID="-1" endPoint="370213" fileID="11" hue="-1" id="0" lockedInTime="false" looped="false" name="BKstreet 48000 1" offline="false" select="false" sourceInPoint="16190" sourceOutPoint="386403" startPoint="0" zOrder="0">
          <component componentGuid="a52e18c9-f4f0-4456-8a5e-b19e5bef673d" componentID="Audition.Fader" id="clipGain" name="volume" powered="true">
            <parameter index="0" name="volume" parameterValue="1.1962544918060302734375"/>
            <parameter index="1" name="static gain" parameterValue="1"/>
          </component>
          <component componentGuid="0f0525aa-3053-4817-8839-897c00341634" componentID="Audition.Mute" id="clipMute" name="Mute" powered="true">
            <parameter index="0" parameterValue="0"/>
            <parameter index="1" name="mute" parameterValue="0"/>
          </component>
          <component componentGuid="5aff0d27-ba45-48bf-81d0-01d828a0a2a9" componentID="Audition.StereoPanner" id="clipPan" name="StereoPanner" powered="true">
            <parameter index="0" name="声像" parameterValue="0"/>
          </component>
          <fadeIn crossFadeLinkType="linkedSymmetric" endPoint="0" shape="19" startPoint="0" type="log"/>
          <fadeOut crossFadeLinkType="linkedSymmetric" endPoint="370213" shape="19" startPoint="370213" type="log"/>
          <editParameter parameterIndex="0" slotIndex="4294967281"/>
          <editParameter parameterIndex="0" slotIndex="4294967280"/>
          <channelMap>
            <channel index="0" sourceIndex="0"/>
            <channel index="1" sourceIndex="1"/>
          </channelMap>
        </audioClip>
        <audioClip clipAutoCrossfade="true" crossFadeHeadClipID="-1" crossFadeTailClipID="-1" endPoint="708440" fileID="12" hue="-1" id="1" lockedInTime="false" looped="false" name="MHTstreet 48000 1" offline="false" select="false" sourceInPoint="475288" sourceOutPoint="813515" startPoint="370213" zOrder="1">
          <component componentGuid="d692c42a-c6b5-4556-969f-ae5f05c08127" componentID="Audition.Fader" id="clipGain" name="volume" powered="true">
            <parameter index="0" name="volume" parameterValue="1"/>
            <parameter index="1" name="static gain" parameterValue="1"/>
          </component>
          <component componentGuid="9c3b3776-786b-4ebb-b475-11fe7605a3b5" componentID="Audition.Mute" id="clipMute" name="Mute" powered="true">
            <parameter index="0" parameterValue="0"/>
            <parameter index="1" name="mute" parameterValue="0"/>
          </component>
          <component componentGuid="07839035-3ddd-4c33-88e4-7cc88c075bd7" componentID="Audition.StereoPanner" id="clipPan" name="StereoPanner" powered="true">
            <parameter index="0" name="声像" parameterValue="0"/>
          </component>
          <fadeIn crossFadeLinkType="linkedSymmetric" endPoint="0" shape="19" startPoint="0" type="log"/>
          <fadeOut crossFadeLinkType="linkedSymmetric" endPoint="338227" shape="19" startPoint="338227" type="log"/>
          <editParameter parameterIndex="0" slotIndex="4294967281"/>
          <editParameter parameterIndex="0" slotIndex="4294967280"/>
          <channelMap>
            <channel index="0" sourceIndex="0"/>
            <channel index="1" sourceIndex="1"/>
          </channelMap>
        </audioClip>
        <audioClip clipAutoCrossfade="true" crossFadeHeadClipID="-1" crossFadeTailClipID="-1" endPoint="2874564" fileID="12" hue="-1" id="2" lockedInTime="false" looped="false" name="MHTstreet 48000 1" offline="false" select="false" sourceInPoint="475288" sourceOutPoint="601188" startPoint="2748664" zOrder="2">
          <component componentGuid="47367049-995f-47ac-adb6-cd64f78102c1" componentID="Audition.Fader" id="clipGain" name="volume" powered="true">
            <parameter index="0" name="volume" parameterValue="0.3372571766376495361328125"/>
            <parameter index="1" name="static gain" parameterValue="1"/>
          </component>
          <component componentGuid="96c2ef19-a666-4754-b777-b5255c1569ae" componentID="Audition.Mute" id="clipMute" name="Mute" powered="true">
            <parameter index="0" parameterValue="0"/>
            <parameter index="1" name="mute" parameterValue="0"/>
          </component>
          <component componentGuid="fd3501e4-2a38-417d-ac5a-bb8e41aaebe4" componentID="Audition.StereoPanner" id="clipPan" name="StereoPanner" powered="true">
            <parameter index="0" name="声像" parameterValue="0"/>
          </component>
          <fadeIn crossFadeLinkType="linkedSymmetric" endPoint="0" shape="19" startPoint="0" type="log"/>
          <fadeOut crossFadeLinkType="linkedSymmetric" endPoint="125900" shape="19" startPoint="125900" type="log"/>
          <editParameter parameterIndex="0" slotIndex="4294967281"/>
          <editParameter parameterIndex="0" slotIndex="4294967280"/>
          <channelMap>
            <channel index="0" sourceIndex="0"/>
            <channel index="1" sourceIndex="1"/>
          </channelMap>
        </audioClip>
        <audioClip clipAutoCrossfade="true" crossFadeHeadClipID="-1" crossFadeTailClipID="-1" endPoint="3376950" fileID="12" hue="-1" id="3" lockedInTime="false" looped="false" name="MHTstreet 48000 1" offline="false" select="false" sourceInPoint="299140" sourceOutPoint="378380" startPoint="3297710" zOrder="3">
          <component componentGuid="026c8b3b-69b1-4557-8d1e-8c7ab1080747" componentID="Audition.Fader" id="clipGain" name="volume" powered="true">
            <parameter index="0" name="volume" parameterValue="0.3079783618450164794921875"/>
            <parameter index="1" name="static gain" parameterValue="1"/>
          </component>
          <component componentGuid="cb3ec100-8eae-4f01-98ae-c56c394613af" componentID="Audition.Mute" id="clipMute" name="Mute" powered="true">
            <parameter index="0" parameterValue="0"/>
            <parameter index="1" name="mute" parameterValue="0"/>
          </component>
          <component componentGuid="867a33d2-5793-47f6-bb28-135281b7eeb1" componentID="Audition.StereoPanner" id="clipPan" name="StereoPanner" powered="true">
            <parameter index="0" name="声像" parameterValue="0"/>
          </component>
          <fadeIn crossFadeLinkType="linkedSymmetric" endPoint="0" shape="19" startPoint="0" type="log"/>
          <fadeOut crossFadeLinkType="linkedSymmetric" endPoint="79240" shape="19" startPoint="79240" type="log"/>
          <clipStretch adaptiveWindowSize="37" pitchAdjustment="0" preserveFormants="true" stretchMode="realtime" stretchQuality="high" stretchRatio="0.62938840349483715641554226749576628208160400390625" stretchType="solo" transientSensitivity="40"/>
          <editParameter parameterIndex="0" slotIndex="4294967281"/>
          <editParameter parameterIndex="0" slotIndex="4294967280"/>
          <channelMap>
            <channel index="0" sourceIndex="0"/>
            <channel index="1" sourceIndex="1"/>
          </channelMap>
        </audioClip>
      </audioTrack>
      <audioTrack automationLaneOpenState="false" id="10006" index="8" select="false" visible="true">
        <trackParameters trackHeight="157" trackHue="92" trackMinimized="false">
          <name>chinese restaurants</name>
        </trackParameters>
        <trackAudioParameters audioChannelType="stereo" automationMode="1" monitoring="false" recordArmed="false" solo="false" soloSafe="false">
          <trackOutput outputID="10000" type="trackID"/>
          <trackInput inputID="1"/>
          <component componentGuid="dc4f9ae5-6d0d-43cd-b62f-fd68798a9491" componentID="Audition.Fader" id="trackFader" name="volume" powered="true">
            <parameter index="0" name="volume" parameterValue="1"/>
            <parameter index="1" name="static gain" parameterValue="1"/>
          </component>
          <component componentGuid="38f6b1f9-636c-4657-b429-e2ad64ad3782" componentID="Audition.Mute" id="trackMute" name="Mute" powered="true">
            <parameter index="0" parameterValue="0"/>
            <parameter index="1" name="mute" parameterValue="0"/>
          </component>
          <component componentGuid="39fb9238-d2d2-463b-b556-d4812db75c08" componentID="Audition.StereoPanner" id="trackPan" name="StereoPanner" powered="true">
            <parameter index="0" name="声像" parameterValue="0"/>
          </component>
          <component componentGuid="5c500021-c641-4a59-8730-7baecb9ade84" componentID="Audition.EQ" id="trackEQ" name="EQ" powered="false">
            <parameter index="0" name="下限频率" parameterValue="0.000834028352983295917510986328125"/>
            <parameter index="1" name="下限增益" parameterValue="0.5"/>
            <parameter index="2" name="上限频率" parameterValue="0.74979150295257568359375"/>
            <parameter index="3" name="上限频率增益" parameterValue="0.5"/>
            <parameter index="4" name="EQ 频段 1 中置频率" parameterValue="0.00125104258768260478973388671875"/>
            <parameter index="5" name="EQ 频段 1 Q" parameterValue="0.000199989997781813144683837890625"/>
            <parameter index="6" name="EQ 频段 1 增益" parameterValue="0.5"/>
            <parameter index="7" name="EQ 频段 1 启用" parameterValue="1"/>
            <parameter index="8" name="EQ 频段 2 中置频率" parameterValue="0.0075062550604343414306640625"/>
            <parameter index="9" name="EQ 频段 2 Q" parameterValue="0.000199989997781813144683837890625"/>
            <parameter index="10" name="EQ 频段 2 增益" parameterValue="0.5"/>
            <parameter index="11" name="EQ 频段 2 启用" parameterValue="1"/>
            <parameter index="12" name="EQ 频段 3 中置频率" parameterValue="0.0325271077454090118408203125"/>
            <parameter index="13" name="EQ 频段 3 Q" parameterValue="0.000199989997781813144683837890625"/>
            <parameter index="14" name="EQ 频段 3 增益" parameterValue="0.5"/>
            <parameter index="15" name="EQ 频段 3 启用" parameterValue="1"/>
            <parameter index="16" name="EQ 频段 4 中置频率" parameterValue="0.13261051476001739501953125"/>
            <parameter index="17" name="EQ 频段 4 Q" parameterValue="0.000199989997781813144683837890625"/>
            <parameter index="18" name="EQ 频段 4 增益" parameterValue="0.5"/>
            <parameter index="19" name="EQ 频段 4 启用" parameterValue="1"/>
            <parameter index="20" name="EQ 频段 5 中置频率" parameterValue="0.532944142818450927734375"/>
            <parameter index="21" name="EQ 频段 5 Q" parameterValue="0.000199989997781813144683837890625"/>
            <parameter index="22" name="EQ 频段 5 增益" parameterValue="0.5"/>
            <parameter index="23" name="EQ 频段 5 启用" parameterValue="1"/>
            <parameter index="24" name="增益" parameterValue="0.666666686534881591796875"/>
            <parameter index="25" name="恒定 Q" parameterValue="1"/>
            <parameter index="26" name="下限滤镜顺序" parameterValue="0"/>
            <parameter index="27" name="上限频率滤镜顺序" parameterValue="0"/>
            <parameter index="28" name="超静音模式" parameterValue="0"/>
            <parameter index="29" name="下限启用" parameterValue="1"/>
            <parameter index="30" name="上限频率启用" parameterValue="1"/>
            <parameter index="31" name="原始采样率" parameterValue="0.25"/>
            <parameter index="32" name="EQ 频段 1 频带宽" parameterValue="0.002499990165233612060546875"/>
            <parameter index="33" name="EQ 频段 2 频段宽度" parameterValue="0.0099999904632568359375"/>
            <parameter index="34" name="EQ 频段 3 频段宽度" parameterValue="0.0399999916553497314453125"/>
            <parameter index="35" name="EQ 频段 4 频段宽度" parameterValue="0.15999998152256011962890625"/>
            <parameter index="36" name="EQ 频段 5 频段宽度" parameterValue="0.63999998569488525390625"/>
            <parameter index="37" name="高通滤波启用" parameterValue="0"/>
            <parameter index="38" name="高通切除频率" parameterValue="0"/>
            <parameter index="39" name="高通斜率" parameterValue="0.4000000059604644775390625"/>
            <parameter index="40" name="低通滤波启用" parameterValue="0"/>
            <parameter index="41" name="低通切除频率" parameterValue="0.833194315433502197265625"/>
            <parameter index="42" name="低通斜率" parameterValue="0.4000000059604644775390625"/>
            <parameter index="43" name="不使用" parameterValue="0"/>
            <parameter index="44" name="下限图示范围" parameterValue="1"/>
          </component>
        </trackAudioParameters>
        <editParameter parameterIndex="0" slotIndex="4294967280"/>
        <audioClip clipAutoCrossfade="true" crossFadeHeadClipID="-1" crossFadeTailClipID="-1" endPoint="1611912" fileID="13" hue="-1" id="0" lockedInTime="false" looped="false" name="restaurant-suzhou-china 48000 1" offline="false" select="false" sourceInPoint="3318310" sourceOutPoint="4194508" startPoint="735714" zOrder="0">
          <component componentGuid="50ef1390-55fa-4aa9-966c-fe07040c4935" componentID="Audition.Fader" id="clipGain" name="volume" powered="true">
            <parameter index="0" name="volume" parameterValue="0.56484282016754150390625">
              <parameterKeyframes enableSplines="true" readOnly="false">
                <parameterKeyframe sampleOffset="3318310" select="false" type="linear" value="0.24338082969188690185546875"/>
                <parameterKeyframe sampleOffset="3318311" select="false" type="linear" value="0.109695039689540863037109375"/>
                <parameterKeyframe sampleOffset="3494096" select="false" type="linear" value="0.308224856853485107421875"/>
                <parameterKeyframe sampleOffset="3596778" select="false" type="linear" value="0.524555861949920654296875"/>
              </parameterKeyframes>
            </parameter>
            <parameter index="1" name="static gain" parameterValue="1"/>
          </component>
          <component componentGuid="8586d2f3-2811-4665-b290-86f16c6a32d6" componentID="Audition.Mute" id="clipMute" name="Mute" powered="true">
            <parameter index="0" parameterValue="0"/>
            <parameter index="1" name="mute" parameterValue="0"/>
          </component>
          <component componentGuid="2f58257c-0e52-4220-8add-4e8471e3376b" componentID="Audition.StereoPanner" id="clipPan" name="StereoPanner" powered="true">
            <parameter index="0" name="声像" parameterValue="0"/>
          </component>
          <fadeIn crossFadeLinkType="linkedSymmetric" endPoint="0" shape="19" startPoint="0" type="log"/>
          <fadeOut crossFadeLinkType="linkedSymmetric" endPoint="876198" shape="19" startPoint="876198" type="log"/>
          <editParameter parameterIndex="0" slotIndex="4294967281"/>
          <editParameter parameterIndex="0" slotIndex="4294967280"/>
          <channelMap>
            <channel index="0" sourceIndex="0"/>
            <channel index="1" sourceIndex="1"/>
          </channelMap>
        </audioClip>
        <audioClip clipAutoCrossfade="true" crossFadeHeadClipID="-1" crossFadeTailClipID="-1" endPoint="3050964" fileID="13" hue="-1" id="1" lockedInTime="false" looped="false" name="restaurant-suzhou-china 48000 1" offline="false" select="false" sourceInPoint="3658394" sourceOutPoint="3784294" startPoint="2925064" zOrder="1">
          <component componentGuid="d0dac25e-2d8b-4be6-9b7a-c0546e665de3" componentID="Audition.Fader" id="clipGain" name="volume" powered="true">
            <parameter index="0" name="volume" parameterValue="0.19569422304630279541015625">
              <parameterKeyframes enableSplines="true" readOnly="false">
                <parameterKeyframe sampleOffset="3318310" select="false" type="linear" value="0.24338082969188690185546875"/>
                <parameterKeyframe sampleOffset="3318311" select="false" type="linear" value="0.109695039689540863037109375"/>
                <parameterKeyframe sampleOffset="3494096" select="false" type="linear" value="0.308224856853485107421875"/>
                <parameterKeyframe sampleOffset="3596778" select="false" type="linear" value="0.524555861949920654296875"/>
                <parameterKeyframe sampleOffset="3722082" select="true" type="linear" value="0.12166200578212738037109375"/>
              </parameterKeyframes>
            </parameter>
            <parameter index="1" name="static gain" parameterValue="1"/>
          </component>
          <component componentGuid="85624cea-1935-4010-86df-2ad3c8dba6ad" componentID="Audition.Mute" id="clipMute" name="Mute" powered="true">
            <parameter index="0" parameterValue="0"/>
            <parameter index="1" name="mute" parameterValue="0"/>
          </component>
          <component componentGuid="78bfbc28-ff0c-4a40-89d3-b3629ee75d4e" componentID="Audition.StereoPanner" id="clipPan" name="StereoPanner" powered="true">
            <parameter index="0" name="声像" parameterValue="0"/>
          </component>
          <fadeIn crossFadeLinkType="linkedSymmetric" endPoint="0" shape="19" startPoint="0" type="log"/>
          <fadeOut crossFadeLinkType="linkedSymmetric" endPoint="125900" shape="19" startPoint="125900" type="log"/>
          <editParameter parameterIndex="0" slotIndex="4294967281"/>
          <editParameter parameterIndex="0" slotIndex="4294967280"/>
          <channelMap>
            <channel index="0" sourceIndex="0"/>
            <channel index="1" sourceIndex="1"/>
          </channelMap>
        </audioClip>
        <audioClip clipAutoCrossfade="true" crossFadeHeadClipID="-1" crossFadeTailClipID="-1" endPoint="3567347" fileID="13" hue="-1" id="2" lockedInTime="false" looped="false" name="restaurant-suzhou-china 48000 1" offline="false" select="false" sourceInPoint="2360638" sourceOutPoint="2441877" startPoint="3486108" zOrder="2">
          <component componentGuid="cc7db67a-f0d9-4028-b42a-7067307b174f" componentID="Audition.Fader" id="clipGain" name="volume" powered="true">
            <parameter index="0" name="volume" parameterValue="0.3075374066829681396484375">
              <parameterKeyframes enableSplines="true" readOnly="false">
                <parameterKeyframe sampleOffset="2141193" select="false" type="linear" value="0.24338082969188690185546875"/>
                <parameterKeyframe sampleOffset="2254622" select="false" type="linear" value="0.308224856853485107421875"/>
                <parameterKeyframe sampleOffset="2320879" select="false" type="linear" value="0.524555861949920654296875"/>
                <parameterKeyframe sampleOffset="2399116" select="true" type="linear" value="0.160342156887054443359375"/>
              </parameterKeyframes>
            </parameter>
            <parameter index="1" name="static gain" parameterValue="1"/>
          </component>
          <component componentGuid="09699d4d-0a4c-401b-b7cd-0ce2b1a59742" componentID="Audition.Mute" id="clipMute" name="Mute" powered="true">
            <parameter index="0" parameterValue="0"/>
            <parameter index="1" name="mute" parameterValue="0"/>
          </component>
          <component componentGuid="a24d20a9-efd3-4329-8b7d-f55cd8fcee0a" componentID="Audition.StereoPanner" id="clipPan" name="StereoPanner" powered="true">
            <parameter index="0" name="声像" parameterValue="0"/>
          </component>
          <fadeIn crossFadeLinkType="linkedSymmetric" endPoint="0" shape="19" startPoint="0" type="log"/>
          <fadeOut crossFadeLinkType="linkedSymmetric" endPoint="81239" shape="19" startPoint="81239" type="log"/>
          <clipStretch adaptiveWindowSize="37" pitchAdjustment="0" preserveFormants="true" stretchMode="realtime" stretchQuality="high" stretchRatio="0.64526608419380460102132701649679802358150482177734375" stretchType="solo" transientSensitivity="40"/>
          <editParameter parameterIndex="0" slotIndex="4294967281"/>
          <editParameter parameterIndex="0" slotIndex="4294967280"/>
          <channelMap>
            <channel index="0" sourceIndex="0"/>
            <channel index="1" sourceIndex="1"/>
          </channelMap>
        </audioClip>
      </audioTrack>
      <audioTrack automationLaneOpenState="false" id="10015" index="9" select="false" visible="true">
        <trackParameters trackHeight="157" trackHue="267" trackMinimized="false">
          <name>chinatown</name>
        </trackParameters>
        <trackAudioParameters audioChannelType="stereo" automationMode="1" monitoring="false" recordArmed="false" solo="false" soloSafe="false">
          <trackOutput outputID="10000" type="trackID"/>
          <trackInput inputID="1"/>
          <component componentGuid="62aa8d04-6fde-469b-951a-da94146627e9" componentID="Audition.Fader" id="trackFader" name="volume" powered="true">
            <parameter index="0" name="volume" parameterValue="1"/>
            <parameter index="1" name="static gain" parameterValue="1"/>
          </component>
          <component componentGuid="bf0021b5-5989-4e8a-affc-289487643dc3" componentID="Audition.Mute" id="trackMute" name="Mute" powered="true">
            <parameter index="0" parameterValue="0"/>
            <parameter index="1" name="mute" parameterValue="0"/>
          </component>
          <component componentGuid="567b44f5-21cb-454e-aa54-c58c323606e4" componentID="Audition.StereoPanner" id="trackPan" name="StereoPanner" powered="true">
            <parameter index="0" name="声像" parameterValue="0"/>
          </component>
          <component componentGuid="2509a776-e12f-4369-93ff-f71125d3e40c" componentID="Audition.EQ" id="trackEQ" name="EQ" powered="false">
            <parameter index="0" name="下限频率" parameterValue="0.000834028352983295917510986328125"/>
            <parameter index="1" name="下限增益" parameterValue="0.5"/>
            <parameter index="2" name="上限频率" parameterValue="0.74979150295257568359375"/>
            <parameter index="3" name="上限频率增益" parameterValue="0.5"/>
            <parameter index="4" name="EQ 频段 1 中置频率" parameterValue="0.00125104258768260478973388671875"/>
            <parameter index="5" name="EQ 频段 1 Q" parameterValue="0.000199989997781813144683837890625"/>
            <parameter index="6" name="EQ 频段 1 增益" parameterValue="0.5"/>
            <parameter index="7" name="EQ 频段 1 启用" parameterValue="1"/>
            <parameter index="8" name="EQ 频段 2 中置频率" parameterValue="0.0075062550604343414306640625"/>
            <parameter index="9" name="EQ 频段 2 Q" parameterValue="0.000199989997781813144683837890625"/>
            <parameter index="10" name="EQ 频段 2 增益" parameterValue="0.5"/>
            <parameter index="11" name="EQ 频段 2 启用" parameterValue="1"/>
            <parameter index="12" name="EQ 频段 3 中置频率" parameterValue="0.0325271077454090118408203125"/>
            <parameter index="13" name="EQ 频段 3 Q" parameterValue="0.000199989997781813144683837890625"/>
            <parameter index="14" name="EQ 频段 3 增益" parameterValue="0.5"/>
            <parameter index="15" name="EQ 频段 3 启用" parameterValue="1"/>
            <parameter index="16" name="EQ 频段 4 中置频率" parameterValue="0.13261051476001739501953125"/>
            <parameter index="17" name="EQ 频段 4 Q" parameterValue="0.000199989997781813144683837890625"/>
            <parameter index="18" name="EQ 频段 4 增益" parameterValue="0.5"/>
            <parameter index="19" name="EQ 频段 4 启用" parameterValue="1"/>
            <parameter index="20" name="EQ 频段 5 中置频率" parameterValue="0.532944142818450927734375"/>
            <parameter index="21" name="EQ 频段 5 Q" parameterValue="0.000199989997781813144683837890625"/>
            <parameter index="22" name="EQ 频段 5 增益" parameterValue="0.5"/>
            <parameter index="23" name="EQ 频段 5 启用" parameterValue="1"/>
            <parameter index="24" name="增益" parameterValue="0.666666686534881591796875"/>
            <parameter index="25" name="恒定 Q" parameterValue="1"/>
            <parameter index="26" name="下限滤镜顺序" parameterValue="0"/>
            <parameter index="27" name="上限频率滤镜顺序" parameterValue="0"/>
            <parameter index="28" name="超静音模式" parameterValue="0"/>
            <parameter index="29" name="下限启用" parameterValue="1"/>
            <parameter index="30" name="上限频率启用" parameterValue="1"/>
            <parameter index="31" name="原始采样率" parameterValue="0.25"/>
            <parameter index="32" name="EQ 频段 1 频带宽" parameterValue="0.002499990165233612060546875"/>
            <parameter index="33" name="EQ 频段 2 频段宽度" parameterValue="0.0099999904632568359375"/>
            <parameter index="34" name="EQ 频段 3 频段宽度" parameterValue="0.0399999916553497314453125"/>
            <parameter index="35" name="EQ 频段 4 频段宽度" parameterValue="0.15999998152256011962890625"/>
            <parameter index="36" name="EQ 频段 5 频段宽度" parameterValue="0.63999998569488525390625"/>
            <parameter index="37" name="高通滤波启用" parameterValue="0"/>
            <parameter index="38" name="高通切除频率" parameterValue="0"/>
            <parameter index="39" name="高通斜率" parameterValue="0.4000000059604644775390625"/>
            <parameter index="40" name="低通滤波启用" parameterValue="0"/>
            <parameter index="41" name="低通切除频率" parameterValue="0.833194315433502197265625"/>
            <parameter index="42" name="低通斜率" parameterValue="0.4000000059604644775390625"/>
            <parameter index="43" name="不使用" parameterValue="0"/>
            <parameter index="44" name="下限图示范围" parameterValue="1"/>
          </component>
        </trackAudioParameters>
        <editParameter parameterIndex="0" slotIndex="4294967280"/>
        <audioClip clipAutoCrossfade="true" crossFadeHeadClipID="-1" crossFadeTailClipID="-1" endPoint="1315420" fileID="14" hue="-1" id="0" lockedInTime="false" looped="false" name="chinatown 48000 1" offline="false" select="false" sourceInPoint="0" sourceOutPoint="231178" startPoint="1084242" zOrder="0">
          <component componentGuid="d20d43b1-74f8-4520-83fd-4da3f1df808c" componentID="Audition.Fader" id="clipGain" name="volume" powered="true">
            <parameter index="0" name="volume" parameterValue="0.59944760799407958984375">
              <parameterKeyframes enableSplines="true" readOnly="false">
                <parameterKeyframe sampleOffset="0" select="false" type="linear" value="0"/>
                <parameterKeyframe sampleOffset="1" select="false" type="linear" value="0.81421434879302978515625"/>
                <parameterKeyframe sampleOffset="340487" select="false" type="linear" value="0.513697683811187744140625"/>
              </parameterKeyframes>
            </parameter>
            <parameter index="1" name="static gain" parameterValue="1"/>
          </component>
          <component componentGuid="b78cc53c-981a-40cf-b5b0-4d75dff0dc58" componentID="Audition.Mute" id="clipMute" name="Mute" powered="true">
            <parameter index="0" parameterValue="0"/>
            <parameter index="1" name="mute" parameterValue="0"/>
          </component>
          <component componentGuid="c45d3c7c-b678-4c14-8240-daafccddb101" componentID="Audition.StereoPanner" id="clipPan" name="StereoPanner" powered="true">
            <parameter index="0" name="声像" parameterValue="0"/>
          </component>
          <fadeIn crossFadeLinkType="linkedSymmetric" endPoint="0" shape="19" startPoint="0" type="log"/>
          <fadeOut crossFadeLinkType="linkedSymmetric" endPoint="231178" shape="19" startPoint="231178" type="log"/>
          <editParameter parameterIndex="0" slotIndex="4294967281"/>
          <editParameter parameterIndex="0" slotIndex="4294967280"/>
          <channelMap>
            <channel index="0" sourceIndex="0"/>
            <channel index="1" sourceIndex="1"/>
          </channelMap>
        </audioClip>
        <audioClip clipAutoCrossfade="true" crossFadeHeadClipID="-1" crossFadeTailClipID="-1" endPoint="1611912" fileID="15" hue="-1" id="1" lockedInTime="false" looped="false" name="chinatown2 48000 1" offline="false" select="false" sourceInPoint="79846" sourceOutPoint="376338" startPoint="1315420" zOrder="1">
          <component componentGuid="e11cda5d-4e57-46eb-91ee-1f6910fb67ed" componentID="Audition.Fader" id="clipGain" name="volume" powered="true">
            <parameter index="0" name="volume" parameterValue="1.96479094028472900390625">
              <parameterKeyframes enableSplines="false" readOnly="false">
                <parameterKeyframe sampleOffset="81425" select="false" type="linear" value="0.64999997615814208984375"/>
                <parameterKeyframe sampleOffset="117743" select="false" type="linear" value="0.7238543033599853515625"/>
                <parameterKeyframe sampleOffset="194201" select="false" type="linear" value="0.809380233287811279296875"/>
                <parameterKeyframe sampleOffset="247682" select="false" type="linear" value="0.811537265777587890625"/>
                <parameterKeyframe sampleOffset="296010" select="true" type="linear" value="1"/>
                <parameterKeyframe sampleOffset="358312" select="false" type="linear" value="0.819615542888641357421875"/>
              </parameterKeyframes>
            </parameter>
            <parameter index="1" name="static gain" parameterValue="1"/>
          </component>
          <component componentGuid="5620da32-e9e5-4d2a-887d-aae5b97419f6" componentID="Audition.Mute" id="clipMute" name="Mute" powered="true">
            <parameter index="0" parameterValue="0"/>
            <parameter index="1" name="mute" parameterValue="0"/>
          </component>
          <component componentGuid="6a4fc779-a7f0-40f9-a67a-e8fa7d089298" componentID="Audition.StereoPanner" id="clipPan" name="StereoPanner" powered="true">
            <parameter index="0" name="声像" parameterValue="0"/>
          </component>
          <fadeIn crossFadeLinkType="linkedSymmetric" endPoint="0" shape="19" startPoint="0" type="log"/>
          <fadeOut crossFadeLinkType="linkedSymmetric" endPoint="296492" shape="19" startPoint="296492" type="log"/>
          <editParameter parameterIndex="0" slotIndex="4294967281"/>
          <editParameter parameterIndex="0" slotIndex="4294967280"/>
          <channelMap>
            <channel index="0" sourceIndex="0"/>
            <channel index="1" sourceIndex="1"/>
          </channelMap>
        </audioClip>
      </audioTrack>
      <audioTrack automationLaneOpenState="false" id="10007" index="10" select="false" visible="true">
        <trackParameters trackHeight="157" trackHue="211" trackMinimized="false">
          <name>manhatton street</name>
        </trackParameters>
        <trackAudioParameters audioChannelType="stereo" automationMode="1" monitoring="false" recordArmed="false" solo="false" soloSafe="false">
          <trackOutput outputID="10000" type="trackID"/>
          <trackInput inputID="1"/>
          <component componentGuid="af907642-b146-4047-90f6-03e66e2859dc" componentID="Audition.Fader" id="trackFader" name="volume" powered="true">
            <parameter index="0" name="volume" parameterValue="1"/>
            <parameter index="1" name="static gain" parameterValue="1"/>
          </component>
          <component componentGuid="3389b892-858d-40b9-af5a-f0d14ecc5109" componentID="Audition.Mute" id="trackMute" name="Mute" powered="true">
            <parameter index="0" parameterValue="0"/>
            <parameter index="1" name="mute" parameterValue="0"/>
          </component>
          <component componentGuid="4bdff29f-f3f1-4a7a-ad92-3e22c44f3457" componentID="Audition.StereoPanner" id="trackPan" name="StereoPanner" powered="true">
            <parameter index="0" name="声像" parameterValue="0"/>
          </component>
          <component componentGuid="effb05e5-341e-4d0e-9077-79c71f5137ce" componentID="Audition.EQ" id="trackEQ" name="EQ" powered="false">
            <parameter index="0" name="下限频率" parameterValue="0.000834028352983295917510986328125"/>
            <parameter index="1" name="下限增益" parameterValue="0.5"/>
            <parameter index="2" name="上限频率" parameterValue="0.74979150295257568359375"/>
            <parameter index="3" name="上限频率增益" parameterValue="0.5"/>
            <parameter index="4" name="EQ 频段 1 中置频率" parameterValue="0.00125104258768260478973388671875"/>
            <parameter index="5" name="EQ 频段 1 Q" parameterValue="0.000199989997781813144683837890625"/>
            <parameter index="6" name="EQ 频段 1 增益" parameterValue="0.5"/>
            <parameter index="7" name="EQ 频段 1 启用" parameterValue="1"/>
            <parameter index="8" name="EQ 频段 2 中置频率" parameterValue="0.0075062550604343414306640625"/>
            <parameter index="9" name="EQ 频段 2 Q" parameterValue="0.000199989997781813144683837890625"/>
            <parameter index="10" name="EQ 频段 2 增益" parameterValue="0.5"/>
            <parameter index="11" name="EQ 频段 2 启用" parameterValue="1"/>
            <parameter index="12" name="EQ 频段 3 中置频率" parameterValue="0.0325271077454090118408203125"/>
            <parameter index="13" name="EQ 频段 3 Q" parameterValue="0.000199989997781813144683837890625"/>
            <parameter index="14" name="EQ 频段 3 增益" parameterValue="0.5"/>
            <parameter index="15" name="EQ 频段 3 启用" parameterValue="1"/>
            <parameter index="16" name="EQ 频段 4 中置频率" parameterValue="0.13261051476001739501953125"/>
            <parameter index="17" name="EQ 频段 4 Q" parameterValue="0.000199989997781813144683837890625"/>
            <parameter index="18" name="EQ 频段 4 增益" parameterValue="0.5"/>
            <parameter index="19" name="EQ 频段 4 启用" parameterValue="1"/>
            <parameter index="20" name="EQ 频段 5 中置频率" parameterValue="0.532944142818450927734375"/>
            <parameter index="21" name="EQ 频段 5 Q" parameterValue="0.000199989997781813144683837890625"/>
            <parameter index="22" name="EQ 频段 5 增益" parameterValue="0.5"/>
            <parameter index="23" name="EQ 频段 5 启用" parameterValue="1"/>
            <parameter index="24" name="增益" parameterValue="0.666666686534881591796875"/>
            <parameter index="25" name="恒定 Q" parameterValue="1"/>
            <parameter index="26" name="下限滤镜顺序" parameterValue="0"/>
            <parameter index="27" name="上限频率滤镜顺序" parameterValue="0"/>
            <parameter index="28" name="超静音模式" parameterValue="0"/>
            <parameter index="29" name="下限启用" parameterValue="1"/>
            <parameter index="30" name="上限频率启用" parameterValue="1"/>
            <parameter index="31" name="原始采样率" parameterValue="0.25"/>
            <parameter index="32" name="EQ 频段 1 频带宽" parameterValue="0.002499990165233612060546875"/>
            <parameter index="33" name="EQ 频段 2 频段宽度" parameterValue="0.0099999904632568359375"/>
            <parameter index="34" name="EQ 频段 3 频段宽度" parameterValue="0.0399999916553497314453125"/>
            <parameter index="35" name="EQ 频段 4 频段宽度" parameterValue="0.15999998152256011962890625"/>
            <parameter index="36" name="EQ 频段 5 频段宽度" parameterValue="0.63999998569488525390625"/>
            <parameter index="37" name="高通滤波启用" parameterValue="0"/>
            <parameter index="38" name="高通切除频率" parameterValue="0"/>
            <parameter index="39" name="高通斜率" parameterValue="0.4000000059604644775390625"/>
            <parameter index="40" name="低通滤波启用" parameterValue="0"/>
            <parameter index="41" name="低通切除频率" parameterValue="0.833194315433502197265625"/>
            <parameter index="42" name="低通斜率" parameterValue="0.4000000059604644775390625"/>
            <parameter index="43" name="不使用" parameterValue="0"/>
            <parameter index="44" name="下限图示范围" parameterValue="1"/>
          </component>
        </trackAudioParameters>
        <editParameter parameterIndex="0" slotIndex="4294967280"/>
        <audioClip clipAutoCrossfade="true" crossFadeHeadClipID="-1" crossFadeTailClipID="-1" endPoint="2547414" fileID="16" hue="-1" id="0" lockedInTime="false" looped="false" name="traffic 48000 1" offline="false" select="false" sourceInPoint="504711" sourceOutPoint="1252414" startPoint="1799711" zOrder="0">
          <component componentGuid="bab6740c-4ba5-47bf-b80c-365afab05570" componentID="Audition.Fader" id="clipGain" name="volume" powered="true">
            <parameter index="0" name="volume" parameterValue="0.2944816648960113525390625">
              <parameterKeyframes enableSplines="true" readOnly="false">
                <parameterKeyframe sampleOffset="519417" select="false" type="linear" value="0"/>
                <parameterKeyframe sampleOffset="520589" select="false" type="linear" value="0.09482204914093017578125"/>
                <parameterKeyframe sampleOffset="646805" select="false" type="linear" value="0.43730723857879638671875"/>
                <parameterKeyframe sampleOffset="777027" select="false" type="linear" value="0.64999997615814208984375"/>
                <parameterKeyframe sampleOffset="1124914" select="true" type="linear" value="0.376009285449981689453125"/>
              </parameterKeyframes>
            </parameter>
            <parameter index="1" name="static gain" parameterValue="1"/>
          </component>
          <component componentGuid="c79f9077-3c41-4a36-a55b-cf3f90208c23" componentID="Audition.Mute" id="clipMute" name="Mute" powered="true">
            <parameter index="0" parameterValue="0"/>
            <parameter index="1" name="mute" parameterValue="0"/>
          </component>
          <component componentGuid="7d8bf644-fdda-4443-b441-6bf961f46254" componentID="Audition.StereoPanner" id="clipPan" name="StereoPanner" powered="true">
            <parameter index="0" name="声像" parameterValue="0"/>
          </component>
          <fadeIn crossFadeLinkType="linkedSymmetric" endPoint="0" shape="19" startPoint="0" type="log"/>
          <fadeOut crossFadeLinkType="linkedSymmetric" endPoint="747703" shape="19" startPoint="747703" type="log"/>
          <editParameter parameterIndex="0" slotIndex="4294967281"/>
          <editParameter parameterIndex="0" slotIndex="4294967280"/>
          <channelMap>
            <channel index="0" sourceIndex="0"/>
            <channel index="1" sourceIndex="1"/>
          </channelMap>
        </audioClip>
        <audioClip clipAutoCrossfade="true" crossFadeHeadClipID="-1" crossFadeTailClipID="-1" endPoint="3217697" fileID="17" hue="-1" id="1" lockedInTime="false" looped="false" name="MHTstreet2 48000 1" offline="false" select="false" sourceInPoint="770380" sourceOutPoint="896280" startPoint="3091797" zOrder="1">
          <component componentGuid="36189b7f-3514-478c-abc2-eaca39cd7663" componentID="Audition.Fader" id="clipGain" name="volume" powered="true">
            <parameter index="0" name="volume" parameterValue="0.606122791767120361328125"/>
            <parameter index="1" name="static gain" parameterValue="1"/>
          </component>
          <component componentGuid="9667acc2-871e-436a-add3-e3d51aad748d" componentID="Audition.Mute" id="clipMute" name="Mute" powered="true">
            <parameter index="0" parameterValue="0"/>
            <parameter index="1" name="mute" parameterValue="0"/>
          </component>
          <component componentGuid="bd4ccd73-8ee9-428c-b179-c88592f62549" componentID="Audition.StereoPanner" id="clipPan" name="StereoPanner" powered="true">
            <parameter index="0" name="声像" parameterValue="0"/>
          </component>
          <fadeIn crossFadeLinkType="linkedSymmetric" endPoint="0" shape="19" startPoint="0" type="log"/>
          <fadeOut crossFadeLinkType="linkedSymmetric" endPoint="125900" shape="19" startPoint="125900" type="log"/>
          <editParameter parameterIndex="0" slotIndex="4294967281"/>
          <editParameter parameterIndex="0" slotIndex="4294967280"/>
          <channelMap>
            <channel index="0" sourceIndex="0"/>
            <channel index="1" sourceIndex="1"/>
          </channelMap>
        </audioClip>
        <audioClip clipAutoCrossfade="true" crossFadeHeadClipID="-1" crossFadeTailClipID="-1" endPoint="3729478" fileID="17" hue="-1" id="2" lockedInTime="false" looped="false" name="MHTstreet2 48000 1" offline="false" select="false" sourceInPoint="480983" sourceOutPoint="559588" startPoint="3650873" zOrder="2">
          <component componentGuid="a74a97c1-338b-4e7c-afc0-be31d2c55dd9" componentID="Audition.Fader" id="clipGain" name="volume" powered="true">
            <parameter index="0" name="volume" parameterValue="0.643414914608001708984375"/>
            <parameter index="1" name="static gain" parameterValue="1"/>
          </component>
          <component componentGuid="07f9a8e5-3180-4c32-b3e4-27b8978df7d2" componentID="Audition.Mute" id="clipMute" name="Mute" powered="true">
            <parameter index="0" parameterValue="0"/>
            <parameter index="1" name="mute" parameterValue="0"/>
          </component>
          <component componentGuid="196efec8-d4af-4204-b6c2-04ff2498f7fd" componentID="Audition.StereoPanner" id="clipPan" name="StereoPanner" powered="true">
            <parameter index="0" name="声像" parameterValue="0"/>
          </component>
          <fadeIn crossFadeLinkType="linkedSymmetric" endPoint="0" shape="19" startPoint="0" type="log"/>
          <fadeOut crossFadeLinkType="linkedSymmetric" endPoint="78605" shape="19" startPoint="78605" type="log"/>
          <clipStretch adaptiveWindowSize="37" pitchAdjustment="0" preserveFormants="true" stretchMode="realtime" stretchQuality="high" stretchRatio="0.62434471803018265489981786231510341167449951171875" stretchType="solo" transientSensitivity="40"/>
          <editParameter parameterIndex="0" slotIndex="4294967281"/>
          <editParameter parameterIndex="0" slotIndex="4294967280"/>
          <channelMap>
            <channel index="0" sourceIndex="0"/>
            <channel index="1" sourceIndex="1"/>
          </channelMap>
        </audioClip>
      </audioTrack>
      <audioTrack automationLaneOpenState="false" id="10016" index="11" select="false" visible="true">
        <trackParameters trackHeight="157" trackHue="51" trackMinimized="false">
          <name>manhatton street2</name>
        </trackParameters>
        <trackAudioParameters audioChannelType="stereo" automationMode="1" monitoring="false" recordArmed="false" solo="false" soloSafe="false">
          <trackOutput outputID="10000" type="trackID"/>
          <trackInput inputID="1"/>
          <component componentGuid="3b3ec60c-b0e2-42a9-88da-d909655982d1" componentID="Audition.Fader" id="trackFader" name="volume" powered="true">
            <parameter index="0" name="volume" parameterValue="1"/>
            <parameter index="1" name="static gain" parameterValue="1"/>
          </component>
          <component componentGuid="19289aaa-ca02-475f-bc2d-a9b018f9848b" componentID="Audition.Mute" id="trackMute" name="Mute" powered="true">
            <parameter index="0" parameterValue="0"/>
            <parameter index="1" name="mute" parameterValue="0"/>
          </component>
          <component componentGuid="d9834e53-8c61-43ae-aeca-7cec981c4adf" componentID="Audition.StereoPanner" id="trackPan" name="StereoPanner" powered="true">
            <parameter index="0" name="声像" parameterValue="0"/>
          </component>
          <component componentGuid="4f3d30e2-63ae-47ef-ab9e-3b7edea59ba1" componentID="Audition.EQ" id="trackEQ" name="EQ" powered="false">
            <parameter index="0" name="下限频率" parameterValue="0.000834028352983295917510986328125"/>
            <parameter index="1" name="下限增益" parameterValue="0.5"/>
            <parameter index="2" name="上限频率" parameterValue="0.74979150295257568359375"/>
            <parameter index="3" name="上限频率增益" parameterValue="0.5"/>
            <parameter index="4" name="EQ 频段 1 中置频率" parameterValue="0.00125104258768260478973388671875"/>
            <parameter index="5" name="EQ 频段 1 Q" parameterValue="0.000199989997781813144683837890625"/>
            <parameter index="6" name="EQ 频段 1 增益" parameterValue="0.5"/>
            <parameter index="7" name="EQ 频段 1 启用" parameterValue="1"/>
            <parameter index="8" name="EQ 频段 2 中置频率" parameterValue="0.0075062550604343414306640625"/>
            <parameter index="9" name="EQ 频段 2 Q" parameterValue="0.000199989997781813144683837890625"/>
            <parameter index="10" name="EQ 频段 2 增益" parameterValue="0.5"/>
            <parameter index="11" name="EQ 频段 2 启用" parameterValue="1"/>
            <parameter index="12" name="EQ 频段 3 中置频率" parameterValue="0.0325271077454090118408203125"/>
            <parameter index="13" name="EQ 频段 3 Q" parameterValue="0.000199989997781813144683837890625"/>
            <parameter index="14" name="EQ 频段 3 增益" parameterValue="0.5"/>
            <parameter index="15" name="EQ 频段 3 启用" parameterValue="1"/>
            <parameter index="16" name="EQ 频段 4 中置频率" parameterValue="0.13261051476001739501953125"/>
            <parameter index="17" name="EQ 频段 4 Q" parameterValue="0.000199989997781813144683837890625"/>
            <parameter index="18" name="EQ 频段 4 增益" parameterValue="0.5"/>
            <parameter index="19" name="EQ 频段 4 启用" parameterValue="1"/>
            <parameter index="20" name="EQ 频段 5 中置频率" parameterValue="0.532944142818450927734375"/>
            <parameter index="21" name="EQ 频段 5 Q" parameterValue="0.000199989997781813144683837890625"/>
            <parameter index="22" name="EQ 频段 5 增益" parameterValue="0.5"/>
            <parameter index="23" name="EQ 频段 5 启用" parameterValue="1"/>
            <parameter index="24" name="增益" parameterValue="0.666666686534881591796875"/>
            <parameter index="25" name="恒定 Q" parameterValue="1"/>
            <parameter index="26" name="下限滤镜顺序" parameterValue="0"/>
            <parameter index="27" name="上限频率滤镜顺序" parameterValue="0"/>
            <parameter index="28" name="超静音模式" parameterValue="0"/>
            <parameter index="29" name="下限启用" parameterValue="1"/>
            <parameter index="30" name="上限频率启用" parameterValue="1"/>
            <parameter index="31" name="原始采样率" parameterValue="0.25"/>
            <parameter index="32" name="EQ 频段 1 频带宽" parameterValue="0.002499990165233612060546875"/>
            <parameter index="33" name="EQ 频段 2 频段宽度" parameterValue="0.0099999904632568359375"/>
            <parameter index="34" name="EQ 频段 3 频段宽度" parameterValue="0.0399999916553497314453125"/>
            <parameter index="35" name="EQ 频段 4 频段宽度" parameterValue="0.15999998152256011962890625"/>
            <parameter index="36" name="EQ 频段 5 频段宽度" parameterValue="0.63999998569488525390625"/>
            <parameter index="37" name="高通滤波启用" parameterValue="0"/>
            <parameter index="38" name="高通切除频率" parameterValue="0"/>
            <parameter index="39" name="高通斜率" parameterValue="0.4000000059604644775390625"/>
            <parameter index="40" name="低通滤波启用" parameterValue="0"/>
            <parameter index="41" name="低通切除频率" parameterValue="0.833194315433502197265625"/>
            <parameter index="42" name="低通斜率" parameterValue="0.4000000059604644775390625"/>
            <parameter index="43" name="不使用" parameterValue="0"/>
            <parameter index="44" name="下限图示范围" parameterValue="1"/>
          </component>
        </trackAudioParameters>
        <editParameter parameterIndex="0" slotIndex="4294967280"/>
        <audioClip clipAutoCrossfade="true" crossFadeHeadClipID="-1" crossFadeTailClipID="-1" endPoint="2101919" fileID="17" hue="-1" id="0" lockedInTime="false" looped="false" name="MHTstreet2 48000 1" offline="false" select="false" sourceInPoint="274297" sourceOutPoint="576505" startPoint="1799711" zOrder="0">
          <component componentGuid="e9dcc21b-6e61-47fe-8a0e-9890718de219" componentID="Audition.Fader" id="clipGain" name="volume" powered="true">
            <parameter index="0" name="volume" parameterValue="0.971328675746917724609375">
              <parameterKeyframes enableSplines="true" readOnly="false">
                <parameterKeyframe sampleOffset="274297" select="false" type="linear" value="0"/>
                <parameterKeyframe sampleOffset="274298" select="false" type="linear" value="0"/>
                <parameterKeyframe sampleOffset="303583" select="false" type="linear" value="0.2944227755069732666015625"/>
                <parameterKeyframe sampleOffset="401041" select="true" type="linear" value="0.64999997615814208984375"/>
              </parameterKeyframes>
            </parameter>
            <parameter index="1" name="static gain" parameterValue="1"/>
          </component>
          <component componentGuid="44450b5a-5948-4677-aa36-3433c67095ed" componentID="Audition.Mute" id="clipMute" name="Mute" powered="true">
            <parameter index="0" parameterValue="0"/>
            <parameter index="1" name="mute" parameterValue="0"/>
          </component>
          <component componentGuid="4c106db8-706f-4b6a-a8b8-1c7901c9588b" componentID="Audition.StereoPanner" id="clipPan" name="StereoPanner" powered="true">
            <parameter index="0" name="声像" parameterValue="0"/>
          </component>
          <fadeIn crossFadeLinkType="linkedSymmetric" endPoint="0" shape="19" startPoint="0" type="log"/>
          <fadeOut crossFadeLinkType="linkedSymmetric" endPoint="302208" shape="19" startPoint="302208" type="log"/>
          <editParameter parameterIndex="0" slotIndex="4294967281"/>
          <editParameter parameterIndex="0" slotIndex="4294967280"/>
          <channelMap>
            <channel index="0" sourceIndex="0"/>
            <channel index="1" sourceIndex="1"/>
          </channelMap>
        </audioClip>
        <audioClip clipAutoCrossfade="true" crossFadeHeadClipID="-1" crossFadeTailClipID="-1" endPoint="2248402" fileID="17" hue="-1" id="1" lockedInTime="false" looped="false" name="MHTstreet2 48000 1" offline="false" select="false" sourceInPoint="770380" sourceOutPoint="916863" startPoint="2101919" zOrder="1">
          <component componentGuid="e1a07baa-74a8-47ac-90e8-96ebd9dd0854" componentID="Audition.Fader" id="clipGain" name="volume" powered="true">
            <parameter index="0" name="volume" parameterValue="1"/>
            <parameter index="1" name="static gain" parameterValue="1"/>
          </component>
          <component componentGuid="e6670d3a-2b41-44d5-83a3-4d25dc50514c" componentID="Audition.Mute" id="clipMute" name="Mute" powered="true">
            <parameter index="0" parameterValue="0"/>
            <parameter index="1" name="mute" parameterValue="0"/>
          </component>
          <component componentGuid="7f4bcf29-6a82-4cae-b9ec-86dbcb95cce5" componentID="Audition.StereoPanner" id="clipPan" name="StereoPanner" powered="true">
            <parameter index="0" name="声像" parameterValue="0"/>
          </component>
          <fadeIn crossFadeLinkType="linkedSymmetric" endPoint="0" shape="19" startPoint="0" type="log"/>
          <fadeOut crossFadeLinkType="linkedSymmetric" endPoint="146483" shape="19" startPoint="146483" type="log"/>
          <editParameter parameterIndex="0" slotIndex="4294967280"/>
          <editParameter parameterIndex="0" slotIndex="4294967281"/>
          <channelMap>
            <channel index="0" sourceIndex="0"/>
            <channel index="1" sourceIndex="1"/>
          </channelMap>
        </audioClip>
        <audioClip clipAutoCrossfade="true" crossFadeHeadClipID="-1" crossFadeTailClipID="-1" endPoint="2547414" fileID="17" hue="-1" id="2" lockedInTime="false" looped="false" name="MHTstreet2 48000 1" offline="false" select="false" sourceInPoint="1026007" sourceOutPoint="1325019" startPoint="2248402" zOrder="2">
          <component componentGuid="edbb13b7-4f8e-440c-b66c-e817df78f7ed" componentID="Audition.Fader" id="clipGain" name="volume" powered="true">
            <parameter index="0" name="volume" parameterValue="1"/>
            <parameter index="1" name="static gain" parameterValue="1"/>
          </component>
          <component componentGuid="a1874d69-cd9f-4a8b-8a3b-ddd8cd500499" componentID="Audition.Mute" id="clipMute" name="Mute" powered="true">
            <parameter index="0" parameterValue="0"/>
            <parameter index="1" name="mute" parameterValue="0"/>
          </component>
          <component componentGuid="e966d4c8-48d3-4cff-8961-815dceccf7f6" componentID="Audition.StereoPanner" id="clipPan" name="StereoPanner" powered="true">
            <parameter index="0" name="声像" parameterValue="0"/>
          </component>
          <fadeIn crossFadeLinkType="linkedSymmetric" endPoint="0" shape="19" startPoint="0" type="log"/>
          <fadeOut crossFadeLinkType="linkedSymmetric" endPoint="299012" shape="19" startPoint="299012" type="log"/>
          <editParameter parameterIndex="0" slotIndex="4294967280"/>
          <editParameter parameterIndex="0" slotIndex="4294967281"/>
          <channelMap>
            <channel index="0" sourceIndex="0"/>
            <channel index="1" sourceIndex="1"/>
          </channelMap>
        </audioClip>
      </audioTrack>
      <audioTrack automationLaneOpenState="false" id="10010" index="12" select="false" visible="true">
        <trackParameters trackHeight="157" trackHue="326" trackMinimized="false">
          <name>metro</name>
        </trackParameters>
        <trackAudioParameters audioChannelType="stereo" automationMode="1" monitoring="false" recordArmed="false" solo="false" soloSafe="false">
          <trackOutput outputID="10000" type="trackID"/>
          <trackInput inputID="1"/>
          <component componentGuid="ec7a1fdd-de9a-4569-b9ad-af3705ba051e" componentID="Audition.Fader" id="trackFader" name="volume" powered="true">
            <parameter index="0" name="volume" parameterValue="0.2985382378101348876953125"/>
            <parameter index="1" name="static gain" parameterValue="1"/>
          </component>
          <component componentGuid="22af30b8-e94f-43c8-b996-fb1af0d96927" componentID="Audition.Mute" id="trackMute" name="Mute" powered="true">
            <parameter index="0" parameterValue="0"/>
            <parameter index="1" name="mute" parameterValue="1"/>
          </component>
          <component componentGuid="e0da2c36-2b0b-4c5b-810f-23c0c6b83850" componentID="Audition.StereoPanner" id="trackPan" name="StereoPanner" powered="true">
            <parameter index="0" name="声像" parameterValue="0"/>
          </component>
          <component componentGuid="68995a12-d55f-4cd9-bab2-fafeeae98537" componentID="Audition.EQ" id="trackEQ" name="EQ" powered="false">
            <parameter index="0" name="下限频率" parameterValue="0.000834028352983295917510986328125"/>
            <parameter index="1" name="下限增益" parameterValue="0.5"/>
            <parameter index="2" name="上限频率" parameterValue="0.74979150295257568359375"/>
            <parameter index="3" name="上限频率增益" parameterValue="0.5"/>
            <parameter index="4" name="EQ 频段 1 中置频率" parameterValue="0.00125104258768260478973388671875"/>
            <parameter index="5" name="EQ 频段 1 Q" parameterValue="0.000199989997781813144683837890625"/>
            <parameter index="6" name="EQ 频段 1 增益" parameterValue="0.5"/>
            <parameter index="7" name="EQ 频段 1 启用" parameterValue="1"/>
            <parameter index="8" name="EQ 频段 2 中置频率" parameterValue="0.0075062550604343414306640625"/>
            <parameter index="9" name="EQ 频段 2 Q" parameterValue="0.000199989997781813144683837890625"/>
            <parameter index="10" name="EQ 频段 2 增益" parameterValue="0.5"/>
            <parameter index="11" name="EQ 频段 2 启用" parameterValue="1"/>
            <parameter index="12" name="EQ 频段 3 中置频率" parameterValue="0.0325271077454090118408203125"/>
            <parameter index="13" name="EQ 频段 3 Q" parameterValue="0.000199989997781813144683837890625"/>
            <parameter index="14" name="EQ 频段 3 增益" parameterValue="0.5"/>
            <parameter index="15" name="EQ 频段 3 启用" parameterValue="1"/>
            <parameter index="16" name="EQ 频段 4 中置频率" parameterValue="0.13261051476001739501953125"/>
            <parameter index="17" name="EQ 频段 4 Q" parameterValue="0.000199989997781813144683837890625"/>
            <parameter index="18" name="EQ 频段 4 增益" parameterValue="0.5"/>
            <parameter index="19" name="EQ 频段 4 启用" parameterValue="1"/>
            <parameter index="20" name="EQ 频段 5 中置频率" parameterValue="0.532944142818450927734375"/>
            <parameter index="21" name="EQ 频段 5 Q" parameterValue="0.000199989997781813144683837890625"/>
            <parameter index="22" name="EQ 频段 5 增益" parameterValue="0.5"/>
            <parameter index="23" name="EQ 频段 5 启用" parameterValue="1"/>
            <parameter index="24" name="增益" parameterValue="0.666666686534881591796875"/>
            <parameter index="25" name="恒定 Q" parameterValue="1"/>
            <parameter index="26" name="下限滤镜顺序" parameterValue="0"/>
            <parameter index="27" name="上限频率滤镜顺序" parameterValue="0"/>
            <parameter index="28" name="超静音模式" parameterValue="0"/>
            <parameter index="29" name="下限启用" parameterValue="1"/>
            <parameter index="30" name="上限频率启用" parameterValue="1"/>
            <parameter index="31" name="原始采样率" parameterValue="0.25"/>
            <parameter index="32" name="EQ 频段 1 频带宽" parameterValue="0.002499990165233612060546875"/>
            <parameter index="33" name="EQ 频段 2 频段宽度" parameterValue="0.0099999904632568359375"/>
            <parameter index="34" name="EQ 频段 3 频段宽度" parameterValue="0.0399999916553497314453125"/>
            <parameter index="35" name="EQ 频段 4 频段宽度" parameterValue="0.15999998152256011962890625"/>
            <parameter index="36" name="EQ 频段 5 频段宽度" parameterValue="0.63999998569488525390625"/>
            <parameter index="37" name="高通滤波启用" parameterValue="0"/>
            <parameter index="38" name="高通切除频率" parameterValue="0"/>
            <parameter index="39" name="高通斜率" parameterValue="0.4000000059604644775390625"/>
            <parameter index="40" name="低通滤波启用" parameterValue="0"/>
            <parameter index="41" name="低通切除频率" parameterValue="0.833194315433502197265625"/>
            <parameter index="42" name="低通斜率" parameterValue="0.4000000059604644775390625"/>
            <parameter index="43" name="不使用" parameterValue="0"/>
            <parameter index="44" name="下限图示范围" parameterValue="1"/>
          </component>
        </trackAudioParameters>
        <editParameter parameterIndex="0" slotIndex="4294967280"/>
        <audioClip clipAutoCrossfade="true" crossFadeHeadClipID="-1" crossFadeTailClipID="-1" endPoint="3988436" fileID="18" hue="-1" id="0" lockedInTime="false" looped="false" name="subway 48000 1" offline="false" select="false" sourceInPoint="713362" sourceOutPoint="2011249" startPoint="2690549" zOrder="0">
          <component componentGuid="29550403-2ca8-4d7f-818b-41d0905eb4d0" componentID="Audition.Fader" id="clipGain" name="volume" powered="true">
            <parameter index="0" name="volume" parameterValue="0.709335803985595703125">
              <parameterKeyframes enableSplines="false" readOnly="false">
                <parameterKeyframe sampleOffset="713362" select="false" type="linear" value="0.1267899572849273681640625"/>
                <parameterKeyframe sampleOffset="886769" select="true" type="linear" value="0.577894687652587890625"/>
                <parameterKeyframe sampleOffset="1034339" select="false" type="linear" value="0.64999997615814208984375"/>
                <parameterKeyframe sampleOffset="1203771" select="false" type="linear" value="0.52216517925262451171875"/>
              </parameterKeyframes>
            </parameter>
            <parameter index="1" name="static gain" parameterValue="1"/>
          </component>
          <component componentGuid="896581d1-23b5-4ea7-bafd-29a2d7b8969b" componentID="Audition.Mute" id="clipMute" name="Mute" powered="true">
            <parameter index="0" parameterValue="0"/>
            <parameter index="1" name="mute" parameterValue="0"/>
          </component>
          <component componentGuid="971a61a9-eee4-45e0-9f4b-afd765189bf0" componentID="Audition.StereoPanner" id="clipPan" name="StereoPanner" powered="true">
            <parameter index="0" name="声像" parameterValue="0"/>
          </component>
          <fadeIn crossFadeLinkType="linkedSymmetric" endPoint="0" shape="19" startPoint="0" type="log"/>
          <fadeOut crossFadeLinkType="linkedSymmetric" endPoint="1297887" shape="19" startPoint="1297887" type="log"/>
          <editParameter parameterIndex="0" slotIndex="4294967281"/>
          <editParameter parameterIndex="0" slotIndex="4294967280"/>
          <channelMap>
            <channel index="0" sourceIndex="0"/>
            <channel index="1" sourceIndex="1"/>
          </channelMap>
        </audioClip>
      </audioTrack>
      <audioTrack automationLaneOpenState="false" id="10011" index="13" select="false" visible="true">
        <trackParameters trackHeight="157" trackHue="130" trackMinimized="false">
          <name>beach</name>
        </trackParameters>
        <trackAudioParameters audioChannelType="stereo" automationMode="1" monitoring="false" recordArmed="false" solo="false" soloSafe="false">
          <trackOutput outputID="10000" type="trackID"/>
          <trackInput inputID="1"/>
          <component componentGuid="dcaebe68-ab2a-4aa4-863f-eb235426ceb2" componentID="Audition.Fader" id="trackFader" name="volume" powered="true">
            <parameter index="0" name="volume" parameterValue="1"/>
            <parameter index="1" name="static gain" parameterValue="1"/>
          </component>
          <component componentGuid="bf23677a-c47a-4690-b679-39159c8b760c" componentID="Audition.Mute" id="trackMute" name="Mute" powered="true">
            <parameter index="0" parameterValue="0"/>
            <parameter index="1" name="mute" parameterValue="0"/>
          </component>
          <component componentGuid="99d1ae05-3bf8-4161-8981-9a9b5f8de3da" componentID="Audition.StereoPanner" id="trackPan" name="StereoPanner" powered="true">
            <parameter index="0" name="声像" parameterValue="0"/>
          </component>
          <component componentGuid="9044fa48-77a1-4fd0-ac5c-bf7c92a7655c" componentID="Audition.EQ" id="trackEQ" name="EQ" powered="false">
            <parameter index="0" name="下限频率" parameterValue="0.000834028352983295917510986328125"/>
            <parameter index="1" name="下限增益" parameterValue="0.5"/>
            <parameter index="2" name="上限频率" parameterValue="0.74979150295257568359375"/>
            <parameter index="3" name="上限频率增益" parameterValue="0.5"/>
            <parameter index="4" name="EQ 频段 1 中置频率" parameterValue="0.00125104258768260478973388671875"/>
            <parameter index="5" name="EQ 频段 1 Q" parameterValue="0.000199989997781813144683837890625"/>
            <parameter index="6" name="EQ 频段 1 增益" parameterValue="0.5"/>
            <parameter index="7" name="EQ 频段 1 启用" parameterValue="1"/>
            <parameter index="8" name="EQ 频段 2 中置频率" parameterValue="0.0075062550604343414306640625"/>
            <parameter index="9" name="EQ 频段 2 Q" parameterValue="0.000199989997781813144683837890625"/>
            <parameter index="10" name="EQ 频段 2 增益" parameterValue="0.5"/>
            <parameter index="11" name="EQ 频段 2 启用" parameterValue="1"/>
            <parameter index="12" name="EQ 频段 3 中置频率" parameterValue="0.0325271077454090118408203125"/>
            <parameter index="13" name="EQ 频段 3 Q" parameterValue="0.000199989997781813144683837890625"/>
            <parameter index="14" name="EQ 频段 3 增益" parameterValue="0.5"/>
            <parameter index="15" name="EQ 频段 3 启用" parameterValue="1"/>
            <parameter index="16" name="EQ 频段 4 中置频率" parameterValue="0.13261051476001739501953125"/>
            <parameter index="17" name="EQ 频段 4 Q" parameterValue="0.000199989997781813144683837890625"/>
            <parameter index="18" name="EQ 频段 4 增益" parameterValue="0.5"/>
            <parameter index="19" name="EQ 频段 4 启用" parameterValue="1"/>
            <parameter index="20" name="EQ 频段 5 中置频率" parameterValue="0.532944142818450927734375"/>
            <parameter index="21" name="EQ 频段 5 Q" parameterValue="0.000199989997781813144683837890625"/>
            <parameter index="22" name="EQ 频段 5 增益" parameterValue="0.5"/>
            <parameter index="23" name="EQ 频段 5 启用" parameterValue="1"/>
            <parameter index="24" name="增益" parameterValue="0.666666686534881591796875"/>
            <parameter index="25" name="恒定 Q" parameterValue="1"/>
            <parameter index="26" name="下限滤镜顺序" parameterValue="0"/>
            <parameter index="27" name="上限频率滤镜顺序" parameterValue="0"/>
            <parameter index="28" name="超静音模式" parameterValue="0"/>
            <parameter index="29" name="下限启用" parameterValue="1"/>
            <parameter index="30" name="上限频率启用" parameterValue="1"/>
            <parameter index="31" name="原始采样率" parameterValue="0.25"/>
            <parameter index="32" name="EQ 频段 1 频带宽" parameterValue="0.002499990165233612060546875"/>
            <parameter index="33" name="EQ 频段 2 频段宽度" parameterValue="0.0099999904632568359375"/>
            <parameter index="34" name="EQ 频段 3 频段宽度" parameterValue="0.0399999916553497314453125"/>
            <parameter index="35" name="EQ 频段 4 频段宽度" parameterValue="0.15999998152256011962890625"/>
            <parameter index="36" name="EQ 频段 5 频段宽度" parameterValue="0.63999998569488525390625"/>
            <parameter index="37" name="高通滤波启用" parameterValue="0"/>
            <parameter index="38" name="高通切除频率" parameterValue="0"/>
            <parameter index="39" name="高通斜率" parameterValue="0.4000000059604644775390625"/>
            <parameter index="40" name="低通滤波启用" parameterValue="0"/>
            <parameter index="41" name="低通切除频率" parameterValue="0.833194315433502197265625"/>
            <parameter index="42" name="低通斜率" parameterValue="0.4000000059604644775390625"/>
            <parameter index="43" name="不使用" parameterValue="0"/>
            <parameter index="44" name="下限图示范围" parameterValue="1"/>
          </component>
        </trackAudioParameters>
        <editParameter parameterIndex="0" slotIndex="4294967280"/>
        <audioClip clipAutoCrossfade="true" crossFadeHeadClipID="-1" crossFadeTailClipID="-1" endPoint="5011380" fileID="19" hue="-1" id="0" lockedInTime="false" looped="false" name="beach-8 48000 1" offline="false" select="false" sourceInPoint="0" sourceOutPoint="1022944" startPoint="3988436" zOrder="0">
          <component componentGuid="b1b46088-4b26-48c2-80cd-fdaac59a3eed" componentID="Audition.Fader" id="clipGain" name="volume" powered="true">
            <parameter index="0" name="volume" parameterValue="1.0000000036274937255387218471014421083964407444000244140625e-15">
              <parameterKeyframes enableSplines="true" readOnly="false">
                <parameterKeyframe sampleOffset="0" select="false" type="linear" value="0"/>
                <parameterKeyframe sampleOffset="188663" select="false" type="linear" value="0.30172932147979736328125"/>
                <parameterKeyframe sampleOffset="394347" select="false" type="linear" value="0.46052205562591552734375"/>
                <parameterKeyframe sampleOffset="920886" select="true" type="linear" value="0.26219594478607177734375"/>
              </parameterKeyframes>
            </parameter>
            <parameter index="1" name="static gain" parameterValue="1"/>
          </component>
          <component componentGuid="2d743615-37ee-48e0-bc34-a4fef86fc17e" componentID="Audition.Mute" id="clipMute" name="Mute" powered="true">
            <parameter index="0" parameterValue="0"/>
            <parameter index="1" name="mute" parameterValue="0"/>
          </component>
          <component componentGuid="069e2041-60b2-4e5a-8ae0-442c6b928388" componentID="Audition.StereoPanner" id="clipPan" name="StereoPanner" powered="true">
            <parameter index="0" name="声像" parameterValue="0"/>
          </component>
          <fadeIn crossFadeLinkType="linkedSymmetric" endPoint="0" shape="19" startPoint="0" type="log"/>
          <fadeOut crossFadeLinkType="linkedSymmetric" endPoint="1022944" shape="19" startPoint="1022944" type="log"/>
          <editParameter parameterIndex="0" slotIndex="4294967281"/>
          <editParameter parameterIndex="0" slotIndex="4294967280"/>
          <channelMap>
            <channel index="0" sourceIndex="0"/>
            <channel index="1" sourceIndex="1"/>
          </channelMap>
        </audioClip>
      </audioTrack>
      <audioTrack automationLaneOpenState="false" id="10012" index="14" select="false" visible="true">
        <trackParameters trackHeight="157" trackHue="240" trackMinimized="false">
          <name>water</name>
        </trackParameters>
        <trackAudioParameters audioChannelType="stereo" automationMode="1" monitoring="false" recordArmed="false" solo="false" soloSafe="false">
          <trackOutput outputID="10000" type="trackID"/>
          <trackInput inputID="1"/>
          <component componentGuid="eac58b2b-c4b8-403b-910e-c0f545d15486" componentID="Audition.Fader" id="trackFader" name="volume" powered="true">
            <parameter index="0" name="volume" parameterValue="1"/>
            <parameter index="1" name="static gain" parameterValue="1"/>
          </component>
          <component componentGuid="85280b39-1259-46e6-8db5-13a1b2d852ca" componentID="Audition.Mute" id="trackMute" name="Mute" powered="true">
            <parameter index="0" parameterValue="0"/>
            <parameter index="1" name="mute" parameterValue="0"/>
          </component>
          <component componentGuid="d6e972c6-87df-4e72-b912-6e6255b15179" componentID="Audition.StereoPanner" id="trackPan" name="StereoPanner" powered="true">
            <parameter index="0" name="声像" parameterValue="0"/>
          </component>
          <component componentGuid="1fa488c0-2bbb-4202-93f1-de14f50c2da5" componentID="Audition.EQ" id="trackEQ" name="EQ" powered="false">
            <parameter index="0" name="下限频率" parameterValue="0.000834028352983295917510986328125"/>
            <parameter index="1" name="下限增益" parameterValue="0.5"/>
            <parameter index="2" name="上限频率" parameterValue="0.74979150295257568359375"/>
            <parameter index="3" name="上限频率增益" parameterValue="0.5"/>
            <parameter index="4" name="EQ 频段 1 中置频率" parameterValue="0.00125104258768260478973388671875"/>
            <parameter index="5" name="EQ 频段 1 Q" parameterValue="0.000199989997781813144683837890625"/>
            <parameter index="6" name="EQ 频段 1 增益" parameterValue="0.5"/>
            <parameter index="7" name="EQ 频段 1 启用" parameterValue="1"/>
            <parameter index="8" name="EQ 频段 2 中置频率" parameterValue="0.0075062550604343414306640625"/>
            <parameter index="9" name="EQ 频段 2 Q" parameterValue="0.000199989997781813144683837890625"/>
            <parameter index="10" name="EQ 频段 2 增益" parameterValue="0.5"/>
            <parameter index="11" name="EQ 频段 2 启用" parameterValue="1"/>
            <parameter index="12" name="EQ 频段 3 中置频率" parameterValue="0.0325271077454090118408203125"/>
            <parameter index="13" name="EQ 频段 3 Q" parameterValue="0.000199989997781813144683837890625"/>
            <parameter index="14" name="EQ 频段 3 增益" parameterValue="0.5"/>
            <parameter index="15" name="EQ 频段 3 启用" parameterValue="1"/>
            <parameter index="16" name="EQ 频段 4 中置频率" parameterValue="0.13261051476001739501953125"/>
            <parameter index="17" name="EQ 频段 4 Q" parameterValue="0.000199989997781813144683837890625"/>
            <parameter index="18" name="EQ 频段 4 增益" parameterValue="0.5"/>
            <parameter index="19" name="EQ 频段 4 启用" parameterValue="1"/>
            <parameter index="20" name="EQ 频段 5 中置频率" parameterValue="0.532944142818450927734375"/>
            <parameter index="21" name="EQ 频段 5 Q" parameterValue="0.000199989997781813144683837890625"/>
            <parameter index="22" name="EQ 频段 5 增益" parameterValue="0.5"/>
            <parameter index="23" name="EQ 频段 5 启用" parameterValue="1"/>
            <parameter index="24" name="增益" parameterValue="0.666666686534881591796875"/>
            <parameter index="25" name="恒定 Q" parameterValue="1"/>
            <parameter index="26" name="下限滤镜顺序" parameterValue="0"/>
            <parameter index="27" name="上限频率滤镜顺序" parameterValue="0"/>
            <parameter index="28" name="超静音模式" parameterValue="0"/>
            <parameter index="29" name="下限启用" parameterValue="1"/>
            <parameter index="30" name="上限频率启用" parameterValue="1"/>
            <parameter index="31" name="原始采样率" parameterValue="0.25"/>
            <parameter index="32" name="EQ 频段 1 频带宽" parameterValue="0.002499990165233612060546875"/>
            <parameter index="33" name="EQ 频段 2 频段宽度" parameterValue="0.0099999904632568359375"/>
            <parameter index="34" name="EQ 频段 3 频段宽度" parameterValue="0.0399999916553497314453125"/>
            <parameter index="35" name="EQ 频段 4 频段宽度" parameterValue="0.15999998152256011962890625"/>
            <parameter index="36" name="EQ 频段 5 频段宽度" parameterValue="0.63999998569488525390625"/>
            <parameter index="37" name="高通滤波启用" parameterValue="0"/>
            <parameter index="38" name="高通切除频率" parameterValue="0"/>
            <parameter index="39" name="高通斜率" parameterValue="0.4000000059604644775390625"/>
            <parameter index="40" name="低通滤波启用" parameterValue="0"/>
            <parameter index="41" name="低通切除频率" parameterValue="0.833194315433502197265625"/>
            <parameter index="42" name="低通斜率" parameterValue="0.4000000059604644775390625"/>
            <parameter index="43" name="不使用" parameterValue="0"/>
            <parameter index="44" name="下限图示范围" parameterValue="1"/>
          </component>
        </trackAudioParameters>
        <effectsRack preFader="true">
          <component componentGuid="5d9a78bf-b7dc-4f52-a477-272ae8e21bd2" componentID="Audition.ComponentGroup" id="rackMix" powered="true">
            <parameter index="0" parameterValue="0"/>
            <parameter index="1" parameterValue="0"/>
          </component>
          <component componentGuid="4d34764c-a69d-48ac-8959-54bb98879304" id="rackInput" powered="true">
            <parameter index="0" parameterValue="1"/>
            <parameter index="1" parameterValue="0"/>
          </component>
          <component componentGuid="daf661c8-bf3b-4fb8-a84c-d984d9e273ea" id="rackOutput" powered="true">
            <parameter index="0" parameterValue="1"/>
            <parameter index="1" parameterValue="0"/>
          </component>
          <slot powered="true" slotIndex="0">
            <component componentGuid="96421625-145e-4746-a364-277667c99e6a" componentID="4f327230-f04c-4c34-9ea5-a998b4459221" editorHeight="522" editorLeft="616" editorTop="311" editorWidth="560" name="FFT 滤波器" presetName="水下 - 浅">
              <busConfig><![CDATA[{"in":[{"layout":[100,101],"name":"","type":0}],"out":[{"layout":[100,101],"name":"","type":0}]}]]></busConfig>
              <presetChunkData><![CDATA[AIA7RwAAgD/QP38+AADAPgAAAAC4xW06AACAPwAAAAAAAIA/AACgQA50WjoAAEA/iYiIPAAAQD91YqU9AAAAADMzaz8AAAAAAACAPwAAAAA=]]></presetChunkData>
            </component>
          </slot>
        </effectsRack>
        <editParameter parameterIndex="0" slotIndex="4294967280"/>
        <audioClip clipAutoCrossfade="true" crossFadeHeadClipID="-1" crossFadeTailClipID="-1" endPoint="5402903" fileID="20" hue="-1" id="0" lockedInTime="false" looped="false" name="running-into-pond 48000 2" offline="false" select="false" sourceInPoint="0" sourceOutPoint="628835" startPoint="4774068" zOrder="0">
          <component componentGuid="c6b19a5a-33ed-400a-99d3-fef8a01b5551" componentID="Audition.Fader" id="clipGain" name="volume" powered="true">
            <parameter index="0" name="volume" parameterValue="0.46966016292572021484375">
              <parameterKeyframes enableSplines="false" readOnly="false">
                <parameterKeyframe sampleOffset="550226" select="false" type="linear" value="0.46340787410736083984375"/>
                <parameterKeyframe sampleOffset="589393" select="true" type="linear" value="1"/>
              </parameterKeyframes>
            </parameter>
            <parameter index="1" name="static gain" parameterValue="1"/>
          </component>
          <component componentGuid="a92b93dd-9d39-47f5-8c04-59c1ef61b90c" componentID="Audition.Mute" id="clipMute" name="Mute" powered="true">
            <parameter index="0" parameterValue="0"/>
            <parameter index="1" name="mute" parameterValue="0"/>
          </component>
          <component componentGuid="744286d3-6150-460a-b08b-19bc1a620f83" componentID="Audition.StereoPanner" id="clipPan" name="StereoPanner" powered="true">
            <parameter index="0" name="声像" parameterValue="0"/>
          </component>
          <fadeIn crossFadeLinkType="linkedSymmetric" endPoint="0" shape="19" startPoint="0" type="log"/>
          <fadeOut crossFadeLinkType="linkedSymmetric" endPoint="628835" shape="19" startPoint="628835" type="log"/>
          <editParameter parameterIndex="0" slotIndex="4294967281"/>
          <editParameter parameterIndex="0" slotIndex="4294967280"/>
          <channelMap>
            <channel index="0" sourceIndex="0"/>
            <channel index="1" sourceIndex="1"/>
          </channelMap>
        </audioClip>
        <audioClip clipAutoCrossfade="true" crossFadeHeadClipID="-1" crossFadeTailClipID="-1" endPoint="7832927" fileID="21" hue="-1" id="1" lockedInTime="false" looped="false" name="running-into-pond 48000 1" offline="false" select="false" sourceInPoint="282539" sourceOutPoint="2712563" startPoint="5402903" zOrder="1">
          <component componentGuid="0c70c9a6-7f0d-4a67-899a-07770af21bad" componentID="Audition.Fader" id="clipGain" name="volume" powered="true">
            <parameter index="0" name="volume" parameterValue="2.257915019989013671875">
              <parameterKeyframes enableSplines="true" readOnly="false">
                <parameterKeyframe sampleOffset="282539" select="false" type="linear" value="0.858943283557891845703125"/>
                <parameterKeyframe sampleOffset="483517" select="false" type="linear" value="0.806361496448516845703125"/>
                <parameterKeyframe sampleOffset="633331" select="false" type="linear" value="1"/>
                <parameterKeyframe sampleOffset="1155286" select="false" type="linear" value="0.3499206602573394775390625"/>
              </parameterKeyframes>
            </parameter>
            <parameter index="1" name="static gain" parameterValue="1"/>
          </component>
          <component componentGuid="b563c1e7-9ec1-4ded-8edf-7e676715df1c" componentID="Audition.Mute" id="clipMute" name="Mute" powered="true">
            <parameter index="0" parameterValue="0"/>
            <parameter index="1" name="mute" parameterValue="0"/>
          </component>
          <component componentGuid="2e03e272-cd31-401e-ba50-5bab7ddb28d4" componentID="Audition.StereoPanner" id="clipPan" name="StereoPanner" powered="true">
            <parameter index="0" name="声像" parameterValue="0"/>
          </component>
          <fadeIn crossFadeLinkType="linkedSymmetric" endPoint="0" shape="19" startPoint="0" type="log"/>
          <fadeOut crossFadeLinkType="linkedSymmetric" endPoint="2430024" shape="19" startPoint="2430024" type="log"/>
          <editParameter parameterIndex="0" slotIndex="4294967281"/>
          <editParameter parameterIndex="0" slotIndex="4294967280"/>
          <channelMap>
            <channel index="0" sourceIndex="0"/>
            <channel index="1" sourceIndex="1"/>
          </channelMap>
        </audioClip>
      </audioTrack>
      <audioTrack automationLaneOpenState="false" id="10017" index="15" select="false" visible="true">
        <trackParameters trackHeight="157" trackHue="182" trackMinimized="false">
          <name>bell(pole)</name>
        </trackParameters>
        <trackAudioParameters audioChannelType="stereo" automationMode="1" monitoring="false" recordArmed="false" solo="false" soloSafe="false">
          <trackOutput outputID="10000" type="trackID"/>
          <trackInput inputID="1"/>
          <component componentGuid="db6e0557-cca1-443c-af6b-da8183ae0b53" componentID="Audition.Fader" id="trackFader" name="volume" powered="true">
            <parameter index="0" name="volume" parameterValue="1"/>
            <parameter index="1" name="static gain" parameterValue="1"/>
          </component>
          <component componentGuid="69b75674-87a8-4236-8716-71bbed378a53" componentID="Audition.Mute" id="trackMute" name="Mute" powered="true">
            <parameter index="0" parameterValue="0"/>
            <parameter index="1" name="mute" parameterValue="0"/>
          </component>
          <component componentGuid="30cd4efc-075b-4be5-a1ed-d8aaaae1891e" componentID="Audition.StereoPanner" id="trackPan" name="StereoPanner" powered="true">
            <parameter index="0" name="声像" parameterValue="0"/>
          </component>
          <component componentGuid="6eee4fc3-0f9c-4077-860d-68b9626c4875" componentID="Audition.EQ" id="trackEQ" name="EQ" powered="false">
            <parameter index="0" name="下限频率" parameterValue="0.000834028352983295917510986328125"/>
            <parameter index="1" name="下限增益" parameterValue="0.5"/>
            <parameter index="2" name="上限频率" parameterValue="0.74979150295257568359375"/>
            <parameter index="3" name="上限频率增益" parameterValue="0.5"/>
            <parameter index="4" name="EQ 频段 1 中置频率" parameterValue="0.00125104258768260478973388671875"/>
            <parameter index="5" name="EQ 频段 1 Q" parameterValue="0.000199989997781813144683837890625"/>
            <parameter index="6" name="EQ 频段 1 增益" parameterValue="0.5"/>
            <parameter index="7" name="EQ 频段 1 启用" parameterValue="1"/>
            <parameter index="8" name="EQ 频段 2 中置频率" parameterValue="0.0075062550604343414306640625"/>
            <parameter index="9" name="EQ 频段 2 Q" parameterValue="0.000199989997781813144683837890625"/>
            <parameter index="10" name="EQ 频段 2 增益" parameterValue="0.5"/>
            <parameter index="11" name="EQ 频段 2 启用" parameterValue="1"/>
            <parameter index="12" name="EQ 频段 3 中置频率" parameterValue="0.0325271077454090118408203125"/>
            <parameter index="13" name="EQ 频段 3 Q" parameterValue="0.000199989997781813144683837890625"/>
            <parameter index="14" name="EQ 频段 3 增益" parameterValue="0.5"/>
            <parameter index="15" name="EQ 频段 3 启用" parameterValue="1"/>
            <parameter index="16" name="EQ 频段 4 中置频率" parameterValue="0.13261051476001739501953125"/>
            <parameter index="17" name="EQ 频段 4 Q" parameterValue="0.000199989997781813144683837890625"/>
            <parameter index="18" name="EQ 频段 4 增益" parameterValue="0.5"/>
            <parameter index="19" name="EQ 频段 4 启用" parameterValue="1"/>
            <parameter index="20" name="EQ 频段 5 中置频率" parameterValue="0.532944142818450927734375"/>
            <parameter index="21" name="EQ 频段 5 Q" parameterValue="0.000199989997781813144683837890625"/>
            <parameter index="22" name="EQ 频段 5 增益" parameterValue="0.5"/>
            <parameter index="23" name="EQ 频段 5 启用" parameterValue="1"/>
            <parameter index="24" name="增益" parameterValue="0.666666686534881591796875"/>
            <parameter index="25" name="恒定 Q" parameterValue="1"/>
            <parameter index="26" name="下限滤镜顺序" parameterValue="0"/>
            <parameter index="27" name="上限频率滤镜顺序" parameterValue="0"/>
            <parameter index="28" name="超静音模式" parameterValue="0"/>
            <parameter index="29" name="下限启用" parameterValue="1"/>
            <parameter index="30" name="上限频率启用" parameterValue="1"/>
            <parameter index="31" name="原始采样率" parameterValue="0.25"/>
            <parameter index="32" name="EQ 频段 1 频带宽" parameterValue="0.002499990165233612060546875"/>
            <parameter index="33" name="EQ 频段 2 频段宽度" parameterValue="0.0099999904632568359375"/>
            <parameter index="34" name="EQ 频段 3 频段宽度" parameterValue="0.0399999916553497314453125"/>
            <parameter index="35" name="EQ 频段 4 频段宽度" parameterValue="0.15999998152256011962890625"/>
            <parameter index="36" name="EQ 频段 5 频段宽度" parameterValue="0.63999998569488525390625"/>
            <parameter index="37" name="高通滤波启用" parameterValue="0"/>
            <parameter index="38" name="高通切除频率" parameterValue="0"/>
            <parameter index="39" name="高通斜率" parameterValue="0.4000000059604644775390625"/>
            <parameter index="40" name="低通滤波启用" parameterValue="0"/>
            <parameter index="41" name="低通切除频率" parameterValue="0.833194315433502197265625"/>
            <parameter index="42" name="低通斜率" parameterValue="0.4000000059604644775390625"/>
            <parameter index="43" name="不使用" parameterValue="0"/>
            <parameter index="44" name="下限图示范围" parameterValue="1"/>
          </component>
        </trackAudioParameters>
        <editParameter parameterIndex="0" slotIndex="4294967280"/>
        <audioClip clipAutoCrossfade="true" crossFadeHeadClipID="-1" crossFadeTailClipID="-1" endPoint="6424719" fileID="22" hue="-1" id="0" lockedInTime="false" looped="false" name="pole 48000 1" offline="false" select="false" sourceInPoint="541682" sourceOutPoint="1354338" startPoint="5612063" zOrder="0">
          <component componentGuid="a608385d-94d0-4d54-827c-603170c1d162" componentID="Audition.Fader" id="clipGain" name="volume" powered="true">
            <parameter index="0" name="volume" parameterValue="0.001322838827036321163177490234375">
              <parameterKeyframes enableSplines="true" readOnly="false">
                <parameterKeyframe sampleOffset="541681" select="false" type="linear" value="0"/>
                <parameterKeyframe sampleOffset="541682" select="false" type="linear" value="0.0428344719111919403076171875"/>
                <parameterKeyframe sampleOffset="730822" select="false" type="linear" value="0.3170458972454071044921875"/>
                <parameterKeyframe sampleOffset="979796" select="false" type="linear" value="0.431229650974273681640625"/>
                <parameterKeyframe sampleOffset="1248300" select="false" type="linear" value="0.3490684032440185546875"/>
                <parameterKeyframe sampleOffset="1350817" select="false" type="linear" value="0"/>
              </parameterKeyframes>
            </parameter>
            <parameter index="1" name="static gain" parameterValue="1"/>
          </component>
          <component componentGuid="ef4af726-5430-41c1-a36f-c4eea9ae60bf" componentID="Audition.Mute" id="clipMute" name="Mute" powered="true">
            <parameter index="0" parameterValue="0"/>
            <parameter index="1" name="mute" parameterValue="0"/>
          </component>
          <component componentGuid="6bbaa43d-e9cd-431a-a687-97890847322c" componentID="Audition.StereoPanner" id="clipPan" name="StereoPanner" powered="true">
            <parameter index="0" name="声像" parameterValue="0"/>
          </component>
          <fadeIn crossFadeLinkType="linkedSymmetric" endPoint="0" shape="19" startPoint="0" type="log"/>
          <fadeOut crossFadeLinkType="linkedSymmetric" endPoint="812656" shape="19" startPoint="812656" type="log"/>
          <clipStretch adaptiveWindowSize="37" pitchAdjustment="0" preserveFormants="true" stretchMode="realtime" stretchQuality="high" stretchRatio="1.617898787754509015712756081484258174896240234375" stretchType="solo" transientSensitivity="40"/>
          <editParameter parameterIndex="0" slotIndex="4294967281"/>
          <editParameter parameterIndex="0" slotIndex="4294967280"/>
          <channelMap>
            <channel index="0" sourceIndex="0"/>
            <channel index="1" sourceIndex="1"/>
          </channelMap>
        </audioClip>
      </audioTrack>
      <audioTrack automationLaneOpenState="false" id="10013" index="16" select="false" visible="true">
        <trackParameters trackHeight="157" trackHue="32" trackMinimized="false">
          <name>clock</name>
        </trackParameters>
        <trackAudioParameters audioChannelType="stereo" automationMode="1" monitoring="false" recordArmed="false" solo="false" soloSafe="false">
          <trackOutput outputID="10000" type="trackID"/>
          <trackInput inputID="1"/>
          <component componentGuid="f977e6aa-e129-4225-a543-f4add2075dbb" componentID="Audition.Fader" id="trackFader" name="volume" powered="true">
            <parameter index="0" name="volume" parameterValue="1"/>
            <parameter index="1" name="static gain" parameterValue="1"/>
          </component>
          <component componentGuid="644d468a-bff1-4fa9-9e72-19d4c80c4601" componentID="Audition.Mute" id="trackMute" name="Mute" powered="true">
            <parameter index="0" parameterValue="0"/>
            <parameter index="1" name="mute" parameterValue="0"/>
          </component>
          <component componentGuid="cdf5a31d-c772-4c0d-a9bf-833e562dba14" componentID="Audition.StereoPanner" id="trackPan" name="StereoPanner" powered="true">
            <parameter index="0" name="声像" parameterValue="0"/>
          </component>
          <component componentGuid="09643611-a5af-4747-8664-dd5132d351fe" componentID="Audition.EQ" id="trackEQ" name="EQ" powered="false">
            <parameter index="0" name="下限频率" parameterValue="0.000834028352983295917510986328125"/>
            <parameter index="1" name="下限增益" parameterValue="0.5"/>
            <parameter index="2" name="上限频率" parameterValue="0.74979150295257568359375"/>
            <parameter index="3" name="上限频率增益" parameterValue="0.5"/>
            <parameter index="4" name="EQ 频段 1 中置频率" parameterValue="0.00125104258768260478973388671875"/>
            <parameter index="5" name="EQ 频段 1 Q" parameterValue="0.000199989997781813144683837890625"/>
            <parameter index="6" name="EQ 频段 1 增益" parameterValue="0.5"/>
            <parameter index="7" name="EQ 频段 1 启用" parameterValue="1"/>
            <parameter index="8" name="EQ 频段 2 中置频率" parameterValue="0.0075062550604343414306640625"/>
            <parameter index="9" name="EQ 频段 2 Q" parameterValue="0.000199989997781813144683837890625"/>
            <parameter index="10" name="EQ 频段 2 增益" parameterValue="0.5"/>
            <parameter index="11" name="EQ 频段 2 启用" parameterValue="1"/>
            <parameter index="12" name="EQ 频段 3 中置频率" parameterValue="0.0325271077454090118408203125"/>
            <parameter index="13" name="EQ 频段 3 Q" parameterValue="0.000199989997781813144683837890625"/>
            <parameter index="14" name="EQ 频段 3 增益" parameterValue="0.5"/>
            <parameter index="15" name="EQ 频段 3 启用" parameterValue="1"/>
            <parameter index="16" name="EQ 频段 4 中置频率" parameterValue="0.13261051476001739501953125"/>
            <parameter index="17" name="EQ 频段 4 Q" parameterValue="0.000199989997781813144683837890625"/>
            <parameter index="18" name="EQ 频段 4 增益" parameterValue="0.5"/>
            <parameter index="19" name="EQ 频段 4 启用" parameterValue="1"/>
            <parameter index="20" name="EQ 频段 5 中置频率" parameterValue="0.532944142818450927734375"/>
            <parameter index="21" name="EQ 频段 5 Q" parameterValue="0.000199989997781813144683837890625"/>
            <parameter index="22" name="EQ 频段 5 增益" parameterValue="0.5"/>
            <parameter index="23" name="EQ 频段 5 启用" parameterValue="1"/>
            <parameter index="24" name="增益" parameterValue="0.666666686534881591796875"/>
            <parameter index="25" name="恒定 Q" parameterValue="1"/>
            <parameter index="26" name="下限滤镜顺序" parameterValue="0"/>
            <parameter index="27" name="上限频率滤镜顺序" parameterValue="0"/>
            <parameter index="28" name="超静音模式" parameterValue="0"/>
            <parameter index="29" name="下限启用" parameterValue="1"/>
            <parameter index="30" name="上限频率启用" parameterValue="1"/>
            <parameter index="31" name="原始采样率" parameterValue="0.25"/>
            <parameter index="32" name="EQ 频段 1 频带宽" parameterValue="0.002499990165233612060546875"/>
            <parameter index="33" name="EQ 频段 2 频段宽度" parameterValue="0.0099999904632568359375"/>
            <parameter index="34" name="EQ 频段 3 频段宽度" parameterValue="0.0399999916553497314453125"/>
            <parameter index="35" name="EQ 频段 4 频段宽度" parameterValue="0.15999998152256011962890625"/>
            <parameter index="36" name="EQ 频段 5 频段宽度" parameterValue="0.63999998569488525390625"/>
            <parameter index="37" name="高通滤波启用" parameterValue="0"/>
            <parameter index="38" name="高通切除频率" parameterValue="0"/>
            <parameter index="39" name="高通斜率" parameterValue="0.4000000059604644775390625"/>
            <parameter index="40" name="低通滤波启用" parameterValue="0"/>
            <parameter index="41" name="低通切除频率" parameterValue="0.833194315433502197265625"/>
            <parameter index="42" name="低通斜率" parameterValue="0.4000000059604644775390625"/>
            <parameter index="43" name="不使用" parameterValue="0"/>
            <parameter index="44" name="下限图示范围" parameterValue="1"/>
          </component>
        </trackAudioParameters>
        <effectsRack preFader="true">
          <component componentGuid="3dbe6eaa-8395-4180-a0ec-ab58a72c632b" componentID="Audition.ComponentGroup" id="rackMix" powered="true">
            <parameter index="0" parameterValue="0"/>
            <parameter index="1" parameterValue="0"/>
          </component>
          <component componentGuid="ddc79990-5577-4072-aad0-3fe5e21f9994" id="rackInput" powered="true">
            <parameter index="0" parameterValue="1"/>
            <parameter index="1" parameterValue="0"/>
          </component>
          <component componentGuid="8c0849d4-134b-4a72-9ea5-0f8fbe251197" id="rackOutput" powered="true">
            <parameter index="0" parameterValue="1"/>
            <parameter index="1" parameterValue="0"/>
          </component>
          <slot powered="true" slotIndex="0">
            <component componentGuid="8fbc457c-40f3-408e-b27d-5563f39bc0b7" componentID="bd198177-b706-49e5-9e7f-aea61553bc9b" editorHeight="372" editorLeft="675" editorTop="386" editorWidth="443" name="自动音调更正" presetName="（默认）">
              <busConfig><![CDATA[{"in":[{"layout":[100,101],"name":"","type":0}],"out":[{"layout":[100,101],"name":"","type":0}]}]]></busConfig>
              <parameter index="0" name="参考通道" parameterValue="0"/>
              <parameter index="1" name="FFT 大小" parameterValue="0.5"/>
              <parameter index="2" name="预览模式" parameterValue="0.75"/>
              <parameter index="3" name="A4 频率" parameterValue="0.5"/>
              <parameter index="4" name="调" parameterValue="1"/>
              <parameter index="5" name="比例" parameterValue="0"/>
              <parameter index="6" name="敏感度" parameterValue="0.526315987110137939453125"/>
              <parameter index="7" name="起奏" parameterValue="0.11999998986721038818359375"/>
              <parameter index="8" name="计量器" parameterValue="0.20000000298023223876953125"/>
            </component>
          </slot>
        </effectsRack>
        <editParameter parameterIndex="0" slotIndex="4294967280"/>
        <audioClip clipAutoCrossfade="true" crossFadeHeadClipID="-1" crossFadeTailClipID="-1" endPoint="7729992" fileID="23" hue="-1" id="0" lockedInTime="false" looped="false" name="bike 48000 1" offline="false" select="false" sourceInPoint="0" sourceOutPoint="1305273" startPoint="6424719" zOrder="0">
          <component componentGuid="c9882bce-471e-4451-a129-b730387a8e53" componentID="Audition.Fader" id="clipGain" name="volume" powered="true">
            <parameter index="0" name="volume" parameterValue="4.3282370825181715190410614013671875e-06">
              <parameterKeyframes enableSplines="true" readOnly="false">
                <parameterKeyframe sampleOffset="0" select="false" type="linear" value="0.00257909297943115234375"/>
                <parameterKeyframe sampleOffset="728926" select="false" type="linear" value="0.45323407649993896484375"/>
                <parameterKeyframe sampleOffset="1207952" select="false" type="linear" value="0.64999997615814208984375"/>
              </parameterKeyframes>
            </parameter>
            <parameter index="1" name="static gain" parameterValue="1"/>
          </component>
          <component componentGuid="e8770cad-4943-42dc-ad7e-95385aeee36e" componentID="Audition.Mute" id="clipMute" name="Mute" powered="true">
            <parameter index="0" parameterValue="0"/>
            <parameter index="1" name="mute" parameterValue="0"/>
          </component>
          <component componentGuid="98a4ae08-829a-4fe3-8357-d89000d36573" componentID="Audition.StereoPanner" id="clipPan" name="StereoPanner" powered="true">
            <parameter index="0" name="声像" parameterValue="0"/>
          </component>
          <fadeIn crossFadeLinkType="linkedSymmetric" endPoint="0" shape="19" startPoint="0" type="log"/>
          <fadeOut crossFadeLinkType="linkedSymmetric" endPoint="1305273" shape="19" startPoint="1305273" type="log"/>
          <editParameter parameterIndex="0" slotIndex="4294967281"/>
          <editParameter parameterIndex="0" slotIndex="4294967280"/>
          <channelMap>
            <channel index="0" sourceIndex="0"/>
            <channel index="1" sourceIndex="1"/>
          </channelMap>
        </audioClip>
      </audioTrack>
      <audioTrack automationLaneOpenState="false" id="10014" index="17" select="false" visible="true">
        <trackParameters trackHeight="157" trackHue="160" trackMinimized="false">
          <name>monster</name>
        </trackParameters>
        <trackAudioParameters audioChannelType="stereo" automationMode="1" monitoring="false" recordArmed="false" solo="false" soloSafe="false">
          <trackOutput outputID="10000" type="trackID"/>
          <trackInput inputID="1"/>
          <component componentGuid="cbfffe9e-8a62-4a0e-8810-620d298d46ff" componentID="Audition.Fader" id="trackFader" name="volume" powered="true">
            <parameter index="0" name="volume" parameterValue="1"/>
            <parameter index="1" name="static gain" parameterValue="1"/>
          </component>
          <component componentGuid="d2c989d3-b948-42f9-8314-723ced841035" componentID="Audition.Mute" id="trackMute" name="Mute" powered="true">
            <parameter index="0" parameterValue="0"/>
            <parameter index="1" name="mute" parameterValue="0"/>
          </component>
          <component componentGuid="5ca0676c-aba6-440a-9b73-8a3be8f5e322" componentID="Audition.StereoPanner" id="trackPan" name="StereoPanner" powered="true">
            <parameter index="0" name="声像" parameterValue="0"/>
          </component>
          <component componentGuid="991a2316-0fcd-45f4-aeca-20c7480a07ca" componentID="Audition.EQ" id="trackEQ" name="EQ" powered="false">
            <parameter index="0" name="下限频率" parameterValue="0.000834028352983295917510986328125"/>
            <parameter index="1" name="下限增益" parameterValue="0.5"/>
            <parameter index="2" name="上限频率" parameterValue="0.74979150295257568359375"/>
            <parameter index="3" name="上限频率增益" parameterValue="0.5"/>
            <parameter index="4" name="EQ 频段 1 中置频率" parameterValue="0.00125104258768260478973388671875"/>
            <parameter index="5" name="EQ 频段 1 Q" parameterValue="0.000199989997781813144683837890625"/>
            <parameter index="6" name="EQ 频段 1 增益" parameterValue="0.5"/>
            <parameter index="7" name="EQ 频段 1 启用" parameterValue="1"/>
            <parameter index="8" name="EQ 频段 2 中置频率" parameterValue="0.0075062550604343414306640625"/>
            <parameter index="9" name="EQ 频段 2 Q" parameterValue="0.000199989997781813144683837890625"/>
            <parameter index="10" name="EQ 频段 2 增益" parameterValue="0.5"/>
            <parameter index="11" name="EQ 频段 2 启用" parameterValue="1"/>
            <parameter index="12" name="EQ 频段 3 中置频率" parameterValue="0.0325271077454090118408203125"/>
            <parameter index="13" name="EQ 频段 3 Q" parameterValue="0.000199989997781813144683837890625"/>
            <parameter index="14" name="EQ 频段 3 增益" parameterValue="0.5"/>
            <parameter index="15" name="EQ 频段 3 启用" parameterValue="1"/>
            <parameter index="16" name="EQ 频段 4 中置频率" parameterValue="0.13261051476001739501953125"/>
            <parameter index="17" name="EQ 频段 4 Q" parameterValue="0.000199989997781813144683837890625"/>
            <parameter index="18" name="EQ 频段 4 增益" parameterValue="0.5"/>
            <parameter index="19" name="EQ 频段 4 启用" parameterValue="1"/>
            <parameter index="20" name="EQ 频段 5 中置频率" parameterValue="0.532944142818450927734375"/>
            <parameter index="21" name="EQ 频段 5 Q" parameterValue="0.000199989997781813144683837890625"/>
            <parameter index="22" name="EQ 频段 5 增益" parameterValue="0.5"/>
            <parameter index="23" name="EQ 频段 5 启用" parameterValue="1"/>
            <parameter index="24" name="增益" parameterValue="0.666666686534881591796875"/>
            <parameter index="25" name="恒定 Q" parameterValue="1"/>
            <parameter index="26" name="下限滤镜顺序" parameterValue="0"/>
            <parameter index="27" name="上限频率滤镜顺序" parameterValue="0"/>
            <parameter index="28" name="超静音模式" parameterValue="0"/>
            <parameter index="29" name="下限启用" parameterValue="1"/>
            <parameter index="30" name="上限频率启用" parameterValue="1"/>
            <parameter index="31" name="原始采样率" parameterValue="0.25"/>
            <parameter index="32" name="EQ 频段 1 频带宽" parameterValue="0.002499990165233612060546875"/>
            <parameter index="33" name="EQ 频段 2 频段宽度" parameterValue="0.0099999904632568359375"/>
            <parameter index="34" name="EQ 频段 3 频段宽度" parameterValue="0.0399999916553497314453125"/>
            <parameter index="35" name="EQ 频段 4 频段宽度" parameterValue="0.15999998152256011962890625"/>
            <parameter index="36" name="EQ 频段 5 频段宽度" parameterValue="0.63999998569488525390625"/>
            <parameter index="37" name="高通滤波启用" parameterValue="0"/>
            <parameter index="38" name="高通切除频率" parameterValue="0"/>
            <parameter index="39" name="高通斜率" parameterValue="0.4000000059604644775390625"/>
            <parameter index="40" name="低通滤波启用" parameterValue="0"/>
            <parameter index="41" name="低通切除频率" parameterValue="0.833194315433502197265625"/>
            <parameter index="42" name="低通斜率" parameterValue="0.4000000059604644775390625"/>
            <parameter index="43" name="不使用" parameterValue="0"/>
            <parameter index="44" name="下限图示范围" parameterValue="1"/>
          </component>
        </trackAudioParameters>
        <editParameter parameterIndex="0" slotIndex="4294967280"/>
        <audioClip clipAutoCrossfade="true" crossFadeHeadClipID="-1" crossFadeTailClipID="-1" endPoint="7832927" fileID="24" hue="-1" id="0" lockedInTime="false" looped="false" name="monster-swallows 48000 1" offline="false" select="false" sourceInPoint="0" sourceOutPoint="127562" startPoint="7705365" zOrder="0">
          <component componentGuid="962b819c-9200-4010-bf4d-00277f95041a" componentID="Audition.Fader" id="clipGain" name="volume" powered="true">
            <parameter index="0" name="volume" parameterValue="0.057673104107379913330078125">
              <parameterKeyframes enableSplines="true" readOnly="false">
                <parameterKeyframe sampleOffset="0" select="false" type="linear" value="0.181206047534942626953125"/>
                <parameterKeyframe sampleOffset="19567" select="false" type="linear" value="0.545189797878265380859375"/>
                <parameterKeyframe sampleOffset="60189" select="false" type="linear" value="0.809117853641510009765625"/>
                <parameterKeyframe sampleOffset="118983" select="false" type="linear" value="0.64999997615814208984375"/>
                <parameterKeyframe sampleOffset="118984" select="false" type="linear" value="0.502185642719268798828125"/>
              </parameterKeyframes>
            </parameter>
            <parameter index="1" name="static gain" parameterValue="1"/>
          </component>
          <component componentGuid="412f19e4-2100-4e60-9f15-705df7ce614a" componentID="Audition.Mute" id="clipMute" name="Mute" powered="true">
            <parameter index="0" parameterValue="0"/>
            <parameter index="1" name="mute" parameterValue="0"/>
          </component>
          <component componentGuid="5b2344f4-4db8-45d5-81d8-0628639d0948" componentID="Audition.StereoPanner" id="clipPan" name="StereoPanner" powered="true">
            <parameter index="0" name="声像" parameterValue="0"/>
          </component>
          <fadeIn crossFadeLinkType="linkedSymmetric" endPoint="0" shape="19" startPoint="0" type="log"/>
          <fadeOut crossFadeLinkType="linkedSymmetric" endPoint="127562" shape="19" startPoint="127562" type="log"/>
          <editParameter parameterIndex="0" slotIndex="4294967281"/>
          <editParameter parameterIndex="0" slotIndex="4294967280"/>
          <channelMap>
            <channel index="0" sourceIndex="0"/>
            <channel index="1" sourceIndex="1"/>
          </channelMap>
        </audioClip>
      </audioTrack>
      <masterTrack automationLaneOpenState="false" id="10000" index="18" select="false" visible="true">
        <trackParameters trackHeight="157" trackHue="-1" trackMinimized="false">
          <name>混合</name>
        </trackParameters>
        <trackAudioParameters audioChannelType="stereo" automationMode="1" monitoring="false" recordArmed="false" solo="false" soloSafe="true">
          <trackOutput outputID="1" type="hardwareOutput"/>
          <trackInput inputID="-1"/>
          <component componentGuid="a83a3c22-03e4-4ed0-a00a-cc3f5b7f882a" componentID="Audition.Fader" id="trackFader" name="volume" powered="true">
            <parameter index="0" name="volume" parameterValue="1"/>
            <parameter index="1" name="static gain" parameterValue="1"/>
          </component>
          <component componentGuid="b0487146-3085-43e2-b361-93a05bb79b89" componentID="Audition.Mute" id="trackMute" name="Mute" powered="true">
            <parameter index="0" parameterValue="0"/>
            <parameter index="1" name="mute" parameterValue="0"/>
          </component>
          <component componentGuid="b113bf7f-77b7-4551-9ffa-10431918a5f9" componentID="Audition.StereoPanner" id="trackPan" name="StereoPanner" powered="true">
            <parameter index="0" name="声像" parameterValue="0"/>
          </component>
          <component componentGuid="dabdaa21-730a-4c95-9f22-2ef01cf6e1c9" componentID="Audition.EQ" id="trackEQ" name="EQ" powered="false">
            <parameter index="0" name="下限频率" parameterValue="0.000834028352983295917510986328125"/>
            <parameter index="1" name="下限增益" parameterValue="0.5"/>
            <parameter index="2" name="上限频率" parameterValue="0.74979150295257568359375"/>
            <parameter index="3" name="上限频率增益" parameterValue="0.5"/>
            <parameter index="4" name="EQ 频段 1 中置频率" parameterValue="0.00125104258768260478973388671875"/>
            <parameter index="5" name="EQ 频段 1 Q" parameterValue="0.000199989997781813144683837890625"/>
            <parameter index="6" name="EQ 频段 1 增益" parameterValue="0.5"/>
            <parameter index="7" name="EQ 频段 1 启用" parameterValue="1"/>
            <parameter index="8" name="EQ 频段 2 中置频率" parameterValue="0.0075062550604343414306640625"/>
            <parameter index="9" name="EQ 频段 2 Q" parameterValue="0.000199989997781813144683837890625"/>
            <parameter index="10" name="EQ 频段 2 增益" parameterValue="0.5"/>
            <parameter index="11" name="EQ 频段 2 启用" parameterValue="1"/>
            <parameter index="12" name="EQ 频段 3 中置频率" parameterValue="0.0325271077454090118408203125"/>
            <parameter index="13" name="EQ 频段 3 Q" parameterValue="0.000199989997781813144683837890625"/>
            <parameter index="14" name="EQ 频段 3 增益" parameterValue="0.5"/>
            <parameter index="15" name="EQ 频段 3 启用" parameterValue="1"/>
            <parameter index="16" name="EQ 频段 4 中置频率" parameterValue="0.13261051476001739501953125"/>
            <parameter index="17" name="EQ 频段 4 Q" parameterValue="0.000199989997781813144683837890625"/>
            <parameter index="18" name="EQ 频段 4 增益" parameterValue="0.5"/>
            <parameter index="19" name="EQ 频段 4 启用" parameterValue="1"/>
            <parameter index="20" name="EQ 频段 5 中置频率" parameterValue="0.532944142818450927734375"/>
            <parameter index="21" name="EQ 频段 5 Q" parameterValue="0.000199989997781813144683837890625"/>
            <parameter index="22" name="EQ 频段 5 增益" parameterValue="0.5"/>
            <parameter index="23" name="EQ 频段 5 启用" parameterValue="1"/>
            <parameter index="24" name="增益" parameterValue="0.666666686534881591796875"/>
            <parameter index="25" name="恒定 Q" parameterValue="1"/>
            <parameter index="26" name="下限滤镜顺序" parameterValue="0"/>
            <parameter index="27" name="上限频率滤镜顺序" parameterValue="0"/>
            <parameter index="28" name="超静音模式" parameterValue="0"/>
            <parameter index="29" name="下限启用" parameterValue="1"/>
            <parameter index="30" name="上限频率启用" parameterValue="1"/>
            <parameter index="31" name="原始采样率" parameterValue="0.25"/>
            <parameter index="32" name="EQ 频段 1 频带宽" parameterValue="0.002499990165233612060546875"/>
            <parameter index="33" name="EQ 频段 2 频段宽度" parameterValue="0.0099999904632568359375"/>
            <parameter index="34" name="EQ 频段 3 频段宽度" parameterValue="0.0399999916553497314453125"/>
            <parameter index="35" name="EQ 频段 4 频段宽度" parameterValue="0.15999998152256011962890625"/>
            <parameter index="36" name="EQ 频段 5 频段宽度" parameterValue="0.63999998569488525390625"/>
            <parameter index="37" name="高通滤波启用" parameterValue="0"/>
            <parameter index="38" name="高通切除频率" parameterValue="0"/>
            <parameter index="39" name="高通斜率" parameterValue="0.4000000059604644775390625"/>
            <parameter index="40" name="低通滤波启用" parameterValue="0"/>
            <parameter index="41" name="低通切除频率" parameterValue="0.833194315433502197265625"/>
            <parameter index="42" name="低通斜率" parameterValue="0.4000000059604644775390625"/>
            <parameter index="43" name="不使用" parameterValue="0"/>
            <parameter index="44" name="下限图示范围" parameterValue="1"/>
          </component>
        </trackAudioParameters>
        <editParameter parameterIndex="0" slotIndex="4294967280"/>
      </masterTrack>
    </tracks>
    <sessionState ctiPosition="3104520" smpteStart="0">
      <selectionState selectionDuration="0" selectionStart="3104520"/>
      <viewState horizontalViewDuration="4031323" horizontalViewStart="758425" trackControlsWidth="224" verticalScrollOffset="-22"/>
      <timeFormatState beatsPerBar="4" beatsPerMinute="120" customFrameRate="12" linkToDefaultTimeSettings="true" noteLength="4" subdivisions="16" timeCodeDropFrame="false" timeCodeFrameRate="30" timeCodeNTSC="false" timeFormat="timeFormatDecimal"/>
      <mixingOptionState defaultPanModeLogarithmic="false" panPower="-3" playOverlappingClips="false"/>
    </sessionState>
    <xmpMetadata><![CDATA[<?xpacket begin="﻿" id="W5M0MpCehiHzreSzNTczkc9d"?>
<x:xmpmeta xmlns:x="adobe:ns:meta/" x:xmptk="Adobe XMP Core 6.0-c006 79.164753, 2021/02/15-11:52:13        ">
   <rdf:RDF xmlns:rdf="http://www.w3.org/1999/02/22-rdf-syntax-ns#">
      <rdf:Description rdf:about=""
            xmlns:xmp="http://ns.adobe.com/xap/1.0/"
            xmlns:xmpMM="http://ns.adobe.com/xap/1.0/mm/"
            xmlns:stEvt="http://ns.adobe.com/xap/1.0/sType/ResourceEvent#"
            xmlns:dc="http://purl.org/dc/elements/1.1/"
            xmlns:xmpDM="http://ns.adobe.com/xmp/1.0/DynamicMedia/">
         <xmp:CreatorTool>Adobe Audition 14.2 (Macintosh)</xmp:CreatorTool>
         <xmp:CreateDate>2021-09-15T22:19:32-04:00</xmp:CreateDate>
         <xmp:MetadataDate>2021-09-18T09:51:48-04:00</xmp:MetadataDate>
         <xmp:ModifyDate>2021-09-18T09:51:48-04:00</xmp:ModifyDate>
         <xmpMM:InstanceID>xmp.iid:b592ab8a-5992-4dff-b2e5-0a466a500b24</xmpMM:InstanceID>
         <xmpMM:DocumentID>xmp.did:35c21f98-59b6-4425-a293-6025402d43f3</xmpMM:DocumentID>
         <xmpMM:OriginalDocumentID>xmp.did:35c21f98-59b6-4425-a293-6025402d43f3</xmpMM:OriginalDocumentID>
         <xmpMM:History>
            <rdf:Seq>
               <rdf:li rdf:parseType="Resource">
                  <stEvt:action>saved</stEvt:action>
                  <stEvt:instanceID>xmp.iid:35c21f98-59b6-4425-a293-6025402d43f3</stEvt:instanceID>
                  <stEvt:when>2021-09-15T22:19:32-04:00</stEvt:when>
                  <stEvt:softwareAgent>Adobe Audition 14.2 (Macintosh)</stEvt:softwareAgent>
                  <stEvt:changed>/metadata</stEvt:changed>
               </rdf:li>
               <rdf:li rdf:parseType="Resource">
                  <stEvt:action>saved</stEvt:action>
                  <stEvt:instanceID>xmp.iid:5d15fd38-e9d1-4a30-8415-ab90810c2e18</stEvt:instanceID>
                  <stEvt:when>2021-09-15T23:12:13-04:00</stEvt:when>
                  <stEvt:softwareAgent>Adobe Audition 14.2 (Macintosh)</stEvt:softwareAgent>
                  <stEvt:changed>/metadata</stEvt:changed>
               </rdf:li>
               <rdf:li rdf:parseType="Resource">
                  <stEvt:action>saved</stEvt:action>
                  <stEvt:instanceID>xmp.iid:e1645b29-f652-4afa-a37c-3e8c434d7b27</stEvt:instanceID>
                  <stEvt:when>2021-09-15T23:12:13-04:00</stEvt:when>
                  <stEvt:softwareAgent>Adobe Audition 14.2 (Macintosh)</stEvt:softwareAgent>
                  <stEvt:changed>/</stEvt:changed>
               </rdf:li>
               <rdf:li rdf:parseType="Resource">
                  <stEvt:action>saved</stEvt:action>
                  <stEvt:instanceID>xmp.iid:e94c76e1-bf91-4cb6-a939-736e16fcb828</stEvt:instanceID>
                  <stEvt:when>2021-09-16T23:26:16-04:00</stEvt:when>
                  <stEvt:softwareAgent>Adobe Audition 14.2 (Macintosh)</stEvt:softwareAgent>
                  <stEvt:changed>/metadata</stEvt:changed>
               </rdf:li>
               <rdf:li rdf:parseType="Resource">
                  <stEvt:action>saved</stEvt:action>
                  <stEvt:instanceID>xmp.iid:a45c4eef-775a-497b-ab06-e91759ccf7f3</stEvt:instanceID>
                  <stEvt:when>2021-09-16T23:26:16-04:00</stEvt:when>
                  <stEvt:softwareAgent>Adobe Audition 14.2 (Macintosh)</stEvt:softwareAgent>
                  <stEvt:changed>/</stEvt:changed>
               </rdf:li>
               <rdf:li rdf:parseType="Resource">
                  <stEvt:action>saved</stEvt:action>
                  <stEvt:instanceID>xmp.iid:0b7c7a6a-9458-4154-a2f6-f04eb89a7223</stEvt:instanceID>
                  <stEvt:when>2021-09-16T23:36:17-04:00</stEvt:when>
                  <stEvt:softwareAgent>Adobe Audition 14.2 (Macintosh)</stEvt:softwareAgent>
                  <stEvt:changed>/metadata</stEvt:changed>
               </rdf:li>
               <rdf:li rdf:parseType="Resource">
                  <stEvt:action>saved</stEvt:action>
                  <stEvt:instanceID>xmp.iid:3e668aed-c92d-482c-a18e-54f259ae081f</stEvt:instanceID>
                  <stEvt:when>2021-09-16T23:36:17-04:00</stEvt:when>
                  <stEvt:softwareAgent>Adobe Audition 14.2 (Macintosh)</stEvt:softwareAgent>
                  <stEvt:changed>/</stEvt:changed>
               </rdf:li>
               <rdf:li rdf:parseType="Resource">
                  <stEvt:action>saved</stEvt:action>
                  <stEvt:instanceID>xmp.iid:4948bcd9-ad6e-4bf4-a2d7-42dad4cb18fc</stEvt:instanceID>
                  <stEvt:when>2021-09-16T23:51:35-04:00</stEvt:when>
                  <stEvt:softwareAgent>Adobe Audition 14.2 (Macintosh)</stEvt:softwareAgent>
                  <stEvt:changed>/metadata</stEvt:changed>
               </rdf:li>
               <rdf:li rdf:parseType="Resource">
                  <stEvt:action>saved</stEvt:action>
                  <stEvt:instanceID>xmp.iid:a4eb29d5-4d12-45e0-aa48-f76986413217</stEvt:instanceID>
                  <stEvt:when>2021-09-16T23:51:35-04:00</stEvt:when>
                  <stEvt:softwareAgent>Adobe Audition 14.2 (Macintosh)</stEvt:softwareAgent>
                  <stEvt:changed>/</stEvt:changed>
               </rdf:li>
               <rdf:li rdf:parseType="Resource">
                  <stEvt:action>saved</stEvt:action>
                  <stEvt:instanceID>xmp.iid:ed2b823b-c818-4618-a11c-330d3f406897</stEvt:instanceID>
                  <stEvt:when>2021-09-16T23:58:45-04:00</stEvt:when>
                  <stEvt:softwareAgent>Adobe Audition 14.2 (Macintosh)</stEvt:softwareAgent>
                  <stEvt:changed>/metadata</stEvt:changed>
               </rdf:li>
               <rdf:li rdf:parseType="Resource">
                  <stEvt:action>saved</stEvt:action>
                  <stEvt:instanceID>xmp.iid:1c69f7ce-04d6-47d8-b535-01d48160c993</stEvt:instanceID>
                  <stEvt:when>2021-09-16T23:58:45-04:00</stEvt:when>
                  <stEvt:softwareAgent>Adobe Audition 14.2 (Macintosh)</stEvt:softwareAgent>
                  <stEvt:changed>/</stEvt:changed>
               </rdf:li>
               <rdf:li rdf:parseType="Resource">
                  <stEvt:action>saved</stEvt:action>
                  <stEvt:instanceID>xmp.iid:14c7ef34-91d8-4ef9-89c9-084c9ac15fa0</stEvt:instanceID>
                  <stEvt:when>2021-09-17T00:00:44-04:00</stEvt:when>
                  <stEvt:softwareAgent>Adobe Audition 14.2 (Macintosh)</stEvt:softwareAgent>
                  <stEvt:changed>/metadata</stEvt:changed>
               </rdf:li>
               <rdf:li rdf:parseType="Resource">
                  <stEvt:action>saved</stEvt:action>
                  <stEvt:instanceID>xmp.iid:086dee5d-7f93-4e2c-a719-67c49dabf1df</stEvt:instanceID>
                  <stEvt:when>2021-09-17T00:00:44-04:00</stEvt:when>
                  <stEvt:softwareAgent>Adobe Audition 14.2 (Macintosh)</stEvt:softwareAgent>
                  <stEvt:changed>/</stEvt:changed>
               </rdf:li>
               <rdf:li rdf:parseType="Resource">
                  <stEvt:action>saved</stEvt:action>
                  <stEvt:instanceID>xmp.iid:0dd2e688-03c2-4ac7-8c44-8a925c850a7b</stEvt:instanceID>
                  <stEvt:when>2021-09-17T00:02:14-04:00</stEvt:when>
                  <stEvt:softwareAgent>Adobe Audition 14.2 (Macintosh)</stEvt:softwareAgent>
                  <stEvt:changed>/metadata</stEvt:changed>
               </rdf:li>
               <rdf:li rdf:parseType="Resource">
                  <stEvt:action>saved</stEvt:action>
                  <stEvt:instanceID>xmp.iid:897b9226-eede-4d45-ab34-7e5a9e8130ad</stEvt:instanceID>
                  <stEvt:when>2021-09-17T00:02:14-04:00</stEvt:when>
                  <stEvt:softwareAgent>Adobe Audition 14.2 (Macintosh)</stEvt:softwareAgent>
                  <stEvt:changed>/</stEvt:changed>
               </rdf:li>
               <rdf:li rdf:parseType="Resource">
                  <stEvt:action>saved</stEvt:action>
                  <stEvt:instanceID>xmp.iid:f2671de8-ecac-4e01-b28d-e29b8c03c607</stEvt:instanceID>
                  <stEvt:when>2021-09-17T00:08:47-04:00</stEvt:when>
                  <stEvt:softwareAgent>Adobe Audition 14.2 (Macintosh)</stEvt:softwareAgent>
                  <stEvt:changed>/metadata</stEvt:changed>
               </rdf:li>
               <rdf:li rdf:parseType="Resource">
                  <stEvt:action>saved</stEvt:action>
                  <stEvt:instanceID>xmp.iid:d0e5f0e2-3d58-45f2-945f-1bb37d7d0b6b</stEvt:instanceID>
                  <stEvt:when>2021-09-17T00:08:47-04:00</stEvt:when>
                  <stEvt:softwareAgent>Adobe Audition 14.2 (Macintosh)</stEvt:softwareAgent>
                  <stEvt:changed>/</stEvt:changed>
               </rdf:li>
               <rdf:li rdf:parseType="Resource">
                  <stEvt:action>saved</stEvt:action>
                  <stEvt:instanceID>xmp.iid:bceff6bd-1b14-41da-83da-a18024fff9c8</stEvt:instanceID>
                  <stEvt:when>2021-09-17T00:09:47-04:00</stEvt:when>
                  <stEvt:softwareAgent>Adobe Audition 14.2 (Macintosh)</stEvt:softwareAgent>
                  <stEvt:changed>/metadata</stEvt:changed>
               </rdf:li>
               <rdf:li rdf:parseType="Resource">
                  <stEvt:action>saved</stEvt:action>
                  <stEvt:instanceID>xmp.iid:b1d009e5-cc6e-43e2-a077-b1bd31291a6a</stEvt:instanceID>
                  <stEvt:when>2021-09-17T00:09:47-04:00</stEvt:when>
                  <stEvt:softwareAgent>Adobe Audition 14.2 (Macintosh)</stEvt:softwareAgent>
                  <stEvt:changed>/</stEvt:changed>
               </rdf:li>
               <rdf:li rdf:parseType="Resource">
                  <stEvt:action>saved</stEvt:action>
                  <stEvt:instanceID>xmp.iid:1f0816d6-89e7-4a52-b06f-b12f2726e243</stEvt:instanceID>
                  <stEvt:when>2021-09-17T19:58:03-04:00</stEvt:when>
                  <stEvt:softwareAgent>Adobe Audition 14.2 (Macintosh)</stEvt:softwareAgent>
                  <stEvt:changed>/metadata</stEvt:changed>
               </rdf:li>
               <rdf:li rdf:parseType="Resource">
                  <stEvt:action>saved</stEvt:action>
                  <stEvt:instanceID>xmp.iid:bae6f079-d7f4-4993-925f-9bd00dec06f5</stEvt:instanceID>
                  <stEvt:when>2021-09-17T19:58:03-04:00</stEvt:when>
                  <stEvt:softwareAgent>Adobe Audition 14.2 (Macintosh)</stEvt:softwareAgent>
                  <stEvt:changed>/</stEvt:changed>
               </rdf:li>
               <rdf:li rdf:parseType="Resource">
                  <stEvt:action>saved</stEvt:action>
                  <stEvt:instanceID>xmp.iid:20447058-50de-4e84-97ac-28aab13630c9</stEvt:instanceID>
                  <stEvt:when>2021-09-17T20:50:16-04:00</stEvt:when>
                  <stEvt:softwareAgent>Adobe Audition 14.2 (Macintosh)</stEvt:softwareAgent>
                  <stEvt:changed>/metadata</stEvt:changed>
               </rdf:li>
               <rdf:li rdf:parseType="Resource">
                  <stEvt:action>saved</stEvt:action>
                  <stEvt:instanceID>xmp.iid:da3d0f63-dde0-4e98-b07b-71477aeafe5e</stEvt:instanceID>
                  <stEvt:when>2021-09-17T20:50:16-04:00</stEvt:when>
                  <stEvt:softwareAgent>Adobe Audition 14.2 (Macintosh)</stEvt:softwareAgent>
                  <stEvt:changed>/</stEvt:changed>
               </rdf:li>
               <rdf:li rdf:parseType="Resource">
                  <stEvt:action>saved</stEvt:action>
                  <stEvt:instanceID>xmp.iid:723002e4-20ac-4924-b114-8e50679c26c7</stEvt:instanceID>
                  <stEvt:when>2021-09-17T21:26:05-04:00</stEvt:when>
                  <stEvt:softwareAgent>Adobe Audition 14.2 (Macintosh)</stEvt:softwareAgent>
                  <stEvt:changed>/metadata</stEvt:changed>
               </rdf:li>
               <rdf:li rdf:parseType="Resource">
                  <stEvt:action>saved</stEvt:action>
                  <stEvt:instanceID>xmp.iid:984cc01f-fcb0-49e7-adcc-d854833a012b</stEvt:instanceID>
                  <stEvt:when>2021-09-17T21:26:05-04:00</stEvt:when>
                  <stEvt:softwareAgent>Adobe Audition 14.2 (Macintosh)</stEvt:softwareAgent>
                  <stEvt:changed>/</stEvt:changed>
               </rdf:li>
               <rdf:li rdf:parseType="Resource">
                  <stEvt:action>saved</stEvt:action>
                  <stEvt:instanceID>xmp.iid:c08b5200-cbb2-46f8-84b3-98168d793139</stEvt:instanceID>
                  <stEvt:when>2021-09-17T23:28:18-04:00</stEvt:when>
                  <stEvt:softwareAgent>Adobe Audition 14.2 (Macintosh)</stEvt:softwareAgent>
                  <stEvt:changed>/metadata</stEvt:changed>
               </rdf:li>
               <rdf:li rdf:parseType="Resource">
                  <stEvt:action>saved</stEvt:action>
                  <stEvt:instanceID>xmp.iid:110b3d63-0360-4a46-a39a-36ed3a593ecd</stEvt:instanceID>
                  <stEvt:when>2021-09-17T23:28:18-04:00</stEvt:when>
                  <stEvt:softwareAgent>Adobe Audition 14.2 (Macintosh)</stEvt:softwareAgent>
                  <stEvt:changed>/</stEvt:changed>
               </rdf:li>
               <rdf:li rdf:parseType="Resource">
                  <stEvt:action>saved</stEvt:action>
                  <stEvt:instanceID>xmp.iid:6dbd3d2c-a169-461f-a12d-6b951bc25a55</stEvt:instanceID>
                  <stEvt:when>2021-09-17T23:30:30-04:00</stEvt:when>
                  <stEvt:softwareAgent>Adobe Audition 14.2 (Macintosh)</stEvt:softwareAgent>
                  <stEvt:changed>/metadata</stEvt:changed>
               </rdf:li>
               <rdf:li rdf:parseType="Resource">
                  <stEvt:action>saved</stEvt:action>
                  <stEvt:instanceID>xmp.iid:8031a75e-e900-4b8f-bb9c-d46fb0e6d7b7</stEvt:instanceID>
                  <stEvt:when>2021-09-17T23:30:30-04:00</stEvt:when>
                  <stEvt:softwareAgent>Adobe Audition 14.2 (Macintosh)</stEvt:softwareAgent>
                  <stEvt:changed>/</stEvt:changed>
               </rdf:li>
               <rdf:li rdf:parseType="Resource">
                  <stEvt:action>saved</stEvt:action>
                  <stEvt:instanceID>xmp.iid:aec51cfd-e086-4c4f-bcd3-6db43a40ff71</stEvt:instanceID>
                  <stEvt:when>2021-09-18T09:46:56-04:00</stEvt:when>
                  <stEvt:softwareAgent>Adobe Audition 14.2 (Macintosh)</stEvt:softwareAgent>
                  <stEvt:changed>/metadata</stEvt:changed>
               </rdf:li>
               <rdf:li rdf:parseType="Resource">
                  <stEvt:action>saved</stEvt:action>
                  <stEvt:instanceID>xmp.iid:a0688774-b06e-4253-8b5e-ed981fd8de75</stEvt:instanceID>
                  <stEvt:when>2021-09-18T09:46:56-04:00</stEvt:when>
                  <stEvt:softwareAgent>Adobe Audition 14.2 (Macintosh)</stEvt:softwareAgent>
                  <stEvt:changed>/</stEvt:changed>
               </rdf:li>
               <rdf:li rdf:parseType="Resource">
                  <stEvt:action>saved</stEvt:action>
                  <stEvt:instanceID>xmp.iid:02ff3e64-39f9-4862-b0b3-f09c727018cc</stEvt:instanceID>
                  <stEvt:when>2021-09-18T09:51:48-04:00</stEvt:when>
                  <stEvt:softwareAgent>Adobe Audition 14.2 (Macintosh)</stEvt:softwareAgent>
                  <stEvt:changed>/metadata</stEvt:changed>
               </rdf:li>
               <rdf:li rdf:parseType="Resource">
                  <stEvt:action>saved</stEvt:action>
                  <stEvt:instanceID>xmp.iid:b592ab8a-5992-4dff-b2e5-0a466a500b24</stEvt:instanceID>
                  <stEvt:when>2021-09-18T09:51:48-04:00</stEvt:when>
                  <stEvt:softwareAgent>Adobe Audition 14.2 (Macintosh)</stEvt:softwareAgent>
                  <stEvt:changed>/</stEvt:changed>
               </rdf:li>
            </rdf:Seq>
         </xmpMM:History>
         <dc:format>application/xml</dc:format>
         <xmpDM:Tracks>
            <rdf:Bag>
               <rdf:li rdf:parseType="Resource">
                  <xmpDM:trackName>CuePoint Markers</xmpDM:trackName>
                  <xmpDM:trackType>Cue</xmpDM:trackType>
                  <xmpDM:frameRate>f48000</xmpDM:frameRate>
               </rdf:li>
               <rdf:li rdf:parseType="Resource">
                  <xmpDM:trackName>CD Track Markers</xmpDM:trackName>
                  <xmpDM:trackType>Track</xmpDM:trackType>
                  <xmpDM:frameRate>f48000</xmpDM:frameRate>
               </rdf:li>
               <rdf:li rdf:parseType="Resource">
                  <xmpDM:trackName>Subclip Markers</xmpDM:trackName>
                  <xmpDM:trackType>InOut</xmpDM:trackType>
                  <xmpDM:frameRate>f48000</xmpDM:frameRate>
               </rdf:li>
            </rdf:Bag>
         </xmpDM:Tracks>
      </rdf:Description>
   </rdf:RDF>
</x:xmpmeta>
                                                                                                    
                                                                                                    
                                                                                                    
                                                                                                    
                                                                                                    
                                                                                                    
                                                                                                    
                                                                                                    
                                                                                                    
                                                                                                    
                                                                                                    
                                                                                                    
                                                                                                    
                                                                                                    
                                                                                                    
                                                                                                    
                                                                                                    
                                                                                                    
                                                                                                    
                                                                                                    
                           
<?xpacket end="w"?>]]></xmpMetadata>
    <clipGroups/>
    <metronome enabled="false" pattern="downBeat subdivision subdivision subdivision " soundSet="sticks">
      <metronomeTrack automationLaneOpenState="false" id="40000" index="0" select="false" visible="false">
        <trackParameters trackHeight="77" trackHue="-1" trackMinimized="false">
          <name>节拍器</name>
        </trackParameters>
        <trackAudioParameters audioChannelType="mono" automationMode="1" monitoring="false" recordArmed="false" solo="false" soloSafe="true">
          <trackOutput outputID="10000" type="trackID"/>
          <trackInput inputID="-1"/>
          <component componentGuid="0c2176a2-3aeb-434e-9c81-caea5c0ecc83" componentID="Audition.Fader" id="trackFader" name="volume" powered="true">
            <parameter index="0" name="volume" parameterValue="0.501187264919281005859375"/>
            <parameter index="1" name="static gain" parameterValue="1"/>
          </component>
          <component componentGuid="1249e07a-f9c3-4495-9aee-1a460fe1274c" componentID="Audition.Mute" id="trackMute" name="Mute" powered="true">
            <parameter index="0" parameterValue="0"/>
            <parameter index="1" name="mute" parameterValue="0"/>
          </component>
          <component componentGuid="62d79d9a-2a94-40e5-b441-9d7d326362c9" componentID="Audition.StereoPanner" id="trackPan" name="StereoPanner" powered="true">
            <parameter index="0" name="声像" parameterValue="0"/>
          </component>
          <component componentGuid="0b749fc3-88e8-4396-8879-7d0b15331e43" componentID="Audition.EQ" id="trackEQ" name="EQ" powered="false">
            <parameter index="0" name="下限频率" parameterValue="0.000834028352983295917510986328125"/>
            <parameter index="1" name="下限增益" parameterValue="0.5"/>
            <parameter index="2" name="上限频率" parameterValue="0.74979150295257568359375"/>
            <parameter index="3" name="上限频率增益" parameterValue="0.5"/>
            <parameter index="4" name="EQ 频段 1 中置频率" parameterValue="0.00125104258768260478973388671875"/>
            <parameter index="5" name="EQ 频段 1 Q" parameterValue="0.000199989997781813144683837890625"/>
            <parameter index="6" name="EQ 频段 1 增益" parameterValue="0.5"/>
            <parameter index="7" name="EQ 频段 1 启用" parameterValue="1"/>
            <parameter index="8" name="EQ 频段 2 中置频率" parameterValue="0.0075062550604343414306640625"/>
            <parameter index="9" name="EQ 频段 2 Q" parameterValue="0.000199989997781813144683837890625"/>
            <parameter index="10" name="EQ 频段 2 增益" parameterValue="0.5"/>
            <parameter index="11" name="EQ 频段 2 启用" parameterValue="1"/>
            <parameter index="12" name="EQ 频段 3 中置频率" parameterValue="0.0325271077454090118408203125"/>
            <parameter index="13" name="EQ 频段 3 Q" parameterValue="0.000199989997781813144683837890625"/>
            <parameter index="14" name="EQ 频段 3 增益" parameterValue="0.5"/>
            <parameter index="15" name="EQ 频段 3 启用" parameterValue="1"/>
            <parameter index="16" name="EQ 频段 4 中置频率" parameterValue="0.13261051476001739501953125"/>
            <parameter index="17" name="EQ 频段 4 Q" parameterValue="0.000199989997781813144683837890625"/>
            <parameter index="18" name="EQ 频段 4 增益" parameterValue="0.5"/>
            <parameter index="19" name="EQ 频段 4 启用" parameterValue="1"/>
            <parameter index="20" name="EQ 频段 5 中置频率" parameterValue="0.532944142818450927734375"/>
            <parameter index="21" name="EQ 频段 5 Q" parameterValue="0.000199989997781813144683837890625"/>
            <parameter index="22" name="EQ 频段 5 增益" parameterValue="0.5"/>
            <parameter index="23" name="EQ 频段 5 启用" parameterValue="1"/>
            <parameter index="24" name="增益" parameterValue="0.666666686534881591796875"/>
            <parameter index="25" name="恒定 Q" parameterValue="1"/>
            <parameter index="26" name="下限滤镜顺序" parameterValue="0"/>
            <parameter index="27" name="上限频率滤镜顺序" parameterValue="0"/>
            <parameter index="28" name="超静音模式" parameterValue="0"/>
            <parameter index="29" name="下限启用" parameterValue="1"/>
            <parameter index="30" name="上限频率启用" parameterValue="1"/>
            <parameter index="31" name="原始采样率" parameterValue="0.25"/>
            <parameter index="32" name="EQ 频段 1 频带宽" parameterValue="0.002499990165233612060546875"/>
            <parameter index="33" name="EQ 频段 2 频段宽度" parameterValue="0.0099999904632568359375"/>
            <parameter index="34" name="EQ 频段 3 频段宽度" parameterValue="0.0399999916553497314453125"/>
            <parameter index="35" name="EQ 频段 4 频段宽度" parameterValue="0.15999998152256011962890625"/>
            <parameter index="36" name="EQ 频段 5 频段宽度" parameterValue="0.63999998569488525390625"/>
            <parameter index="37" name="高通滤波启用" parameterValue="0"/>
            <parameter index="38" name="高通切除频率" parameterValue="0"/>
            <parameter index="39" name="高通斜率" parameterValue="0.4000000059604644775390625"/>
            <parameter index="40" name="低通滤波启用" parameterValue="0"/>
            <parameter index="41" name="低通切除频率" parameterValue="0.833194315433502197265625"/>
            <parameter index="42" name="低通斜率" parameterValue="0.4000000059604644775390625"/>
            <parameter index="43" name="不使用" parameterValue="0"/>
            <parameter index="44" name="下限图示范围" parameterValue="1"/>
          </component>
        </trackAudioParameters>
        <editParameter parameterIndex="0" slotIndex="4294967280"/>
      </metronomeTrack>
    </metronome>
    <properties>
      <property key="EssentialSoundConfigurations">[{"Guid":"a8b40e3e-13e7-4c1f-b382-96058f1f691d","Name":"$$$/app/Presets/DefaultPresetName=(Default)","PresetData":{"ModeID":"ambience","Models":{"model_ducking":{},"model_loudness":{"DefaultLoudness":{"type":"float","value":-30},"LoudnessStandard":{"type":"std::uint32_t","value":0},"MaxLoudness":{"type":"float","value":-12},"MinLoudness":{"type":"float","value":-42}},"model_soundeffects":{"ReverbPresets":{"type":"tree::any","value":{"$$$/app/Presets/EssentialSound/ReverbPreset/LargeRoomAmbience=Large Room Ambience":{"type":"array::float","value":[0.051507499068975449,0.32432401180267334,0.29292899370193481,0.30000001192092896,0.20000000298023224,0,0.14285700023174286,0.40000000596046448,0.5,0.69999998807907104,0.30000001192092896,0.25125628709793091,0.03125]},"$$$/app/Presets/EssentialSound/ReverbPreset/OutsideAmbience=Outside Ambience":{"type":"array::float","value":[0.091708503663539886,0.043893899768590927,1,0.5,0.20000000298023224,0.80000001192092896,0.18367299437522888,1,0.5,0,0.80000001192092896,0.25125628709793091,0.03125]},"$$$/app/Presets/EssentialSound/ReverbPreset/RoomAmbience=Room Ambience":{"type":"array::float","value":[0.057788901031017303,0.44944900274276733,0.49494898319244385,0.89999997615814209,0.10000000149011612,0.15000000596046448,0.081632703542709351,0.40000000596046448,0.5,0.80000001192092896,0.20000000298023224,0.25125628709793091,0.03125]},"$$$/app/Presets/EssentialSound/ReverbPreset/WindEffect=Wind Effect":{"type":"array::float","value":[0.19597999751567841,0.6896899938583374,0.69696998596191406,0.25,0.5,0.5,0.23469400405883789,0.51999998092651367,0.5,0.75,0.25,0.25125628709793091,0.03125]}}}},"model_stereowidth":{},"model_volume":{"MaxGain":{"type":"float","value":15},"MinGain":{"type":"float","value":-60}}},"Version":1},"Type":"1c19ca71-c24c-49cd-8dd5-2cc46018507a","Version":1},{"Guid":"58dc27a8-6a2a-480c-bd0c-4b45fff346a6","Name":"$$$/app/Presets/DefaultPresetName=(Default)","PresetData":{"ModeID":"dialog","Models":{"model_clarity":{"EQPresets":{"type":"tree::any","value":{"$$$/app/Presets/EssentialSound/EQPreset/BackgroundVoice=Background Voice":{"type":"array::float","value":[0.12099699676036835,0.5,0.39240506291389465,0,0.5,0.5,0.5,0.5,0.5,0.47827938199043274,0.45772689580917358,0.45778733491897583,0.47946760058403015,0.5,0]},"$$$/app/Presets/EssentialSound/EQPreset/Intercom=Intercom":{"type":"array::float","value":[0.19432899355888367,0.5,1,0,0.071499988436698914,0.071499988436698914,0.071499988436698914,0.40238627791404724,0.48571401834487915,0.5,0.55155748128890991,0.59602576494216919,0.22246670722961426,0.071499988436698914,0]},"$$$/app/Presets/EssentialSound/EQPreset/LockedInTheTrunk=Locked in the Trunk":{"type":"array::float","value":[0.12099699676036835,0.5,0.79746836423873901,0,0.5,0.5,0.5,0.5,0.5,0.32846158742904663,0.15721426904201508,0.15721426904201508,0.15721426904201508,0.15721426904201508,0]},"$$$/app/Presets/EssentialSound/EQPreset/OldRadio=Old Radio":{"type":"array::float","value":[0.12099699676036835,0.5,0.79746836423873901,0,0.15721426904201508,0.15721426904201508,0.15721426904201508,0.28442040085792542,0.48315632343292236,0.36498492956161499,0.52853888273239136,0.43511500954627991,0.27154684066772461,0.15721426904201508,0]},"$$$/app/Presets/EssentialSound/EQPreset/OnTheTelephone=On the Telephone":{"type":"array::float","value":[0.12099699676036835,0.5,0.39240506291389465,0,0.32864287495613098,0.32864287495613098,0.32864287495613098,0.32864287495613098,0.48571401834487915,0.53071397542953491,0.53071397542953491,0.48357096314430237,0.32864287495613098,0.32864287495613098,0]},"$$$/app/Presets/EssentialSound/EQPreset/OutsideOfTheRoom=Outside of the Room":{"type":"array::float","value":[0.12099699676036835,0.5,0.79746836423873901,0,0.42539370059967041,0.47865453362464905,0.5,0.5,0.48571401834487915,0.40073278546333313,0.25656309723854065,0.15721426904201508,0.15721426904201508,0.15721426904201508,0]},"$$$/app/Presets/EssentialSound/EQPreset/PodcastVoice=Podcast Voice":{"type":"array::float","value":[0.12099699676036835,0.5,0.39240506291389465,0,0.5,0.5,0.5,0.51789408922195435,0.50770342350006104,0.5,0.51789408922195435,0.528114914894104,0.5102812647819519,0.5,0]},"$$$/app/Presets/EssentialSound/EQPreset/SubtleBoostFemale=Subtle Boost (Female)":{"type":"array::float","value":[0.096553400158882141,0.5,0.29113924503326416,0,0.5,0.5,0.5,0.5,0.5,0.51933407783508301,0.54642897844314575,0.52706766128540039,0.5,0.5,0]},"$$$/app/Presets/EssentialSound/EQPreset/SubtleBoostMale=Subtle Boost (Male)":{"type":"array::float","value":[0.096553400158882141,0.5,0.29113924503326416,0,0.5,0.5,0.5,0.5,0.5,0.5135338306427002,0.54642897844314575,0.51933407783508301,0.5,0.5,0]},"$$$/app/Presets/EssentialSound/EQPreset/ThatPublicRadioSound=That Public Radio Sound":{"type":"array::float","value":[0.12099699676036835,0.5,0.79746836423873901,0,0.15721426904201508,0.15721426904201508,0.15721426904201508,0.36334344744682312,0.49468311667442322,0.5,0.5,0.5,0.5,0.5,0]},"$$$/app/Presets/EssentialSound/EQPreset/VocalPresence=Vocal Presence":{"type":"array::float","value":[0.096553400158882141,0.5,0.32489451766014099,0,0.3572143018245697,0.3572143018245697,0.46428570151329041,0.47857141494750977,0.4763694703578949,0.49570354819297791,0.55924957990646362,0.56523394584655762,0.50859290361404419,0.46992480754852295,0]}}}},"model_loudness":{"DefaultLoudness":{"type":"float","value":-23},"LoudnessStandard":{"type":"std::uint32_t","value":0},"MaxLoudness":{"type":"float","value":-12},"MinLoudness":{"type":"float","value":-42}},"model_restoration":{"ReduceNoiseMaxSetting":{"type":"array::float","value":[1,0,0,0,0]},"ReduceNoiseMinSetting":{"type":"array::float","value":[0,0,0,0,0]},"ReduceReverbMaxSetting":{"type":"array::float","value":[1,0,1,0,0]},"ReduceReverbMinSetting":{"type":"array::float","value":[0,0,1,0,0]},"ReduceRumbleMaxSetting":{"type":"array::float","value":[1,0.061583578586578369,0.375,0,0,0.00083333335351198912,1,0,1,0.0390625,0.00083408987848088145,0,0.0041666668839752674,0.00022554649331141263,0.0046875001862645149,0.75,0.0052083334885537624,0.75,1,0.75,0.0040520834736526012,0.75,0.0042629167437553406,0.00022554649331141263,0.0064883334562182426,0.00022554649331141263,0.006866666954010725,0.75,0.0071704164147377014,0.00022554649331141263,0.01041458360850811,0.00022554649331141263,0.010900000110268593,0.75,0.011407917365431786,0.00022554649331141263,0.015606249682605267,0.00022554649331141263,0.016333334147930145,0.75,0.017094582319259644,0.00022554649331141263,0.026243748143315315,0.00022554649331141263,0.0274666678160429,0.75,0.028746666386723518,0.00022554649331141263,0.041658751666545868,0.00022554649331141263,0.043600000441074371,0.75,0.045631669461727142,0.00022554649331141263,0.062424581497907639,0.00022554649331141263,0.065333336591720581,0.75,0.068377502262592316,0.00022554649331141263,0.10497540980577469,0.00022554649331141263,0.1098666712641716,0.75,0.11498583108186722,0.00022554649331141263,0.16663584113121033,0.00022554649331141263,0.17440000176429749,0.75,0.18252624571323395,0.00022554649331141263,0.91874998807907104,0.00022554649331141263,1,0.00022554649331141263,0,0,0,0,0,0,0,0,0,0,0,0,0,0,0,0,0,0,0,0,0,0,0,0,0,0,0,0,0,0,0,0,0,0,0,0,0,0,0,0,0,0,0,0,0,0,0,0,0,0,0,0,0,0,0,0,0,0,0,0,0,0,0,0,0,0,0,0,0,0,0,0,0,0,0,0,0,0,0,0,0,0,0,0,0,0,0,0,0,0,0,0,0,0,0,0,0,0,0,0,0,0,0,0,0,0,0,0,0,0,0,0,0,0,0,0,0,0,0,0,0,0,0,0,0,0,0,0,0,0,0,0,0,0,0,0,0,0,0,0,0,0,0,0,0,0,0,0,0,0,0,0,0,0,0,0,0,0,0,0,0,0,0,0,0,0,0,0,0,0,0,0,0,0,0,0,0,0,0,0,0,0,0,0,0,0,0,0,0,0]},"ReduceRumbleMinSetting":{"type":"array::float","value":[1,0.061583578586578369,0.375,0,0,0.00083333335351198912,1,0,1,0.0390625,0.00083408987848088145,0.75,0.0041666668839752674,0.75,0.0046875001862645149,0.75,0.0052083334885537624,0.75,1,0.75,0.91874998807907104,0.61237245798110962,1,0.61237245798110962,0,0,0,0,0,0,0,0,0,0,0,0,0,0,0,0,0,0,0,0,0,0,0,0,0,0,0,0,0,0,0,0,0,0,0,0,0,0,0,0,0,0,0,0,0,0,0,0,0,0,0,0,0,0,0,0,0,0,0,0,0,0,0,0,0,0,0,0,0,0,0,0,0,0,0,0,0,0,0,0,0,0,0,0,0,0,0,0,0,0,0,0,0,0,0,0,0,0,0,0,0,0,0,0,0,0,0,0,0,0,0,0,0,0,0,0,0,0,0,0,0,0,0,0,0,0,0,0,0,0,0,0,0,0,0,0,0,0,0,0,0,0,0,0,0,0,0,0,0,0,0,0,0,0,0,0,0,0,0,0,0,0,0,0,0,0,0,0,0,0,0,0,0,0,0,0,0,0,0,0,0,0,0,0,0,0,0,0,0,0,0,0,0,0,0,0,0,0,0,0,0,0,0,0,0,0,0,0,0,0,0,0,0,0,0,0,0,0,0,0,0,0,0,0,0,0,0,0,0,0,0,0,0,0,0,0,0,0,0,0,0,0]},"ReduceSibilanceMaxSetting":{"type":"array::float","value":[0.5,0.19983997941017151,0.18367347121238708,0.26086956262588501,0.52702701091766357,0,1,0,0,0,0,0.75,1,1,0.40000000596046448]},"ReduceSibilanceMinSetting":{"type":"array::float","value":[0.875,0.19983997941017151,0.18367347121238708,0.19130434095859528,0.25675675272941589,0,1,0,0,0,0,0.75,1,1,0.40000000596046448]}},"model_soundeffects":{"ReverbPresets":{"type":"tree::any","value":{"$$$/app/Presets/EssentialSound/ReverbPreset/Auditorium=Auditorium":{"type":"array::float","value":[0.013047545216977596,0.15895412862300873,1,0.89999997615814209,0,0.52007436752319336,0.41663265228271484,0.46000000834465027,0.5,0.73000001907348633,0.15999999642372131,0.75376886129379272,0.03125]},"$$$/app/Presets/EssentialSound/ReverbPreset/Church=Church":{"type":"array::float","value":[0.032663315534591675,0.39939939975738525,0.79797977209091187,0.25,0.5,0.5,0.2297959178686142,0.72000002861022949,0.5,0.62999999523162842,0.87999999523162842,0.25125628709793091,0.03125]},"$$$/app/Presets/EssentialSound/ReverbPreset/LargeReflectiveRoom=Large Reflective Room":{"type":"array::float","value":[0.0074449013918638229,0.098988421261310577,0.79890537261962891,0.89999997615814209,0.10000000149011612,0.40110713243484497,0.060284845530986786,0.27522978186607361,0.5,0.73000001907348633,0.31999999284744263,0.25125628709793091,0.03125]},"$$$/app/Presets/EssentialSound/ReverbPreset/OutsideTheClub=Outside the Club":{"type":"array::float","value":[0.020615793764591217,0.050136558711528778,0.69696998596191406,0.25,0.094355784356594086,0.22242647409439087,0.1071428582072258,0.2800000011920929,0.5,0.73000001907348633,0.46000000834465027,0.25125628709793091,0.03125]},"$$$/app/Presets/EssentialSound/ReverbPreset/SmallDryRoom=Small Dry Room":{"type":"array::float","value":[0.24623115360736847,0.69975000619888306,0.29292899370193481,0.40000000596046448,0.20000000298023224,0.40000000596046448,0.039285715669393539,0.10000000149011612,0.5,1,0.5,0.75376886129379272,0.03125]},"$$$/app/Presets/EssentialSound/ReverbPreset/ThickenVoice=Thicken Voice":{"type":"array::float","value":[0.19597999751567841,0.23931467533111572,0.69696998596191406,0.25,0.5,0.53999996185302734,0.020408162847161293,0.20945435762405396,0.5,1,0.34999999403953552,0.25125628709793091,0.03125]},"$$$/app/Presets/EssentialSound/ReverbPreset/WarmRoom=Warm Room":{"type":"array::float","value":[0.020100502297282219,0.074074074625968933,0.49494948983192444,0.40000000596046448,0.74960309267044067,0.40000000596046448,0.1239795908331871,0.67000001668930054,0.5,0.85000002384185791,0.56000000238418579,0.25125628709793091,0.03125]},"$$$/app/Presets/EssentialSound/ReverbPreset/WarmVoice=Warm Voice":{"type":"array::float","value":[0.19597989320755005,0.89989989995956421,0,0.40000000596046448,0.20000000298023224,0.40000000596046448,0.10204081982374191,0.090000003576278687,0.5,1,0.30000001192092896,0.25125628709793091,0.03125]}}}},"model_volume":{"MaxGain":{"type":"float","value":15},"MinGain":{"type":"float","value":-60}}},"Version":2},"Type":"1c19ca71-c24c-49cd-8dd5-2cc46018507a","Version":1},{"Guid":"353811fa-4179-435e-8e5e-23028ba15a7a","Name":"$$$/app/Presets/DefaultPresetName=(Default)","PresetData":{"ModeID":"generic","Models":{"model_loudness":{"DefaultLoudness":{"type":"float","value":-24},"LoudnessStandard":{"type":"std::uint32_t","value":0},"MaxLoudness":{"type":"float","value":-12},"MinLoudness":{"type":"float","value":-42}},"model_volume":{"MaxGain":{"type":"float","value":15},"MinGain":{"type":"float","value":-60}}},"Version":1},"Type":"1c19ca71-c24c-49cd-8dd5-2cc46018507a","Version":1},{"Guid":"31ba96a6-5d3e-4d89-b1e1-1dbe3c055d0c","Name":"$$$/app/Presets/DefaultPresetName=(Default)","PresetData":{"ModeID":"music","Models":{"model_ducking":{},"model_duration":{},"model_loudness":{"DefaultLoudness":{"type":"float","value":-25},"LoudnessStandard":{"type":"std::uint32_t","value":0},"MaxLoudness":{"type":"float","value":-12},"MinLoudness":{"type":"float","value":-42}},"model_volume":{"MaxGain":{"type":"float","value":15},"MinGain":{"type":"float","value":-60}}},"Version":1},"Type":"1c19ca71-c24c-49cd-8dd5-2cc46018507a","Version":1},{"Guid":"cea63332-1adc-44a9-a6eb-5490f965859b","Name":"$$$/app/Presets/DefaultPresetName=(Default)","PresetData":{"ModeID":"sfx","Models":{"model_loudness":{"DefaultLoudness":{"type":"float","value":-21},"LoudnessStandard":{"type":"std::uint32_t","value":0},"MaxLoudness":{"type":"float","value":-12},"MinLoudness":{"type":"float","value":-42}},"model_pan":{},"model_soundeffects":{"ReverbPresets":{"type":"tree::any","value":{"$$$/app/Presets/EssentialSound/ReverbPreset/HeavyReverb=Heavy Reverb":{"type":"array::float","value":[0.13316600024700165,0.29929900169372559,1,0.95999997854232788,0.85000002384185791,0.5,0.51530599594116211,0.30000001192092896,0.5,0.5,0.5,0.25125628709793091,0.0625]},"$$$/app/Presets/EssentialSound/ReverbPreset/LightReverb=Light Reverb":{"type":"array::float","value":[0.095477402210235596,0.29929900169372559,0.090909101068973541,1,1,0.80000001192092896,0.22449000179767609,0.60000002384185791,0.5,0.69999998807907104,0.30000001192092896,0.25125628709793091,0.0625]},"$$$/app/Presets/EssentialSound/ReverbPreset/OutsideReverb=Outside Reverb":{"type":"array::float","value":[0.091708503663539886,0.043893899768590927,1,0.5,0.20000000298023224,0.80000001192092896,0.18367299437522888,1,0.5,0,0.80000001192092896,0.25125628709793091,0.0625]},"$$$/app/Presets/EssentialSound/ReverbPreset/RoomReverb=Room Reverb":{"type":"array::float","value":[0.057788901031017303,0.44944900274276733,0.49494898319244385,0.89999997615814209,0.10000000149011612,0.15000000596046448,0.081632703542709351,0.40000000596046448,0.5,0.80000001192092896,0.20000000298023224,0.25125628709793091,0.0625]}}}},"model_volume":{"MaxGain":{"type":"float","value":15},"MinGain":{"type":"float","value":-60}}},"Version":1},"Type":"1c19ca71-c24c-49cd-8dd5-2cc46018507a","Version":1}]</property>
    </properties>
  </session>

  <files>
    <file absolutePath="/Users/wupeixian/Dropbox/My Mac (吴佩娴的MacBook Pro)/Desktop/FALL 2021/Hyp/SoundVacationSkeleton/已导入文件/walking-on-pavement.wav" id="0" importerPrivateSettings="Compression:0:0;LargeFileSupport:0:0;SampleType:0:20;" mediaHandler="AmioWav" relativePath="已导入文件/walking-on-pavement.wav"/>
    <file absolutePath="/Users/wupeixian/Dropbox/My Mac (吴佩娴的MacBook Pro)/Desktop/FALL 2021/Hyp/SoundVacationSkeleton/已导入文件/run.wav" id="1" importerPrivateSettings="Compression:0:0;LargeFileSupport:0:0;SampleType:0:20;" mediaHandler="AmioWav" relativePath="已导入文件/run.wav"/>
    <file absolutePath="/Users/wupeixian/Dropbox/My Mac (吴佩娴的MacBook Pro)/Desktop/FALL 2021/Hyp/SoundVacationSkeleton/Conformed Files/counting1 48000 2.wav" id="2" importerPrivateSettings="Compression:0:0;LargeFileSupport:0:0;SampleType:0:40;" mediaHandler="AmioWav" relativePath="Conformed Files/counting1 48000 2.wav"/>
    <file absolutePath="/Users/wupeixian/Dropbox/My Mac (吴佩娴的MacBook Pro)/Desktop/FALL 2021/Hyp/SoundVacationSkeleton/Conformed Files/counting2 48000 2.wav" id="3" importerPrivateSettings="Compression:0:0;LargeFileSupport:0:0;SampleType:0:40;" mediaHandler="AmioWav" relativePath="Conformed Files/counting2 48000 2.wav"/>
    <file absolutePath="/Users/wupeixian/Dropbox/My Mac (吴佩娴的MacBook Pro)/Desktop/FALL 2021/Hyp/SoundVacationSkeleton/Conformed Files/counting3 48000 1.wav" id="4" importerPrivateSettings="Compression:0:0;LargeFileSupport:0:0;SampleType:0:40;" mediaHandler="AmioWav" relativePath="Conformed Files/counting3 48000 1.wav"/>
    <file absolutePath="/Users/wupeixian/Dropbox/My Mac (吴佩娴的MacBook Pro)/Desktop/FALL 2021/Hyp/SoundVacationSkeleton/Conformed Files/breathing 48000 2.wav" id="5" importerPrivateSettings="Compression:0:0;LargeFileSupport:0:0;SampleType:0:40;" mediaHandler="AmioWav" relativePath="Conformed Files/breathing 48000 2.wav"/>
    <file absolutePath="/Users/wupeixian/Dropbox/My Mac (吴佩娴的MacBook Pro)/Desktop/FALL 2021/Hyp/SoundVacationSkeleton/Conformed Files/count1 48000 2.wav" id="6" importerPrivateSettings="Compression:0:0;LargeFileSupport:0:0;SampleType:0:40;" mediaHandler="AmioWav" relativePath="Conformed Files/count1 48000 2.wav"/>
    <file absolutePath="/Users/wupeixian/Dropbox/My Mac (吴佩娴的MacBook Pro)/Desktop/FALL 2021/Hyp/SoundVacationSkeleton/Conformed Files/count2 48000 1.wav" id="7" importerPrivateSettings="Compression:0:0;LargeFileSupport:0:0;SampleType:0:40;" mediaHandler="AmioWav" relativePath="Conformed Files/count2 48000 1.wav"/>
    <file absolutePath="/Users/wupeixian/Dropbox/My Mac (吴佩娴的MacBook Pro)/Desktop/FALL 2021/Hyp/SoundVacationSkeleton/Conformed Files/count3 48000 1.wav" id="8" importerPrivateSettings="Compression:0:0;LargeFileSupport:0:0;SampleType:0:40;" mediaHandler="AmioWav" relativePath="Conformed Files/count3 48000 1.wav"/>
    <file absolutePath="/Users/wupeixian/Dropbox/My Mac (吴佩娴的MacBook Pro)/Desktop/FALL 2021/Hyp/SoundVacationSkeleton/已导入文件/chat.wav" id="9" importerPrivateSettings="Compression:0:0;LargeFileSupport:0:0;SampleType:0:20;" mediaHandler="AmioWav" relativePath="已导入文件/chat.wav"/>
    <file absolutePath="/Users/wupeixian/Dropbox/My Mac (吴佩娴的MacBook Pro)/Desktop/FALL 2021/Hyp/SoundVacationSkeleton/Conformed Files/BKstreet2 48000 1.wav" id="10" importerPrivateSettings="Compression:0:0;LargeFileSupport:0:0;SampleType:0:40;" mediaHandler="AmioWav" relativePath="Conformed Files/BKstreet2 48000 1.wav"/>
    <file absolutePath="/Users/wupeixian/Dropbox/My Mac (吴佩娴的MacBook Pro)/Desktop/FALL 2021/Hyp/SoundVacationSkeleton/Conformed Files/BKstreet 48000 1.wav" id="11" importerPrivateSettings="Compression:0:0;LargeFileSupport:0:0;SampleType:0:40;" mediaHandler="AmioWav" relativePath="Conformed Files/BKstreet 48000 1.wav"/>
    <file absolutePath="/Users/wupeixian/Dropbox/My Mac (吴佩娴的MacBook Pro)/Desktop/FALL 2021/Hyp/SoundVacationSkeleton/Conformed Files/MHTstreet 48000 1.wav" id="12" importerPrivateSettings="Compression:0:0;LargeFileSupport:0:0;SampleType:0:40;" mediaHandler="AmioWav" relativePath="Conformed Files/MHTstreet 48000 1.wav"/>
    <file absolutePath="/Users/wupeixian/Dropbox/My Mac (吴佩娴的MacBook Pro)/Desktop/FALL 2021/Hyp/SoundVacationSkeleton/Conformed Files/restaurant-suzhou-china 48000 1.wav" id="13" importerPrivateSettings="Compression:0:0;LargeFileSupport:0:0;SampleType:0:1;" mediaHandler="AmioWav" relativePath="Conformed Files/restaurant-suzhou-china 48000 1.wav"/>
    <file absolutePath="/Users/wupeixian/Dropbox/My Mac (吴佩娴的MacBook Pro)/Desktop/FALL 2021/Hyp/SoundVacationSkeleton/Conformed Files/chinatown 48000 1.wav" id="14" importerPrivateSettings="Compression:0:0;LargeFileSupport:0:0;SampleType:0:40;" mediaHandler="AmioWav" relativePath="Conformed Files/chinatown 48000 1.wav"/>
    <file absolutePath="/Users/wupeixian/Dropbox/My Mac (吴佩娴的MacBook Pro)/Desktop/FALL 2021/Hyp/SoundVacationSkeleton/Conformed Files/chinatown2 48000 1.wav" id="15" importerPrivateSettings="Compression:0:0;LargeFileSupport:0:0;SampleType:0:40;" mediaHandler="AmioWav" relativePath="Conformed Files/chinatown2 48000 1.wav"/>
    <file absolutePath="/Users/wupeixian/Dropbox/My Mac (吴佩娴的MacBook Pro)/Desktop/FALL 2021/Hyp/SoundVacationSkeleton/Conformed Files/traffic 48000 1.wav" id="16" importerPrivateSettings="Compression:0:0;LargeFileSupport:0:0;SampleType:0:40;" mediaHandler="AmioWav" relativePath="Conformed Files/traffic 48000 1.wav"/>
    <file absolutePath="/Users/wupeixian/Dropbox/My Mac (吴佩娴的MacBook Pro)/Desktop/FALL 2021/Hyp/SoundVacationSkeleton/Conformed Files/MHTstreet2 48000 1.wav" id="17" importerPrivateSettings="Compression:0:0;LargeFileSupport:0:0;SampleType:0:40;" mediaHandler="AmioWav" relativePath="Conformed Files/MHTstreet2 48000 1.wav"/>
    <file absolutePath="/Users/wupeixian/Dropbox/My Mac (吴佩娴的MacBook Pro)/Desktop/FALL 2021/Hyp/SoundVacationSkeleton/Conformed Files/subway 48000 1.wav" id="18" importerPrivateSettings="Compression:0:0;LargeFileSupport:0:0;SampleType:0:40;" mediaHandler="AmioWav" relativePath="Conformed Files/subway 48000 1.wav"/>
    <file absolutePath="/Users/wupeixian/Dropbox/My Mac (吴佩娴的MacBook Pro)/Desktop/FALL 2021/Hyp/SoundVacationSkeleton/Conformed Files/beach-8 48000 1.wav" id="19" importerPrivateSettings="Compression:0:0;LargeFileSupport:0:0;SampleType:0:1;" mediaHandler="AmioWav" relativePath="Conformed Files/beach-8 48000 1.wav"/>
    <file absolutePath="/Users/wupeixian/Dropbox/My Mac (吴佩娴的MacBook Pro)/Desktop/FALL 2021/Hyp/SoundVacationSkeleton/Conformed Files/running-into-pond 48000 2.wav" id="20" importerPrivateSettings="Compression:0:0;LargeFileSupport:0:0;SampleType:0:20;" mediaHandler="AmioWav" relativePath="Conformed Files/running-into-pond 48000 2.wav"/>
    <file absolutePath="/Users/wupeixian/Dropbox/My Mac (吴佩娴的MacBook Pro)/Desktop/FALL 2021/Hyp/SoundVacationSkeleton/Conformed Files/running-into-pond 48000 1.wav" id="21" importerPrivateSettings="Compression:0:0;LargeFileSupport:0:0;SampleType:0:20;" mediaHandler="AmioWav" relativePath="Conformed Files/running-into-pond 48000 1.wav"/>
    <file absolutePath="/Users/wupeixian/Dropbox/My Mac (吴佩娴的MacBook Pro)/Desktop/FALL 2021/Hyp/SoundVacationSkeleton/Conformed Files/pole 48000 1.wav" id="22" importerPrivateSettings="Compression:0:0;LargeFileSupport:0:0;SampleType:0:40;" mediaHandler="AmioWav" relativePath="Conformed Files/pole 48000 1.wav"/>
    <file absolutePath="/Users/wupeixian/Dropbox/My Mac (吴佩娴的MacBook Pro)/Desktop/FALL 2021/Hyp/SoundVacationSkeleton/Conformed Files/bike 48000 1.wav" id="23" importerPrivateSettings="Compression:0:0;LargeFileSupport:0:0;SampleType:0:40;" mediaHandler="AmioWav" relativePath="Conformed Files/bike 48000 1.wav"/>
    <file absolutePath="/Users/wupeixian/Dropbox/My Mac (吴佩娴的MacBook Pro)/Desktop/FALL 2021/Hyp/SoundVacationSkeleton/Conformed Files/monster-swallows 48000 1.wav" id="24" importerPrivateSettings="Compression:0:0;LargeFileSupport:0:0;SampleType:0:40;" mediaHandler="AmioWav" relativePath="Conformed Files/monster-swallows 48000 1.wav"/>
    <file absolutePath="/Users/wupeixian/Dropbox/My Mac (吴佩娴的MacBook Pro)/Desktop/FALL 2021/Hyp/SoundVacationSkeleton/Conformed Files/hit1 48000 1.wav" id="25" mediaHandler="AmioWav" relativePath="Conformed Files/hit1 48000 1.wav"/>
    <file absolutePath="/Users/wupeixian/Dropbox/My Mac (吴佩娴的MacBook Pro)/Desktop/FALL 2021/Hyp/SoundVacationSkeleton/Conformed Files/hit3 48000 1.wav" id="26" mediaHandler="AmioWav" relativePath="Conformed Files/hit3 48000 1.wav"/>
    <file absolutePath="/Users/wupeixian/Dropbox/My Mac (吴佩娴的MacBook Pro)/Desktop/FALL 2021/Hyp/SoundVacationSkeleton/Conformed Files/hit3 48000 2.wav" id="27" mediaHandler="AmioWav" relativePath="Conformed Files/hit3 48000 2.wav"/>
  </files>

  <audioDevice inputID="22222222-2222-2222-2222-22222222" outputID="11111111-1111-1111-1111-11111111">
    <inputPort id="1" name="默认立体声输入"/>
    <inputPort id="2" name="[01M] 系统默认 - MacBook Pro麦克风: MacBook Pro麦克风 1"/>
    <inputPort id="3" name="[01S] 系统默认 - MacBook Pro麦克风: MacBook Pro麦克风 1"/>
    <outputPort id="1" name="默认输出"/>
    <outputPort id="2" name="[01M] 系统默认 - MacBook Pro扬声器: MacBook Pro扬声器 1"/>
    <outputPort id="3" name="[02M] 系统默认 - MacBook Pro扬声器: MacBook Pro扬声器 2"/>
    <outputPort id="4" name="默认立体声输出"/>
    <outputPort id="5" name="[01S] 系统默认 - MacBook Pro扬声器: MacBook Pro扬声器 1"/>
    <outputPort id="6" name="默认环绕声输出"/>
  </audioDevice>

</sesx>
