<?xml version="1.0" encoding="UTF-8" standalone="no" ?>
<!DOCTYPE sesx>
<sesx version="1.9">

  <session appBuild="14.2.0.34" appVersion="14.2" audioChannelType="stereo" bitDepth="32" duration="10456216" sampleRate="48000">
    <tracks>
      <audioTrack automationLaneOpenState="false" id="10001" index="1" select="false" visible="true">
        <trackParameters trackHeight="52" trackHue="160" trackMinimized="false">
          <name>footstep</name>
        </trackParameters>
        <trackAudioParameters audioChannelType="stereo" automationMode="1" monitoring="false" recordArmed="false" solo="false" soloSafe="false">
          <trackOutput outputID="10000" type="trackID"/>
          <trackInput inputID="1"/>
          <component componentGuid="1a19aff8-7db9-4ab9-bc5a-832c004dd4f9" componentID="Audition.Fader" id="trackFader" name="volume" powered="true">
            <parameter index="0" name="volume" parameterValue="1"/>
            <parameter index="1" name="static gain" parameterValue="1"/>
          </component>
          <component componentGuid="57fe3674-6433-4422-8010-8b4687b2fced" componentID="Audition.Mute" id="trackMute" name="Mute" powered="true">
            <parameter index="0" parameterValue="0"/>
            <parameter index="1" name="mute" parameterValue="0"/>
          </component>
          <component componentGuid="321eddc7-4649-4f8d-9742-9e01a649c1f2" componentID="Audition.StereoPanner" id="trackPan" name="StereoPanner" powered="true">
            <parameter index="0" name="声像" parameterValue="0"/>
          </component>
          <component componentGuid="18736dcc-259f-4350-bf51-04f235e502eb" componentID="Audition.EQ" id="trackEQ" name="EQ" powered="false">
            <parameter index="0" name="下限频率" parameterValue="0.000834028352983295917510986328125"/>
            <parameter index="1" name="下限增益" parameterValue="0.5"/>
            <parameter index="2" name="上限频率" parameterValue="0.74979150295257568359375"/>
            <parameter index="3" name="上限频率增益" parameterValue="0.5"/>
            <parameter index="4" name="EQ 频段 1 中置频率" parameterValue="0.00125104258768260478973388671875"/>
            <parameter index="5" name="EQ 频段 1 Q" parameterValue="0.000199989997781813144683837890625"/>
            <parameter index="6" name="EQ 频段 1 增益" parameterValue="0.5"/>
            <parameter index="7" name="EQ 频段 1 启用" parameterValue="1"/>
            <parameter index="8" name="EQ 频段 2 中置频率" parameterValue="0.0075062550604343414306640625"/>
            <parameter index="9" name="EQ 频段 2 Q" parameterValue="0.000199989997781813144683837890625"/>
            <parameter index="10" name="EQ 频段 2 增益" parameterValue="0.5"/>
            <parameter index="11" name="EQ 频段 2 启用" parameterValue="1"/>
            <parameter index="12" name="EQ 频段 3 中置频率" parameterValue="0.0325271077454090118408203125"/>
            <parameter index="13" name="EQ 频段 3 Q" parameterValue="0.000199989997781813144683837890625"/>
            <parameter index="14" name="EQ 频段 3 增益" parameterValue="0.5"/>
            <parameter index="15" name="EQ 频段 3 启用" parameterValue="1"/>
            <parameter index="16" name="EQ 频段 4 中置频率" parameterValue="0.13261051476001739501953125"/>
            <parameter index="17" name="EQ 频段 4 Q" parameterValue="0.000199989997781813144683837890625"/>
            <parameter index="18" name="EQ 频段 4 增益" parameterValue="0.5"/>
            <parameter index="19" name="EQ 频段 4 启用" parameterValue="1"/>
            <parameter index="20" name="EQ 频段 5 中置频率" parameterValue="0.532944142818450927734375"/>
            <parameter index="21" name="EQ 频段 5 Q" parameterValue="0.000199989997781813144683837890625"/>
            <parameter index="22" name="EQ 频段 5 增益" parameterValue="0.5"/>
            <parameter index="23" name="EQ 频段 5 启用" parameterValue="1"/>
            <parameter index="24" name="增益" parameterValue="0.666666686534881591796875"/>
            <parameter index="25" name="恒定 Q" parameterValue="1"/>
            <parameter index="26" name="下限滤镜顺序" parameterValue="0"/>
            <parameter index="27" name="上限频率滤镜顺序" parameterValue="0"/>
            <parameter index="28" name="超静音模式" parameterValue="0"/>
            <parameter index="29" name="下限启用" parameterValue="1"/>
            <parameter index="30" name="上限频率启用" parameterValue="1"/>
            <parameter index="31" name="原始采样率" parameterValue="0.25"/>
            <parameter index="32" name="EQ 频段 1 频带宽" parameterValue="0.002499990165233612060546875"/>
            <parameter index="33" name="EQ 频段 2 频段宽度" parameterValue="0.0099999904632568359375"/>
            <parameter index="34" name="EQ 频段 3 频段宽度" parameterValue="0.0399999916553497314453125"/>
            <parameter index="35" name="EQ 频段 4 频段宽度" parameterValue="0.15999998152256011962890625"/>
            <parameter index="36" name="EQ 频段 5 频段宽度" parameterValue="0.63999998569488525390625"/>
            <parameter index="37" name="高通滤波启用" parameterValue="0"/>
            <parameter index="38" name="高通切除频率" parameterValue="0"/>
            <parameter index="39" name="高通斜率" parameterValue="0.4000000059604644775390625"/>
            <parameter index="40" name="低通滤波启用" parameterValue="0"/>
            <parameter index="41" name="低通切除频率" parameterValue="0.833194315433502197265625"/>
            <parameter index="42" name="低通斜率" parameterValue="0.4000000059604644775390625"/>
            <parameter index="43" name="不使用" parameterValue="0"/>
            <parameter index="44" name="下限图示范围" parameterValue="1"/>
          </component>
        </trackAudioParameters>
        <editParameter parameterIndex="0" slotIndex="4294967280"/>
        <audioClip clipAutoCrossfade="true" crossFadeHeadClipID="-1" crossFadeTailClipID="-1" endPoint="688499" fileID="0" hue="-1" id="0" lockedInTime="false" looped="false" name="walking-on-pavement" offline="false" select="false" sourceInPoint="0" sourceOutPoint="688499" startPoint="0" zOrder="0">
          <component componentGuid="3a3c887f-a887-4d70-b2ce-58870cdd59e2" componentID="Audition.Fader" id="clipGain" name="volume" powered="true">
            <parameter index="0" name="volume" parameterValue="5.623412609100341796875">
              <parameterKeyframes enableSplines="true" readOnly="false">
                <parameterKeyframe sampleOffset="0" select="false" type="linear" value="0.23561157286167144775390625"/>
                <parameterKeyframe sampleOffset="74966" select="false" type="linear" value="0.4549943506717681884765625"/>
                <parameterKeyframe sampleOffset="91625" select="false" type="linear" value="0.64999997615814208984375"/>
                <parameterKeyframe sampleOffset="628879" select="true" type="linear" value="0.64999997615814208984375"/>
                <parameterKeyframe sampleOffset="687100" select="false" type="linear" value="0.2238409817218780517578125"/>
              </parameterKeyframes>
            </parameter>
            <parameter index="1" name="static gain" parameterValue="1"/>
          </component>
          <component componentGuid="7250f952-5dd9-47d7-a66f-cf3bfe6f2312" componentID="Audition.Mute" id="clipMute" name="Mute" powered="true">
            <parameter index="0" parameterValue="0"/>
            <parameter index="1" name="mute" parameterValue="0"/>
          </component>
          <component componentGuid="d36c42ab-6b74-4217-8506-0ddf7f05a8d0" componentID="Audition.StereoPanner" id="clipPan" name="StereoPanner" powered="true">
            <parameter index="0" name="声像" parameterValue="0"/>
          </component>
          <fadeIn crossFadeLinkType="linkedSymmetric" endPoint="0" shape="19" startPoint="0" type="log"/>
          <fadeOut crossFadeLinkType="linkedSymmetric" endPoint="688499" shape="19" startPoint="688499" type="log"/>
          <editParameter parameterIndex="0" slotIndex="4294967281"/>
          <editParameter parameterIndex="0" slotIndex="4294967280"/>
          <channelMap>
            <channel index="0" sourceIndex="0"/>
            <channel index="1" sourceIndex="1"/>
          </channelMap>
        </audioClip>
        <audioClip clipAutoCrossfade="true" crossFadeHeadClipID="-1" crossFadeTailClipID="-1" endPoint="735714" fileID="1" hue="-1" id="1" lockedInTime="false" looped="false" name="hit 48000 1" offline="false" select="false" sourceInPoint="5447" sourceOutPoint="52662" startPoint="688499" zOrder="3">
          <component componentGuid="87181f84-59c7-448d-bac8-368d8cfea4ce" componentID="Audition.Fader" id="clipGain" name="volume" powered="true">
            <parameter index="0" name="volume" parameterValue="1"/>
            <parameter index="1" name="static gain" parameterValue="1"/>
          </component>
          <component componentGuid="3bd00ce7-aa71-42ba-89b7-df5ccfed098a" componentID="Audition.Mute" id="clipMute" name="Mute" powered="true">
            <parameter index="0" parameterValue="0"/>
            <parameter index="1" name="mute" parameterValue="0"/>
          </component>
          <component componentGuid="31edb882-f0f3-4ae3-a815-8625fb804c2b" componentID="Audition.StereoPanner" id="clipPan" name="StereoPanner" powered="true">
            <parameter index="0" name="声像" parameterValue="0"/>
          </component>
          <fadeIn crossFadeLinkType="linkedSymmetric" endPoint="0" shape="19" startPoint="0" type="log"/>
          <fadeOut crossFadeLinkType="linkedSymmetric" endPoint="47215" shape="19" startPoint="47215" type="log"/>
          <editParameter parameterIndex="0" slotIndex="4294967280"/>
          <editParameter parameterIndex="0" slotIndex="4294967281"/>
          <channelMap>
            <channel index="0" sourceIndex="0"/>
            <channel index="1" sourceIndex="1"/>
          </channelMap>
        </audioClip>
        <audioClip clipAutoCrossfade="true" crossFadeHeadClipID="-1" crossFadeTailClipID="-1" endPoint="1609351" fileID="0" hue="-1" id="2" lockedInTime="false" looped="false" name="walking-on-pavement" offline="false" select="false" sourceInPoint="720504" sourceOutPoint="1432678" startPoint="897177" zOrder="6">
          <component componentGuid="1fe242b3-709e-4b62-935c-748de7fedc57" componentID="Audition.Fader" id="clipGain" name="volume" powered="true">
            <parameter index="0" name="volume" parameterValue="5.623412609100341796875">
              <parameterKeyframes enableSplines="true" readOnly="false">
                <parameterKeyframe sampleOffset="721064" select="false" type="linear" value="0.120367936789989471435546875"/>
                <parameterKeyframe sampleOffset="754552" select="false" type="linear" value="0.3133470118045806884765625"/>
                <parameterKeyframe sampleOffset="792133" select="false" type="linear" value="0.77248060703277587890625"/>
                <parameterKeyframe sampleOffset="1425797" select="false" type="linear" value="0.590854108333587646484375"/>
              </parameterKeyframes>
            </parameter>
            <parameter index="1" name="static gain" parameterValue="1"/>
          </component>
          <component componentGuid="5d10c7eb-44e5-42b1-a7ce-783b9caec0ac" componentID="Audition.Mute" id="clipMute" name="Mute" powered="true">
            <parameter index="0" parameterValue="0"/>
            <parameter index="1" name="mute" parameterValue="0"/>
          </component>
          <component componentGuid="6e12ac6b-7aac-43c6-abb5-e12a0c730c6a" componentID="Audition.StereoPanner" id="clipPan" name="StereoPanner" powered="true">
            <parameter index="0" name="声像" parameterValue="0"/>
          </component>
          <fadeIn crossFadeLinkType="linkedSymmetric" endPoint="0" shape="19" startPoint="0" type="log"/>
          <fadeOut crossFadeLinkType="linkedSymmetric" endPoint="712174" shape="19" startPoint="712174" type="log"/>
          <editParameter parameterIndex="0" slotIndex="4294967281"/>
          <editParameter parameterIndex="0" slotIndex="4294967280"/>
          <channelMap>
            <channel index="0" sourceIndex="0"/>
            <channel index="1" sourceIndex="1"/>
          </channelMap>
        </audioClip>
        <audioClip clipAutoCrossfade="true" crossFadeHeadClipID="-1" crossFadeTailClipID="-1" endPoint="1656566" fileID="1" hue="-1" id="3" lockedInTime="false" looped="false" name="hit 48000 1" offline="false" select="false" sourceInPoint="5447" sourceOutPoint="52662" startPoint="1609351" zOrder="5">
          <component componentGuid="cd0b3a1b-03e1-4cbc-a965-41f2e955248a" componentID="Audition.Fader" id="clipGain" name="volume" powered="true">
            <parameter index="0" name="volume" parameterValue="1"/>
            <parameter index="1" name="static gain" parameterValue="1"/>
          </component>
          <component componentGuid="b9f93739-6173-43ed-9018-a896f640cf96" componentID="Audition.Mute" id="clipMute" name="Mute" powered="true">
            <parameter index="0" parameterValue="0"/>
            <parameter index="1" name="mute" parameterValue="0"/>
          </component>
          <component componentGuid="612aca32-659f-4e9b-b938-e4fcd482dd88" componentID="Audition.StereoPanner" id="clipPan" name="StereoPanner" powered="true">
            <parameter index="0" name="声像" parameterValue="0"/>
          </component>
          <fadeIn crossFadeLinkType="linkedSymmetric" endPoint="0" shape="19" startPoint="0" type="log"/>
          <fadeOut crossFadeLinkType="linkedSymmetric" endPoint="47215" shape="19" startPoint="47215" type="log"/>
          <editParameter parameterIndex="0" slotIndex="4294967280"/>
          <editParameter parameterIndex="0" slotIndex="4294967281"/>
          <channelMap>
            <channel index="0" sourceIndex="0"/>
            <channel index="1" sourceIndex="1"/>
          </channelMap>
        </audioClip>
        <audioClip clipAutoCrossfade="true" crossFadeHeadClipID="-1" crossFadeTailClipID="-1" endPoint="2532708" fileID="0" hue="-1" id="4" lockedInTime="false" looped="false" name="walking-on-pavement" offline="false" select="false" sourceInPoint="1432678" sourceOutPoint="2165675" startPoint="1799711" zOrder="8">
          <component componentGuid="bb6fda6c-5dda-4870-b881-946b35662fc3" componentID="Audition.Fader" id="clipGain" name="volume" powered="true">
            <parameter index="0" name="volume" parameterValue="1.0000000036274937255387218471014421083964407444000244140625e-15">
              <parameterKeyframes enableSplines="true" readOnly="false">
                <parameterKeyframe sampleOffset="1432678" select="false" type="linear" value="0"/>
                <parameterKeyframe sampleOffset="1432679" select="false" type="linear" value="0"/>
                <parameterKeyframe sampleOffset="1513310" select="true" type="linear" value="0.2317176759243011474609375"/>
                <parameterKeyframe sampleOffset="1593957" select="false" type="linear" value="0.64999997615814208984375"/>
              </parameterKeyframes>
            </parameter>
            <parameter index="1" name="static gain" parameterValue="1"/>
          </component>
          <component componentGuid="eee1ea2d-4749-4698-9a74-099be0dbb725" componentID="Audition.Mute" id="clipMute" name="Mute" powered="true">
            <parameter index="0" parameterValue="0"/>
            <parameter index="1" name="mute" parameterValue="0"/>
          </component>
          <component componentGuid="c2284128-fd40-496d-8368-b4cd3d40776c" componentID="Audition.StereoPanner" id="clipPan" name="StereoPanner" powered="true">
            <parameter index="0" name="声像" parameterValue="0"/>
          </component>
          <fadeIn crossFadeLinkType="linkedSymmetric" endPoint="0" shape="19" startPoint="0" type="log"/>
          <fadeOut crossFadeLinkType="linkedSymmetric" endPoint="732997" shape="19" startPoint="732997" type="log"/>
          <editParameter parameterIndex="0" slotIndex="4294967281"/>
          <editParameter parameterIndex="0" slotIndex="4294967280"/>
          <channelMap>
            <channel index="0" sourceIndex="0"/>
            <channel index="1" sourceIndex="1"/>
          </channelMap>
        </audioClip>
        <audioClip clipAutoCrossfade="true" crossFadeHeadClipID="-1" crossFadeTailClipID="-1" endPoint="2149147" fileID="1" hue="-1" id="5" lockedInTime="false" looped="false" name="hit 48000 1" offline="false" select="false" sourceInPoint="5447" sourceOutPoint="52662" startPoint="2101932" zOrder="1">
          <component componentGuid="c5cc49b2-5137-413f-9c66-b6b3b1c713be" componentID="Audition.Fader" id="clipGain" name="volume" powered="true">
            <parameter index="0" name="volume" parameterValue="1"/>
            <parameter index="1" name="static gain" parameterValue="1"/>
          </component>
          <component componentGuid="4f4267d4-b145-4dfd-a5a3-066b9894d943" componentID="Audition.Mute" id="clipMute" name="Mute" powered="true">
            <parameter index="0" parameterValue="0"/>
            <parameter index="1" name="mute" parameterValue="0"/>
          </component>
          <component componentGuid="f6d5cf1d-e80e-472f-8274-5cc9b5d3782f" componentID="Audition.StereoPanner" id="clipPan" name="StereoPanner" powered="true">
            <parameter index="0" name="声像" parameterValue="0"/>
          </component>
          <fadeIn crossFadeLinkType="linkedSymmetric" endPoint="0" shape="19" startPoint="0" type="log"/>
          <fadeOut crossFadeLinkType="linkedSymmetric" endPoint="47215" shape="19" startPoint="47215" type="log"/>
          <editParameter parameterIndex="0" slotIndex="4294967280"/>
          <editParameter parameterIndex="0" slotIndex="4294967281"/>
          <channelMap>
            <channel index="0" sourceIndex="0"/>
            <channel index="1" sourceIndex="1"/>
          </channelMap>
        </audioClip>
        <audioClip clipAutoCrossfade="true" crossFadeHeadClipID="-1" crossFadeTailClipID="-1" endPoint="2243182" fileID="1" hue="-1" id="6" lockedInTime="false" looped="false" name="hit 48000 1" offline="false" select="false" sourceInPoint="5447" sourceOutPoint="52662" startPoint="2195967" zOrder="2">
          <component componentGuid="f3803db3-0c84-4b20-b144-41dca7cff5ee" componentID="Audition.Fader" id="clipGain" name="volume" powered="true">
            <parameter index="0" name="volume" parameterValue="1"/>
            <parameter index="1" name="static gain" parameterValue="1"/>
          </component>
          <component componentGuid="7f08dca9-845c-4826-9c7f-fc797db8e69f" componentID="Audition.Mute" id="clipMute" name="Mute" powered="true">
            <parameter index="0" parameterValue="0"/>
            <parameter index="1" name="mute" parameterValue="0"/>
          </component>
          <component componentGuid="c96c89bd-3046-4e2e-b90d-28c067ddb929" componentID="Audition.StereoPanner" id="clipPan" name="StereoPanner" powered="true">
            <parameter index="0" name="声像" parameterValue="0"/>
          </component>
          <fadeIn crossFadeLinkType="linkedSymmetric" endPoint="0" shape="19" startPoint="0" type="log"/>
          <fadeOut crossFadeLinkType="linkedSymmetric" endPoint="47215" shape="19" startPoint="47215" type="log"/>
          <editParameter parameterIndex="0" slotIndex="4294967280"/>
          <editParameter parameterIndex="0" slotIndex="4294967281"/>
          <channelMap>
            <channel index="0" sourceIndex="0"/>
            <channel index="1" sourceIndex="1"/>
          </channelMap>
        </audioClip>
        <audioClip clipAutoCrossfade="true" crossFadeHeadClipID="-1" crossFadeTailClipID="-1" endPoint="2578682" fileID="1" hue="-1" id="7" lockedInTime="false" looped="false" name="hit 48000 1" offline="false" select="false" sourceInPoint="5447" sourceOutPoint="51421" startPoint="2532708" zOrder="7">
          <component componentGuid="e1a52691-ef91-4a22-bf1d-fecf32374b0e" componentID="Audition.Fader" id="clipGain" name="volume" powered="true">
            <parameter index="0" name="volume" parameterValue="1"/>
            <parameter index="1" name="static gain" parameterValue="1"/>
          </component>
          <component componentGuid="9ccd14aa-5d55-485a-8d7a-bed376215075" componentID="Audition.Mute" id="clipMute" name="Mute" powered="true">
            <parameter index="0" parameterValue="0"/>
            <parameter index="1" name="mute" parameterValue="0"/>
          </component>
          <component componentGuid="77a2f021-bba6-4444-a9b3-d9c51e071b9c" componentID="Audition.StereoPanner" id="clipPan" name="StereoPanner" powered="true">
            <parameter index="0" name="声像" parameterValue="0"/>
          </component>
          <fadeIn crossFadeLinkType="linkedSymmetric" endPoint="0" shape="19" startPoint="0" type="log"/>
          <fadeOut crossFadeLinkType="linkedSymmetric" endPoint="45974" shape="19" startPoint="45974" type="log"/>
          <editParameter parameterIndex="0" slotIndex="4294967280"/>
          <editParameter parameterIndex="0" slotIndex="4294967281"/>
          <channelMap>
            <channel index="0" sourceIndex="0"/>
            <channel index="1" sourceIndex="1"/>
          </channelMap>
        </audioClip>
        <audioClip clipAutoCrossfade="true" crossFadeHeadClipID="-1" crossFadeTailClipID="-1" endPoint="3050964" fileID="2" hue="-1" id="8" lockedInTime="false" looped="false" name="run" offline="false" select="false" sourceInPoint="0" sourceOutPoint="317365" startPoint="2733599" zOrder="4">
          <component componentGuid="05e74c85-c27c-4aca-9a58-f2a9b25cb879" componentID="Audition.Fader" id="clipGain" name="volume" powered="true">
            <parameter index="0" name="volume" parameterValue="1"/>
            <parameter index="1" name="static gain" parameterValue="1"/>
          </component>
          <component componentGuid="5505f56e-edf5-4c6e-8d8e-65c9d3d1e356" componentID="Audition.Mute" id="clipMute" name="Mute" powered="true">
            <parameter index="0" parameterValue="0"/>
            <parameter index="1" name="mute" parameterValue="0"/>
          </component>
          <component componentGuid="1779f647-46b8-4ce2-83fe-01c15196eb7a" componentID="Audition.StereoPanner" id="clipPan" name="StereoPanner" powered="true">
            <parameter index="0" name="声像" parameterValue="0"/>
          </component>
          <fadeIn crossFadeLinkType="linkedSymmetric" endPoint="0" shape="19" startPoint="0" type="log"/>
          <fadeOut crossFadeLinkType="linkedSymmetric" endPoint="317365" shape="19" startPoint="317365" type="log"/>
          <editParameter parameterIndex="0" slotIndex="4294967281"/>
          <editParameter parameterIndex="0" slotIndex="4294967280"/>
          <channelMap>
            <channel index="0" sourceIndex="0"/>
            <channel index="1" sourceIndex="1"/>
          </channelMap>
        </audioClip>
        <audioClip clipAutoCrossfade="true" crossFadeHeadClipID="-1" crossFadeTailClipID="-1" endPoint="3398229" fileID="2" hue="-1" id="9" lockedInTime="false" looped="false" name="run" offline="false" select="false" sourceInPoint="0" sourceOutPoint="347265" startPoint="3050964" zOrder="10">
          <component componentGuid="06a3eb10-2d7f-4fde-b62d-914a185523eb" componentID="Audition.Fader" id="clipGain" name="volume" powered="true">
            <parameter index="0" name="volume" parameterValue="1"/>
            <parameter index="1" name="static gain" parameterValue="1"/>
          </component>
          <component componentGuid="06d571f2-7932-435c-b818-79b9549ea959" componentID="Audition.Mute" id="clipMute" name="Mute" powered="true">
            <parameter index="0" parameterValue="0"/>
            <parameter index="1" name="mute" parameterValue="0"/>
          </component>
          <component componentGuid="f4eabbc7-17e8-4508-a65b-0ec16750ec65" componentID="Audition.StereoPanner" id="clipPan" name="StereoPanner" powered="true">
            <parameter index="0" name="声像" parameterValue="0"/>
          </component>
          <fadeIn crossFadeLinkType="linkedSymmetric" endPoint="0" shape="19" startPoint="0" type="log"/>
          <fadeOut crossFadeLinkType="linkedSymmetric" endPoint="347265" shape="19" startPoint="347265" type="log"/>
          <editParameter parameterIndex="0" slotIndex="4294967281"/>
          <editParameter parameterIndex="0" slotIndex="4294967280"/>
          <channelMap>
            <channel index="0" sourceIndex="0"/>
            <channel index="1" sourceIndex="1"/>
          </channelMap>
        </audioClip>
        <audioClip clipAutoCrossfade="true" crossFadeHeadClipID="-1" crossFadeTailClipID="-1" endPoint="3782229" fileID="2" hue="-1" id="10" lockedInTime="false" looped="false" name="run" offline="false" select="false" sourceInPoint="0" sourceOutPoint="384000" startPoint="3398229" zOrder="9">
          <component componentGuid="1f1a800e-f1ae-418c-869f-5b78cb2c379d" componentID="Audition.Fader" id="clipGain" name="volume" powered="true">
            <parameter index="0" name="volume" parameterValue="1"/>
            <parameter index="1" name="static gain" parameterValue="1"/>
          </component>
          <component componentGuid="d7fe6e03-2ddd-465c-b71f-b5cc6e746899" componentID="Audition.Mute" id="clipMute" name="Mute" powered="true">
            <parameter index="0" parameterValue="0"/>
            <parameter index="1" name="mute" parameterValue="0"/>
          </component>
          <component componentGuid="8a911449-6641-49f9-b2c6-daacdcb60d3b" componentID="Audition.StereoPanner" id="clipPan" name="StereoPanner" powered="true">
            <parameter index="0" name="声像" parameterValue="0"/>
          </component>
          <fadeIn crossFadeLinkType="linkedSymmetric" endPoint="0" shape="19" startPoint="0" type="log"/>
          <fadeOut crossFadeLinkType="linkedSymmetric" endPoint="384000" shape="19" startPoint="384000" type="log"/>
          <editParameter parameterIndex="0" slotIndex="4294967281"/>
          <editParameter parameterIndex="0" slotIndex="4294967280"/>
          <channelMap>
            <channel index="0" sourceIndex="0"/>
            <channel index="1" sourceIndex="1"/>
          </channelMap>
        </audioClip>
      </audioTrack>
      <audioTrack automationLaneOpenState="false" id="10002" index="2" select="true" visible="true">
        <trackParameters trackHeight="52" trackHue="267" trackMinimized="false">
          <name>breathing&amp;counting</name>
        </trackParameters>
        <trackAudioParameters audioChannelType="stereo" automationMode="1" monitoring="false" recordArmed="false" solo="false" soloSafe="false">
          <trackOutput outputID="10000" type="trackID"/>
          <trackInput inputID="1"/>
          <component componentGuid="621c690d-04f1-4d09-b08d-614ec2c389d4" componentID="Audition.Fader" id="trackFader" name="volume" powered="true">
            <parameter index="0" name="volume" parameterValue="1"/>
            <parameter index="1" name="static gain" parameterValue="1"/>
          </component>
          <component componentGuid="7fed87f7-5ef7-4bf1-b5b8-afc1f9062dbb" componentID="Audition.Mute" id="trackMute" name="Mute" powered="true">
            <parameter index="0" parameterValue="0"/>
            <parameter index="1" name="mute" parameterValue="0"/>
          </component>
          <component componentGuid="cc381546-45eb-4482-bb74-f41500119a6d" componentID="Audition.StereoPanner" id="trackPan" name="StereoPanner" powered="true">
            <parameter index="0" name="声像" parameterValue="0"/>
          </component>
          <component componentGuid="93eea9b3-5f28-44ea-8388-5e62f4dfba89" componentID="Audition.EQ" id="trackEQ" name="EQ" powered="false">
            <parameter index="0" name="下限频率" parameterValue="0.000834028352983295917510986328125"/>
            <parameter index="1" name="下限增益" parameterValue="0.5"/>
            <parameter index="2" name="上限频率" parameterValue="0.74979150295257568359375"/>
            <parameter index="3" name="上限频率增益" parameterValue="0.5"/>
            <parameter index="4" name="EQ 频段 1 中置频率" parameterValue="0.00125104258768260478973388671875"/>
            <parameter index="5" name="EQ 频段 1 Q" parameterValue="0.000199989997781813144683837890625"/>
            <parameter index="6" name="EQ 频段 1 增益" parameterValue="0.5"/>
            <parameter index="7" name="EQ 频段 1 启用" parameterValue="1"/>
            <parameter index="8" name="EQ 频段 2 中置频率" parameterValue="0.0075062550604343414306640625"/>
            <parameter index="9" name="EQ 频段 2 Q" parameterValue="0.000199989997781813144683837890625"/>
            <parameter index="10" name="EQ 频段 2 增益" parameterValue="0.5"/>
            <parameter index="11" name="EQ 频段 2 启用" parameterValue="1"/>
            <parameter index="12" name="EQ 频段 3 中置频率" parameterValue="0.0325271077454090118408203125"/>
            <parameter index="13" name="EQ 频段 3 Q" parameterValue="0.000199989997781813144683837890625"/>
            <parameter index="14" name="EQ 频段 3 增益" parameterValue="0.5"/>
            <parameter index="15" name="EQ 频段 3 启用" parameterValue="1"/>
            <parameter index="16" name="EQ 频段 4 中置频率" parameterValue="0.13261051476001739501953125"/>
            <parameter index="17" name="EQ 频段 4 Q" parameterValue="0.000199989997781813144683837890625"/>
            <parameter index="18" name="EQ 频段 4 增益" parameterValue="0.5"/>
            <parameter index="19" name="EQ 频段 4 启用" parameterValue="1"/>
            <parameter index="20" name="EQ 频段 5 中置频率" parameterValue="0.532944142818450927734375"/>
            <parameter index="21" name="EQ 频段 5 Q" parameterValue="0.000199989997781813144683837890625"/>
            <parameter index="22" name="EQ 频段 5 增益" parameterValue="0.5"/>
            <parameter index="23" name="EQ 频段 5 启用" parameterValue="1"/>
            <parameter index="24" name="增益" parameterValue="0.666666686534881591796875"/>
            <parameter index="25" name="恒定 Q" parameterValue="1"/>
            <parameter index="26" name="下限滤镜顺序" parameterValue="0"/>
            <parameter index="27" name="上限频率滤镜顺序" parameterValue="0"/>
            <parameter index="28" name="超静音模式" parameterValue="0"/>
            <parameter index="29" name="下限启用" parameterValue="1"/>
            <parameter index="30" name="上限频率启用" parameterValue="1"/>
            <parameter index="31" name="原始采样率" parameterValue="0.25"/>
            <parameter index="32" name="EQ 频段 1 频带宽" parameterValue="0.002499990165233612060546875"/>
            <parameter index="33" name="EQ 频段 2 频段宽度" parameterValue="0.0099999904632568359375"/>
            <parameter index="34" name="EQ 频段 3 频段宽度" parameterValue="0.0399999916553497314453125"/>
            <parameter index="35" name="EQ 频段 4 频段宽度" parameterValue="0.15999998152256011962890625"/>
            <parameter index="36" name="EQ 频段 5 频段宽度" parameterValue="0.63999998569488525390625"/>
            <parameter index="37" name="高通滤波启用" parameterValue="0"/>
            <parameter index="38" name="高通切除频率" parameterValue="0"/>
            <parameter index="39" name="高通斜率" parameterValue="0.4000000059604644775390625"/>
            <parameter index="40" name="低通滤波启用" parameterValue="0"/>
            <parameter index="41" name="低通切除频率" parameterValue="0.833194315433502197265625"/>
            <parameter index="42" name="低通斜率" parameterValue="0.4000000059604644775390625"/>
            <parameter index="43" name="不使用" parameterValue="0"/>
            <parameter index="44" name="下限图示范围" parameterValue="1"/>
          </component>
        </trackAudioParameters>
        <editParameter parameterIndex="0" slotIndex="4294967280"/>
        <audioClip clipAutoCrossfade="true" crossFadeHeadClipID="-1" crossFadeTailClipID="-1" endPoint="48983" fileID="3" hue="-1" id="0" lockedInTime="false" looped="false" name="counting-from-1-to-20 48000 1" offline="false" select="false" sourceInPoint="0" sourceOutPoint="27761" startPoint="21222" zOrder="8">
          <component componentGuid="72b26cac-17e5-422f-b7af-67928a54bc54" componentID="Audition.Fader" id="clipGain" name="volume" powered="true">
            <parameter index="0" name="volume" parameterValue="1"/>
            <parameter index="1" name="static gain" parameterValue="1"/>
          </component>
          <component componentGuid="3b2fd1bd-d266-4671-8db3-b1419ff33666" componentID="Audition.Mute" id="clipMute" name="Mute" powered="true">
            <parameter index="0" parameterValue="0"/>
            <parameter index="1" name="mute" parameterValue="0"/>
          </component>
          <component componentGuid="39cff6fa-e6e9-487a-a888-3cfff4ed1759" componentID="Audition.StereoPanner" id="clipPan" name="StereoPanner" powered="true">
            <parameter index="0" name="声像" parameterValue="0"/>
          </component>
          <fadeIn crossFadeLinkType="linkedSymmetric" endPoint="0" shape="19" startPoint="0" type="log"/>
          <fadeOut crossFadeLinkType="linkedSymmetric" endPoint="27761" shape="19" startPoint="27761" type="log"/>
          <clipStretch adaptiveWindowSize="37" pitchAdjustment="0" preserveFormants="true" stretchMode="realtime" stretchQuality="high" stretchRatio="1" stretchType="solo" transientSensitivity="40"/>
          <editParameter parameterIndex="0" slotIndex="4294967280"/>
          <editParameter parameterIndex="0" slotIndex="4294967281"/>
          <channelMap>
            <channel index="0" sourceIndex="0"/>
            <channel index="1" sourceIndex="1"/>
          </channelMap>
        </audioClip>
        <audioClip clipAutoCrossfade="true" crossFadeHeadClipID="-1" crossFadeTailClipID="-1" endPoint="126120" fileID="3" hue="-1" id="1" lockedInTime="false" looped="false" name="counting-from-1-to-20 48000 1" offline="false" select="false" sourceInPoint="45642" sourceOutPoint="75618" startPoint="96144" zOrder="7">
          <component componentGuid="d8094537-2147-4a3a-ad09-8b8a511d0362" componentID="Audition.Fader" id="clipGain" name="volume" powered="true">
            <parameter index="0" name="volume" parameterValue="1"/>
            <parameter index="1" name="static gain" parameterValue="1"/>
          </component>
          <component componentGuid="1ca0bdd0-9aef-4739-9445-53428e1641e4" componentID="Audition.Mute" id="clipMute" name="Mute" powered="true">
            <parameter index="0" parameterValue="0"/>
            <parameter index="1" name="mute" parameterValue="0"/>
          </component>
          <component componentGuid="8665499b-45a8-47e8-a2b6-e310c51f7a94" componentID="Audition.StereoPanner" id="clipPan" name="StereoPanner" powered="true">
            <parameter index="0" name="声像" parameterValue="0"/>
          </component>
          <fadeIn crossFadeLinkType="linkedSymmetric" endPoint="0" shape="19" startPoint="0" type="log"/>
          <fadeOut crossFadeLinkType="linkedSymmetric" endPoint="29976" shape="19" startPoint="29976" type="log"/>
          <clipStretch adaptiveWindowSize="37" pitchAdjustment="0" preserveFormants="true" stretchMode="realtime" stretchQuality="high" stretchRatio="1" stretchType="solo" transientSensitivity="40"/>
          <editParameter parameterIndex="0" slotIndex="4294967280"/>
          <editParameter parameterIndex="0" slotIndex="4294967281"/>
          <channelMap>
            <channel index="0" sourceIndex="0"/>
            <channel index="1" sourceIndex="1"/>
          </channelMap>
        </audioClip>
        <audioClip clipAutoCrossfade="true" crossFadeHeadClipID="-1" crossFadeTailClipID="-1" endPoint="223213" fileID="3" hue="-1" id="2" lockedInTime="false" looped="false" name="counting-from-1-to-20 48000 1" offline="false" select="false" sourceInPoint="92338" sourceOutPoint="129472" startPoint="186079" zOrder="6">
          <component componentGuid="2415f54f-52fa-4cca-80cf-b6a1438387ec" componentID="Audition.Fader" id="clipGain" name="volume" powered="true">
            <parameter index="0" name="volume" parameterValue="1"/>
            <parameter index="1" name="static gain" parameterValue="1"/>
          </component>
          <component componentGuid="d56af39a-4f70-4ba4-8064-1805cd29e215" componentID="Audition.Mute" id="clipMute" name="Mute" powered="true">
            <parameter index="0" parameterValue="0"/>
            <parameter index="1" name="mute" parameterValue="0"/>
          </component>
          <component componentGuid="a84b4acf-0770-4156-ad0b-e5d033caa77e" componentID="Audition.StereoPanner" id="clipPan" name="StereoPanner" powered="true">
            <parameter index="0" name="声像" parameterValue="0"/>
          </component>
          <fadeIn crossFadeLinkType="linkedSymmetric" endPoint="0" shape="19" startPoint="0" type="log"/>
          <fadeOut crossFadeLinkType="linkedSymmetric" endPoint="37134" shape="19" startPoint="37134" type="log"/>
          <clipStretch adaptiveWindowSize="37" pitchAdjustment="0" preserveFormants="true" stretchMode="realtime" stretchQuality="high" stretchRatio="1" stretchType="solo" transientSensitivity="40"/>
          <editParameter parameterIndex="0" slotIndex="4294967280"/>
          <editParameter parameterIndex="0" slotIndex="4294967281"/>
          <channelMap>
            <channel index="0" sourceIndex="0"/>
            <channel index="1" sourceIndex="1"/>
          </channelMap>
        </audioClip>
        <audioClip clipAutoCrossfade="true" crossFadeHeadClipID="-1" crossFadeTailClipID="-1" endPoint="334996" fileID="3" hue="-1" id="3" lockedInTime="false" looped="false" name="counting-from-1-to-20 48000 1" offline="false" select="false" sourceInPoint="129472" sourceOutPoint="176721" startPoint="287747" zOrder="5">
          <component componentGuid="6230527d-9e2e-479d-be70-c80da9c8cdee" componentID="Audition.Fader" id="clipGain" name="volume" powered="true">
            <parameter index="0" name="volume" parameterValue="1"/>
            <parameter index="1" name="static gain" parameterValue="1"/>
          </component>
          <component componentGuid="6b37feeb-0dc1-4a14-b622-6dc3deb46b8b" componentID="Audition.Mute" id="clipMute" name="Mute" powered="true">
            <parameter index="0" parameterValue="0"/>
            <parameter index="1" name="mute" parameterValue="0"/>
          </component>
          <component componentGuid="3e3844b6-67c0-4d62-8601-7d3cd50109c6" componentID="Audition.StereoPanner" id="clipPan" name="StereoPanner" powered="true">
            <parameter index="0" name="声像" parameterValue="0"/>
          </component>
          <fadeIn crossFadeLinkType="linkedSymmetric" endPoint="0" shape="19" startPoint="0" type="log"/>
          <fadeOut crossFadeLinkType="linkedSymmetric" endPoint="47249" shape="19" startPoint="47249" type="log"/>
          <clipStretch adaptiveWindowSize="37" pitchAdjustment="0" preserveFormants="true" stretchMode="realtime" stretchQuality="high" stretchRatio="1" stretchType="solo" transientSensitivity="40"/>
          <editParameter parameterIndex="0" slotIndex="4294967280"/>
          <editParameter parameterIndex="0" slotIndex="4294967281"/>
          <channelMap>
            <channel index="0" sourceIndex="0"/>
            <channel index="1" sourceIndex="1"/>
          </channelMap>
        </audioClip>
        <audioClip clipAutoCrossfade="true" crossFadeHeadClipID="-1" crossFadeTailClipID="-1" endPoint="444491" fileID="3" hue="-1" id="4" lockedInTime="false" looped="false" name="counting-from-1-to-20 48000 1" offline="false" select="false" sourceInPoint="176721" sourceOutPoint="226308" startPoint="394904" zOrder="4">
          <component componentGuid="0e942b12-e9e7-408c-b30a-22c4c47eb0c5" componentID="Audition.Fader" id="clipGain" name="volume" powered="true">
            <parameter index="0" name="volume" parameterValue="1"/>
            <parameter index="1" name="static gain" parameterValue="1"/>
          </component>
          <component componentGuid="c8c2b274-db64-47b3-b129-f16cc6299b4c" componentID="Audition.Mute" id="clipMute" name="Mute" powered="true">
            <parameter index="0" parameterValue="0"/>
            <parameter index="1" name="mute" parameterValue="0"/>
          </component>
          <component componentGuid="2a1cd791-f16b-4f8d-b201-1efddc50db46" componentID="Audition.StereoPanner" id="clipPan" name="StereoPanner" powered="true">
            <parameter index="0" name="声像" parameterValue="0"/>
          </component>
          <fadeIn crossFadeLinkType="linkedSymmetric" endPoint="0" shape="19" startPoint="0" type="log"/>
          <fadeOut crossFadeLinkType="linkedSymmetric" endPoint="49587" shape="19" startPoint="49587" type="log"/>
          <clipStretch adaptiveWindowSize="37" pitchAdjustment="0" preserveFormants="true" stretchMode="realtime" stretchQuality="high" stretchRatio="1" stretchType="solo" transientSensitivity="40"/>
          <editParameter parameterIndex="0" slotIndex="4294967280"/>
          <editParameter parameterIndex="0" slotIndex="4294967281"/>
          <channelMap>
            <channel index="0" sourceIndex="0"/>
            <channel index="1" sourceIndex="1"/>
          </channelMap>
        </audioClip>
        <audioClip clipAutoCrossfade="true" crossFadeHeadClipID="-1" crossFadeTailClipID="-1" endPoint="553916" fileID="3" hue="-1" id="5" lockedInTime="false" looped="false" name="counting-from-1-to-20 48000 1" offline="false" select="false" sourceInPoint="226308" sourceOutPoint="272999" startPoint="507225" zOrder="3">
          <component componentGuid="88fec417-5d1b-45c7-809a-17d11c16af39" componentID="Audition.Fader" id="clipGain" name="volume" powered="true">
            <parameter index="0" name="volume" parameterValue="1"/>
            <parameter index="1" name="static gain" parameterValue="1"/>
          </component>
          <component componentGuid="5353cf12-bfae-4efb-b244-ce0cc4e1e1ef" componentID="Audition.Mute" id="clipMute" name="Mute" powered="true">
            <parameter index="0" parameterValue="0"/>
            <parameter index="1" name="mute" parameterValue="0"/>
          </component>
          <component componentGuid="42b54f95-b71f-4f03-9309-b2a13c1144c2" componentID="Audition.StereoPanner" id="clipPan" name="StereoPanner" powered="true">
            <parameter index="0" name="声像" parameterValue="0"/>
          </component>
          <fadeIn crossFadeLinkType="linkedSymmetric" endPoint="0" shape="19" startPoint="0" type="log"/>
          <fadeOut crossFadeLinkType="linkedSymmetric" endPoint="46691" shape="19" startPoint="46691" type="log"/>
          <clipStretch adaptiveWindowSize="37" pitchAdjustment="0" preserveFormants="true" stretchMode="realtime" stretchQuality="high" stretchRatio="1" stretchType="solo" transientSensitivity="40"/>
          <editParameter parameterIndex="0" slotIndex="4294967280"/>
          <editParameter parameterIndex="0" slotIndex="4294967281"/>
          <channelMap>
            <channel index="0" sourceIndex="0"/>
            <channel index="1" sourceIndex="1"/>
          </channelMap>
        </audioClip>
        <audioClip clipAutoCrossfade="true" crossFadeHeadClipID="-1" crossFadeTailClipID="-1" endPoint="655785" fileID="3" hue="-1" id="6" lockedInTime="false" looped="false" name="counting-from-1-to-20 48000 1" offline="false" select="false" sourceInPoint="272999" sourceOutPoint="323933" startPoint="604851" zOrder="2">
          <component componentGuid="7787515e-df0b-4073-b3e2-ab82bae4f999" componentID="Audition.Fader" id="clipGain" name="volume" powered="true">
            <parameter index="0" name="volume" parameterValue="1"/>
            <parameter index="1" name="static gain" parameterValue="1"/>
          </component>
          <component componentGuid="92172d1e-09ab-4355-b34d-4f132962375f" componentID="Audition.Mute" id="clipMute" name="Mute" powered="true">
            <parameter index="0" parameterValue="0"/>
            <parameter index="1" name="mute" parameterValue="0"/>
          </component>
          <component componentGuid="a491492b-6e7e-427f-8d63-829dae22e4e1" componentID="Audition.StereoPanner" id="clipPan" name="StereoPanner" powered="true">
            <parameter index="0" name="声像" parameterValue="0"/>
          </component>
          <fadeIn crossFadeLinkType="linkedSymmetric" endPoint="0" shape="19" startPoint="0" type="log"/>
          <fadeOut crossFadeLinkType="linkedSymmetric" endPoint="50934" shape="19" startPoint="50934" type="log"/>
          <clipStretch adaptiveWindowSize="37" pitchAdjustment="0" preserveFormants="true" stretchMode="realtime" stretchQuality="high" stretchRatio="1" stretchType="solo" transientSensitivity="40"/>
          <editParameter parameterIndex="0" slotIndex="4294967280"/>
          <editParameter parameterIndex="0" slotIndex="4294967281"/>
          <channelMap>
            <channel index="0" sourceIndex="0"/>
            <channel index="1" sourceIndex="1"/>
          </channelMap>
        </audioClip>
        <audioClip clipAutoCrossfade="true" crossFadeHeadClipID="-1" crossFadeTailClipID="-1" endPoint="1081563" fileID="3" hue="-1" id="7" lockedInTime="false" looped="false" name="counting-from-1-to-20 48000 1" offline="false" select="false" sourceInPoint="0" sourceOutPoint="27761" startPoint="1053802" zOrder="17">
          <component componentGuid="5cf2bd98-1924-4885-abe9-c6c1589ae630" componentID="Audition.Fader" id="clipGain" name="volume" powered="true">
            <parameter index="0" name="volume" parameterValue="1"/>
            <parameter index="1" name="static gain" parameterValue="1"/>
          </component>
          <component componentGuid="5dee4ccb-27eb-46ed-b07f-1f37a2f64796" componentID="Audition.Mute" id="clipMute" name="Mute" powered="true">
            <parameter index="0" parameterValue="0"/>
            <parameter index="1" name="mute" parameterValue="0"/>
          </component>
          <component componentGuid="c9b14f45-388e-40e4-b2ca-ad15ee67dcc0" componentID="Audition.StereoPanner" id="clipPan" name="StereoPanner" powered="true">
            <parameter index="0" name="声像" parameterValue="0"/>
          </component>
          <fadeIn crossFadeLinkType="linkedSymmetric" endPoint="0" shape="19" startPoint="0" type="log"/>
          <fadeOut crossFadeLinkType="linkedSymmetric" endPoint="27761" shape="19" startPoint="27761" type="log"/>
          <clipStretch adaptiveWindowSize="37" pitchAdjustment="0" preserveFormants="true" stretchMode="realtime" stretchQuality="high" stretchRatio="1" stretchType="solo" transientSensitivity="40"/>
          <editParameter parameterIndex="0" slotIndex="4294967280"/>
          <editParameter parameterIndex="0" slotIndex="4294967281"/>
          <channelMap>
            <channel index="0" sourceIndex="0"/>
            <channel index="1" sourceIndex="1"/>
          </channelMap>
        </audioClip>
        <audioClip clipAutoCrossfade="true" crossFadeHeadClipID="-1" crossFadeTailClipID="-1" endPoint="1205976" fileID="3" hue="-1" id="8" lockedInTime="false" looped="false" name="counting-from-1-to-20 48000 1" offline="false" select="false" sourceInPoint="45642" sourceOutPoint="75618" startPoint="1176000" zOrder="16">
          <component componentGuid="f585548a-cfc9-44d7-8fc6-18a2af3b8b97" componentID="Audition.Fader" id="clipGain" name="volume" powered="true">
            <parameter index="0" name="volume" parameterValue="1"/>
            <parameter index="1" name="static gain" parameterValue="1"/>
          </component>
          <component componentGuid="b80573c4-c01b-47d5-ac4c-edd1bb444acc" componentID="Audition.Mute" id="clipMute" name="Mute" powered="true">
            <parameter index="0" parameterValue="0"/>
            <parameter index="1" name="mute" parameterValue="0"/>
          </component>
          <component componentGuid="02c96be5-ed26-4c1b-9a0c-53efb0bb3ce7" componentID="Audition.StereoPanner" id="clipPan" name="StereoPanner" powered="true">
            <parameter index="0" name="声像" parameterValue="0"/>
          </component>
          <fadeIn crossFadeLinkType="linkedSymmetric" endPoint="0" shape="19" startPoint="0" type="log"/>
          <fadeOut crossFadeLinkType="linkedSymmetric" endPoint="29976" shape="19" startPoint="29976" type="log"/>
          <clipStretch adaptiveWindowSize="37" pitchAdjustment="0" preserveFormants="true" stretchMode="realtime" stretchQuality="high" stretchRatio="1" stretchType="solo" transientSensitivity="40"/>
          <editParameter parameterIndex="0" slotIndex="4294967280"/>
          <editParameter parameterIndex="0" slotIndex="4294967281"/>
          <channelMap>
            <channel index="0" sourceIndex="0"/>
            <channel index="1" sourceIndex="1"/>
          </channelMap>
        </audioClip>
        <audioClip clipAutoCrossfade="true" crossFadeHeadClipID="-1" crossFadeTailClipID="-1" endPoint="1329928" fileID="3" hue="-1" id="9" lockedInTime="false" looped="false" name="counting-from-1-to-20 48000 1" offline="false" select="false" sourceInPoint="92338" sourceOutPoint="129472" startPoint="1292794" zOrder="13">
          <component componentGuid="a81420ca-fbad-43dd-9d92-31a844ce816f" componentID="Audition.Fader" id="clipGain" name="volume" powered="true">
            <parameter index="0" name="volume" parameterValue="1"/>
            <parameter index="1" name="static gain" parameterValue="1"/>
          </component>
          <component componentGuid="61d688d2-43de-4801-a0d7-525f297d3948" componentID="Audition.Mute" id="clipMute" name="Mute" powered="true">
            <parameter index="0" parameterValue="0"/>
            <parameter index="1" name="mute" parameterValue="0"/>
          </component>
          <component componentGuid="1abb0ab7-5419-4eb7-8509-20393241ef05" componentID="Audition.StereoPanner" id="clipPan" name="StereoPanner" powered="true">
            <parameter index="0" name="声像" parameterValue="0"/>
          </component>
          <fadeIn crossFadeLinkType="linkedSymmetric" endPoint="0" shape="19" startPoint="0" type="log"/>
          <fadeOut crossFadeLinkType="linkedSymmetric" endPoint="37134" shape="19" startPoint="37134" type="log"/>
          <clipStretch adaptiveWindowSize="37" pitchAdjustment="0" preserveFormants="true" stretchMode="realtime" stretchQuality="high" stretchRatio="1" stretchType="solo" transientSensitivity="40"/>
          <editParameter parameterIndex="0" slotIndex="4294967280"/>
          <editParameter parameterIndex="0" slotIndex="4294967281"/>
          <channelMap>
            <channel index="0" sourceIndex="0"/>
            <channel index="1" sourceIndex="1"/>
          </channelMap>
        </audioClip>
        <audioClip clipAutoCrossfade="true" crossFadeHeadClipID="-1" crossFadeTailClipID="-1" endPoint="1461774" fileID="3" hue="-1" id="10" lockedInTime="false" looped="false" name="counting-from-1-to-20 48000 1" offline="false" select="false" sourceInPoint="129472" sourceOutPoint="176721" startPoint="1414525" zOrder="12">
          <component componentGuid="fdd74cec-356f-4c1f-8d6b-fac1424b4449" componentID="Audition.Fader" id="clipGain" name="volume" powered="true">
            <parameter index="0" name="volume" parameterValue="1"/>
            <parameter index="1" name="static gain" parameterValue="1"/>
          </component>
          <component componentGuid="3f8e824c-65e3-42b1-bd22-f40edde4c64f" componentID="Audition.Mute" id="clipMute" name="Mute" powered="true">
            <parameter index="0" parameterValue="0"/>
            <parameter index="1" name="mute" parameterValue="0"/>
          </component>
          <component componentGuid="a759e1f4-ad47-44e1-80c6-b0071cfd6344" componentID="Audition.StereoPanner" id="clipPan" name="StereoPanner" powered="true">
            <parameter index="0" name="声像" parameterValue="0"/>
          </component>
          <fadeIn crossFadeLinkType="linkedSymmetric" endPoint="0" shape="19" startPoint="0" type="log"/>
          <fadeOut crossFadeLinkType="linkedSymmetric" endPoint="47249" shape="19" startPoint="47249" type="log"/>
          <clipStretch adaptiveWindowSize="37" pitchAdjustment="0" preserveFormants="true" stretchMode="realtime" stretchQuality="high" stretchRatio="1" stretchType="solo" transientSensitivity="40"/>
          <editParameter parameterIndex="0" slotIndex="4294967280"/>
          <editParameter parameterIndex="0" slotIndex="4294967281"/>
          <channelMap>
            <channel index="0" sourceIndex="0"/>
            <channel index="1" sourceIndex="1"/>
          </channelMap>
        </audioClip>
        <audioClip clipAutoCrossfade="true" crossFadeHeadClipID="-1" crossFadeTailClipID="-1" endPoint="1584561" fileID="3" hue="-1" id="11" lockedInTime="false" looped="false" name="counting-from-1-to-20 48000 1" offline="false" select="false" sourceInPoint="176721" sourceOutPoint="226308" startPoint="1534974" zOrder="11">
          <component componentGuid="5508d9fe-d26d-40b7-aba5-a81c507d4b53" componentID="Audition.Fader" id="clipGain" name="volume" powered="true">
            <parameter index="0" name="volume" parameterValue="1"/>
            <parameter index="1" name="static gain" parameterValue="1"/>
          </component>
          <component componentGuid="c47c8a2b-52ea-4ed1-8c34-9ee875742433" componentID="Audition.Mute" id="clipMute" name="Mute" powered="true">
            <parameter index="0" parameterValue="0"/>
            <parameter index="1" name="mute" parameterValue="0"/>
          </component>
          <component componentGuid="9164a519-c1ba-4049-b157-d865cb6bcccb" componentID="Audition.StereoPanner" id="clipPan" name="StereoPanner" powered="true">
            <parameter index="0" name="声像" parameterValue="0"/>
          </component>
          <fadeIn crossFadeLinkType="linkedSymmetric" endPoint="0" shape="19" startPoint="0" type="log"/>
          <fadeOut crossFadeLinkType="linkedSymmetric" endPoint="49587" shape="19" startPoint="49587" type="log"/>
          <clipStretch adaptiveWindowSize="37" pitchAdjustment="0" preserveFormants="true" stretchMode="realtime" stretchQuality="high" stretchRatio="1" stretchType="solo" transientSensitivity="40"/>
          <editParameter parameterIndex="0" slotIndex="4294967280"/>
          <editParameter parameterIndex="0" slotIndex="4294967281"/>
          <channelMap>
            <channel index="0" sourceIndex="0"/>
            <channel index="1" sourceIndex="1"/>
          </channelMap>
        </audioClip>
        <audioClip clipAutoCrossfade="true" crossFadeHeadClipID="-1" crossFadeTailClipID="-1" endPoint="2132863" fileID="3" hue="-1" id="12" lockedInTime="false" looped="false" name="counting-from-1-to-20 48000 1" offline="false" select="false" sourceInPoint="0" sourceOutPoint="27761" startPoint="2105102" zOrder="17">
          <component componentGuid="191fd5c4-aafa-4f38-bc00-18cfccfb237f" componentID="Audition.Fader" id="clipGain" name="volume" powered="true">
            <parameter index="0" name="volume" parameterValue="1"/>
            <parameter index="1" name="static gain" parameterValue="1"/>
          </component>
          <component componentGuid="c0b7c455-acfd-4148-ae1e-7e8ec6552154" componentID="Audition.Mute" id="clipMute" name="Mute" powered="true">
            <parameter index="0" parameterValue="0"/>
            <parameter index="1" name="mute" parameterValue="0"/>
          </component>
          <component componentGuid="ea706171-6c24-4bcf-a8e5-6c3aa762b473" componentID="Audition.StereoPanner" id="clipPan" name="StereoPanner" powered="true">
            <parameter index="0" name="声像" parameterValue="0"/>
          </component>
          <fadeIn crossFadeLinkType="linkedSymmetric" endPoint="0" shape="19" startPoint="0" type="log"/>
          <fadeOut crossFadeLinkType="linkedSymmetric" endPoint="27761" shape="19" startPoint="27761" type="log"/>
          <clipStretch adaptiveWindowSize="37" pitchAdjustment="0" preserveFormants="true" stretchMode="realtime" stretchQuality="high" stretchRatio="1" stretchType="solo" transientSensitivity="40"/>
          <editParameter parameterIndex="0" slotIndex="4294967280"/>
          <editParameter parameterIndex="0" slotIndex="4294967281"/>
          <channelMap>
            <channel index="0" sourceIndex="0"/>
            <channel index="1" sourceIndex="1"/>
          </channelMap>
        </audioClip>
        <audioClip clipAutoCrossfade="true" crossFadeHeadClipID="-1" crossFadeTailClipID="-1" endPoint="2435027" fileID="3" hue="-1" id="13" lockedInTime="false" looped="false" name="counting-from-1-to-20 48000 1" offline="false" select="true" sourceInPoint="45642" sourceOutPoint="75618" startPoint="2405051" zOrder="16">
          <component componentGuid="4a7ddc4b-47b3-4670-b6aa-da40a859d522" componentID="Audition.Fader" id="clipGain" name="volume" powered="true">
            <parameter index="0" name="volume" parameterValue="1"/>
            <parameter index="1" name="static gain" parameterValue="1"/>
          </component>
          <component componentGuid="58a7daed-6730-4aa5-9607-fc663b6dc998" componentID="Audition.Mute" id="clipMute" name="Mute" powered="true">
            <parameter index="0" parameterValue="0"/>
            <parameter index="1" name="mute" parameterValue="0"/>
          </component>
          <component componentGuid="5d27db38-2c6e-4fe1-ac28-1dcb4e438973" componentID="Audition.StereoPanner" id="clipPan" name="StereoPanner" powered="true">
            <parameter index="0" name="声像" parameterValue="0"/>
          </component>
          <fadeIn crossFadeLinkType="linkedSymmetric" endPoint="0" shape="19" startPoint="0" type="log"/>
          <fadeOut crossFadeLinkType="linkedSymmetric" endPoint="29976" shape="19" startPoint="29976" type="log"/>
          <clipStretch adaptiveWindowSize="37" pitchAdjustment="0" preserveFormants="true" stretchMode="realtime" stretchQuality="high" stretchRatio="1" stretchType="solo" transientSensitivity="40"/>
          <editParameter parameterIndex="0" slotIndex="4294967280"/>
          <editParameter parameterIndex="0" slotIndex="4294967281"/>
          <channelMap>
            <channel index="0" sourceIndex="0"/>
            <channel index="1" sourceIndex="1"/>
          </channelMap>
        </audioClip>
        <audioClip clipAutoCrossfade="true" crossFadeHeadClipID="-1" crossFadeTailClipID="-1" endPoint="4080000" fileID="4" hue="-1" id="14" lockedInTime="false" looped="false" name="breathing 48000 1" offline="false" select="false" sourceInPoint="0" sourceOutPoint="1501318" startPoint="2578682" zOrder="0">
          <component componentGuid="546fa9c5-5167-45b9-aeb6-3a73e0adc35f" componentID="Audition.Fader" id="clipGain" name="volume" powered="true">
            <parameter index="0" name="volume" parameterValue="5.623412609100341796875">
              <parameterKeyframes enableSplines="true" readOnly="false">
                <parameterKeyframe sampleOffset="0" select="false" type="linear" value="0.15346343815326690673828125"/>
                <parameterKeyframe sampleOffset="228367" select="false" type="linear" value="0.395765721797943115234375"/>
                <parameterKeyframe sampleOffset="575589" select="false" type="linear" value="0.64999997615814208984375"/>
                <parameterKeyframe sampleOffset="892336" select="true" type="linear" value="0.80100345611572265625"/>
                <parameterKeyframe sampleOffset="1525830" select="false" type="linear" value="0.334982216358184814453125"/>
                <parameterKeyframe sampleOffset="1809582" select="false" type="linear" value="0.64999997615814208984375"/>
                <parameterKeyframe sampleOffset="2707032" select="false" type="linear" value="0.4469911754131317138671875"/>
              </parameterKeyframes>
            </parameter>
            <parameter index="1" name="static gain" parameterValue="1"/>
          </component>
          <component componentGuid="71e61f52-b7d9-4ca9-8c6e-21895189fae2" componentID="Audition.Mute" id="clipMute" name="Mute" powered="true">
            <parameter index="0" parameterValue="0"/>
            <parameter index="1" name="mute" parameterValue="0"/>
          </component>
          <component componentGuid="a86bfe85-f3e5-4763-97cf-09a861d0fbd7" componentID="Audition.StereoPanner" id="clipPan" name="StereoPanner" powered="true">
            <parameter index="0" name="声像" parameterValue="0"/>
          </component>
          <fadeIn crossFadeLinkType="linkedSymmetric" endPoint="0" shape="19" startPoint="0" type="log"/>
          <fadeOut crossFadeLinkType="linkedSymmetric" endPoint="1501318" shape="19" startPoint="1501318" type="log"/>
          <editParameter parameterIndex="0" slotIndex="4294967281"/>
          <editParameter parameterIndex="0" slotIndex="4294967280"/>
          <channelMap>
            <channel index="0" sourceIndex="0"/>
            <channel index="1" sourceIndex="1"/>
          </channelMap>
        </audioClip>
        <audioClip clipAutoCrossfade="true" crossFadeHeadClipID="-1" crossFadeTailClipID="-1" endPoint="5047121" fileID="5" hue="-1" id="15" lockedInTime="false" looped="false" name="breathe 48000 1" offline="false" select="false" sourceInPoint="0" sourceOutPoint="928997" startPoint="4118124" zOrder="1">
          <component componentGuid="af931177-00cd-4f3c-850a-5ca8856733ba" componentID="Audition.Fader" id="clipGain" name="volume" powered="true">
            <parameter index="0" name="volume" parameterValue="2.1718394756317138671875">
              <parameterKeyframes enableSplines="false" readOnly="false">
                <parameterKeyframe sampleOffset="0" select="false" type="linear" value="0.5194070339202880859375"/>
                <parameterKeyframe sampleOffset="164558" select="false" type="linear" value="0.7689363956451416015625"/>
                <parameterKeyframe sampleOffset="280698" select="false" type="linear" value="0.64999997615814208984375"/>
                <parameterKeyframe sampleOffset="389580" select="false" type="linear" value="0.84068787097930908203125"/>
              </parameterKeyframes>
            </parameter>
            <parameter index="1" name="static gain" parameterValue="1"/>
          </component>
          <component componentGuid="ad74ac69-6673-400f-a590-2a48242a91a2" componentID="Audition.Mute" id="clipMute" name="Mute" powered="true">
            <parameter index="0" parameterValue="0"/>
            <parameter index="1" name="mute" parameterValue="0"/>
          </component>
          <component componentGuid="4fb9da30-2a1c-4739-b15e-ccda7cb6ecc6" componentID="Audition.StereoPanner" id="clipPan" name="StereoPanner" powered="true">
            <parameter index="0" name="声像" parameterValue="0"/>
          </component>
          <fadeIn crossFadeLinkType="linkedSymmetric" endPoint="0" shape="19" startPoint="0" type="log"/>
          <fadeOut crossFadeLinkType="linkedSymmetric" endPoint="928997" shape="19" startPoint="928997" type="log"/>
          <editParameter parameterIndex="0" slotIndex="4294967280"/>
          <editParameter parameterIndex="0" slotIndex="4294967281"/>
          <channelMap>
            <channel index="0" sourceIndex="0"/>
            <channel index="1" sourceIndex="1"/>
          </channelMap>
        </audioClip>
      </audioTrack>
      <audioTrack automationLaneOpenState="false" id="10003" index="3" select="false" visible="true">
        <trackParameters trackHeight="52" trackHue="51" trackMinimized="false">
          <name>ITP</name>
        </trackParameters>
        <trackAudioParameters audioChannelType="stereo" automationMode="1" monitoring="false" recordArmed="false" solo="false" soloSafe="false">
          <trackOutput outputID="10000" type="trackID"/>
          <trackInput inputID="1"/>
          <component componentGuid="943f5d05-8337-42f1-afc3-f3ec53550b14" componentID="Audition.Fader" id="trackFader" name="volume" powered="true">
            <parameter index="0" name="volume" parameterValue="1"/>
            <parameter index="1" name="static gain" parameterValue="1"/>
          </component>
          <component componentGuid="ebe86355-2cf8-493d-a986-5961c0865277" componentID="Audition.Mute" id="trackMute" name="Mute" powered="true">
            <parameter index="0" parameterValue="0"/>
            <parameter index="1" name="mute" parameterValue="0"/>
          </component>
          <component componentGuid="05c67a00-237f-4ec0-8434-118d5a1b5bc0" componentID="Audition.StereoPanner" id="trackPan" name="StereoPanner" powered="true">
            <parameter index="0" name="声像" parameterValue="-0.8000030517578125"/>
          </component>
          <component componentGuid="c512531a-e95f-4e8d-9ad6-06572f183a99" componentID="Audition.EQ" id="trackEQ" name="EQ" powered="false">
            <parameter index="0" name="下限频率" parameterValue="0.000834028352983295917510986328125"/>
            <parameter index="1" name="下限增益" parameterValue="0.5"/>
            <parameter index="2" name="上限频率" parameterValue="0.74979150295257568359375"/>
            <parameter index="3" name="上限频率增益" parameterValue="0.5"/>
            <parameter index="4" name="EQ 频段 1 中置频率" parameterValue="0.00125104258768260478973388671875"/>
            <parameter index="5" name="EQ 频段 1 Q" parameterValue="0.000199989997781813144683837890625"/>
            <parameter index="6" name="EQ 频段 1 增益" parameterValue="0.5"/>
            <parameter index="7" name="EQ 频段 1 启用" parameterValue="1"/>
            <parameter index="8" name="EQ 频段 2 中置频率" parameterValue="0.0075062550604343414306640625"/>
            <parameter index="9" name="EQ 频段 2 Q" parameterValue="0.000199989997781813144683837890625"/>
            <parameter index="10" name="EQ 频段 2 增益" parameterValue="0.5"/>
            <parameter index="11" name="EQ 频段 2 启用" parameterValue="1"/>
            <parameter index="12" name="EQ 频段 3 中置频率" parameterValue="0.0325271077454090118408203125"/>
            <parameter index="13" name="EQ 频段 3 Q" parameterValue="0.000199989997781813144683837890625"/>
            <parameter index="14" name="EQ 频段 3 增益" parameterValue="0.5"/>
            <parameter index="15" name="EQ 频段 3 启用" parameterValue="1"/>
            <parameter index="16" name="EQ 频段 4 中置频率" parameterValue="0.13261051476001739501953125"/>
            <parameter index="17" name="EQ 频段 4 Q" parameterValue="0.000199989997781813144683837890625"/>
            <parameter index="18" name="EQ 频段 4 增益" parameterValue="0.5"/>
            <parameter index="19" name="EQ 频段 4 启用" parameterValue="1"/>
            <parameter index="20" name="EQ 频段 5 中置频率" parameterValue="0.532944142818450927734375"/>
            <parameter index="21" name="EQ 频段 5 Q" parameterValue="0.000199989997781813144683837890625"/>
            <parameter index="22" name="EQ 频段 5 增益" parameterValue="0.5"/>
            <parameter index="23" name="EQ 频段 5 启用" parameterValue="1"/>
            <parameter index="24" name="增益" parameterValue="0.666666686534881591796875"/>
            <parameter index="25" name="恒定 Q" parameterValue="1"/>
            <parameter index="26" name="下限滤镜顺序" parameterValue="0"/>
            <parameter index="27" name="上限频率滤镜顺序" parameterValue="0"/>
            <parameter index="28" name="超静音模式" parameterValue="0"/>
            <parameter index="29" name="下限启用" parameterValue="1"/>
            <parameter index="30" name="上限频率启用" parameterValue="1"/>
            <parameter index="31" name="原始采样率" parameterValue="0.25"/>
            <parameter index="32" name="EQ 频段 1 频带宽" parameterValue="0.002499990165233612060546875"/>
            <parameter index="33" name="EQ 频段 2 频段宽度" parameterValue="0.0099999904632568359375"/>
            <parameter index="34" name="EQ 频段 3 频段宽度" parameterValue="0.0399999916553497314453125"/>
            <parameter index="35" name="EQ 频段 4 频段宽度" parameterValue="0.15999998152256011962890625"/>
            <parameter index="36" name="EQ 频段 5 频段宽度" parameterValue="0.63999998569488525390625"/>
            <parameter index="37" name="高通滤波启用" parameterValue="0"/>
            <parameter index="38" name="高通切除频率" parameterValue="0"/>
            <parameter index="39" name="高通斜率" parameterValue="0.4000000059604644775390625"/>
            <parameter index="40" name="低通滤波启用" parameterValue="0"/>
            <parameter index="41" name="低通切除频率" parameterValue="0.833194315433502197265625"/>
            <parameter index="42" name="低通斜率" parameterValue="0.4000000059604644775390625"/>
            <parameter index="43" name="不使用" parameterValue="0"/>
            <parameter index="44" name="下限图示范围" parameterValue="1"/>
          </component>
        </trackAudioParameters>
        <editParameter parameterIndex="0" slotIndex="4294967280"/>
        <audioClip clipAutoCrossfade="true" crossFadeHeadClipID="-1" crossFadeTailClipID="-1" endPoint="688499" fileID="6" hue="-1" id="0" lockedInTime="false" looped="false" name="chat" offline="false" select="false" sourceInPoint="0" sourceOutPoint="688499" startPoint="0" zOrder="0">
          <component componentGuid="a8110f63-7369-477e-b9a4-8fdaca0b0ad8" componentID="Audition.Fader" id="clipGain" name="volume" powered="true">
            <parameter index="0" name="volume" parameterValue="1.19420206546783447265625"/>
            <parameter index="1" name="static gain" parameterValue="1"/>
          </component>
          <component componentGuid="81b57adb-3ed9-4e51-a4fe-df64e1bd2bf7" componentID="Audition.Mute" id="clipMute" name="Mute" powered="true">
            <parameter index="0" parameterValue="0"/>
            <parameter index="1" name="mute" parameterValue="0"/>
          </component>
          <component componentGuid="ac40ea76-d596-4279-ba56-df26a9f5dfa2" componentID="Audition.StereoPanner" id="clipPan" name="StereoPanner" powered="true">
            <parameter index="0" name="声像" parameterValue="0"/>
          </component>
          <fadeIn crossFadeLinkType="linkedSymmetric" endPoint="0" shape="19" startPoint="0" type="log"/>
          <fadeOut crossFadeLinkType="linkedSymmetric" endPoint="688499" shape="19" startPoint="688499" type="log"/>
          <editParameter parameterIndex="0" slotIndex="4294967281"/>
          <editParameter parameterIndex="0" slotIndex="4294967280"/>
          <channelMap>
            <channel index="0" sourceIndex="0"/>
            <channel index="1" sourceIndex="1"/>
          </channelMap>
        </audioClip>
        <audioClip clipAutoCrossfade="true" crossFadeHeadClipID="-1" crossFadeTailClipID="-1" endPoint="2892733" fileID="6" hue="-1" id="1" lockedInTime="false" looped="false" name="chat" offline="false" select="false" sourceInPoint="0" sourceOutPoint="153686" startPoint="2739047" zOrder="1">
          <component componentGuid="8b3a098e-ae84-46f3-a544-3b7814c19cd6" componentID="Audition.Fader" id="clipGain" name="volume" powered="true">
            <parameter index="0" name="volume" parameterValue="1.19420206546783447265625"/>
            <parameter index="1" name="static gain" parameterValue="1"/>
          </component>
          <component componentGuid="7843bf6f-28de-4a30-87b4-b46fd8b1e69d" componentID="Audition.Mute" id="clipMute" name="Mute" powered="true">
            <parameter index="0" parameterValue="0"/>
            <parameter index="1" name="mute" parameterValue="0"/>
          </component>
          <component componentGuid="17b2c6bd-a513-4a4a-b2ca-2d587fcfc875" componentID="Audition.StereoPanner" id="clipPan" name="StereoPanner" powered="true">
            <parameter index="0" name="声像" parameterValue="0"/>
          </component>
          <fadeIn crossFadeLinkType="linkedSymmetric" endPoint="0" shape="19" startPoint="0" type="log"/>
          <fadeOut crossFadeLinkType="linkedSymmetric" endPoint="153686" shape="19" startPoint="153686" type="log"/>
          <clipStretch adaptiveWindowSize="37" pitchAdjustment="0" preserveFormants="true" stretchMode="realtime" stretchQuality="high" stretchRatio="0.45303914747879081570403059231466613709926605224609375" stretchType="solo" transientSensitivity="40"/>
          <editParameter parameterIndex="0" slotIndex="4294967281"/>
          <editParameter parameterIndex="0" slotIndex="4294967280"/>
          <channelMap>
            <channel index="0" sourceIndex="0"/>
            <channel index="1" sourceIndex="1"/>
          </channelMap>
        </audioClip>
        <audioClip clipAutoCrossfade="true" crossFadeHeadClipID="-1" crossFadeTailClipID="-1" endPoint="3422231" fileID="6" hue="-1" id="2" lockedInTime="false" looped="false" name="chat" offline="false" select="false" sourceInPoint="153686" sourceOutPoint="311917" startPoint="3264000" zOrder="2">
          <component componentGuid="994e06bb-9abd-4d61-ad3a-5f39999e7a99" componentID="Audition.Fader" id="clipGain" name="volume" powered="true">
            <parameter index="0" name="volume" parameterValue="1.19420206546783447265625"/>
            <parameter index="1" name="static gain" parameterValue="1"/>
          </component>
          <component componentGuid="1df311f7-56fa-4c2a-9daa-c2b8f2b39f77" componentID="Audition.Mute" id="clipMute" name="Mute" powered="true">
            <parameter index="0" parameterValue="0"/>
            <parameter index="1" name="mute" parameterValue="0"/>
          </component>
          <component componentGuid="55b2f955-a667-4a50-a65f-daf163e00d68" componentID="Audition.StereoPanner" id="clipPan" name="StereoPanner" powered="true">
            <parameter index="0" name="声像" parameterValue="0"/>
          </component>
          <fadeIn crossFadeLinkType="linkedSymmetric" endPoint="0" shape="19" startPoint="0" type="log"/>
          <fadeOut crossFadeLinkType="linkedSymmetric" endPoint="158231" shape="19" startPoint="158231" type="log"/>
          <clipStretch adaptiveWindowSize="37" pitchAdjustment="0" preserveFormants="true" stretchMode="realtime" stretchQuality="high" stretchRatio="0.45303914747879081570403059231466613709926605224609375" stretchType="solo" transientSensitivity="40"/>
          <editParameter parameterIndex="0" slotIndex="4294967281"/>
          <editParameter parameterIndex="0" slotIndex="4294967280"/>
          <channelMap>
            <channel index="0" sourceIndex="0"/>
            <channel index="1" sourceIndex="1"/>
          </channelMap>
        </audioClip>
      </audioTrack>
      <audioTrack automationLaneOpenState="false" id="10004" index="4" select="false" visible="true">
        <trackParameters trackHeight="52" trackHue="182" trackMinimized="false">
          <name>BK street talking</name>
        </trackParameters>
        <trackAudioParameters audioChannelType="stereo" automationMode="1" monitoring="false" recordArmed="false" solo="false" soloSafe="false">
          <trackOutput outputID="10000" type="trackID"/>
          <trackInput inputID="1"/>
          <component componentGuid="b98fec5d-318c-4231-b4bf-41e1c8c35248" componentID="Audition.Fader" id="trackFader" name="volume" powered="true">
            <parameter index="0" name="volume" parameterValue="1"/>
            <parameter index="1" name="static gain" parameterValue="1"/>
          </component>
          <component componentGuid="b1fb8c17-4f1d-400c-b133-f67fd5a97b64" componentID="Audition.Mute" id="trackMute" name="Mute" powered="true">
            <parameter index="0" parameterValue="0"/>
            <parameter index="1" name="mute" parameterValue="0"/>
          </component>
          <component componentGuid="5909f573-d059-4c87-bb23-2b6a70e89e63" componentID="Audition.StereoPanner" id="trackPan" name="StereoPanner" powered="true">
            <parameter index="0" name="声像" parameterValue="0"/>
          </component>
          <component componentGuid="293d8bb4-de45-4087-98a2-5190aea59bc3" componentID="Audition.EQ" id="trackEQ" name="EQ" powered="false">
            <parameter index="0" name="下限频率" parameterValue="0.000834028352983295917510986328125"/>
            <parameter index="1" name="下限增益" parameterValue="0.5"/>
            <parameter index="2" name="上限频率" parameterValue="0.74979150295257568359375"/>
            <parameter index="3" name="上限频率增益" parameterValue="0.5"/>
            <parameter index="4" name="EQ 频段 1 中置频率" parameterValue="0.00125104258768260478973388671875"/>
            <parameter index="5" name="EQ 频段 1 Q" parameterValue="0.000199989997781813144683837890625"/>
            <parameter index="6" name="EQ 频段 1 增益" parameterValue="0.5"/>
            <parameter index="7" name="EQ 频段 1 启用" parameterValue="1"/>
            <parameter index="8" name="EQ 频段 2 中置频率" parameterValue="0.0075062550604343414306640625"/>
            <parameter index="9" name="EQ 频段 2 Q" parameterValue="0.000199989997781813144683837890625"/>
            <parameter index="10" name="EQ 频段 2 增益" parameterValue="0.5"/>
            <parameter index="11" name="EQ 频段 2 启用" parameterValue="1"/>
            <parameter index="12" name="EQ 频段 3 中置频率" parameterValue="0.0325271077454090118408203125"/>
            <parameter index="13" name="EQ 频段 3 Q" parameterValue="0.000199989997781813144683837890625"/>
            <parameter index="14" name="EQ 频段 3 增益" parameterValue="0.5"/>
            <parameter index="15" name="EQ 频段 3 启用" parameterValue="1"/>
            <parameter index="16" name="EQ 频段 4 中置频率" parameterValue="0.13261051476001739501953125"/>
            <parameter index="17" name="EQ 频段 4 Q" parameterValue="0.000199989997781813144683837890625"/>
            <parameter index="18" name="EQ 频段 4 增益" parameterValue="0.5"/>
            <parameter index="19" name="EQ 频段 4 启用" parameterValue="1"/>
            <parameter index="20" name="EQ 频段 5 中置频率" parameterValue="0.532944142818450927734375"/>
            <parameter index="21" name="EQ 频段 5 Q" parameterValue="0.000199989997781813144683837890625"/>
            <parameter index="22" name="EQ 频段 5 增益" parameterValue="0.5"/>
            <parameter index="23" name="EQ 频段 5 启用" parameterValue="1"/>
            <parameter index="24" name="增益" parameterValue="0.666666686534881591796875"/>
            <parameter index="25" name="恒定 Q" parameterValue="1"/>
            <parameter index="26" name="下限滤镜顺序" parameterValue="0"/>
            <parameter index="27" name="上限频率滤镜顺序" parameterValue="0"/>
            <parameter index="28" name="超静音模式" parameterValue="0"/>
            <parameter index="29" name="下限启用" parameterValue="1"/>
            <parameter index="30" name="上限频率启用" parameterValue="1"/>
            <parameter index="31" name="原始采样率" parameterValue="0.25"/>
            <parameter index="32" name="EQ 频段 1 频带宽" parameterValue="0.002499990165233612060546875"/>
            <parameter index="33" name="EQ 频段 2 频段宽度" parameterValue="0.0099999904632568359375"/>
            <parameter index="34" name="EQ 频段 3 频段宽度" parameterValue="0.0399999916553497314453125"/>
            <parameter index="35" name="EQ 频段 4 频段宽度" parameterValue="0.15999998152256011962890625"/>
            <parameter index="36" name="EQ 频段 5 频段宽度" parameterValue="0.63999998569488525390625"/>
            <parameter index="37" name="高通滤波启用" parameterValue="0"/>
            <parameter index="38" name="高通切除频率" parameterValue="0"/>
            <parameter index="39" name="高通斜率" parameterValue="0.4000000059604644775390625"/>
            <parameter index="40" name="低通滤波启用" parameterValue="0"/>
            <parameter index="41" name="低通切除频率" parameterValue="0.833194315433502197265625"/>
            <parameter index="42" name="低通斜率" parameterValue="0.4000000059604644775390625"/>
            <parameter index="43" name="不使用" parameterValue="0"/>
            <parameter index="44" name="下限图示范围" parameterValue="1"/>
          </component>
        </trackAudioParameters>
        <editParameter parameterIndex="0" slotIndex="4294967280"/>
        <audioClip clipAutoCrossfade="true" crossFadeHeadClipID="-1" crossFadeTailClipID="-1" endPoint="688499" fileID="7" hue="-1" id="0" lockedInTime="false" looped="false" name="brooklyn-street" offline="false" select="false" sourceInPoint="1631098" sourceOutPoint="2319597" startPoint="0" zOrder="0">
          <component componentGuid="bc9c9ff8-c74d-4a9e-8be3-5301f2dc2b3d" componentID="Audition.Fader" id="clipGain" name="volume" powered="true">
            <parameter index="0" name="volume" parameterValue="0.761654436588287353515625"/>
            <parameter index="1" name="static gain" parameterValue="1"/>
          </component>
          <component componentGuid="8d554c72-9df1-4632-a684-c4f61b1e5a1e" componentID="Audition.Mute" id="clipMute" name="Mute" powered="true">
            <parameter index="0" parameterValue="0"/>
            <parameter index="1" name="mute" parameterValue="0"/>
          </component>
          <component componentGuid="1e9e397c-cf9c-49fb-be1a-1adc451b67d3" componentID="Audition.StereoPanner" id="clipPan" name="StereoPanner" powered="true">
            <parameter index="0" name="声像" parameterValue="0"/>
          </component>
          <fadeIn crossFadeLinkType="linkedSymmetric" endPoint="0" shape="19" startPoint="0" type="log"/>
          <fadeOut crossFadeLinkType="linkedSymmetric" endPoint="688499" shape="19" startPoint="688499" type="log"/>
          <editParameter parameterIndex="0" slotIndex="4294967281"/>
          <editParameter parameterIndex="0" slotIndex="4294967280"/>
          <channelMap>
            <channel index="0" sourceIndex="0"/>
            <channel index="1" sourceIndex="1"/>
          </channelMap>
        </audioClip>
        <audioClip clipAutoCrossfade="true" crossFadeHeadClipID="-1" crossFadeTailClipID="-1" endPoint="2892733" fileID="7" hue="-1" id="1" lockedInTime="false" looped="false" name="brooklyn-street" offline="false" select="false" sourceInPoint="738951" sourceOutPoint="892637" startPoint="2739047" zOrder="1">
          <component componentGuid="d935710e-ac9b-4b14-80cf-bcc0e4aba0f6" componentID="Audition.Fader" id="clipGain" name="volume" powered="true">
            <parameter index="0" name="volume" parameterValue="0.761654436588287353515625"/>
            <parameter index="1" name="static gain" parameterValue="1"/>
          </component>
          <component componentGuid="d3630910-ddba-4c68-84fe-6d0bbbfaee7d" componentID="Audition.Mute" id="clipMute" name="Mute" powered="true">
            <parameter index="0" parameterValue="0"/>
            <parameter index="1" name="mute" parameterValue="0"/>
          </component>
          <component componentGuid="af160c15-05cf-4d34-a36a-6c1c3e7d1c93" componentID="Audition.StereoPanner" id="clipPan" name="StereoPanner" powered="true">
            <parameter index="0" name="声像" parameterValue="0"/>
          </component>
          <fadeIn crossFadeLinkType="linkedSymmetric" endPoint="0" shape="19" startPoint="0" type="log"/>
          <fadeOut crossFadeLinkType="linkedSymmetric" endPoint="153686" shape="19" startPoint="153686" type="log"/>
          <clipStretch adaptiveWindowSize="37" pitchAdjustment="0" preserveFormants="true" stretchMode="realtime" stretchQuality="high" stretchRatio="0.45303914747879081570403059231466613709926605224609375" stretchType="solo" transientSensitivity="40"/>
          <editParameter parameterIndex="0" slotIndex="4294967281"/>
          <editParameter parameterIndex="0" slotIndex="4294967280"/>
          <channelMap>
            <channel index="0" sourceIndex="0"/>
            <channel index="1" sourceIndex="1"/>
          </channelMap>
        </audioClip>
        <audioClip clipAutoCrossfade="true" crossFadeHeadClipID="-1" crossFadeTailClipID="-1" endPoint="3422231" fileID="7" hue="-1" id="2" lockedInTime="false" looped="false" name="brooklyn-street" offline="false" select="false" sourceInPoint="892637" sourceOutPoint="1050868" startPoint="3264000" zOrder="2">
          <component componentGuid="4e5a6a9d-8dfb-40ce-ae8d-07da5ed029d6" componentID="Audition.Fader" id="clipGain" name="volume" powered="true">
            <parameter index="0" name="volume" parameterValue="0.761654436588287353515625"/>
            <parameter index="1" name="static gain" parameterValue="1"/>
          </component>
          <component componentGuid="bb58d2a5-ff54-4f83-8db5-cfb691c9a4c2" componentID="Audition.Mute" id="clipMute" name="Mute" powered="true">
            <parameter index="0" parameterValue="0"/>
            <parameter index="1" name="mute" parameterValue="0"/>
          </component>
          <component componentGuid="a14b962d-c6d0-40a0-9708-82b22c64e7a0" componentID="Audition.StereoPanner" id="clipPan" name="StereoPanner" powered="true">
            <parameter index="0" name="声像" parameterValue="0"/>
          </component>
          <fadeIn crossFadeLinkType="linkedSymmetric" endPoint="0" shape="19" startPoint="0" type="log"/>
          <fadeOut crossFadeLinkType="linkedSymmetric" endPoint="158231" shape="19" startPoint="158231" type="log"/>
          <clipStretch adaptiveWindowSize="37" pitchAdjustment="0" preserveFormants="true" stretchMode="realtime" stretchQuality="high" stretchRatio="0.45303914747879081570403059231466613709926605224609375" stretchType="solo" transientSensitivity="40"/>
          <editParameter parameterIndex="0" slotIndex="4294967281"/>
          <editParameter parameterIndex="0" slotIndex="4294967280"/>
          <channelMap>
            <channel index="0" sourceIndex="0"/>
            <channel index="1" sourceIndex="1"/>
          </channelMap>
        </audioClip>
      </audioTrack>
      <audioTrack automationLaneOpenState="false" id="10005" index="5" select="false" visible="true">
        <trackParameters trackHeight="52" trackHue="294" trackMinimized="false">
          <name>strange sounds</name>
        </trackParameters>
        <trackAudioParameters audioChannelType="stereo" automationMode="1" monitoring="false" recordArmed="false" solo="false" soloSafe="false">
          <trackOutput outputID="10000" type="trackID"/>
          <trackInput inputID="1"/>
          <component componentGuid="2f17b9a8-1386-481d-a6de-ffe34a323b5f" componentID="Audition.Fader" id="trackFader" name="volume" powered="true">
            <parameter index="0" name="volume" parameterValue="1"/>
            <parameter index="1" name="static gain" parameterValue="1"/>
          </component>
          <component componentGuid="9bd42177-17be-44ac-ba82-c6b3ed73403e" componentID="Audition.Mute" id="trackMute" name="Mute" powered="true">
            <parameter index="0" parameterValue="0"/>
            <parameter index="1" name="mute" parameterValue="0"/>
          </component>
          <component componentGuid="0fb040dc-f030-4f9a-87d3-b07ac7b2ddc5" componentID="Audition.StereoPanner" id="trackPan" name="StereoPanner" powered="true">
            <parameter index="0" name="声像" parameterValue="0"/>
          </component>
          <component componentGuid="eaa19bbf-4fe6-42e5-a0c4-2caa7f8dc7d7" componentID="Audition.EQ" id="trackEQ" name="EQ" powered="false">
            <parameter index="0" name="下限频率" parameterValue="0.000834028352983295917510986328125"/>
            <parameter index="1" name="下限增益" parameterValue="0.5"/>
            <parameter index="2" name="上限频率" parameterValue="0.74979150295257568359375"/>
            <parameter index="3" name="上限频率增益" parameterValue="0.5"/>
            <parameter index="4" name="EQ 频段 1 中置频率" parameterValue="0.00125104258768260478973388671875"/>
            <parameter index="5" name="EQ 频段 1 Q" parameterValue="0.000199989997781813144683837890625"/>
            <parameter index="6" name="EQ 频段 1 增益" parameterValue="0.5"/>
            <parameter index="7" name="EQ 频段 1 启用" parameterValue="1"/>
            <parameter index="8" name="EQ 频段 2 中置频率" parameterValue="0.0075062550604343414306640625"/>
            <parameter index="9" name="EQ 频段 2 Q" parameterValue="0.000199989997781813144683837890625"/>
            <parameter index="10" name="EQ 频段 2 增益" parameterValue="0.5"/>
            <parameter index="11" name="EQ 频段 2 启用" parameterValue="1"/>
            <parameter index="12" name="EQ 频段 3 中置频率" parameterValue="0.0325271077454090118408203125"/>
            <parameter index="13" name="EQ 频段 3 Q" parameterValue="0.000199989997781813144683837890625"/>
            <parameter index="14" name="EQ 频段 3 增益" parameterValue="0.5"/>
            <parameter index="15" name="EQ 频段 3 启用" parameterValue="1"/>
            <parameter index="16" name="EQ 频段 4 中置频率" parameterValue="0.13261051476001739501953125"/>
            <parameter index="17" name="EQ 频段 4 Q" parameterValue="0.000199989997781813144683837890625"/>
            <parameter index="18" name="EQ 频段 4 增益" parameterValue="0.5"/>
            <parameter index="19" name="EQ 频段 4 启用" parameterValue="1"/>
            <parameter index="20" name="EQ 频段 5 中置频率" parameterValue="0.532944142818450927734375"/>
            <parameter index="21" name="EQ 频段 5 Q" parameterValue="0.000199989997781813144683837890625"/>
            <parameter index="22" name="EQ 频段 5 增益" parameterValue="0.5"/>
            <parameter index="23" name="EQ 频段 5 启用" parameterValue="1"/>
            <parameter index="24" name="增益" parameterValue="0.666666686534881591796875"/>
            <parameter index="25" name="恒定 Q" parameterValue="1"/>
            <parameter index="26" name="下限滤镜顺序" parameterValue="0"/>
            <parameter index="27" name="上限频率滤镜顺序" parameterValue="0"/>
            <parameter index="28" name="超静音模式" parameterValue="0"/>
            <parameter index="29" name="下限启用" parameterValue="1"/>
            <parameter index="30" name="上限频率启用" parameterValue="1"/>
            <parameter index="31" name="原始采样率" parameterValue="0.25"/>
            <parameter index="32" name="EQ 频段 1 频带宽" parameterValue="0.002499990165233612060546875"/>
            <parameter index="33" name="EQ 频段 2 频段宽度" parameterValue="0.0099999904632568359375"/>
            <parameter index="34" name="EQ 频段 3 频段宽度" parameterValue="0.0399999916553497314453125"/>
            <parameter index="35" name="EQ 频段 4 频段宽度" parameterValue="0.15999998152256011962890625"/>
            <parameter index="36" name="EQ 频段 5 频段宽度" parameterValue="0.63999998569488525390625"/>
            <parameter index="37" name="高通滤波启用" parameterValue="0"/>
            <parameter index="38" name="高通切除频率" parameterValue="0"/>
            <parameter index="39" name="高通斜率" parameterValue="0.4000000059604644775390625"/>
            <parameter index="40" name="低通滤波启用" parameterValue="0"/>
            <parameter index="41" name="低通切除频率" parameterValue="0.833194315433502197265625"/>
            <parameter index="42" name="低通斜率" parameterValue="0.4000000059604644775390625"/>
            <parameter index="43" name="不使用" parameterValue="0"/>
            <parameter index="44" name="下限图示范围" parameterValue="1"/>
          </component>
        </trackAudioParameters>
        <editParameter parameterIndex="0" slotIndex="4294967280"/>
      </audioTrack>
      <audioTrack automationLaneOpenState="false" id="10006" index="6" select="false" visible="true">
        <trackParameters trackHeight="52" trackHue="92" trackMinimized="false">
          <name>chinese restaurants</name>
        </trackParameters>
        <trackAudioParameters audioChannelType="stereo" automationMode="1" monitoring="false" recordArmed="false" solo="false" soloSafe="false">
          <trackOutput outputID="10000" type="trackID"/>
          <trackInput inputID="1"/>
          <component componentGuid="dc4f9ae5-6d0d-43cd-b62f-fd68798a9491" componentID="Audition.Fader" id="trackFader" name="volume" powered="true">
            <parameter index="0" name="volume" parameterValue="1"/>
            <parameter index="1" name="static gain" parameterValue="1"/>
          </component>
          <component componentGuid="38f6b1f9-636c-4657-b429-e2ad64ad3782" componentID="Audition.Mute" id="trackMute" name="Mute" powered="true">
            <parameter index="0" parameterValue="0"/>
            <parameter index="1" name="mute" parameterValue="0"/>
          </component>
          <component componentGuid="39fb9238-d2d2-463b-b556-d4812db75c08" componentID="Audition.StereoPanner" id="trackPan" name="StereoPanner" powered="true">
            <parameter index="0" name="声像" parameterValue="0"/>
          </component>
          <component componentGuid="5c500021-c641-4a59-8730-7baecb9ade84" componentID="Audition.EQ" id="trackEQ" name="EQ" powered="false">
            <parameter index="0" name="下限频率" parameterValue="0.000834028352983295917510986328125"/>
            <parameter index="1" name="下限增益" parameterValue="0.5"/>
            <parameter index="2" name="上限频率" parameterValue="0.74979150295257568359375"/>
            <parameter index="3" name="上限频率增益" parameterValue="0.5"/>
            <parameter index="4" name="EQ 频段 1 中置频率" parameterValue="0.00125104258768260478973388671875"/>
            <parameter index="5" name="EQ 频段 1 Q" parameterValue="0.000199989997781813144683837890625"/>
            <parameter index="6" name="EQ 频段 1 增益" parameterValue="0.5"/>
            <parameter index="7" name="EQ 频段 1 启用" parameterValue="1"/>
            <parameter index="8" name="EQ 频段 2 中置频率" parameterValue="0.0075062550604343414306640625"/>
            <parameter index="9" name="EQ 频段 2 Q" parameterValue="0.000199989997781813144683837890625"/>
            <parameter index="10" name="EQ 频段 2 增益" parameterValue="0.5"/>
            <parameter index="11" name="EQ 频段 2 启用" parameterValue="1"/>
            <parameter index="12" name="EQ 频段 3 中置频率" parameterValue="0.0325271077454090118408203125"/>
            <parameter index="13" name="EQ 频段 3 Q" parameterValue="0.000199989997781813144683837890625"/>
            <parameter index="14" name="EQ 频段 3 增益" parameterValue="0.5"/>
            <parameter index="15" name="EQ 频段 3 启用" parameterValue="1"/>
            <parameter index="16" name="EQ 频段 4 中置频率" parameterValue="0.13261051476001739501953125"/>
            <parameter index="17" name="EQ 频段 4 Q" parameterValue="0.000199989997781813144683837890625"/>
            <parameter index="18" name="EQ 频段 4 增益" parameterValue="0.5"/>
            <parameter index="19" name="EQ 频段 4 启用" parameterValue="1"/>
            <parameter index="20" name="EQ 频段 5 中置频率" parameterValue="0.532944142818450927734375"/>
            <parameter index="21" name="EQ 频段 5 Q" parameterValue="0.000199989997781813144683837890625"/>
            <parameter index="22" name="EQ 频段 5 增益" parameterValue="0.5"/>
            <parameter index="23" name="EQ 频段 5 启用" parameterValue="1"/>
            <parameter index="24" name="增益" parameterValue="0.666666686534881591796875"/>
            <parameter index="25" name="恒定 Q" parameterValue="1"/>
            <parameter index="26" name="下限滤镜顺序" parameterValue="0"/>
            <parameter index="27" name="上限频率滤镜顺序" parameterValue="0"/>
            <parameter index="28" name="超静音模式" parameterValue="0"/>
            <parameter index="29" name="下限启用" parameterValue="1"/>
            <parameter index="30" name="上限频率启用" parameterValue="1"/>
            <parameter index="31" name="原始采样率" parameterValue="0.25"/>
            <parameter index="32" name="EQ 频段 1 频带宽" parameterValue="0.002499990165233612060546875"/>
            <parameter index="33" name="EQ 频段 2 频段宽度" parameterValue="0.0099999904632568359375"/>
            <parameter index="34" name="EQ 频段 3 频段宽度" parameterValue="0.0399999916553497314453125"/>
            <parameter index="35" name="EQ 频段 4 频段宽度" parameterValue="0.15999998152256011962890625"/>
            <parameter index="36" name="EQ 频段 5 频段宽度" parameterValue="0.63999998569488525390625"/>
            <parameter index="37" name="高通滤波启用" parameterValue="0"/>
            <parameter index="38" name="高通切除频率" parameterValue="0"/>
            <parameter index="39" name="高通斜率" parameterValue="0.4000000059604644775390625"/>
            <parameter index="40" name="低通滤波启用" parameterValue="0"/>
            <parameter index="41" name="低通切除频率" parameterValue="0.833194315433502197265625"/>
            <parameter index="42" name="低通斜率" parameterValue="0.4000000059604644775390625"/>
            <parameter index="43" name="不使用" parameterValue="0"/>
            <parameter index="44" name="下限图示范围" parameterValue="1"/>
          </component>
        </trackAudioParameters>
        <editParameter parameterIndex="0" slotIndex="4294967280"/>
        <audioClip clipAutoCrossfade="true" crossFadeHeadClipID="-1" crossFadeTailClipID="-1" endPoint="1609351" fileID="8" hue="-1" id="0" lockedInTime="false" looped="false" name="restaurant-suzhou-china 48000 1" offline="false" select="false" sourceInPoint="3318310" sourceOutPoint="4191947" startPoint="735714" zOrder="0">
          <component componentGuid="50ef1390-55fa-4aa9-966c-fe07040c4935" componentID="Audition.Fader" id="clipGain" name="volume" powered="true">
            <parameter index="0" name="volume" parameterValue="0.7873299121856689453125">
              <parameterKeyframes enableSplines="true" readOnly="false">
                <parameterKeyframe sampleOffset="3318310" select="false" type="linear" value="0.12013958394527435302734375"/>
                <parameterKeyframe sampleOffset="3318311" select="false" type="linear" value="0.109695039689540863037109375"/>
                <parameterKeyframe sampleOffset="3502974" select="true" type="linear" value="0.23507715761661529541015625"/>
                <parameterKeyframe sampleOffset="3597372" select="false" type="linear" value="0.64999997615814208984375"/>
              </parameterKeyframes>
            </parameter>
            <parameter index="1" name="static gain" parameterValue="1"/>
          </component>
          <component componentGuid="810df960-7843-4d04-ad6e-c6f709bbff05" componentID="Audition.Mute" id="clipMute" name="Mute" powered="true">
            <parameter index="0" parameterValue="0"/>
            <parameter index="1" name="mute" parameterValue="0"/>
          </component>
          <component componentGuid="2f58257c-0e52-4220-8add-4e8471e3376b" componentID="Audition.StereoPanner" id="clipPan" name="StereoPanner" powered="true">
            <parameter index="0" name="声像" parameterValue="0"/>
          </component>
          <fadeIn crossFadeLinkType="linkedSymmetric" endPoint="0" shape="19" startPoint="0" type="log"/>
          <fadeOut crossFadeLinkType="linkedSymmetric" endPoint="873637" shape="19" startPoint="873637" type="log"/>
          <editParameter parameterIndex="0" slotIndex="4294967281"/>
          <editParameter parameterIndex="0" slotIndex="4294967280"/>
          <channelMap>
            <channel index="0" sourceIndex="0"/>
            <channel index="1" sourceIndex="1"/>
          </channelMap>
        </audioClip>
        <audioClip clipAutoCrossfade="true" crossFadeHeadClipID="-1" crossFadeTailClipID="-1" endPoint="3050964" fileID="8" hue="-1" id="1" lockedInTime="false" looped="false" name="restaurant-suzhou-china 48000 1" offline="false" select="false" sourceInPoint="1088619" sourceOutPoint="1227558" startPoint="2912025" zOrder="1">
          <component componentGuid="78daf980-35d5-40c7-b668-840dbfe1b434" componentID="Audition.Fader" id="clipGain" name="volume" powered="true">
            <parameter index="0" name="volume" parameterValue="1.0000000036274937255387218471014421083964407444000244140625e-15">
              <parameterKeyframes enableSplines="true" readOnly="false">
                <parameterKeyframe sampleOffset="1088619" select="false" type="linear" value="0.12013958394527435302734375"/>
                <parameterKeyframe sampleOffset="1105020" select="true" type="linear" value="0.446462571620941162109375"/>
                <parameterKeyframe sampleOffset="1108135" select="false" type="linear" value="0.8366558551788330078125"/>
              </parameterKeyframes>
            </parameter>
            <parameter index="1" name="static gain" parameterValue="1"/>
          </component>
          <component componentGuid="d552b933-8bca-4902-9dd6-5a984c8587e0" componentID="Audition.Mute" id="clipMute" name="Mute" powered="true">
            <parameter index="0" parameterValue="0"/>
            <parameter index="1" name="mute" parameterValue="0"/>
          </component>
          <component componentGuid="3dcb58e0-e1b7-4892-a3c5-cb0df8ae0112" componentID="Audition.StereoPanner" id="clipPan" name="StereoPanner" powered="true">
            <parameter index="0" name="声像" parameterValue="0"/>
          </component>
          <fadeIn crossFadeLinkType="linkedSymmetric" endPoint="0" shape="19" startPoint="0" type="log"/>
          <fadeOut crossFadeLinkType="linkedSymmetric" endPoint="138939" shape="19" startPoint="138939" type="log"/>
          <clipStretch adaptiveWindowSize="37" pitchAdjustment="0" preserveFormants="true" stretchMode="realtime" stretchQuality="high" stretchRatio="0.328064173106221435016749410351621918380260467529296875" stretchType="solo" transientSensitivity="40"/>
          <editParameter parameterIndex="0" slotIndex="4294967281"/>
          <editParameter parameterIndex="0" slotIndex="4294967280"/>
          <channelMap>
            <channel index="0" sourceIndex="0"/>
            <channel index="1" sourceIndex="1"/>
          </channelMap>
        </audioClip>
        <audioClip clipAutoCrossfade="true" crossFadeHeadClipID="-1" crossFadeTailClipID="-1" endPoint="3600000" fileID="8" hue="-1" id="2" lockedInTime="false" looped="false" name="restaurant-suzhou-china 48000 1" offline="false" select="false" sourceInPoint="1227558" sourceOutPoint="1375228" startPoint="3452330" zOrder="2">
          <component componentGuid="edda1f7d-8bda-4813-878e-95103153db6d" componentID="Audition.Fader" id="clipGain" name="volume" powered="true">
            <parameter index="0" name="volume" parameterValue="1.0000000036274937255387218471014421083964407444000244140625e-15">
              <parameterKeyframes enableSplines="true" readOnly="false">
                <parameterKeyframe sampleOffset="1088619" select="false" type="linear" value="0.12013958394527435302734375"/>
                <parameterKeyframe sampleOffset="1105020" select="false" type="linear" value="0.446462571620941162109375"/>
                <parameterKeyframe sampleOffset="1108135" select="false" type="linear" value="0.8366558551788330078125"/>
              </parameterKeyframes>
            </parameter>
            <parameter index="1" name="static gain" parameterValue="1"/>
          </component>
          <component componentGuid="463e26d3-c287-4bba-a475-c7d760b77ce8" componentID="Audition.Mute" id="clipMute" name="Mute" powered="true">
            <parameter index="0" parameterValue="0"/>
            <parameter index="1" name="mute" parameterValue="0"/>
          </component>
          <component componentGuid="30ae4570-bd02-485b-a7ca-3ba9ad3fdff9" componentID="Audition.StereoPanner" id="clipPan" name="StereoPanner" powered="true">
            <parameter index="0" name="声像" parameterValue="0"/>
          </component>
          <fadeIn crossFadeLinkType="linkedSymmetric" endPoint="0" shape="19" startPoint="0" type="log"/>
          <fadeOut crossFadeLinkType="linkedSymmetric" endPoint="147670" shape="19" startPoint="147670" type="log"/>
          <clipStretch adaptiveWindowSize="37" pitchAdjustment="0" preserveFormants="true" stretchMode="realtime" stretchQuality="high" stretchRatio="0.328064173106221435016749410351621918380260467529296875" stretchType="solo" transientSensitivity="40"/>
          <editParameter parameterIndex="0" slotIndex="4294967281"/>
          <editParameter parameterIndex="0" slotIndex="4294967280"/>
          <channelMap>
            <channel index="0" sourceIndex="0"/>
            <channel index="1" sourceIndex="1"/>
          </channelMap>
        </audioClip>
      </audioTrack>
      <audioTrack automationLaneOpenState="false" id="10007" index="7" select="false" visible="true">
        <trackParameters trackHeight="52" trackHue="211" trackMinimized="false">
          <name>manhatton street</name>
        </trackParameters>
        <trackAudioParameters audioChannelType="stereo" automationMode="1" monitoring="false" recordArmed="false" solo="false" soloSafe="false">
          <trackOutput outputID="10000" type="trackID"/>
          <trackInput inputID="1"/>
          <component componentGuid="af907642-b146-4047-90f6-03e66e2859dc" componentID="Audition.Fader" id="trackFader" name="volume" powered="true">
            <parameter index="0" name="volume" parameterValue="1"/>
            <parameter index="1" name="static gain" parameterValue="1"/>
          </component>
          <component componentGuid="3389b892-858d-40b9-af5a-f0d14ecc5109" componentID="Audition.Mute" id="trackMute" name="Mute" powered="true">
            <parameter index="0" parameterValue="0"/>
            <parameter index="1" name="mute" parameterValue="0"/>
          </component>
          <component componentGuid="4bdff29f-f3f1-4a7a-ad92-3e22c44f3457" componentID="Audition.StereoPanner" id="trackPan" name="StereoPanner" powered="true">
            <parameter index="0" name="声像" parameterValue="0"/>
          </component>
          <component componentGuid="effb05e5-341e-4d0e-9077-79c71f5137ce" componentID="Audition.EQ" id="trackEQ" name="EQ" powered="false">
            <parameter index="0" name="下限频率" parameterValue="0.000834028352983295917510986328125"/>
            <parameter index="1" name="下限增益" parameterValue="0.5"/>
            <parameter index="2" name="上限频率" parameterValue="0.74979150295257568359375"/>
            <parameter index="3" name="上限频率增益" parameterValue="0.5"/>
            <parameter index="4" name="EQ 频段 1 中置频率" parameterValue="0.00125104258768260478973388671875"/>
            <parameter index="5" name="EQ 频段 1 Q" parameterValue="0.000199989997781813144683837890625"/>
            <parameter index="6" name="EQ 频段 1 增益" parameterValue="0.5"/>
            <parameter index="7" name="EQ 频段 1 启用" parameterValue="1"/>
            <parameter index="8" name="EQ 频段 2 中置频率" parameterValue="0.0075062550604343414306640625"/>
            <parameter index="9" name="EQ 频段 2 Q" parameterValue="0.000199989997781813144683837890625"/>
            <parameter index="10" name="EQ 频段 2 增益" parameterValue="0.5"/>
            <parameter index="11" name="EQ 频段 2 启用" parameterValue="1"/>
            <parameter index="12" name="EQ 频段 3 中置频率" parameterValue="0.0325271077454090118408203125"/>
            <parameter index="13" name="EQ 频段 3 Q" parameterValue="0.000199989997781813144683837890625"/>
            <parameter index="14" name="EQ 频段 3 增益" parameterValue="0.5"/>
            <parameter index="15" name="EQ 频段 3 启用" parameterValue="1"/>
            <parameter index="16" name="EQ 频段 4 中置频率" parameterValue="0.13261051476001739501953125"/>
            <parameter index="17" name="EQ 频段 4 Q" parameterValue="0.000199989997781813144683837890625"/>
            <parameter index="18" name="EQ 频段 4 增益" parameterValue="0.5"/>
            <parameter index="19" name="EQ 频段 4 启用" parameterValue="1"/>
            <parameter index="20" name="EQ 频段 5 中置频率" parameterValue="0.532944142818450927734375"/>
            <parameter index="21" name="EQ 频段 5 Q" parameterValue="0.000199989997781813144683837890625"/>
            <parameter index="22" name="EQ 频段 5 增益" parameterValue="0.5"/>
            <parameter index="23" name="EQ 频段 5 启用" parameterValue="1"/>
            <parameter index="24" name="增益" parameterValue="0.666666686534881591796875"/>
            <parameter index="25" name="恒定 Q" parameterValue="1"/>
            <parameter index="26" name="下限滤镜顺序" parameterValue="0"/>
            <parameter index="27" name="上限频率滤镜顺序" parameterValue="0"/>
            <parameter index="28" name="超静音模式" parameterValue="0"/>
            <parameter index="29" name="下限启用" parameterValue="1"/>
            <parameter index="30" name="上限频率启用" parameterValue="1"/>
            <parameter index="31" name="原始采样率" parameterValue="0.25"/>
            <parameter index="32" name="EQ 频段 1 频带宽" parameterValue="0.002499990165233612060546875"/>
            <parameter index="33" name="EQ 频段 2 频段宽度" parameterValue="0.0099999904632568359375"/>
            <parameter index="34" name="EQ 频段 3 频段宽度" parameterValue="0.0399999916553497314453125"/>
            <parameter index="35" name="EQ 频段 4 频段宽度" parameterValue="0.15999998152256011962890625"/>
            <parameter index="36" name="EQ 频段 5 频段宽度" parameterValue="0.63999998569488525390625"/>
            <parameter index="37" name="高通滤波启用" parameterValue="0"/>
            <parameter index="38" name="高通切除频率" parameterValue="0"/>
            <parameter index="39" name="高通斜率" parameterValue="0.4000000059604644775390625"/>
            <parameter index="40" name="低通滤波启用" parameterValue="0"/>
            <parameter index="41" name="低通切除频率" parameterValue="0.833194315433502197265625"/>
            <parameter index="42" name="低通斜率" parameterValue="0.4000000059604644775390625"/>
            <parameter index="43" name="不使用" parameterValue="0"/>
            <parameter index="44" name="下限图示范围" parameterValue="1"/>
          </component>
        </trackAudioParameters>
        <editParameter parameterIndex="0" slotIndex="4294967280"/>
        <audioClip clipAutoCrossfade="true" crossFadeHeadClipID="-1" crossFadeTailClipID="-1" endPoint="2547414" fileID="9" hue="-1" id="0" lockedInTime="false" looped="false" name="highway 48000 1" offline="false" select="false" sourceInPoint="0" sourceOutPoint="747703" startPoint="1799711" zOrder="0">
          <component componentGuid="c8976a28-e5c1-4028-a56a-e19dc73aaee4" componentID="Audition.Fader" id="clipGain" name="volume" powered="true">
            <parameter index="0" name="volume" parameterValue="5.623412609100341796875">
              <parameterKeyframes enableSplines="true" readOnly="false">
                <parameterKeyframe sampleOffset="0" select="false" type="linear" value="0"/>
                <parameterKeyframe sampleOffset="78510" select="false" type="linear" value="0.20508898794651031494140625"/>
                <parameterKeyframe sampleOffset="182502" select="false" type="linear" value="0.91387331485748291015625"/>
                <parameterKeyframe sampleOffset="575125" select="true" type="linear" value="0.28417205810546875"/>
              </parameterKeyframes>
            </parameter>
            <parameter index="1" name="static gain" parameterValue="1"/>
          </component>
          <component componentGuid="4a4c9ab0-e8bb-4666-b9c8-f33b847ed1f4" componentID="Audition.Mute" id="clipMute" name="Mute" powered="true">
            <parameter index="0" parameterValue="0"/>
            <parameter index="1" name="mute" parameterValue="0"/>
          </component>
          <component componentGuid="d83b3470-b33e-4449-9426-10d5b1a42c50" componentID="Audition.StereoPanner" id="clipPan" name="StereoPanner" powered="true">
            <parameter index="0" name="声像" parameterValue="0"/>
          </component>
          <fadeIn crossFadeLinkType="linkedSymmetric" endPoint="0" shape="19" startPoint="0" type="log"/>
          <fadeOut crossFadeLinkType="linkedSymmetric" endPoint="747703" shape="19" startPoint="747703" type="log"/>
          <editParameter parameterIndex="0" slotIndex="4294967281"/>
          <editParameter parameterIndex="0" slotIndex="4294967280"/>
          <channelMap>
            <channel index="0" sourceIndex="0"/>
            <channel index="1" sourceIndex="1"/>
          </channelMap>
        </audioClip>
        <audioClip clipAutoCrossfade="true" crossFadeHeadClipID="-1" crossFadeTailClipID="-1" endPoint="3234073" fileID="9" hue="-1" id="1" lockedInTime="false" looped="false" name="highway 48000 1" offline="false" select="false" sourceInPoint="0" sourceOutPoint="155537" startPoint="3078536" zOrder="1">
          <component componentGuid="be435057-815b-412b-9af0-3354dcfee15a" componentID="Audition.Fader" id="clipGain" name="volume" powered="true">
            <parameter index="0" name="volume" parameterValue="0.3159456551074981689453125"/>
            <parameter index="1" name="static gain" parameterValue="1"/>
          </component>
          <component componentGuid="2f6ffa80-aab9-4bef-84e5-7ff3684ff5cd" componentID="Audition.Mute" id="clipMute" name="Mute" powered="true">
            <parameter index="0" parameterValue="0"/>
            <parameter index="1" name="mute" parameterValue="0"/>
          </component>
          <component componentGuid="6156088e-1bda-4883-844a-51162be633c1" componentID="Audition.StereoPanner" id="clipPan" name="StereoPanner" powered="true">
            <parameter index="0" name="声像" parameterValue="0"/>
          </component>
          <fadeIn crossFadeLinkType="linkedSymmetric" endPoint="0" shape="19" startPoint="0" type="log"/>
          <fadeOut crossFadeLinkType="linkedSymmetric" endPoint="155537" shape="19" startPoint="155537" type="log"/>
          <clipStretch adaptiveWindowSize="37" pitchAdjustment="0" preserveFormants="true" stretchMode="realtime" stretchQuality="high" stretchRatio="0.424453292283165917186948945527547039091587066650390625" stretchType="solo" transientSensitivity="40"/>
          <editParameter parameterIndex="0" slotIndex="4294967281"/>
          <editParameter parameterIndex="0" slotIndex="4294967280"/>
          <channelMap>
            <channel index="0" sourceIndex="0"/>
            <channel index="1" sourceIndex="1"/>
          </channelMap>
        </audioClip>
        <audioClip clipAutoCrossfade="true" crossFadeHeadClipID="-1" crossFadeTailClipID="-1" endPoint="3782229" fileID="9" hue="-1" id="2" lockedInTime="false" looped="false" name="highway 48000 1" offline="false" select="false" sourceInPoint="155537" sourceOutPoint="317365" startPoint="3620401" zOrder="2">
          <component componentGuid="8027d185-22f6-455c-8290-fdb0f69a3ffe" componentID="Audition.Fader" id="clipGain" name="volume" powered="true">
            <parameter index="0" name="volume" parameterValue="0.3159456551074981689453125"/>
            <parameter index="1" name="static gain" parameterValue="1"/>
          </component>
          <component componentGuid="b9681e67-0a8b-4e3c-8a8a-45c92cc7034e" componentID="Audition.Mute" id="clipMute" name="Mute" powered="true">
            <parameter index="0" parameterValue="0"/>
            <parameter index="1" name="mute" parameterValue="0"/>
          </component>
          <component componentGuid="21e8025a-a2b7-4e45-af12-236beb40e81e" componentID="Audition.StereoPanner" id="clipPan" name="StereoPanner" powered="true">
            <parameter index="0" name="声像" parameterValue="0"/>
          </component>
          <fadeIn crossFadeLinkType="linkedSymmetric" endPoint="0" shape="19" startPoint="0" type="log"/>
          <fadeOut crossFadeLinkType="linkedSymmetric" endPoint="161828" shape="19" startPoint="161828" type="log"/>
          <clipStretch adaptiveWindowSize="37" pitchAdjustment="0" preserveFormants="true" stretchMode="realtime" stretchQuality="high" stretchRatio="0.424453292283165917186948945527547039091587066650390625" stretchType="solo" transientSensitivity="40"/>
          <editParameter parameterIndex="0" slotIndex="4294967281"/>
          <editParameter parameterIndex="0" slotIndex="4294967280"/>
          <channelMap>
            <channel index="0" sourceIndex="0"/>
            <channel index="1" sourceIndex="1"/>
          </channelMap>
        </audioClip>
      </audioTrack>
      <audioTrack automationLaneOpenState="false" id="10010" index="8" select="false" visible="true">
        <trackParameters trackHeight="52" trackHue="326" trackMinimized="false">
          <name>metro</name>
        </trackParameters>
        <trackAudioParameters audioChannelType="stereo" automationMode="1" monitoring="false" recordArmed="false" solo="false" soloSafe="false">
          <trackOutput outputID="10000" type="trackID"/>
          <trackInput inputID="1"/>
          <component componentGuid="ec7a1fdd-de9a-4569-b9ad-af3705ba051e" componentID="Audition.Fader" id="trackFader" name="volume" powered="true">
            <parameter index="0" name="volume" parameterValue="1"/>
            <parameter index="1" name="static gain" parameterValue="1"/>
          </component>
          <component componentGuid="22af30b8-e94f-43c8-b996-fb1af0d96927" componentID="Audition.Mute" id="trackMute" name="Mute" powered="true">
            <parameter index="0" parameterValue="0"/>
            <parameter index="1" name="mute" parameterValue="0"/>
          </component>
          <component componentGuid="e0da2c36-2b0b-4c5b-810f-23c0c6b83850" componentID="Audition.StereoPanner" id="trackPan" name="StereoPanner" powered="true">
            <parameter index="0" name="声像" parameterValue="0"/>
          </component>
          <component componentGuid="68995a12-d55f-4cd9-bab2-fafeeae98537" componentID="Audition.EQ" id="trackEQ" name="EQ" powered="false">
            <parameter index="0" name="下限频率" parameterValue="0.000834028352983295917510986328125"/>
            <parameter index="1" name="下限增益" parameterValue="0.5"/>
            <parameter index="2" name="上限频率" parameterValue="0.74979150295257568359375"/>
            <parameter index="3" name="上限频率增益" parameterValue="0.5"/>
            <parameter index="4" name="EQ 频段 1 中置频率" parameterValue="0.00125104258768260478973388671875"/>
            <parameter index="5" name="EQ 频段 1 Q" parameterValue="0.000199989997781813144683837890625"/>
            <parameter index="6" name="EQ 频段 1 增益" parameterValue="0.5"/>
            <parameter index="7" name="EQ 频段 1 启用" parameterValue="1"/>
            <parameter index="8" name="EQ 频段 2 中置频率" parameterValue="0.0075062550604343414306640625"/>
            <parameter index="9" name="EQ 频段 2 Q" parameterValue="0.000199989997781813144683837890625"/>
            <parameter index="10" name="EQ 频段 2 增益" parameterValue="0.5"/>
            <parameter index="11" name="EQ 频段 2 启用" parameterValue="1"/>
            <parameter index="12" name="EQ 频段 3 中置频率" parameterValue="0.0325271077454090118408203125"/>
            <parameter index="13" name="EQ 频段 3 Q" parameterValue="0.000199989997781813144683837890625"/>
            <parameter index="14" name="EQ 频段 3 增益" parameterValue="0.5"/>
            <parameter index="15" name="EQ 频段 3 启用" parameterValue="1"/>
            <parameter index="16" name="EQ 频段 4 中置频率" parameterValue="0.13261051476001739501953125"/>
            <parameter index="17" name="EQ 频段 4 Q" parameterValue="0.000199989997781813144683837890625"/>
            <parameter index="18" name="EQ 频段 4 增益" parameterValue="0.5"/>
            <parameter index="19" name="EQ 频段 4 启用" parameterValue="1"/>
            <parameter index="20" name="EQ 频段 5 中置频率" parameterValue="0.532944142818450927734375"/>
            <parameter index="21" name="EQ 频段 5 Q" parameterValue="0.000199989997781813144683837890625"/>
            <parameter index="22" name="EQ 频段 5 增益" parameterValue="0.5"/>
            <parameter index="23" name="EQ 频段 5 启用" parameterValue="1"/>
            <parameter index="24" name="增益" parameterValue="0.666666686534881591796875"/>
            <parameter index="25" name="恒定 Q" parameterValue="1"/>
            <parameter index="26" name="下限滤镜顺序" parameterValue="0"/>
            <parameter index="27" name="上限频率滤镜顺序" parameterValue="0"/>
            <parameter index="28" name="超静音模式" parameterValue="0"/>
            <parameter index="29" name="下限启用" parameterValue="1"/>
            <parameter index="30" name="上限频率启用" parameterValue="1"/>
            <parameter index="31" name="原始采样率" parameterValue="0.25"/>
            <parameter index="32" name="EQ 频段 1 频带宽" parameterValue="0.002499990165233612060546875"/>
            <parameter index="33" name="EQ 频段 2 频段宽度" parameterValue="0.0099999904632568359375"/>
            <parameter index="34" name="EQ 频段 3 频段宽度" parameterValue="0.0399999916553497314453125"/>
            <parameter index="35" name="EQ 频段 4 频段宽度" parameterValue="0.15999998152256011962890625"/>
            <parameter index="36" name="EQ 频段 5 频段宽度" parameterValue="0.63999998569488525390625"/>
            <parameter index="37" name="高通滤波启用" parameterValue="0"/>
            <parameter index="38" name="高通切除频率" parameterValue="0"/>
            <parameter index="39" name="高通斜率" parameterValue="0.4000000059604644775390625"/>
            <parameter index="40" name="低通滤波启用" parameterValue="0"/>
            <parameter index="41" name="低通切除频率" parameterValue="0.833194315433502197265625"/>
            <parameter index="42" name="低通斜率" parameterValue="0.4000000059604644775390625"/>
            <parameter index="43" name="不使用" parameterValue="0"/>
            <parameter index="44" name="下限图示范围" parameterValue="1"/>
          </component>
        </trackAudioParameters>
        <editParameter parameterIndex="0" slotIndex="4294967280"/>
        <audioClip clipAutoCrossfade="true" crossFadeHeadClipID="-1" crossFadeTailClipID="-1" endPoint="2971222" fileID="10" hue="-1" id="0" lockedInTime="false" looped="false" name="metro" offline="true" select="false" sourceInPoint="0" sourceOutPoint="318718" startPoint="2652504" zOrder="0">
          <component componentGuid="6a1ac4ad-da4b-450c-ab44-db04a6568b83" componentID="Audition.Fader" id="clipGain" name="volume" powered="true">
            <parameter index="0" name="volume" parameterValue="0.1188882291316986083984375">
              <parameterKeyframes enableSplines="false" readOnly="false">
                <parameterKeyframe sampleOffset="0" select="false" type="linear" value="0"/>
                <parameterKeyframe sampleOffset="84847" select="false" type="linear" value="0.25051391124725341796875"/>
              </parameterKeyframes>
            </parameter>
            <parameter index="1" name="static gain" parameterValue="1"/>
          </component>
          <component componentGuid="a716eff7-6b65-47d2-8c2c-ee23deadcb65" componentID="Audition.Mute" id="clipMute" name="Mute" powered="true">
            <parameter index="0" parameterValue="0"/>
            <parameter index="1" name="mute" parameterValue="0"/>
          </component>
          <component componentGuid="daba3edd-9459-4989-b9f0-bba13421bb6e" componentID="Audition.StereoPanner" id="clipPan" name="StereoPanner" powered="true">
            <parameter index="0" name="声像" parameterValue="0"/>
          </component>
          <fadeIn crossFadeLinkType="linkedSymmetric" endPoint="0" shape="19" startPoint="0" type="log"/>
          <fadeOut crossFadeLinkType="linkedSymmetric" endPoint="318718" shape="19" startPoint="318718" type="log"/>
          <editParameter parameterIndex="0" slotIndex="4294967281"/>
          <editParameter parameterIndex="0" slotIndex="4294967280"/>
          <channelMap>
            <channel index="0" sourceIndex="0"/>
          </channelMap>
        </audioClip>
        <audioClip clipAutoCrossfade="true" crossFadeHeadClipID="-1" crossFadeTailClipID="-1" endPoint="3289940" fileID="10" hue="-1" id="1" lockedInTime="false" looped="false" name="metro" offline="true" select="false" sourceInPoint="0" sourceOutPoint="318718" startPoint="2971222" zOrder="1">
          <component componentGuid="b37a461b-c21f-454f-b17e-6786c38f6676" componentID="Audition.Fader" id="clipGain" name="volume" powered="true">
            <parameter index="0" name="volume" parameterValue="0.1188882291316986083984375">
              <parameterKeyframes enableSplines="false" readOnly="false">
                <parameterKeyframe sampleOffset="84847" select="false" type="linear" value="0.25051391124725341796875"/>
              </parameterKeyframes>
            </parameter>
            <parameter index="1" name="static gain" parameterValue="1"/>
          </component>
          <component componentGuid="7dc2e0ba-1374-4b32-a364-61be2898d9ce" componentID="Audition.Mute" id="clipMute" name="Mute" powered="true">
            <parameter index="0" parameterValue="0"/>
            <parameter index="1" name="mute" parameterValue="0"/>
          </component>
          <component componentGuid="abde3bcc-3448-462d-9316-ec250880b5e1" componentID="Audition.StereoPanner" id="clipPan" name="StereoPanner" powered="true">
            <parameter index="0" name="声像" parameterValue="0"/>
          </component>
          <fadeIn crossFadeLinkType="linkedSymmetric" endPoint="0" shape="19" startPoint="0" type="log"/>
          <fadeOut crossFadeLinkType="linkedSymmetric" endPoint="318718" shape="19" startPoint="318718" type="log"/>
          <editParameter parameterIndex="0" slotIndex="4294967281"/>
          <editParameter parameterIndex="0" slotIndex="4294967280"/>
          <channelMap>
            <channel index="0" sourceIndex="0"/>
          </channelMap>
        </audioClip>
        <audioClip clipAutoCrossfade="true" crossFadeHeadClipID="-1" crossFadeTailClipID="-1" endPoint="3608658" fileID="10" hue="-1" id="2" lockedInTime="false" looped="false" name="metro" offline="true" select="false" sourceInPoint="0" sourceOutPoint="318718" startPoint="3289940" zOrder="2">
          <component componentGuid="7fb055b3-1745-4b1d-9b63-2334c0d02e80" componentID="Audition.Fader" id="clipGain" name="volume" powered="true">
            <parameter index="0" name="volume" parameterValue="0.1188882291316986083984375">
              <parameterKeyframes enableSplines="false" readOnly="false">
                <parameterKeyframe sampleOffset="84847" select="false" type="linear" value="0.25051391124725341796875"/>
              </parameterKeyframes>
            </parameter>
            <parameter index="1" name="static gain" parameterValue="1"/>
          </component>
          <component componentGuid="45460101-bc41-42d5-9814-a994fb099e2f" componentID="Audition.Mute" id="clipMute" name="Mute" powered="true">
            <parameter index="0" parameterValue="0"/>
            <parameter index="1" name="mute" parameterValue="0"/>
          </component>
          <component componentGuid="8f304d44-ccae-4eec-88fe-0e57d4c44517" componentID="Audition.StereoPanner" id="clipPan" name="StereoPanner" powered="true">
            <parameter index="0" name="声像" parameterValue="0"/>
          </component>
          <fadeIn crossFadeLinkType="linkedSymmetric" endPoint="0" shape="19" startPoint="0" type="log"/>
          <fadeOut crossFadeLinkType="linkedSymmetric" endPoint="318718" shape="19" startPoint="318718" type="log"/>
          <editParameter parameterIndex="0" slotIndex="4294967280"/>
          <editParameter parameterIndex="0" slotIndex="4294967281"/>
          <channelMap>
            <channel index="0" sourceIndex="0"/>
          </channelMap>
        </audioClip>
        <audioClip clipAutoCrossfade="true" crossFadeHeadClipID="-1" crossFadeTailClipID="-1" endPoint="3840000" fileID="10" hue="-1" id="3" lockedInTime="false" looped="false" name="metro" offline="true" select="false" sourceInPoint="0" sourceOutPoint="231342" startPoint="3608658" zOrder="3">
          <component componentGuid="daceeb1f-9bad-4874-b877-ab6cc9ecbb0e" componentID="Audition.Fader" id="clipGain" name="volume" powered="true">
            <parameter index="0" name="volume" parameterValue="1.0000000036274937255387218471014421083964407444000244140625e-15">
              <parameterKeyframes enableSplines="false" readOnly="false">
                <parameterKeyframe sampleOffset="65293" select="false" type="linear" value="0.25051391124725341796875"/>
                <parameterKeyframe sampleOffset="147446" select="false" type="linear" value="0"/>
              </parameterKeyframes>
            </parameter>
            <parameter index="1" name="static gain" parameterValue="1"/>
          </component>
          <component componentGuid="abc55a71-5263-49b5-b6cd-a0cd4d289492" componentID="Audition.Mute" id="clipMute" name="Mute" powered="true">
            <parameter index="0" parameterValue="0"/>
            <parameter index="1" name="mute" parameterValue="0"/>
          </component>
          <component componentGuid="ddb225bf-8039-4b3a-a3ba-9a76f8128996" componentID="Audition.StereoPanner" id="clipPan" name="StereoPanner" powered="true">
            <parameter index="0" name="声像" parameterValue="0"/>
          </component>
          <fadeIn crossFadeLinkType="linkedSymmetric" endPoint="0" shape="19" startPoint="0" type="log"/>
          <fadeOut crossFadeLinkType="linkedSymmetric" endPoint="231342" shape="19" startPoint="231342" type="log"/>
          <editParameter parameterIndex="0" slotIndex="4294967281"/>
          <editParameter parameterIndex="0" slotIndex="4294967280"/>
          <channelMap>
            <channel index="0" sourceIndex="0"/>
          </channelMap>
        </audioClip>
      </audioTrack>
      <audioTrack automationLaneOpenState="false" id="10011" index="9" select="false" visible="true">
        <trackParameters trackHeight="52" trackHue="130" trackMinimized="false">
          <name>beach</name>
        </trackParameters>
        <trackAudioParameters audioChannelType="stereo" automationMode="1" monitoring="false" recordArmed="false" solo="false" soloSafe="false">
          <trackOutput outputID="10000" type="trackID"/>
          <trackInput inputID="1"/>
          <component componentGuid="dcaebe68-ab2a-4aa4-863f-eb235426ceb2" componentID="Audition.Fader" id="trackFader" name="volume" powered="true">
            <parameter index="0" name="volume" parameterValue="1"/>
            <parameter index="1" name="static gain" parameterValue="1"/>
          </component>
          <component componentGuid="bf23677a-c47a-4690-b679-39159c8b760c" componentID="Audition.Mute" id="trackMute" name="Mute" powered="true">
            <parameter index="0" parameterValue="0"/>
            <parameter index="1" name="mute" parameterValue="0"/>
          </component>
          <component componentGuid="99d1ae05-3bf8-4161-8981-9a9b5f8de3da" componentID="Audition.StereoPanner" id="trackPan" name="StereoPanner" powered="true">
            <parameter index="0" name="声像" parameterValue="0"/>
          </component>
          <component componentGuid="9044fa48-77a1-4fd0-ac5c-bf7c92a7655c" componentID="Audition.EQ" id="trackEQ" name="EQ" powered="false">
            <parameter index="0" name="下限频率" parameterValue="0.000834028352983295917510986328125"/>
            <parameter index="1" name="下限增益" parameterValue="0.5"/>
            <parameter index="2" name="上限频率" parameterValue="0.74979150295257568359375"/>
            <parameter index="3" name="上限频率增益" parameterValue="0.5"/>
            <parameter index="4" name="EQ 频段 1 中置频率" parameterValue="0.00125104258768260478973388671875"/>
            <parameter index="5" name="EQ 频段 1 Q" parameterValue="0.000199989997781813144683837890625"/>
            <parameter index="6" name="EQ 频段 1 增益" parameterValue="0.5"/>
            <parameter index="7" name="EQ 频段 1 启用" parameterValue="1"/>
            <parameter index="8" name="EQ 频段 2 中置频率" parameterValue="0.0075062550604343414306640625"/>
            <parameter index="9" name="EQ 频段 2 Q" parameterValue="0.000199989997781813144683837890625"/>
            <parameter index="10" name="EQ 频段 2 增益" parameterValue="0.5"/>
            <parameter index="11" name="EQ 频段 2 启用" parameterValue="1"/>
            <parameter index="12" name="EQ 频段 3 中置频率" parameterValue="0.0325271077454090118408203125"/>
            <parameter index="13" name="EQ 频段 3 Q" parameterValue="0.000199989997781813144683837890625"/>
            <parameter index="14" name="EQ 频段 3 增益" parameterValue="0.5"/>
            <parameter index="15" name="EQ 频段 3 启用" parameterValue="1"/>
            <parameter index="16" name="EQ 频段 4 中置频率" parameterValue="0.13261051476001739501953125"/>
            <parameter index="17" name="EQ 频段 4 Q" parameterValue="0.000199989997781813144683837890625"/>
            <parameter index="18" name="EQ 频段 4 增益" parameterValue="0.5"/>
            <parameter index="19" name="EQ 频段 4 启用" parameterValue="1"/>
            <parameter index="20" name="EQ 频段 5 中置频率" parameterValue="0.532944142818450927734375"/>
            <parameter index="21" name="EQ 频段 5 Q" parameterValue="0.000199989997781813144683837890625"/>
            <parameter index="22" name="EQ 频段 5 增益" parameterValue="0.5"/>
            <parameter index="23" name="EQ 频段 5 启用" parameterValue="1"/>
            <parameter index="24" name="增益" parameterValue="0.666666686534881591796875"/>
            <parameter index="25" name="恒定 Q" parameterValue="1"/>
            <parameter index="26" name="下限滤镜顺序" parameterValue="0"/>
            <parameter index="27" name="上限频率滤镜顺序" parameterValue="0"/>
            <parameter index="28" name="超静音模式" parameterValue="0"/>
            <parameter index="29" name="下限启用" parameterValue="1"/>
            <parameter index="30" name="上限频率启用" parameterValue="1"/>
            <parameter index="31" name="原始采样率" parameterValue="0.25"/>
            <parameter index="32" name="EQ 频段 1 频带宽" parameterValue="0.002499990165233612060546875"/>
            <parameter index="33" name="EQ 频段 2 频段宽度" parameterValue="0.0099999904632568359375"/>
            <parameter index="34" name="EQ 频段 3 频段宽度" parameterValue="0.0399999916553497314453125"/>
            <parameter index="35" name="EQ 频段 4 频段宽度" parameterValue="0.15999998152256011962890625"/>
            <parameter index="36" name="EQ 频段 5 频段宽度" parameterValue="0.63999998569488525390625"/>
            <parameter index="37" name="高通滤波启用" parameterValue="0"/>
            <parameter index="38" name="高通切除频率" parameterValue="0"/>
            <parameter index="39" name="高通斜率" parameterValue="0.4000000059604644775390625"/>
            <parameter index="40" name="低通滤波启用" parameterValue="0"/>
            <parameter index="41" name="低通切除频率" parameterValue="0.833194315433502197265625"/>
            <parameter index="42" name="低通斜率" parameterValue="0.4000000059604644775390625"/>
            <parameter index="43" name="不使用" parameterValue="0"/>
            <parameter index="44" name="下限图示范围" parameterValue="1"/>
          </component>
        </trackAudioParameters>
        <editParameter parameterIndex="0" slotIndex="4294967280"/>
        <audioClip clipAutoCrossfade="true" crossFadeHeadClipID="-1" crossFadeTailClipID="-1" endPoint="5011380" fileID="11" hue="-1" id="0" lockedInTime="false" looped="false" name="beach-8 48000 1" offline="false" select="false" sourceInPoint="0" sourceOutPoint="1022944" startPoint="3988436" zOrder="0">
          <component componentGuid="b1b46088-4b26-48c2-80cd-fdaac59a3eed" componentID="Audition.Fader" id="clipGain" name="volume" powered="true">
            <parameter index="0" name="volume" parameterValue="1.0000000036274937255387218471014421083964407444000244140625e-15">
              <parameterKeyframes enableSplines="true" readOnly="false">
                <parameterKeyframe sampleOffset="0" select="false" type="linear" value="0"/>
                <parameterKeyframe sampleOffset="188663" select="false" type="linear" value="0.30172932147979736328125"/>
                <parameterKeyframe sampleOffset="393229" select="false" type="linear" value="0.64999997615814208984375"/>
                <parameterKeyframe sampleOffset="921141" select="false" type="linear" value="0.41976773738861083984375"/>
              </parameterKeyframes>
            </parameter>
            <parameter index="1" name="static gain" parameterValue="1"/>
          </component>
          <component componentGuid="b53ab3d5-8596-4f57-a394-ae93fe6fb7f0" componentID="Audition.Mute" id="clipMute" name="Mute" powered="true">
            <parameter index="0" parameterValue="0"/>
            <parameter index="1" name="mute" parameterValue="0"/>
          </component>
          <component componentGuid="069e2041-60b2-4e5a-8ae0-442c6b928388" componentID="Audition.StereoPanner" id="clipPan" name="StereoPanner" powered="true">
            <parameter index="0" name="声像" parameterValue="0"/>
          </component>
          <fadeIn crossFadeLinkType="linkedSymmetric" endPoint="0" shape="19" startPoint="0" type="log"/>
          <fadeOut crossFadeLinkType="linkedSymmetric" endPoint="1022944" shape="19" startPoint="1022944" type="log"/>
          <editParameter parameterIndex="0" slotIndex="4294967281"/>
          <editParameter parameterIndex="0" slotIndex="4294967280"/>
          <channelMap>
            <channel index="0" sourceIndex="0"/>
            <channel index="1" sourceIndex="1"/>
          </channelMap>
        </audioClip>
      </audioTrack>
      <audioTrack automationLaneOpenState="false" id="10012" index="10" select="false" visible="true">
        <trackParameters trackHeight="52" trackHue="240" trackMinimized="false">
          <name>water</name>
        </trackParameters>
        <trackAudioParameters audioChannelType="stereo" automationMode="1" monitoring="false" recordArmed="false" solo="false" soloSafe="false">
          <trackOutput outputID="10000" type="trackID"/>
          <trackInput inputID="1"/>
          <component componentGuid="eac58b2b-c4b8-403b-910e-c0f545d15486" componentID="Audition.Fader" id="trackFader" name="volume" powered="true">
            <parameter index="0" name="volume" parameterValue="1"/>
            <parameter index="1" name="static gain" parameterValue="1"/>
          </component>
          <component componentGuid="85280b39-1259-46e6-8db5-13a1b2d852ca" componentID="Audition.Mute" id="trackMute" name="Mute" powered="true">
            <parameter index="0" parameterValue="0"/>
            <parameter index="1" name="mute" parameterValue="0"/>
          </component>
          <component componentGuid="d6e972c6-87df-4e72-b912-6e6255b15179" componentID="Audition.StereoPanner" id="trackPan" name="StereoPanner" powered="true">
            <parameter index="0" name="声像" parameterValue="0"/>
          </component>
          <component componentGuid="1fa488c0-2bbb-4202-93f1-de14f50c2da5" componentID="Audition.EQ" id="trackEQ" name="EQ" powered="false">
            <parameter index="0" name="下限频率" parameterValue="0.000834028352983295917510986328125"/>
            <parameter index="1" name="下限增益" parameterValue="0.5"/>
            <parameter index="2" name="上限频率" parameterValue="0.74979150295257568359375"/>
            <parameter index="3" name="上限频率增益" parameterValue="0.5"/>
            <parameter index="4" name="EQ 频段 1 中置频率" parameterValue="0.00125104258768260478973388671875"/>
            <parameter index="5" name="EQ 频段 1 Q" parameterValue="0.000199989997781813144683837890625"/>
            <parameter index="6" name="EQ 频段 1 增益" parameterValue="0.5"/>
            <parameter index="7" name="EQ 频段 1 启用" parameterValue="1"/>
            <parameter index="8" name="EQ 频段 2 中置频率" parameterValue="0.0075062550604343414306640625"/>
            <parameter index="9" name="EQ 频段 2 Q" parameterValue="0.000199989997781813144683837890625"/>
            <parameter index="10" name="EQ 频段 2 增益" parameterValue="0.5"/>
            <parameter index="11" name="EQ 频段 2 启用" parameterValue="1"/>
            <parameter index="12" name="EQ 频段 3 中置频率" parameterValue="0.0325271077454090118408203125"/>
            <parameter index="13" name="EQ 频段 3 Q" parameterValue="0.000199989997781813144683837890625"/>
            <parameter index="14" name="EQ 频段 3 增益" parameterValue="0.5"/>
            <parameter index="15" name="EQ 频段 3 启用" parameterValue="1"/>
            <parameter index="16" name="EQ 频段 4 中置频率" parameterValue="0.13261051476001739501953125"/>
            <parameter index="17" name="EQ 频段 4 Q" parameterValue="0.000199989997781813144683837890625"/>
            <parameter index="18" name="EQ 频段 4 增益" parameterValue="0.5"/>
            <parameter index="19" name="EQ 频段 4 启用" parameterValue="1"/>
            <parameter index="20" name="EQ 频段 5 中置频率" parameterValue="0.532944142818450927734375"/>
            <parameter index="21" name="EQ 频段 5 Q" parameterValue="0.000199989997781813144683837890625"/>
            <parameter index="22" name="EQ 频段 5 增益" parameterValue="0.5"/>
            <parameter index="23" name="EQ 频段 5 启用" parameterValue="1"/>
            <parameter index="24" name="增益" parameterValue="0.666666686534881591796875"/>
            <parameter index="25" name="恒定 Q" parameterValue="1"/>
            <parameter index="26" name="下限滤镜顺序" parameterValue="0"/>
            <parameter index="27" name="上限频率滤镜顺序" parameterValue="0"/>
            <parameter index="28" name="超静音模式" parameterValue="0"/>
            <parameter index="29" name="下限启用" parameterValue="1"/>
            <parameter index="30" name="上限频率启用" parameterValue="1"/>
            <parameter index="31" name="原始采样率" parameterValue="0.25"/>
            <parameter index="32" name="EQ 频段 1 频带宽" parameterValue="0.002499990165233612060546875"/>
            <parameter index="33" name="EQ 频段 2 频段宽度" parameterValue="0.0099999904632568359375"/>
            <parameter index="34" name="EQ 频段 3 频段宽度" parameterValue="0.0399999916553497314453125"/>
            <parameter index="35" name="EQ 频段 4 频段宽度" parameterValue="0.15999998152256011962890625"/>
            <parameter index="36" name="EQ 频段 5 频段宽度" parameterValue="0.63999998569488525390625"/>
            <parameter index="37" name="高通滤波启用" parameterValue="0"/>
            <parameter index="38" name="高通切除频率" parameterValue="0"/>
            <parameter index="39" name="高通斜率" parameterValue="0.4000000059604644775390625"/>
            <parameter index="40" name="低通滤波启用" parameterValue="0"/>
            <parameter index="41" name="低通切除频率" parameterValue="0.833194315433502197265625"/>
            <parameter index="42" name="低通斜率" parameterValue="0.4000000059604644775390625"/>
            <parameter index="43" name="不使用" parameterValue="0"/>
            <parameter index="44" name="下限图示范围" parameterValue="1"/>
          </component>
        </trackAudioParameters>
        <effectsRack preFader="true">
          <component componentGuid="5d9a78bf-b7dc-4f52-a477-272ae8e21bd2" componentID="Audition.ComponentGroup" id="rackMix" powered="true">
            <parameter index="0" parameterValue="0"/>
            <parameter index="1" parameterValue="0"/>
          </component>
          <component componentGuid="4d34764c-a69d-48ac-8959-54bb98879304" id="rackInput" powered="true">
            <parameter index="0" parameterValue="1"/>
            <parameter index="1" parameterValue="0"/>
          </component>
          <component componentGuid="daf661c8-bf3b-4fb8-a84c-d984d9e273ea" id="rackOutput" powered="true">
            <parameter index="0" parameterValue="1"/>
            <parameter index="1" parameterValue="0"/>
          </component>
          <slot powered="true" slotIndex="0">
            <component componentGuid="96421625-145e-4746-a364-277667c99e6a" componentID="4f327230-f04c-4c34-9ea5-a998b4459221" editorHeight="522" editorLeft="616" editorTop="311" editorWidth="560" name="FFT 滤波器" presetName="水下 - 浅">
              <busConfig><![CDATA[{"in":[{"layout":[100,101],"name":"","type":0}],"out":[{"layout":[100,101],"name":"","type":0}]}]]></busConfig>
              <presetChunkData><![CDATA[AIA7RwAAgD/QP38+AADAPgAAAAC4xW06AACAPwAAAAAAAIA/AACgQA50WjoAAEA/iYiIPAAAQD91YqU9AAAAADMzaz8AAAAAAACAPwAAAAA=]]></presetChunkData>
            </component>
          </slot>
        </effectsRack>
        <editParameter parameterIndex="0" slotIndex="4294967280"/>
        <audioClip clipAutoCrossfade="true" crossFadeHeadClipID="-1" crossFadeTailClipID="-1" endPoint="5025345" fileID="12" hue="-1" id="0" lockedInTime="false" looped="false" name="running-into-pond 48000 1" offline="false" select="false" sourceInPoint="0" sourceOutPoint="282539" startPoint="4742806" zOrder="0">
          <component componentGuid="af96d34a-4168-4581-b7f5-83b67c7e3a11" componentID="Audition.Fader" id="clipGain" name="volume" powered="true">
            <parameter index="0" name="volume" parameterValue="1"/>
            <parameter index="1" name="static gain" parameterValue="1"/>
          </component>
          <component componentGuid="0704063b-a42a-4588-947a-3a8537606d1c" componentID="Audition.Mute" id="clipMute" name="Mute" powered="true">
            <parameter index="0" parameterValue="0"/>
            <parameter index="1" name="mute" parameterValue="0"/>
          </component>
          <component componentGuid="6d4d39b8-52d0-4132-877f-37c97424bd8c" componentID="Audition.StereoPanner" id="clipPan" name="StereoPanner" powered="true">
            <parameter index="0" name="声像" parameterValue="0"/>
          </component>
          <fadeIn crossFadeLinkType="linkedSymmetric" endPoint="0" shape="19" startPoint="0" type="log"/>
          <fadeOut crossFadeLinkType="linkedSymmetric" endPoint="282539" shape="19" startPoint="282539" type="log"/>
          <editParameter parameterIndex="0" slotIndex="4294967280"/>
          <editParameter parameterIndex="0" slotIndex="4294967281"/>
          <channelMap>
            <channel index="0" sourceIndex="0"/>
            <channel index="1" sourceIndex="1"/>
          </channelMap>
        </audioClip>
        <audioClip clipAutoCrossfade="true" crossFadeHeadClipID="-1" crossFadeTailClipID="-1" endPoint="6555842" fileID="12" hue="-1" id="1" lockedInTime="false" looped="false" name="running-into-pond 48000 1" offline="false" select="false" sourceInPoint="282539" sourceOutPoint="1813036" startPoint="5025345" zOrder="1">
          <component componentGuid="0c70c9a6-7f0d-4a67-899a-07770af21bad" componentID="Audition.Fader" id="clipGain" name="volume" powered="true">
            <parameter index="0" name="volume" parameterValue="5.623412609100341796875">
              <parameterKeyframes enableSplines="true" readOnly="false">
                <parameterKeyframe sampleOffset="282539" select="false" type="linear" value="0.858943283557891845703125"/>
                <parameterKeyframe sampleOffset="483517" select="false" type="linear" value="0.806361496448516845703125"/>
                <parameterKeyframe sampleOffset="633331" select="false" type="linear" value="1"/>
                <parameterKeyframe sampleOffset="1155286" select="false" type="linear" value="0.3499206602573394775390625"/>
              </parameterKeyframes>
            </parameter>
            <parameter index="1" name="static gain" parameterValue="1"/>
          </component>
          <component componentGuid="af56570c-8713-4efc-91f6-ba2d3eee220a" componentID="Audition.Mute" id="clipMute" name="Mute" powered="true">
            <parameter index="0" parameterValue="0"/>
            <parameter index="1" name="mute" parameterValue="0"/>
          </component>
          <component componentGuid="2e03e272-cd31-401e-ba50-5bab7ddb28d4" componentID="Audition.StereoPanner" id="clipPan" name="StereoPanner" powered="true">
            <parameter index="0" name="声像" parameterValue="0"/>
          </component>
          <fadeIn crossFadeLinkType="linkedSymmetric" endPoint="0" shape="19" startPoint="0" type="log"/>
          <fadeOut crossFadeLinkType="linkedSymmetric" endPoint="1530497" shape="19" startPoint="1530497" type="log"/>
          <editParameter parameterIndex="0" slotIndex="4294967281"/>
          <editParameter parameterIndex="0" slotIndex="4294967280"/>
          <channelMap>
            <channel index="0" sourceIndex="0"/>
            <channel index="1" sourceIndex="1"/>
          </channelMap>
        </audioClip>
      </audioTrack>
      <audioTrack automationLaneOpenState="false" id="10013" index="11" select="false" visible="true">
        <trackParameters trackHeight="52" trackHue="32" trackMinimized="false">
          <name>clock</name>
        </trackParameters>
        <trackAudioParameters audioChannelType="stereo" automationMode="1" monitoring="false" recordArmed="false" solo="false" soloSafe="false">
          <trackOutput outputID="10000" type="trackID"/>
          <trackInput inputID="1"/>
          <component componentGuid="f977e6aa-e129-4225-a543-f4add2075dbb" componentID="Audition.Fader" id="trackFader" name="volume" powered="true">
            <parameter index="0" name="volume" parameterValue="1"/>
            <parameter index="1" name="static gain" parameterValue="1"/>
          </component>
          <component componentGuid="644d468a-bff1-4fa9-9e72-19d4c80c4601" componentID="Audition.Mute" id="trackMute" name="Mute" powered="true">
            <parameter index="0" parameterValue="0"/>
            <parameter index="1" name="mute" parameterValue="0"/>
          </component>
          <component componentGuid="cdf5a31d-c772-4c0d-a9bf-833e562dba14" componentID="Audition.StereoPanner" id="trackPan" name="StereoPanner" powered="true">
            <parameter index="0" name="声像" parameterValue="0"/>
          </component>
          <component componentGuid="09643611-a5af-4747-8664-dd5132d351fe" componentID="Audition.EQ" id="trackEQ" name="EQ" powered="false">
            <parameter index="0" name="下限频率" parameterValue="0.000834028352983295917510986328125"/>
            <parameter index="1" name="下限增益" parameterValue="0.5"/>
            <parameter index="2" name="上限频率" parameterValue="0.74979150295257568359375"/>
            <parameter index="3" name="上限频率增益" parameterValue="0.5"/>
            <parameter index="4" name="EQ 频段 1 中置频率" parameterValue="0.00125104258768260478973388671875"/>
            <parameter index="5" name="EQ 频段 1 Q" parameterValue="0.000199989997781813144683837890625"/>
            <parameter index="6" name="EQ 频段 1 增益" parameterValue="0.5"/>
            <parameter index="7" name="EQ 频段 1 启用" parameterValue="1"/>
            <parameter index="8" name="EQ 频段 2 中置频率" parameterValue="0.0075062550604343414306640625"/>
            <parameter index="9" name="EQ 频段 2 Q" parameterValue="0.000199989997781813144683837890625"/>
            <parameter index="10" name="EQ 频段 2 增益" parameterValue="0.5"/>
            <parameter index="11" name="EQ 频段 2 启用" parameterValue="1"/>
            <parameter index="12" name="EQ 频段 3 中置频率" parameterValue="0.0325271077454090118408203125"/>
            <parameter index="13" name="EQ 频段 3 Q" parameterValue="0.000199989997781813144683837890625"/>
            <parameter index="14" name="EQ 频段 3 增益" parameterValue="0.5"/>
            <parameter index="15" name="EQ 频段 3 启用" parameterValue="1"/>
            <parameter index="16" name="EQ 频段 4 中置频率" parameterValue="0.13261051476001739501953125"/>
            <parameter index="17" name="EQ 频段 4 Q" parameterValue="0.000199989997781813144683837890625"/>
            <parameter index="18" name="EQ 频段 4 增益" parameterValue="0.5"/>
            <parameter index="19" name="EQ 频段 4 启用" parameterValue="1"/>
            <parameter index="20" name="EQ 频段 5 中置频率" parameterValue="0.532944142818450927734375"/>
            <parameter index="21" name="EQ 频段 5 Q" parameterValue="0.000199989997781813144683837890625"/>
            <parameter index="22" name="EQ 频段 5 增益" parameterValue="0.5"/>
            <parameter index="23" name="EQ 频段 5 启用" parameterValue="1"/>
            <parameter index="24" name="增益" parameterValue="0.666666686534881591796875"/>
            <parameter index="25" name="恒定 Q" parameterValue="1"/>
            <parameter index="26" name="下限滤镜顺序" parameterValue="0"/>
            <parameter index="27" name="上限频率滤镜顺序" parameterValue="0"/>
            <parameter index="28" name="超静音模式" parameterValue="0"/>
            <parameter index="29" name="下限启用" parameterValue="1"/>
            <parameter index="30" name="上限频率启用" parameterValue="1"/>
            <parameter index="31" name="原始采样率" parameterValue="0.25"/>
            <parameter index="32" name="EQ 频段 1 频带宽" parameterValue="0.002499990165233612060546875"/>
            <parameter index="33" name="EQ 频段 2 频段宽度" parameterValue="0.0099999904632568359375"/>
            <parameter index="34" name="EQ 频段 3 频段宽度" parameterValue="0.0399999916553497314453125"/>
            <parameter index="35" name="EQ 频段 4 频段宽度" parameterValue="0.15999998152256011962890625"/>
            <parameter index="36" name="EQ 频段 5 频段宽度" parameterValue="0.63999998569488525390625"/>
            <parameter index="37" name="高通滤波启用" parameterValue="0"/>
            <parameter index="38" name="高通切除频率" parameterValue="0"/>
            <parameter index="39" name="高通斜率" parameterValue="0.4000000059604644775390625"/>
            <parameter index="40" name="低通滤波启用" parameterValue="0"/>
            <parameter index="41" name="低通切除频率" parameterValue="0.833194315433502197265625"/>
            <parameter index="42" name="低通斜率" parameterValue="0.4000000059604644775390625"/>
            <parameter index="43" name="不使用" parameterValue="0"/>
            <parameter index="44" name="下限图示范围" parameterValue="1"/>
          </component>
        </trackAudioParameters>
        <effectsRack preFader="true">
          <component componentGuid="3dbe6eaa-8395-4180-a0ec-ab58a72c632b" componentID="Audition.ComponentGroup" id="rackMix" powered="true">
            <parameter index="0" parameterValue="0"/>
            <parameter index="1" parameterValue="0"/>
          </component>
          <component componentGuid="ddc79990-5577-4072-aad0-3fe5e21f9994" id="rackInput" powered="true">
            <parameter index="0" parameterValue="1"/>
            <parameter index="1" parameterValue="0"/>
          </component>
          <component componentGuid="8c0849d4-134b-4a72-9ea5-0f8fbe251197" id="rackOutput" powered="true">
            <parameter index="0" parameterValue="1"/>
            <parameter index="1" parameterValue="0"/>
          </component>
          <slot powered="true" slotIndex="0">
            <component componentGuid="8fbc457c-40f3-408e-b27d-5563f39bc0b7" componentID="bd198177-b706-49e5-9e7f-aea61553bc9b" editorHeight="372" editorLeft="675" editorTop="386" editorWidth="443" name="自动音调更正" presetName="（默认）">
              <busConfig><![CDATA[{"in":[{"layout":[100,101],"name":"","type":0}],"out":[{"layout":[100,101],"name":"","type":0}]}]]></busConfig>
              <parameter index="0" name="参考通道" parameterValue="0"/>
              <parameter index="1" name="FFT 大小" parameterValue="0.5"/>
              <parameter index="2" name="预览模式" parameterValue="0.75"/>
              <parameter index="3" name="A4 频率" parameterValue="0.5"/>
              <parameter index="4" name="调" parameterValue="1"/>
              <parameter index="5" name="比例" parameterValue="0"/>
              <parameter index="6" name="敏感度" parameterValue="0.526315987110137939453125"/>
              <parameter index="7" name="起奏" parameterValue="0.11999998986721038818359375"/>
              <parameter index="8" name="计量器" parameterValue="0.20000000298023223876953125"/>
            </component>
          </slot>
        </effectsRack>
        <editParameter parameterIndex="0" slotIndex="4294967280"/>
        <audioClip clipAutoCrossfade="true" crossFadeHeadClipID="-1" crossFadeTailClipID="-1" endPoint="6066757" fileID="13" hue="-1" id="0" lockedInTime="false" looped="false" name="oven-sound 48000 1" offline="false" select="false" sourceInPoint="0" sourceOutPoint="306757" startPoint="5760000" zOrder="0">
          <component componentGuid="e95978e1-4db8-41c2-9d57-76600fc50ef0" componentID="Audition.Fader" id="clipGain" name="volume" powered="true">
            <parameter index="0" name="volume" parameterValue="5.623412609100341796875">
              <parameterKeyframes enableSplines="true" readOnly="false">
                <parameterKeyframe sampleOffset="0" select="false" type="linear" value="0"/>
                <parameterKeyframe sampleOffset="78368" select="false" type="linear" value="0.317047119140625"/>
                <parameterKeyframe sampleOffset="202023" select="false" type="linear" value="0.4518636167049407958984375"/>
              </parameterKeyframes>
            </parameter>
            <parameter index="1" name="static gain" parameterValue="1"/>
          </component>
          <component componentGuid="8adfd7d2-c42a-4643-967f-5ed7020f7c5e" componentID="Audition.Mute" id="clipMute" name="Mute" powered="true">
            <parameter index="0" parameterValue="0"/>
            <parameter index="1" name="mute" parameterValue="0"/>
          </component>
          <component componentGuid="8163d0aa-1745-484f-9b5a-ffb5901bb922" componentID="Audition.StereoPanner" id="clipPan" name="StereoPanner" powered="true">
            <parameter index="0" name="声像" parameterValue="0"/>
          </component>
          <fadeIn crossFadeLinkType="linkedSymmetric" endPoint="0" shape="19" startPoint="0" type="log"/>
          <fadeOut crossFadeLinkType="linkedSymmetric" endPoint="306757" shape="19" startPoint="306757" type="log"/>
          <clipStretch adaptiveWindowSize="37" pitchAdjustment="0" preserveFormants="true" stretchMode="realtime" stretchQuality="high" stretchRatio="1.2781541666666667023122272439650259912014007568359375" stretchType="solo" transientSensitivity="40"/>
          <editParameter parameterIndex="0" slotIndex="4294967281"/>
          <editParameter parameterIndex="0" slotIndex="4294967280"/>
          <channelMap>
            <channel index="0" sourceIndex="0"/>
            <channel index="1" sourceIndex="1"/>
          </channelMap>
        </audioClip>
        <audioClip clipAutoCrossfade="true" crossFadeHeadClipID="-1" crossFadeTailClipID="-1" endPoint="6356843" fileID="13" hue="-1" id="1" lockedInTime="false" looped="false" name="oven-sound 48000 1" offline="false" select="false" sourceInPoint="16671" sourceOutPoint="306757" startPoint="6066757" zOrder="1">
          <component componentGuid="0b994c8d-14d4-4b3f-bfb2-094f4ee4288a" componentID="Audition.Fader" id="clipGain" name="volume" powered="true">
            <parameter index="0" name="volume" parameterValue="5.623412609100341796875">
              <parameterKeyframes enableSplines="true" readOnly="false">
                <parameterKeyframe sampleOffset="0" select="false" type="linear" value="0.45107829570770263671875"/>
                <parameterKeyframe sampleOffset="17910" select="false" type="linear" value="0.64999997615814208984375"/>
                <parameterKeyframe sampleOffset="141019" select="true" type="linear" value="0.8745381832122802734375"/>
                <parameterKeyframe sampleOffset="253870" select="false" type="linear" value="0.948677599430084228515625"/>
              </parameterKeyframes>
            </parameter>
            <parameter index="1" name="static gain" parameterValue="1"/>
          </component>
          <component componentGuid="e790edea-ff15-4386-a344-03a26f26dfed" componentID="Audition.Mute" id="clipMute" name="Mute" powered="true">
            <parameter index="0" parameterValue="0"/>
            <parameter index="1" name="mute" parameterValue="0"/>
          </component>
          <component componentGuid="8591758e-9d8a-4507-9319-cd77639fba78" componentID="Audition.StereoPanner" id="clipPan" name="StereoPanner" powered="true">
            <parameter index="0" name="声像" parameterValue="0"/>
          </component>
          <fadeIn crossFadeLinkType="linkedSymmetric" endPoint="0" shape="19" startPoint="0" type="log"/>
          <fadeOut crossFadeLinkType="linkedSymmetric" endPoint="290086" shape="19" startPoint="290086" type="log"/>
          <clipStretch adaptiveWindowSize="37" pitchAdjustment="0" preserveFormants="true" stretchMode="realtime" stretchQuality="high" stretchRatio="1.2781541666666667023122272439650259912014007568359375" stretchType="solo" transientSensitivity="40"/>
          <editParameter parameterIndex="0" slotIndex="4294967281"/>
          <editParameter parameterIndex="0" slotIndex="4294967280"/>
          <channelMap>
            <channel index="0" sourceIndex="0"/>
            <channel index="1" sourceIndex="1"/>
          </channelMap>
        </audioClip>
      </audioTrack>
      <audioTrack automationLaneOpenState="false" id="10014" index="12" select="false" visible="true">
        <trackParameters trackHeight="52" trackHue="160" trackMinimized="false">
          <name>轨道 6</name>
        </trackParameters>
        <trackAudioParameters audioChannelType="stereo" automationMode="1" monitoring="false" recordArmed="false" solo="false" soloSafe="false">
          <trackOutput outputID="10000" type="trackID"/>
          <trackInput inputID="1"/>
          <component componentGuid="cbfffe9e-8a62-4a0e-8810-620d298d46ff" componentID="Audition.Fader" id="trackFader" name="volume" powered="true">
            <parameter index="0" name="volume" parameterValue="1"/>
            <parameter index="1" name="static gain" parameterValue="1"/>
          </component>
          <component componentGuid="d2c989d3-b948-42f9-8314-723ced841035" componentID="Audition.Mute" id="trackMute" name="Mute" powered="true">
            <parameter index="0" parameterValue="0"/>
            <parameter index="1" name="mute" parameterValue="0"/>
          </component>
          <component componentGuid="5ca0676c-aba6-440a-9b73-8a3be8f5e322" componentID="Audition.StereoPanner" id="trackPan" name="StereoPanner" powered="true">
            <parameter index="0" name="声像" parameterValue="0"/>
          </component>
          <component componentGuid="991a2316-0fcd-45f4-aeca-20c7480a07ca" componentID="Audition.EQ" id="trackEQ" name="EQ" powered="false">
            <parameter index="0" name="下限频率" parameterValue="0.000834028352983295917510986328125"/>
            <parameter index="1" name="下限增益" parameterValue="0.5"/>
            <parameter index="2" name="上限频率" parameterValue="0.74979150295257568359375"/>
            <parameter index="3" name="上限频率增益" parameterValue="0.5"/>
            <parameter index="4" name="EQ 频段 1 中置频率" parameterValue="0.00125104258768260478973388671875"/>
            <parameter index="5" name="EQ 频段 1 Q" parameterValue="0.000199989997781813144683837890625"/>
            <parameter index="6" name="EQ 频段 1 增益" parameterValue="0.5"/>
            <parameter index="7" name="EQ 频段 1 启用" parameterValue="1"/>
            <parameter index="8" name="EQ 频段 2 中置频率" parameterValue="0.0075062550604343414306640625"/>
            <parameter index="9" name="EQ 频段 2 Q" parameterValue="0.000199989997781813144683837890625"/>
            <parameter index="10" name="EQ 频段 2 增益" parameterValue="0.5"/>
            <parameter index="11" name="EQ 频段 2 启用" parameterValue="1"/>
            <parameter index="12" name="EQ 频段 3 中置频率" parameterValue="0.0325271077454090118408203125"/>
            <parameter index="13" name="EQ 频段 3 Q" parameterValue="0.000199989997781813144683837890625"/>
            <parameter index="14" name="EQ 频段 3 增益" parameterValue="0.5"/>
            <parameter index="15" name="EQ 频段 3 启用" parameterValue="1"/>
            <parameter index="16" name="EQ 频段 4 中置频率" parameterValue="0.13261051476001739501953125"/>
            <parameter index="17" name="EQ 频段 4 Q" parameterValue="0.000199989997781813144683837890625"/>
            <parameter index="18" name="EQ 频段 4 增益" parameterValue="0.5"/>
            <parameter index="19" name="EQ 频段 4 启用" parameterValue="1"/>
            <parameter index="20" name="EQ 频段 5 中置频率" parameterValue="0.532944142818450927734375"/>
            <parameter index="21" name="EQ 频段 5 Q" parameterValue="0.000199989997781813144683837890625"/>
            <parameter index="22" name="EQ 频段 5 增益" parameterValue="0.5"/>
            <parameter index="23" name="EQ 频段 5 启用" parameterValue="1"/>
            <parameter index="24" name="增益" parameterValue="0.666666686534881591796875"/>
            <parameter index="25" name="恒定 Q" parameterValue="1"/>
            <parameter index="26" name="下限滤镜顺序" parameterValue="0"/>
            <parameter index="27" name="上限频率滤镜顺序" parameterValue="0"/>
            <parameter index="28" name="超静音模式" parameterValue="0"/>
            <parameter index="29" name="下限启用" parameterValue="1"/>
            <parameter index="30" name="上限频率启用" parameterValue="1"/>
            <parameter index="31" name="原始采样率" parameterValue="0.25"/>
            <parameter index="32" name="EQ 频段 1 频带宽" parameterValue="0.002499990165233612060546875"/>
            <parameter index="33" name="EQ 频段 2 频段宽度" parameterValue="0.0099999904632568359375"/>
            <parameter index="34" name="EQ 频段 3 频段宽度" parameterValue="0.0399999916553497314453125"/>
            <parameter index="35" name="EQ 频段 4 频段宽度" parameterValue="0.15999998152256011962890625"/>
            <parameter index="36" name="EQ 频段 5 频段宽度" parameterValue="0.63999998569488525390625"/>
            <parameter index="37" name="高通滤波启用" parameterValue="0"/>
            <parameter index="38" name="高通切除频率" parameterValue="0"/>
            <parameter index="39" name="高通斜率" parameterValue="0.4000000059604644775390625"/>
            <parameter index="40" name="低通滤波启用" parameterValue="0"/>
            <parameter index="41" name="低通切除频率" parameterValue="0.833194315433502197265625"/>
            <parameter index="42" name="低通斜率" parameterValue="0.4000000059604644775390625"/>
            <parameter index="43" name="不使用" parameterValue="0"/>
            <parameter index="44" name="下限图示范围" parameterValue="1"/>
          </component>
        </trackAudioParameters>
        <editParameter parameterIndex="0" slotIndex="4294967280"/>
        <audioClip clipAutoCrossfade="true" crossFadeHeadClipID="-1" crossFadeTailClipID="-1" endPoint="6555842" fileID="14" hue="-1" id="0" lockedInTime="false" looped="false" name="monster-swallows 48000 1" offline="false" select="false" sourceInPoint="0" sourceOutPoint="198999" startPoint="6356843" zOrder="0">
          <component componentGuid="962b819c-9200-4010-bf4d-00277f95041a" componentID="Audition.Fader" id="clipGain" name="volume" powered="true">
            <parameter index="0" name="volume" parameterValue="1"/>
            <parameter index="1" name="static gain" parameterValue="1"/>
          </component>
          <component componentGuid="ff1d12a9-7923-4124-82fd-ab8e13dc89c9" componentID="Audition.Mute" id="clipMute" name="Mute" powered="true">
            <parameter index="0" parameterValue="0"/>
            <parameter index="1" name="mute" parameterValue="0"/>
          </component>
          <component componentGuid="5b2344f4-4db8-45d5-81d8-0628639d0948" componentID="Audition.StereoPanner" id="clipPan" name="StereoPanner" powered="true">
            <parameter index="0" name="声像" parameterValue="0"/>
          </component>
          <fadeIn crossFadeLinkType="linkedSymmetric" endPoint="0" shape="19" startPoint="0" type="log"/>
          <fadeOut crossFadeLinkType="linkedSymmetric" endPoint="198999" shape="19" startPoint="198999" type="log"/>
          <editParameter parameterIndex="0" slotIndex="4294967280"/>
          <editParameter parameterIndex="0" slotIndex="4294967281"/>
          <channelMap>
            <channel index="0" sourceIndex="0"/>
            <channel index="1" sourceIndex="1"/>
          </channelMap>
        </audioClip>
      </audioTrack>
      <masterTrack automationLaneOpenState="false" id="10000" index="13" select="false" visible="true">
        <trackParameters trackHeight="52" trackHue="-1" trackMinimized="false">
          <name>混合</name>
        </trackParameters>
        <trackAudioParameters audioChannelType="stereo" automationMode="1" monitoring="false" recordArmed="false" solo="false" soloSafe="true">
          <trackOutput outputID="1" type="hardwareOutput"/>
          <trackInput inputID="-1"/>
          <component componentGuid="a83a3c22-03e4-4ed0-a00a-cc3f5b7f882a" componentID="Audition.Fader" id="trackFader" name="volume" powered="true">
            <parameter index="0" name="volume" parameterValue="1"/>
            <parameter index="1" name="static gain" parameterValue="1"/>
          </component>
          <component componentGuid="b0487146-3085-43e2-b361-93a05bb79b89" componentID="Audition.Mute" id="trackMute" name="Mute" powered="true">
            <parameter index="0" parameterValue="0"/>
            <parameter index="1" name="mute" parameterValue="0"/>
          </component>
          <component componentGuid="b113bf7f-77b7-4551-9ffa-10431918a5f9" componentID="Audition.StereoPanner" id="trackPan" name="StereoPanner" powered="true">
            <parameter index="0" name="声像" parameterValue="0"/>
          </component>
          <component componentGuid="dabdaa21-730a-4c95-9f22-2ef01cf6e1c9" componentID="Audition.EQ" id="trackEQ" name="EQ" powered="false">
            <parameter index="0" name="下限频率" parameterValue="0.000834028352983295917510986328125"/>
            <parameter index="1" name="下限增益" parameterValue="0.5"/>
            <parameter index="2" name="上限频率" parameterValue="0.74979150295257568359375"/>
            <parameter index="3" name="上限频率增益" parameterValue="0.5"/>
            <parameter index="4" name="EQ 频段 1 中置频率" parameterValue="0.00125104258768260478973388671875"/>
            <parameter index="5" name="EQ 频段 1 Q" parameterValue="0.000199989997781813144683837890625"/>
            <parameter index="6" name="EQ 频段 1 增益" parameterValue="0.5"/>
            <parameter index="7" name="EQ 频段 1 启用" parameterValue="1"/>
            <parameter index="8" name="EQ 频段 2 中置频率" parameterValue="0.0075062550604343414306640625"/>
            <parameter index="9" name="EQ 频段 2 Q" parameterValue="0.000199989997781813144683837890625"/>
            <parameter index="10" name="EQ 频段 2 增益" parameterValue="0.5"/>
            <parameter index="11" name="EQ 频段 2 启用" parameterValue="1"/>
            <parameter index="12" name="EQ 频段 3 中置频率" parameterValue="0.0325271077454090118408203125"/>
            <parameter index="13" name="EQ 频段 3 Q" parameterValue="0.000199989997781813144683837890625"/>
            <parameter index="14" name="EQ 频段 3 增益" parameterValue="0.5"/>
            <parameter index="15" name="EQ 频段 3 启用" parameterValue="1"/>
            <parameter index="16" name="EQ 频段 4 中置频率" parameterValue="0.13261051476001739501953125"/>
            <parameter index="17" name="EQ 频段 4 Q" parameterValue="0.000199989997781813144683837890625"/>
            <parameter index="18" name="EQ 频段 4 增益" parameterValue="0.5"/>
            <parameter index="19" name="EQ 频段 4 启用" parameterValue="1"/>
            <parameter index="20" name="EQ 频段 5 中置频率" parameterValue="0.532944142818450927734375"/>
            <parameter index="21" name="EQ 频段 5 Q" parameterValue="0.000199989997781813144683837890625"/>
            <parameter index="22" name="EQ 频段 5 增益" parameterValue="0.5"/>
            <parameter index="23" name="EQ 频段 5 启用" parameterValue="1"/>
            <parameter index="24" name="增益" parameterValue="0.666666686534881591796875"/>
            <parameter index="25" name="恒定 Q" parameterValue="1"/>
            <parameter index="26" name="下限滤镜顺序" parameterValue="0"/>
            <parameter index="27" name="上限频率滤镜顺序" parameterValue="0"/>
            <parameter index="28" name="超静音模式" parameterValue="0"/>
            <parameter index="29" name="下限启用" parameterValue="1"/>
            <parameter index="30" name="上限频率启用" parameterValue="1"/>
            <parameter index="31" name="原始采样率" parameterValue="0.25"/>
            <parameter index="32" name="EQ 频段 1 频带宽" parameterValue="0.002499990165233612060546875"/>
            <parameter index="33" name="EQ 频段 2 频段宽度" parameterValue="0.0099999904632568359375"/>
            <parameter index="34" name="EQ 频段 3 频段宽度" parameterValue="0.0399999916553497314453125"/>
            <parameter index="35" name="EQ 频段 4 频段宽度" parameterValue="0.15999998152256011962890625"/>
            <parameter index="36" name="EQ 频段 5 频段宽度" parameterValue="0.63999998569488525390625"/>
            <parameter index="37" name="高通滤波启用" parameterValue="0"/>
            <parameter index="38" name="高通切除频率" parameterValue="0"/>
            <parameter index="39" name="高通斜率" parameterValue="0.4000000059604644775390625"/>
            <parameter index="40" name="低通滤波启用" parameterValue="0"/>
            <parameter index="41" name="低通切除频率" parameterValue="0.833194315433502197265625"/>
            <parameter index="42" name="低通斜率" parameterValue="0.4000000059604644775390625"/>
            <parameter index="43" name="不使用" parameterValue="0"/>
            <parameter index="44" name="下限图示范围" parameterValue="1"/>
          </component>
        </trackAudioParameters>
        <editParameter parameterIndex="0" slotIndex="4294967280"/>
      </masterTrack>
    </tracks>
    <sessionState ctiPosition="4538471" smpteStart="0">
      <selectionState selectionDuration="0" selectionStart="4538471"/>
      <viewState horizontalViewDuration="5365692" horizontalViewStart="2691238" trackControlsWidth="224" verticalScrollOffset="0"/>
      <timeFormatState beatsPerBar="4" beatsPerMinute="120" customFrameRate="12" linkToDefaultTimeSettings="true" noteLength="4" subdivisions="16" timeCodeDropFrame="false" timeCodeFrameRate="30" timeCodeNTSC="false" timeFormat="timeFormatDecimal"/>
      <mixingOptionState defaultPanModeLogarithmic="false" panPower="-3" playOverlappingClips="false"/>
    </sessionState>
    <xmpMetadata><![CDATA[<?xpacket begin="﻿" id="W5M0MpCehiHzreSzNTczkc9d"?>
<x:xmpmeta xmlns:x="adobe:ns:meta/" x:xmptk="Adobe XMP Core 6.0-c006 79.164753, 2021/02/15-11:52:13        ">
   <rdf:RDF xmlns:rdf="http://www.w3.org/1999/02/22-rdf-syntax-ns#">
      <rdf:Description rdf:about=""
            xmlns:xmp="http://ns.adobe.com/xap/1.0/"
            xmlns:xmpMM="http://ns.adobe.com/xap/1.0/mm/"
            xmlns:stEvt="http://ns.adobe.com/xap/1.0/sType/ResourceEvent#"
            xmlns:stRef="http://ns.adobe.com/xap/1.0/sType/ResourceRef#"
            xmlns:dc="http://purl.org/dc/elements/1.1/"
            xmlns:xmpDM="http://ns.adobe.com/xmp/1.0/DynamicMedia/">
         <xmp:CreatorTool>Adobe Audition 14.2 (Macintosh)</xmp:CreatorTool>
         <xmp:CreateDate>2021-09-15T22:19:32-04:00</xmp:CreateDate>
         <xmp:MetadataDate>2021-09-17T17:17:30-04:00</xmp:MetadataDate>
         <xmp:ModifyDate>2021-09-17T17:17:30-04:00</xmp:ModifyDate>
         <xmpMM:InstanceID>xmp.iid:060783f5-2990-461f-b299-a521b6e669c0</xmpMM:InstanceID>
         <xmpMM:DocumentID>xmp.did:060783f5-2990-461f-b299-a521b6e669c0</xmpMM:DocumentID>
         <xmpMM:OriginalDocumentID>xmp.did:35c21f98-59b6-4425-a293-6025402d43f3</xmpMM:OriginalDocumentID>
         <xmpMM:History>
            <rdf:Seq>
               <rdf:li rdf:parseType="Resource">
                  <stEvt:action>saved</stEvt:action>
                  <stEvt:instanceID>xmp.iid:35c21f98-59b6-4425-a293-6025402d43f3</stEvt:instanceID>
                  <stEvt:when>2021-09-15T22:19:32-04:00</stEvt:when>
                  <stEvt:softwareAgent>Adobe Audition 14.2 (Macintosh)</stEvt:softwareAgent>
                  <stEvt:changed>/metadata</stEvt:changed>
               </rdf:li>
               <rdf:li rdf:parseType="Resource">
                  <stEvt:action>saved</stEvt:action>
                  <stEvt:instanceID>xmp.iid:5d15fd38-e9d1-4a30-8415-ab90810c2e18</stEvt:instanceID>
                  <stEvt:when>2021-09-15T23:12:13-04:00</stEvt:when>
                  <stEvt:softwareAgent>Adobe Audition 14.2 (Macintosh)</stEvt:softwareAgent>
                  <stEvt:changed>/metadata</stEvt:changed>
               </rdf:li>
               <rdf:li rdf:parseType="Resource">
                  <stEvt:action>saved</stEvt:action>
                  <stEvt:instanceID>xmp.iid:e1645b29-f652-4afa-a37c-3e8c434d7b27</stEvt:instanceID>
                  <stEvt:when>2021-09-15T23:12:13-04:00</stEvt:when>
                  <stEvt:softwareAgent>Adobe Audition 14.2 (Macintosh)</stEvt:softwareAgent>
                  <stEvt:changed>/</stEvt:changed>
               </rdf:li>
               <rdf:li rdf:parseType="Resource">
                  <stEvt:action>saved</stEvt:action>
                  <stEvt:instanceID>xmp.iid:e94c76e1-bf91-4cb6-a939-736e16fcb828</stEvt:instanceID>
                  <stEvt:when>2021-09-16T23:26:16-04:00</stEvt:when>
                  <stEvt:softwareAgent>Adobe Audition 14.2 (Macintosh)</stEvt:softwareAgent>
                  <stEvt:changed>/metadata</stEvt:changed>
               </rdf:li>
               <rdf:li rdf:parseType="Resource">
                  <stEvt:action>saved</stEvt:action>
                  <stEvt:instanceID>xmp.iid:a45c4eef-775a-497b-ab06-e91759ccf7f3</stEvt:instanceID>
                  <stEvt:when>2021-09-16T23:26:16-04:00</stEvt:when>
                  <stEvt:softwareAgent>Adobe Audition 14.2 (Macintosh)</stEvt:softwareAgent>
                  <stEvt:changed>/</stEvt:changed>
               </rdf:li>
               <rdf:li rdf:parseType="Resource">
                  <stEvt:action>saved</stEvt:action>
                  <stEvt:instanceID>xmp.iid:0b7c7a6a-9458-4154-a2f6-f04eb89a7223</stEvt:instanceID>
                  <stEvt:when>2021-09-16T23:36:17-04:00</stEvt:when>
                  <stEvt:softwareAgent>Adobe Audition 14.2 (Macintosh)</stEvt:softwareAgent>
                  <stEvt:changed>/metadata</stEvt:changed>
               </rdf:li>
               <rdf:li rdf:parseType="Resource">
                  <stEvt:action>saved</stEvt:action>
                  <stEvt:instanceID>xmp.iid:3e668aed-c92d-482c-a18e-54f259ae081f</stEvt:instanceID>
                  <stEvt:when>2021-09-16T23:36:17-04:00</stEvt:when>
                  <stEvt:softwareAgent>Adobe Audition 14.2 (Macintosh)</stEvt:softwareAgent>
                  <stEvt:changed>/</stEvt:changed>
               </rdf:li>
               <rdf:li rdf:parseType="Resource">
                  <stEvt:action>saved</stEvt:action>
                  <stEvt:instanceID>xmp.iid:4948bcd9-ad6e-4bf4-a2d7-42dad4cb18fc</stEvt:instanceID>
                  <stEvt:when>2021-09-16T23:51:35-04:00</stEvt:when>
                  <stEvt:softwareAgent>Adobe Audition 14.2 (Macintosh)</stEvt:softwareAgent>
                  <stEvt:changed>/metadata</stEvt:changed>
               </rdf:li>
               <rdf:li rdf:parseType="Resource">
                  <stEvt:action>saved</stEvt:action>
                  <stEvt:instanceID>xmp.iid:a4eb29d5-4d12-45e0-aa48-f76986413217</stEvt:instanceID>
                  <stEvt:when>2021-09-16T23:51:35-04:00</stEvt:when>
                  <stEvt:softwareAgent>Adobe Audition 14.2 (Macintosh)</stEvt:softwareAgent>
                  <stEvt:changed>/</stEvt:changed>
               </rdf:li>
               <rdf:li rdf:parseType="Resource">
                  <stEvt:action>saved</stEvt:action>
                  <stEvt:instanceID>xmp.iid:ed2b823b-c818-4618-a11c-330d3f406897</stEvt:instanceID>
                  <stEvt:when>2021-09-16T23:58:45-04:00</stEvt:when>
                  <stEvt:softwareAgent>Adobe Audition 14.2 (Macintosh)</stEvt:softwareAgent>
                  <stEvt:changed>/metadata</stEvt:changed>
               </rdf:li>
               <rdf:li rdf:parseType="Resource">
                  <stEvt:action>saved</stEvt:action>
                  <stEvt:instanceID>xmp.iid:1c69f7ce-04d6-47d8-b535-01d48160c993</stEvt:instanceID>
                  <stEvt:when>2021-09-16T23:58:45-04:00</stEvt:when>
                  <stEvt:softwareAgent>Adobe Audition 14.2 (Macintosh)</stEvt:softwareAgent>
                  <stEvt:changed>/</stEvt:changed>
               </rdf:li>
               <rdf:li rdf:parseType="Resource">
                  <stEvt:action>saved</stEvt:action>
                  <stEvt:instanceID>xmp.iid:14c7ef34-91d8-4ef9-89c9-084c9ac15fa0</stEvt:instanceID>
                  <stEvt:when>2021-09-17T00:00:44-04:00</stEvt:when>
                  <stEvt:softwareAgent>Adobe Audition 14.2 (Macintosh)</stEvt:softwareAgent>
                  <stEvt:changed>/metadata</stEvt:changed>
               </rdf:li>
               <rdf:li rdf:parseType="Resource">
                  <stEvt:action>saved</stEvt:action>
                  <stEvt:instanceID>xmp.iid:086dee5d-7f93-4e2c-a719-67c49dabf1df</stEvt:instanceID>
                  <stEvt:when>2021-09-17T00:00:44-04:00</stEvt:when>
                  <stEvt:softwareAgent>Adobe Audition 14.2 (Macintosh)</stEvt:softwareAgent>
                  <stEvt:changed>/</stEvt:changed>
               </rdf:li>
               <rdf:li rdf:parseType="Resource">
                  <stEvt:action>saved</stEvt:action>
                  <stEvt:instanceID>xmp.iid:0dd2e688-03c2-4ac7-8c44-8a925c850a7b</stEvt:instanceID>
                  <stEvt:when>2021-09-17T00:02:14-04:00</stEvt:when>
                  <stEvt:softwareAgent>Adobe Audition 14.2 (Macintosh)</stEvt:softwareAgent>
                  <stEvt:changed>/metadata</stEvt:changed>
               </rdf:li>
               <rdf:li rdf:parseType="Resource">
                  <stEvt:action>saved</stEvt:action>
                  <stEvt:instanceID>xmp.iid:897b9226-eede-4d45-ab34-7e5a9e8130ad</stEvt:instanceID>
                  <stEvt:when>2021-09-17T00:02:14-04:00</stEvt:when>
                  <stEvt:softwareAgent>Adobe Audition 14.2 (Macintosh)</stEvt:softwareAgent>
                  <stEvt:changed>/</stEvt:changed>
               </rdf:li>
               <rdf:li rdf:parseType="Resource">
                  <stEvt:action>saved</stEvt:action>
                  <stEvt:instanceID>xmp.iid:f2671de8-ecac-4e01-b28d-e29b8c03c607</stEvt:instanceID>
                  <stEvt:when>2021-09-17T00:08:47-04:00</stEvt:when>
                  <stEvt:softwareAgent>Adobe Audition 14.2 (Macintosh)</stEvt:softwareAgent>
                  <stEvt:changed>/metadata</stEvt:changed>
               </rdf:li>
               <rdf:li rdf:parseType="Resource">
                  <stEvt:action>saved</stEvt:action>
                  <stEvt:instanceID>xmp.iid:d0e5f0e2-3d58-45f2-945f-1bb37d7d0b6b</stEvt:instanceID>
                  <stEvt:when>2021-09-17T00:08:47-04:00</stEvt:when>
                  <stEvt:softwareAgent>Adobe Audition 14.2 (Macintosh)</stEvt:softwareAgent>
                  <stEvt:changed>/</stEvt:changed>
               </rdf:li>
               <rdf:li rdf:parseType="Resource">
                  <stEvt:action>saved</stEvt:action>
                  <stEvt:instanceID>xmp.iid:bceff6bd-1b14-41da-83da-a18024fff9c8</stEvt:instanceID>
                  <stEvt:when>2021-09-17T00:09:47-04:00</stEvt:when>
                  <stEvt:softwareAgent>Adobe Audition 14.2 (Macintosh)</stEvt:softwareAgent>
                  <stEvt:changed>/metadata</stEvt:changed>
               </rdf:li>
               <rdf:li rdf:parseType="Resource">
                  <stEvt:action>saved</stEvt:action>
                  <stEvt:instanceID>xmp.iid:b1d009e5-cc6e-43e2-a077-b1bd31291a6a</stEvt:instanceID>
                  <stEvt:when>2021-09-17T00:09:47-04:00</stEvt:when>
                  <stEvt:softwareAgent>Adobe Audition 14.2 (Macintosh)</stEvt:softwareAgent>
                  <stEvt:changed>/</stEvt:changed>
               </rdf:li>
               <rdf:li rdf:parseType="Resource">
                  <stEvt:action>saved</stEvt:action>
                  <stEvt:instanceID>xmp.iid:ced1f6c9-d43a-4749-8c88-cdec28ad27a2</stEvt:instanceID>
                  <stEvt:when>2021-09-17T17:17:30-04:00</stEvt:when>
                  <stEvt:softwareAgent>Adobe Audition 14.2 (Macintosh)</stEvt:softwareAgent>
                  <stEvt:changed>/metadata</stEvt:changed>
               </rdf:li>
               <rdf:li rdf:parseType="Resource">
                  <stEvt:action>saved</stEvt:action>
                  <stEvt:instanceID>xmp.iid:060783f5-2990-461f-b299-a521b6e669c0</stEvt:instanceID>
                  <stEvt:when>2021-09-17T17:17:30-04:00</stEvt:when>
                  <stEvt:softwareAgent>Adobe Audition 14.2 (Macintosh)</stEvt:softwareAgent>
                  <stEvt:changed>/</stEvt:changed>
               </rdf:li>
            </rdf:Seq>
         </xmpMM:History>
         <xmpMM:DerivedFrom rdf:parseType="Resource">
            <stRef:instanceID>xmp.iid:ced1f6c9-d43a-4749-8c88-cdec28ad27a2</stRef:instanceID>
            <stRef:documentID>xmp.did:35c21f98-59b6-4425-a293-6025402d43f3</stRef:documentID>
            <stRef:originalDocumentID>xmp.did:35c21f98-59b6-4425-a293-6025402d43f3</stRef:originalDocumentID>
         </xmpMM:DerivedFrom>
         <dc:format>application/xml</dc:format>
         <xmpDM:Tracks>
            <rdf:Bag>
               <rdf:li rdf:parseType="Resource">
                  <xmpDM:trackName>CuePoint Markers</xmpDM:trackName>
                  <xmpDM:trackType>Cue</xmpDM:trackType>
                  <xmpDM:frameRate>f48000</xmpDM:frameRate>
               </rdf:li>
               <rdf:li rdf:parseType="Resource">
                  <xmpDM:trackName>CD Track Markers</xmpDM:trackName>
                  <xmpDM:trackType>Track</xmpDM:trackType>
                  <xmpDM:frameRate>f48000</xmpDM:frameRate>
               </rdf:li>
               <rdf:li rdf:parseType="Resource">
                  <xmpDM:trackName>Subclip Markers</xmpDM:trackName>
                  <xmpDM:trackType>InOut</xmpDM:trackType>
                  <xmpDM:frameRate>f48000</xmpDM:frameRate>
               </rdf:li>
            </rdf:Bag>
         </xmpDM:Tracks>
      </rdf:Description>
   </rdf:RDF>
</x:xmpmeta>
                                                                                                    
                                                                                                    
                                                                                                    
                                                                                                    
                                                                                                    
                                                                                                    
                                                                                                    
                                                                                                    
                                                                                                    
                                                                                                    
                                                                                                    
                                                                                                    
                                                                                                    
                                                                                                    
                                                                                                    
                                                                                                    
                                                                                                    
                                                                                                    
                                                                                                    
                                                                                                    
                           
<?xpacket end="w"?>]]></xmpMetadata>
    <clipGroups/>
    <metronome enabled="false" pattern="downBeat subdivision subdivision subdivision " soundSet="sticks">
      <metronomeTrack automationLaneOpenState="false" id="40000" index="0" select="false" visible="false">
        <trackParameters trackHeight="77" trackHue="-1" trackMinimized="false">
          <name>节拍器</name>
        </trackParameters>
        <trackAudioParameters audioChannelType="mono" automationMode="1" monitoring="false" recordArmed="false" solo="false" soloSafe="true">
          <trackOutput outputID="10000" type="trackID"/>
          <trackInput inputID="-1"/>
          <component componentGuid="0c2176a2-3aeb-434e-9c81-caea5c0ecc83" componentID="Audition.Fader" id="trackFader" name="volume" powered="true">
            <parameter index="0" name="volume" parameterValue="0.501187264919281005859375"/>
            <parameter index="1" name="static gain" parameterValue="1"/>
          </component>
          <component componentGuid="1249e07a-f9c3-4495-9aee-1a460fe1274c" componentID="Audition.Mute" id="trackMute" name="Mute" powered="true">
            <parameter index="0" parameterValue="0"/>
            <parameter index="1" name="mute" parameterValue="0"/>
          </component>
          <component componentGuid="62d79d9a-2a94-40e5-b441-9d7d326362c9" componentID="Audition.StereoPanner" id="trackPan" name="StereoPanner" powered="true">
            <parameter index="0" name="声像" parameterValue="0"/>
          </component>
          <component componentGuid="0b749fc3-88e8-4396-8879-7d0b15331e43" componentID="Audition.EQ" id="trackEQ" name="EQ" powered="false">
            <parameter index="0" name="下限频率" parameterValue="0.000834028352983295917510986328125"/>
            <parameter index="1" name="下限增益" parameterValue="0.5"/>
            <parameter index="2" name="上限频率" parameterValue="0.74979150295257568359375"/>
            <parameter index="3" name="上限频率增益" parameterValue="0.5"/>
            <parameter index="4" name="EQ 频段 1 中置频率" parameterValue="0.00125104258768260478973388671875"/>
            <parameter index="5" name="EQ 频段 1 Q" parameterValue="0.000199989997781813144683837890625"/>
            <parameter index="6" name="EQ 频段 1 增益" parameterValue="0.5"/>
            <parameter index="7" name="EQ 频段 1 启用" parameterValue="1"/>
            <parameter index="8" name="EQ 频段 2 中置频率" parameterValue="0.0075062550604343414306640625"/>
            <parameter index="9" name="EQ 频段 2 Q" parameterValue="0.000199989997781813144683837890625"/>
            <parameter index="10" name="EQ 频段 2 增益" parameterValue="0.5"/>
            <parameter index="11" name="EQ 频段 2 启用" parameterValue="1"/>
            <parameter index="12" name="EQ 频段 3 中置频率" parameterValue="0.0325271077454090118408203125"/>
            <parameter index="13" name="EQ 频段 3 Q" parameterValue="0.000199989997781813144683837890625"/>
            <parameter index="14" name="EQ 频段 3 增益" parameterValue="0.5"/>
            <parameter index="15" name="EQ 频段 3 启用" parameterValue="1"/>
            <parameter index="16" name="EQ 频段 4 中置频率" parameterValue="0.13261051476001739501953125"/>
            <parameter index="17" name="EQ 频段 4 Q" parameterValue="0.000199989997781813144683837890625"/>
            <parameter index="18" name="EQ 频段 4 增益" parameterValue="0.5"/>
            <parameter index="19" name="EQ 频段 4 启用" parameterValue="1"/>
            <parameter index="20" name="EQ 频段 5 中置频率" parameterValue="0.532944142818450927734375"/>
            <parameter index="21" name="EQ 频段 5 Q" parameterValue="0.000199989997781813144683837890625"/>
            <parameter index="22" name="EQ 频段 5 增益" parameterValue="0.5"/>
            <parameter index="23" name="EQ 频段 5 启用" parameterValue="1"/>
            <parameter index="24" name="增益" parameterValue="0.666666686534881591796875"/>
            <parameter index="25" name="恒定 Q" parameterValue="1"/>
            <parameter index="26" name="下限滤镜顺序" parameterValue="0"/>
            <parameter index="27" name="上限频率滤镜顺序" parameterValue="0"/>
            <parameter index="28" name="超静音模式" parameterValue="0"/>
            <parameter index="29" name="下限启用" parameterValue="1"/>
            <parameter index="30" name="上限频率启用" parameterValue="1"/>
            <parameter index="31" name="原始采样率" parameterValue="0.25"/>
            <parameter index="32" name="EQ 频段 1 频带宽" parameterValue="0.002499990165233612060546875"/>
            <parameter index="33" name="EQ 频段 2 频段宽度" parameterValue="0.0099999904632568359375"/>
            <parameter index="34" name="EQ 频段 3 频段宽度" parameterValue="0.0399999916553497314453125"/>
            <parameter index="35" name="EQ 频段 4 频段宽度" parameterValue="0.15999998152256011962890625"/>
            <parameter index="36" name="EQ 频段 5 频段宽度" parameterValue="0.63999998569488525390625"/>
            <parameter index="37" name="高通滤波启用" parameterValue="0"/>
            <parameter index="38" name="高通切除频率" parameterValue="0"/>
            <parameter index="39" name="高通斜率" parameterValue="0.4000000059604644775390625"/>
            <parameter index="40" name="低通滤波启用" parameterValue="0"/>
            <parameter index="41" name="低通切除频率" parameterValue="0.833194315433502197265625"/>
            <parameter index="42" name="低通斜率" parameterValue="0.4000000059604644775390625"/>
            <parameter index="43" name="不使用" parameterValue="0"/>
            <parameter index="44" name="下限图示范围" parameterValue="1"/>
          </component>
        </trackAudioParameters>
        <editParameter parameterIndex="0" slotIndex="4294967280"/>
      </metronomeTrack>
    </metronome>
    <properties>
      <property key="EssentialSoundConfigurations">[{"Guid":"a8b40e3e-13e7-4c1f-b382-96058f1f691d","Name":"$$$/app/Presets/DefaultPresetName=(Default)","PresetData":{"ModeID":"ambience","Models":{"model_ducking":{},"model_loudness":{"DefaultLoudness":{"type":"float","value":-30},"LoudnessStandard":{"type":"std::uint32_t","value":0},"MaxLoudness":{"type":"float","value":-12},"MinLoudness":{"type":"float","value":-42}},"model_soundeffects":{"ReverbPresets":{"type":"tree::any","value":{"$$$/app/Presets/EssentialSound/ReverbPreset/LargeRoomAmbience=Large Room Ambience":{"type":"array::float","value":[0.051507499068975449,0.32432401180267334,0.29292899370193481,0.30000001192092896,0.20000000298023224,0,0.14285700023174286,0.40000000596046448,0.5,0.69999998807907104,0.30000001192092896,0.25125628709793091,0.03125]},"$$$/app/Presets/EssentialSound/ReverbPreset/OutsideAmbience=Outside Ambience":{"type":"array::float","value":[0.091708503663539886,0.043893899768590927,1,0.5,0.20000000298023224,0.80000001192092896,0.18367299437522888,1,0.5,0,0.80000001192092896,0.25125628709793091,0.03125]},"$$$/app/Presets/EssentialSound/ReverbPreset/RoomAmbience=Room Ambience":{"type":"array::float","value":[0.057788901031017303,0.44944900274276733,0.49494898319244385,0.89999997615814209,0.10000000149011612,0.15000000596046448,0.081632703542709351,0.40000000596046448,0.5,0.80000001192092896,0.20000000298023224,0.25125628709793091,0.03125]},"$$$/app/Presets/EssentialSound/ReverbPreset/WindEffect=Wind Effect":{"type":"array::float","value":[0.19597999751567841,0.6896899938583374,0.69696998596191406,0.25,0.5,0.5,0.23469400405883789,0.51999998092651367,0.5,0.75,0.25,0.25125628709793091,0.03125]}}}},"model_stereowidth":{},"model_volume":{"MaxGain":{"type":"float","value":15},"MinGain":{"type":"float","value":-60}}},"Version":1},"Type":"1c19ca71-c24c-49cd-8dd5-2cc46018507a","Version":1},{"Guid":"58dc27a8-6a2a-480c-bd0c-4b45fff346a6","Name":"$$$/app/Presets/DefaultPresetName=(Default)","PresetData":{"ModeID":"dialog","Models":{"model_clarity":{"EQPresets":{"type":"tree::any","value":{"$$$/app/Presets/EssentialSound/EQPreset/BackgroundVoice=Background Voice":{"type":"array::float","value":[0.12099699676036835,0.5,0.39240506291389465,0,0.5,0.5,0.5,0.5,0.5,0.47827938199043274,0.45772689580917358,0.45778733491897583,0.47946760058403015,0.5,0]},"$$$/app/Presets/EssentialSound/EQPreset/Intercom=Intercom":{"type":"array::float","value":[0.19432899355888367,0.5,1,0,0.071499988436698914,0.071499988436698914,0.071499988436698914,0.40238627791404724,0.48571401834487915,0.5,0.55155748128890991,0.59602576494216919,0.22246670722961426,0.071499988436698914,0]},"$$$/app/Presets/EssentialSound/EQPreset/LockedInTheTrunk=Locked in the Trunk":{"type":"array::float","value":[0.12099699676036835,0.5,0.79746836423873901,0,0.5,0.5,0.5,0.5,0.5,0.32846158742904663,0.15721426904201508,0.15721426904201508,0.15721426904201508,0.15721426904201508,0]},"$$$/app/Presets/EssentialSound/EQPreset/OldRadio=Old Radio":{"type":"array::float","value":[0.12099699676036835,0.5,0.79746836423873901,0,0.15721426904201508,0.15721426904201508,0.15721426904201508,0.28442040085792542,0.48315632343292236,0.36498492956161499,0.52853888273239136,0.43511500954627991,0.27154684066772461,0.15721426904201508,0]},"$$$/app/Presets/EssentialSound/EQPreset/OnTheTelephone=On the Telephone":{"type":"array::float","value":[0.12099699676036835,0.5,0.39240506291389465,0,0.32864287495613098,0.32864287495613098,0.32864287495613098,0.32864287495613098,0.48571401834487915,0.53071397542953491,0.53071397542953491,0.48357096314430237,0.32864287495613098,0.32864287495613098,0]},"$$$/app/Presets/EssentialSound/EQPreset/OutsideOfTheRoom=Outside of the Room":{"type":"array::float","value":[0.12099699676036835,0.5,0.79746836423873901,0,0.42539370059967041,0.47865453362464905,0.5,0.5,0.48571401834487915,0.40073278546333313,0.25656309723854065,0.15721426904201508,0.15721426904201508,0.15721426904201508,0]},"$$$/app/Presets/EssentialSound/EQPreset/PodcastVoice=Podcast Voice":{"type":"array::float","value":[0.12099699676036835,0.5,0.39240506291389465,0,0.5,0.5,0.5,0.51789408922195435,0.50770342350006104,0.5,0.51789408922195435,0.528114914894104,0.5102812647819519,0.5,0]},"$$$/app/Presets/EssentialSound/EQPreset/SubtleBoostFemale=Subtle Boost (Female)":{"type":"array::float","value":[0.096553400158882141,0.5,0.29113924503326416,0,0.5,0.5,0.5,0.5,0.5,0.51933407783508301,0.54642897844314575,0.52706766128540039,0.5,0.5,0]},"$$$/app/Presets/EssentialSound/EQPreset/SubtleBoostMale=Subtle Boost (Male)":{"type":"array::float","value":[0.096553400158882141,0.5,0.29113924503326416,0,0.5,0.5,0.5,0.5,0.5,0.5135338306427002,0.54642897844314575,0.51933407783508301,0.5,0.5,0]},"$$$/app/Presets/EssentialSound/EQPreset/ThatPublicRadioSound=That Public Radio Sound":{"type":"array::float","value":[0.12099699676036835,0.5,0.79746836423873901,0,0.15721426904201508,0.15721426904201508,0.15721426904201508,0.36334344744682312,0.49468311667442322,0.5,0.5,0.5,0.5,0.5,0]},"$$$/app/Presets/EssentialSound/EQPreset/VocalPresence=Vocal Presence":{"type":"array::float","value":[0.096553400158882141,0.5,0.32489451766014099,0,0.3572143018245697,0.3572143018245697,0.46428570151329041,0.47857141494750977,0.4763694703578949,0.49570354819297791,0.55924957990646362,0.56523394584655762,0.50859290361404419,0.46992480754852295,0]}}}},"model_loudness":{"DefaultLoudness":{"type":"float","value":-23},"LoudnessStandard":{"type":"std::uint32_t","value":0},"MaxLoudness":{"type":"float","value":-12},"MinLoudness":{"type":"float","value":-42}},"model_restoration":{"ReduceNoiseMaxSetting":{"type":"array::float","value":[1,0,0,0,0]},"ReduceNoiseMinSetting":{"type":"array::float","value":[0,0,0,0,0]},"ReduceReverbMaxSetting":{"type":"array::float","value":[1,0,1,0,0]},"ReduceReverbMinSetting":{"type":"array::float","value":[0,0,1,0,0]},"ReduceRumbleMaxSetting":{"type":"array::float","value":[1,0.061583578586578369,0.375,0,0,0.00083333335351198912,1,0,1,0.0390625,0.00083408987848088145,0,0.0041666668839752674,0.00022554649331141263,0.0046875001862645149,0.75,0.0052083334885537624,0.75,1,0.75,0.0040520834736526012,0.75,0.0042629167437553406,0.00022554649331141263,0.0064883334562182426,0.00022554649331141263,0.006866666954010725,0.75,0.0071704164147377014,0.00022554649331141263,0.01041458360850811,0.00022554649331141263,0.010900000110268593,0.75,0.011407917365431786,0.00022554649331141263,0.015606249682605267,0.00022554649331141263,0.016333334147930145,0.75,0.017094582319259644,0.00022554649331141263,0.026243748143315315,0.00022554649331141263,0.0274666678160429,0.75,0.028746666386723518,0.00022554649331141263,0.041658751666545868,0.00022554649331141263,0.043600000441074371,0.75,0.045631669461727142,0.00022554649331141263,0.062424581497907639,0.00022554649331141263,0.065333336591720581,0.75,0.068377502262592316,0.00022554649331141263,0.10497540980577469,0.00022554649331141263,0.1098666712641716,0.75,0.11498583108186722,0.00022554649331141263,0.16663584113121033,0.00022554649331141263,0.17440000176429749,0.75,0.18252624571323395,0.00022554649331141263,0.91874998807907104,0.00022554649331141263,1,0.00022554649331141263,0,0,0,0,0,0,0,0,0,0,0,0,0,0,0,0,0,0,0,0,0,0,0,0,0,0,0,0,0,0,0,0,0,0,0,0,0,0,0,0,0,0,0,0,0,0,0,0,0,0,0,0,0,0,0,0,0,0,0,0,0,0,0,0,0,0,0,0,0,0,0,0,0,0,0,0,0,0,0,0,0,0,0,0,0,0,0,0,0,0,0,0,0,0,0,0,0,0,0,0,0,0,0,0,0,0,0,0,0,0,0,0,0,0,0,0,0,0,0,0,0,0,0,0,0,0,0,0,0,0,0,0,0,0,0,0,0,0,0,0,0,0,0,0,0,0,0,0,0,0,0,0,0,0,0,0,0,0,0,0,0,0,0,0,0,0,0,0,0,0,0,0,0,0,0,0,0,0,0,0,0,0,0,0,0,0,0,0,0,0]},"ReduceRumbleMinSetting":{"type":"array::float","value":[1,0.061583578586578369,0.375,0,0,0.00083333335351198912,1,0,1,0.0390625,0.00083408987848088145,0.75,0.0041666668839752674,0.75,0.0046875001862645149,0.75,0.0052083334885537624,0.75,1,0.75,0.91874998807907104,0.61237245798110962,1,0.61237245798110962,0,0,0,0,0,0,0,0,0,0,0,0,0,0,0,0,0,0,0,0,0,0,0,0,0,0,0,0,0,0,0,0,0,0,0,0,0,0,0,0,0,0,0,0,0,0,0,0,0,0,0,0,0,0,0,0,0,0,0,0,0,0,0,0,0,0,0,0,0,0,0,0,0,0,0,0,0,0,0,0,0,0,0,0,0,0,0,0,0,0,0,0,0,0,0,0,0,0,0,0,0,0,0,0,0,0,0,0,0,0,0,0,0,0,0,0,0,0,0,0,0,0,0,0,0,0,0,0,0,0,0,0,0,0,0,0,0,0,0,0,0,0,0,0,0,0,0,0,0,0,0,0,0,0,0,0,0,0,0,0,0,0,0,0,0,0,0,0,0,0,0,0,0,0,0,0,0,0,0,0,0,0,0,0,0,0,0,0,0,0,0,0,0,0,0,0,0,0,0,0,0,0,0,0,0,0,0,0,0,0,0,0,0,0,0,0,0,0,0,0,0,0,0,0,0,0,0,0,0,0,0,0,0,0,0,0,0,0,0,0,0,0]},"ReduceSibilanceMaxSetting":{"type":"array::float","value":[0.5,0.19983997941017151,0.18367347121238708,0.26086956262588501,0.52702701091766357,0,1,0,0,0,0,0.75,1,1,0.40000000596046448]},"ReduceSibilanceMinSetting":{"type":"array::float","value":[0.875,0.19983997941017151,0.18367347121238708,0.19130434095859528,0.25675675272941589,0,1,0,0,0,0,0.75,1,1,0.40000000596046448]}},"model_soundeffects":{"ReverbPresets":{"type":"tree::any","value":{"$$$/app/Presets/EssentialSound/ReverbPreset/Auditorium=Auditorium":{"type":"array::float","value":[0.013047545216977596,0.15895412862300873,1,0.89999997615814209,0,0.52007436752319336,0.41663265228271484,0.46000000834465027,0.5,0.73000001907348633,0.15999999642372131,0.75376886129379272,0.03125]},"$$$/app/Presets/EssentialSound/ReverbPreset/Church=Church":{"type":"array::float","value":[0.032663315534591675,0.39939939975738525,0.79797977209091187,0.25,0.5,0.5,0.2297959178686142,0.72000002861022949,0.5,0.62999999523162842,0.87999999523162842,0.25125628709793091,0.03125]},"$$$/app/Presets/EssentialSound/ReverbPreset/LargeReflectiveRoom=Large Reflective Room":{"type":"array::float","value":[0.0074449013918638229,0.098988421261310577,0.79890537261962891,0.89999997615814209,0.10000000149011612,0.40110713243484497,0.060284845530986786,0.27522978186607361,0.5,0.73000001907348633,0.31999999284744263,0.25125628709793091,0.03125]},"$$$/app/Presets/EssentialSound/ReverbPreset/OutsideTheClub=Outside the Club":{"type":"array::float","value":[0.020615793764591217,0.050136558711528778,0.69696998596191406,0.25,0.094355784356594086,0.22242647409439087,0.1071428582072258,0.2800000011920929,0.5,0.73000001907348633,0.46000000834465027,0.25125628709793091,0.03125]},"$$$/app/Presets/EssentialSound/ReverbPreset/SmallDryRoom=Small Dry Room":{"type":"array::float","value":[0.24623115360736847,0.69975000619888306,0.29292899370193481,0.40000000596046448,0.20000000298023224,0.40000000596046448,0.039285715669393539,0.10000000149011612,0.5,1,0.5,0.75376886129379272,0.03125]},"$$$/app/Presets/EssentialSound/ReverbPreset/ThickenVoice=Thicken Voice":{"type":"array::float","value":[0.19597999751567841,0.23931467533111572,0.69696998596191406,0.25,0.5,0.53999996185302734,0.020408162847161293,0.20945435762405396,0.5,1,0.34999999403953552,0.25125628709793091,0.03125]},"$$$/app/Presets/EssentialSound/ReverbPreset/WarmRoom=Warm Room":{"type":"array::float","value":[0.020100502297282219,0.074074074625968933,0.49494948983192444,0.40000000596046448,0.74960309267044067,0.40000000596046448,0.1239795908331871,0.67000001668930054,0.5,0.85000002384185791,0.56000000238418579,0.25125628709793091,0.03125]},"$$$/app/Presets/EssentialSound/ReverbPreset/WarmVoice=Warm Voice":{"type":"array::float","value":[0.19597989320755005,0.89989989995956421,0,0.40000000596046448,0.20000000298023224,0.40000000596046448,0.10204081982374191,0.090000003576278687,0.5,1,0.30000001192092896,0.25125628709793091,0.03125]}}}},"model_volume":{"MaxGain":{"type":"float","value":15},"MinGain":{"type":"float","value":-60}}},"Version":2},"Type":"1c19ca71-c24c-49cd-8dd5-2cc46018507a","Version":1},{"Guid":"353811fa-4179-435e-8e5e-23028ba15a7a","Name":"$$$/app/Presets/DefaultPresetName=(Default)","PresetData":{"ModeID":"generic","Models":{"model_loudness":{"DefaultLoudness":{"type":"float","value":-24},"LoudnessStandard":{"type":"std::uint32_t","value":0},"MaxLoudness":{"type":"float","value":-12},"MinLoudness":{"type":"float","value":-42}},"model_volume":{"MaxGain":{"type":"float","value":15},"MinGain":{"type":"float","value":-60}}},"Version":1},"Type":"1c19ca71-c24c-49cd-8dd5-2cc46018507a","Version":1},{"Guid":"31ba96a6-5d3e-4d89-b1e1-1dbe3c055d0c","Name":"$$$/app/Presets/DefaultPresetName=(Default)","PresetData":{"ModeID":"music","Models":{"model_ducking":{},"model_duration":{},"model_loudness":{"DefaultLoudness":{"type":"float","value":-25},"LoudnessStandard":{"type":"std::uint32_t","value":0},"MaxLoudness":{"type":"float","value":-12},"MinLoudness":{"type":"float","value":-42}},"model_volume":{"MaxGain":{"type":"float","value":15},"MinGain":{"type":"float","value":-60}}},"Version":1},"Type":"1c19ca71-c24c-49cd-8dd5-2cc46018507a","Version":1},{"Guid":"cea63332-1adc-44a9-a6eb-5490f965859b","Name":"$$$/app/Presets/DefaultPresetName=(Default)","PresetData":{"ModeID":"sfx","Models":{"model_loudness":{"DefaultLoudness":{"type":"float","value":-21},"LoudnessStandard":{"type":"std::uint32_t","value":0},"MaxLoudness":{"type":"float","value":-12},"MinLoudness":{"type":"float","value":-42}},"model_pan":{},"model_soundeffects":{"ReverbPresets":{"type":"tree::any","value":{"$$$/app/Presets/EssentialSound/ReverbPreset/HeavyReverb=Heavy Reverb":{"type":"array::float","value":[0.13316600024700165,0.29929900169372559,1,0.95999997854232788,0.85000002384185791,0.5,0.51530599594116211,0.30000001192092896,0.5,0.5,0.5,0.25125628709793091,0.0625]},"$$$/app/Presets/EssentialSound/ReverbPreset/LightReverb=Light Reverb":{"type":"array::float","value":[0.095477402210235596,0.29929900169372559,0.090909101068973541,1,1,0.80000001192092896,0.22449000179767609,0.60000002384185791,0.5,0.69999998807907104,0.30000001192092896,0.25125628709793091,0.0625]},"$$$/app/Presets/EssentialSound/ReverbPreset/OutsideReverb=Outside Reverb":{"type":"array::float","value":[0.091708503663539886,0.043893899768590927,1,0.5,0.20000000298023224,0.80000001192092896,0.18367299437522888,1,0.5,0,0.80000001192092896,0.25125628709793091,0.0625]},"$$$/app/Presets/EssentialSound/ReverbPreset/RoomReverb=Room Reverb":{"type":"array::float","value":[0.057788901031017303,0.44944900274276733,0.49494898319244385,0.89999997615814209,0.10000000149011612,0.15000000596046448,0.081632703542709351,0.40000000596046448,0.5,0.80000001192092896,0.20000000298023224,0.25125628709793091,0.0625]}}}},"model_volume":{"MaxGain":{"type":"float","value":15},"MinGain":{"type":"float","value":-60}}},"Version":1},"Type":"1c19ca71-c24c-49cd-8dd5-2cc46018507a","Version":1}]</property>
    </properties>
  </session>

  <files>
    <file absolutePath="/Users/wupeixian/Dropbox/My Mac (吴佩娴的MacBook Pro)/Desktop/FALL 2021/Hyp/SoundVacationSkeleton/已导入文件/walking-on-pavement.wav" id="0" importerPrivateSettings="Compression:0:0;LargeFileSupport:0:0;SampleType:0:20;" mediaHandler="AmioWav" recoveryID="8e6d2650-c04b-4ee0-8385-39057f7d911e" relativePath="../已导入文件/walking-on-pavement.wav"/>
    <file absolutePath="/Users/wupeixian/Dropbox/My Mac (吴佩娴的MacBook Pro)/Desktop/FALL 2021/Hyp/SoundVacationSkeleton/Conformed Files/hit 48000 1.wav" id="1" importerPrivateSettings="Compression:0:0;LargeFileSupport:0:0;SampleType:0:1;" mediaHandler="AmioWav" recoveryID="d5740246-a236-4e6d-a761-55cf6f49db3e" relativePath="../Conformed Files/hit 48000 1.wav"/>
    <file absolutePath="/Users/wupeixian/Dropbox/My Mac (吴佩娴的MacBook Pro)/Desktop/FALL 2021/Hyp/SoundVacationSkeleton/已导入文件/run.wav" id="2" importerPrivateSettings="Compression:0:0;LargeFileSupport:0:0;SampleType:0:20;" mediaHandler="AmioWav" recoveryID="27da0d58-cc58-488e-b691-bdf6ed69f2f2" relativePath="../已导入文件/run.wav"/>
    <file absolutePath="/Users/wupeixian/Dropbox/My Mac (吴佩娴的MacBook Pro)/Desktop/FALL 2021/Hyp/SoundVacationSkeleton/Conformed Files/counting-from-1-to-20 48000 1.wav" id="3" importerPrivateSettings="Compression:0:0;LargeFileSupport:0:0;SampleType:0:40;" mediaHandler="AmioWav" recoveryID="72511c49-9424-46e8-a3ad-48f11c63446b" relativePath="../Conformed Files/counting-from-1-to-20 48000 1.wav"/>
    <file absolutePath="/Users/wupeixian/Dropbox/My Mac (吴佩娴的MacBook Pro)/Desktop/FALL 2021/Hyp/SoundVacationSkeleton/Conformed Files/breathing 48000 1.wav" id="4" importerPrivateSettings="Compression:0:0;LargeFileSupport:0:0;SampleType:0:1;" mediaHandler="AmioWav" recoveryID="e0fd0395-1a23-4fc7-b746-9874c4e12e8d" relativePath="../Conformed Files/breathing 48000 1.wav"/>
    <file absolutePath="/Users/wupeixian/Dropbox/My Mac (吴佩娴的MacBook Pro)/Desktop/FALL 2021/Hyp/SoundVacationSkeleton/Conformed Files/breathe 48000 1.wav" id="5" importerPrivateSettings="Compression:0:0;LargeFileSupport:0:0;SampleType:0:1;" mediaHandler="AmioWav" recoveryID="511508b5-627c-4a82-be1c-0054ac0fb6cc" relativePath="../Conformed Files/breathe 48000 1.wav"/>
    <file absolutePath="/Users/wupeixian/Dropbox/My Mac (吴佩娴的MacBook Pro)/Desktop/FALL 2021/Hyp/SoundVacationSkeleton/已导入文件/chat.wav" id="6" importerPrivateSettings="Compression:0:0;LargeFileSupport:0:0;SampleType:0:20;" mediaHandler="AmioWav" recoveryID="56f09e40-c5ab-4aed-9210-4d68ffcddb6b" relativePath="../已导入文件/chat.wav"/>
    <file absolutePath="/Users/wupeixian/Dropbox/My Mac (吴佩娴的MacBook Pro)/Desktop/FALL 2021/Hyp/SoundVacationSkeleton/已导入文件/brooklyn-street.wav" id="7" importerPrivateSettings="Compression:0:0;LargeFileSupport:0:0;SampleType:0:40;" mediaHandler="AmioWav" recoveryID="1986b032-ee16-454f-919d-e86a48a1f3a9" relativePath="../已导入文件/brooklyn-street.wav"/>
    <file absolutePath="/Users/wupeixian/Dropbox/My Mac (吴佩娴的MacBook Pro)/Desktop/FALL 2021/Hyp/SoundVacationSkeleton/Conformed Files/restaurant-suzhou-china 48000 1.wav" id="8" importerPrivateSettings="Compression:0:0;LargeFileSupport:0:0;SampleType:0:1;" mediaHandler="AmioWav" recoveryID="75caf7ea-8fca-43be-9cb0-4123f51e6706" relativePath="../Conformed Files/restaurant-suzhou-china 48000 1.wav"/>
    <file absolutePath="/Users/wupeixian/Dropbox/My Mac (吴佩娴的MacBook Pro)/Desktop/FALL 2021/Hyp/SoundVacationSkeleton/Conformed Files/highway 48000 1.wav" id="9" importerPrivateSettings="Compression:0:0;LargeFileSupport:0:0;SampleType:0:40;" mediaHandler="AmioWav" recoveryID="f70f801e-265f-4070-8750-c05639f78f4a" relativePath="../Conformed Files/highway 48000 1.wav"/>
    <file absolutePath="/Users/wupeixian/Dropbox/My Mac (吴佩娴的MacBook Pro)/Desktop/FALL 2021/Hyp/SoundVacationSkeleton/已导入文件/metro.wav" id="10" mediaHandler="ImporterHost" recoveryID="4e0dcedd-6076-40a3-9d5f-f946b7f9954c" relativePath="../已导入文件/metro.wav"/>
    <file absolutePath="/Users/wupeixian/Dropbox/My Mac (吴佩娴的MacBook Pro)/Desktop/FALL 2021/Hyp/SoundVacationSkeleton/Conformed Files/beach-8 48000 1.wav" id="11" importerPrivateSettings="Compression:0:0;LargeFileSupport:0:0;SampleType:0:1;" mediaHandler="AmioWav" recoveryID="04b62e48-894c-4043-b38c-3356bd553f72" relativePath="../Conformed Files/beach-8 48000 1.wav"/>
    <file absolutePath="/Users/wupeixian/Dropbox/My Mac (吴佩娴的MacBook Pro)/Desktop/FALL 2021/Hyp/SoundVacationSkeleton/Conformed Files/running-into-pond 48000 1.wav" id="12" importerPrivateSettings="Compression:0:0;LargeFileSupport:0:0;SampleType:0:20;" mediaHandler="AmioWav" recoveryID="8de7d3e7-fde2-4bac-b60f-01f9f84c5962" relativePath="../Conformed Files/running-into-pond 48000 1.wav"/>
    <file absolutePath="/Users/wupeixian/Dropbox/My Mac (吴佩娴的MacBook Pro)/Desktop/FALL 2021/Hyp/SoundVacationSkeleton/Conformed Files/oven-sound 48000 1.wav" id="13" importerPrivateSettings="Compression:0:0;LargeFileSupport:0:0;SampleType:0:20;" mediaHandler="AmioWav" recoveryID="e52383f7-6f7a-4c0e-b612-a284a576b329" relativePath="../Conformed Files/oven-sound 48000 1.wav"/>
    <file absolutePath="/Users/wupeixian/Dropbox/My Mac (吴佩娴的MacBook Pro)/Desktop/FALL 2021/Hyp/SoundVacationSkeleton/Conformed Files/monster-swallows 48000 1.wav" id="14" importerPrivateSettings="Compression:0:0;LargeFileSupport:0:0;SampleType:0:40;" mediaHandler="AmioWav" recoveryID="6edbd91d-5a6d-4f3b-8e62-ac629e629a3e" relativePath="../Conformed Files/monster-swallows 48000 1.wav"/>
  </files>

  <audioDevice inputID="22222222-2222-2222-2222-22222222" outputID="11111111-1111-1111-1111-11111111">
    <inputPort id="1" name="默认立体声输入"/>
    <inputPort id="2" name="[01M] 系统默认 - MacBook Pro麦克风: MacBook Pro麦克风 1"/>
    <inputPort id="3" name="[01S] 系统默认 - MacBook Pro麦克风: MacBook Pro麦克风 1"/>
    <outputPort id="1" name="默认输出"/>
    <outputPort id="2" name="[01M] 系统默认 - MacBook Pro扬声器: MacBook Pro扬声器 1"/>
    <outputPort id="3" name="[02M] 系统默认 - MacBook Pro扬声器: MacBook Pro扬声器 2"/>
    <outputPort id="4" name="默认立体声输出"/>
    <outputPort id="5" name="[01S] 系统默认 - MacBook Pro扬声器: MacBook Pro扬声器 1"/>
    <outputPort id="6" name="默认环绕声输出"/>
  </audioDevice>

</sesx>
